<mxfile host="app.diagrams.net" modified="2022-11-23T06:17:45.012Z" agent="5.0 (Windows NT 10.0; Win64; x64) AppleWebKit/537.36 (KHTML, like Gecko) Chrome/107.0.0.0 Safari/537.36" version="20.6.0" etag="sGufKVQmqILKX1VtGiDw" type="github">
  <diagram id="6h-XYO-mU-v9TrS_2vrA" name="第 1 页">
    <mxGraphModel dx="539" dy="301" grid="1" gridSize="10" guides="1" tooltips="1" connect="1" arrows="1" fold="1" page="1" pageScale="1" pageWidth="827" pageHeight="1169" math="0" shadow="0">
      <root>
        <mxCell id="0" />
        <mxCell id="1" parent="0" />
        <mxCell id="T8GNhsfau3V3JD3UEyYj-1" value="中介者模式：将系统的网状结构变成以中介者为中心的星型结构，同时对象不再直接与另一个对象联系，它通过中介者与另一个对象发生相互作用。" style="text;html=1;strokeColor=none;fillColor=none;align=center;verticalAlign=middle;whiteSpace=wrap;rounded=0;" vertex="1" parent="1">
          <mxGeometry x="100" y="40" width="210" height="90" as="geometry" />
        </mxCell>
        <mxCell id="T8GNhsfau3V3JD3UEyYj-2" value="中介者模式（调停者）：定义一个对象来封装一系列对象的交互。中介者模式使各对象之间不需要显式地相互引用，从而使其耦合松散，而且可以独立的改变他们之间的交互&lt;span style=&quot;white-space: pre;&quot;&gt;	&lt;/span&gt;" style="text;html=1;strokeColor=none;fillColor=none;align=center;verticalAlign=middle;whiteSpace=wrap;rounded=0;" vertex="1" parent="1">
          <mxGeometry x="420" y="50" width="246" height="70" as="geometry" />
        </mxCell>
        <mxCell id="T8GNhsfau3V3JD3UEyYj-3" value="中介者模式结构" style="text;html=1;strokeColor=none;fillColor=none;align=center;verticalAlign=middle;whiteSpace=wrap;rounded=0;" vertex="1" parent="1">
          <mxGeometry x="80" y="130" width="60" height="30" as="geometry" />
        </mxCell>
        <mxCell id="T8GNhsfau3V3JD3UEyYj-6" style="edgeStyle=orthogonalEdgeStyle;rounded=0;orthogonalLoop=1;jettySize=auto;html=1;entryX=1;entryY=0.5;entryDx=0;entryDy=0;" edge="1" parent="1" source="T8GNhsfau3V3JD3UEyYj-4" target="T8GNhsfau3V3JD3UEyYj-5">
          <mxGeometry relative="1" as="geometry" />
        </mxCell>
        <mxCell id="T8GNhsfau3V3JD3UEyYj-4" value="&lt;p style=&quot;margin:0px;margin-top:4px;text-align:center;&quot;&gt;&lt;b&gt;Colleague&lt;/b&gt;&lt;/p&gt;&lt;hr size=&quot;1&quot;&gt;&lt;p style=&quot;margin:0px;margin-left:4px;&quot;&gt;&lt;br&gt;&lt;/p&gt;&lt;hr size=&quot;1&quot;&gt;&lt;p style=&quot;margin:0px;margin-left:4px;&quot;&gt;&lt;br&gt;&lt;/p&gt;" style="verticalAlign=top;align=left;overflow=fill;fontSize=12;fontFamily=Helvetica;html=1;" vertex="1" parent="1">
          <mxGeometry x="460" y="195" width="160" height="90" as="geometry" />
        </mxCell>
        <mxCell id="T8GNhsfau3V3JD3UEyYj-5" value="&lt;p style=&quot;margin:0px;margin-top:4px;text-align:center;&quot;&gt;&lt;b&gt;Mediator&lt;/b&gt;&lt;/p&gt;&lt;hr size=&quot;1&quot;&gt;&lt;div style=&quot;height:2px;&quot;&gt;&lt;/div&gt;&lt;hr size=&quot;1&quot;&gt;&lt;div style=&quot;height:2px;&quot;&gt;&lt;/div&gt;" style="verticalAlign=top;align=left;overflow=fill;fontSize=12;fontFamily=Helvetica;html=1;" vertex="1" parent="1">
          <mxGeometry x="110" y="210" width="140" height="60" as="geometry" />
        </mxCell>
        <mxCell id="T8GNhsfau3V3JD3UEyYj-7" value="Mediator" style="text;align=center;fontStyle=1;verticalAlign=middle;spacingLeft=3;spacingRight=3;strokeColor=none;rotatable=0;points=[[0,0.5],[1,0.5]];portConstraint=eastwest;" vertex="1" parent="1">
          <mxGeometry x="320" y="210" width="80" height="26" as="geometry" />
        </mxCell>
        <mxCell id="T8GNhsfau3V3JD3UEyYj-15" value="" style="edgeStyle=orthogonalEdgeStyle;rounded=0;orthogonalLoop=1;jettySize=auto;html=1;endArrow=block;endFill=0;" edge="1" parent="1" source="T8GNhsfau3V3JD3UEyYj-14" target="T8GNhsfau3V3JD3UEyYj-5">
          <mxGeometry relative="1" as="geometry" />
        </mxCell>
        <mxCell id="T8GNhsfau3V3JD3UEyYj-21" style="edgeStyle=orthogonalEdgeStyle;rounded=0;orthogonalLoop=1;jettySize=auto;html=1;entryX=0;entryY=0.5;entryDx=0;entryDy=0;endArrow=open;endFill=0;" edge="1" parent="1" source="T8GNhsfau3V3JD3UEyYj-14" target="T8GNhsfau3V3JD3UEyYj-16">
          <mxGeometry relative="1" as="geometry" />
        </mxCell>
        <mxCell id="T8GNhsfau3V3JD3UEyYj-22" style="edgeStyle=orthogonalEdgeStyle;rounded=0;orthogonalLoop=1;jettySize=auto;html=1;entryX=0.25;entryY=1;entryDx=0;entryDy=0;endArrow=open;endFill=0;" edge="1" parent="1" source="T8GNhsfau3V3JD3UEyYj-14" target="T8GNhsfau3V3JD3UEyYj-17">
          <mxGeometry relative="1" as="geometry">
            <Array as="points">
              <mxPoint x="180" y="460" />
              <mxPoint x="650" y="460" />
            </Array>
          </mxGeometry>
        </mxCell>
        <mxCell id="T8GNhsfau3V3JD3UEyYj-14" value="&lt;p style=&quot;margin:0px;margin-top:4px;text-align:center;&quot;&gt;&lt;b&gt;ConcreteMediator&lt;/b&gt;&lt;/p&gt;&lt;hr size=&quot;1&quot;&gt;&lt;div style=&quot;height:2px;&quot;&gt;&lt;/div&gt;&lt;hr size=&quot;1&quot;&gt;&lt;div style=&quot;height:2px;&quot;&gt;&lt;/div&gt;" style="verticalAlign=top;align=left;overflow=fill;fontSize=12;fontFamily=Helvetica;html=1;" vertex="1" parent="1">
          <mxGeometry x="110" y="350" width="140" height="60" as="geometry" />
        </mxCell>
        <mxCell id="T8GNhsfau3V3JD3UEyYj-18" style="edgeStyle=orthogonalEdgeStyle;rounded=0;orthogonalLoop=1;jettySize=auto;html=1;endArrow=block;endFill=0;" edge="1" parent="1" source="T8GNhsfau3V3JD3UEyYj-16" target="T8GNhsfau3V3JD3UEyYj-4">
          <mxGeometry relative="1" as="geometry" />
        </mxCell>
        <mxCell id="T8GNhsfau3V3JD3UEyYj-16" value="&lt;p style=&quot;margin:0px;margin-top:4px;text-align:center;&quot;&gt;&lt;b&gt;ConcreteColleagueA&lt;/b&gt;&lt;/p&gt;&lt;hr size=&quot;1&quot;&gt;&lt;p style=&quot;margin:0px;margin-left:4px;&quot;&gt;&lt;br&gt;&lt;/p&gt;&lt;hr size=&quot;1&quot;&gt;&lt;p style=&quot;margin:0px;margin-left:4px;&quot;&gt;&lt;br&gt;&lt;/p&gt;" style="verticalAlign=top;align=left;overflow=fill;fontSize=12;fontFamily=Helvetica;html=1;" vertex="1" parent="1">
          <mxGeometry x="400" y="335" width="160" height="90" as="geometry" />
        </mxCell>
        <mxCell id="T8GNhsfau3V3JD3UEyYj-20" style="edgeStyle=orthogonalEdgeStyle;rounded=0;orthogonalLoop=1;jettySize=auto;html=1;endArrow=block;endFill=0;entryX=0.75;entryY=1;entryDx=0;entryDy=0;" edge="1" parent="1" source="T8GNhsfau3V3JD3UEyYj-17" target="T8GNhsfau3V3JD3UEyYj-4">
          <mxGeometry relative="1" as="geometry">
            <mxPoint x="570" y="290" as="targetPoint" />
            <Array as="points">
              <mxPoint x="690" y="310" />
              <mxPoint x="580" y="310" />
            </Array>
          </mxGeometry>
        </mxCell>
        <mxCell id="T8GNhsfau3V3JD3UEyYj-17" value="&lt;p style=&quot;margin:0px;margin-top:4px;text-align:center;&quot;&gt;&lt;b&gt;ConcreteColleagueB&lt;/b&gt;&lt;/p&gt;&lt;hr size=&quot;1&quot;&gt;&lt;p style=&quot;margin:0px;margin-left:4px;&quot;&gt;&lt;br&gt;&lt;/p&gt;&lt;hr size=&quot;1&quot;&gt;&lt;p style=&quot;margin:0px;margin-left:4px;&quot;&gt;&lt;br&gt;&lt;/p&gt;" style="verticalAlign=top;align=left;overflow=fill;fontSize=12;fontFamily=Helvetica;html=1;" vertex="1" parent="1">
          <mxGeometry x="610" y="335" width="160" height="90" as="geometry" />
        </mxCell>
        <mxCell id="T8GNhsfau3V3JD3UEyYj-23" value="" style="shape=image;verticalLabelPosition=bottom;labelBackgroundColor=default;verticalAlign=top;aspect=fixed;imageAspect=0;image=data:image/png,iVBORw0KGgoAAAANSUhEUgAAAggAAAF2CAYAAAALPGBPAAAAAXNSR0IArs4c6QAAIABJREFUeF7snXVclE3U9780CCJpYwe2YqBiK7aIit3d3WJ3N3Zio1jYrSh2J2KhKCLSvXW9n90ldmGB1fv2/jzP83r9BzvXzFxnZs75zZlzfqPDqDMCOmR8dDT8M/2/tCkjr1mbcunK1HAowe3ORdFN7tndey9pff4nP+PF6n3Nqu8afrOxtuBSv0pUyqWvrEcQEAs6GKQ0JEhZfPI5Mx+HIxYUnVeW01CXWV5rIgZXRF9THzSIVO1fgsCmKy/5ZmPH3Eq5kn+Ssfd6ACPu/SRKLE1uV5/jQ2vR1kLZyLYb75j6KJS57RwYWtgou1Y0/y6IGHPkNZu/xJEoU3xk1jLV0cHUpgChPQtjouiGwPkXX1j+Job3YgOedymFqfz/gozNtz4y700k32JFCCpycXUqx9Fq5koxysRsvPMFnx9JXPkaTZJKH+Y1Lc/00maK/sgkYpb6BXEnWsSFoCgSpOn6mlz/hGYOLCtu8HuyyOQtWWICZQ6+5pNUQCQIXHKrTGOL5DnzL7T06FMwCz7Ec+ZrNCublWdo7n+3//Iuhv/4Qb174XyMExEvEzA0yclHl2Lk14UkURLzPkuYV8JU4/JXLg0Z055GMKOSNTl04GVQKMMDRRyuXQBbneTfnwRzPSKBexGJqA1P6tirTIIM+kNVkJmvs7QO/kIZ1TWrjX7TpkwmeiCDfvvdurTSk78oM23qVHxXuk7/yW/4L9tLPw81fleKTP/hXFWr+zfnqoauZGWDMqwNTXNUtV+/OM46jD6T0UL84UllaJkL9ypWpKpEDYNmlc+aQZWsUr8/8HMIR97HIRIlG04NSvr2g8/4xCf/oKHO3NbmXBlQhXI50xR9UHAYO4MEplW3QS+lTpmExadeMOdRBIly6WQyqcxyW/N9QHkMU8CFSp/0dHXRTX5PEAQkGgxxQGgsZfImG03gsX8QK1/FcPVLFIkyHQrm0AMdPZZ3rkwTc2VlRx58Zv2rcNpUKoiTrSFGerrksTQlv6Hy988R8YSLZXIbjp6BHuWtTBTdF6QSXoQlIUVAEKTcDowlRixBlonRVROvfD7omjKutg0pkORdSCR+oUl8i07CvkQ+XHMbEBIWze1wMf7fwpj5LJw8ljl55lZa0b6RgR7GeqkCIV4iQyoTUIhFkFBl3zO+ykx43qs8pYyV5eRyS5CXE0CmIj9ZUhwtvN7yUCJDIugwoVmVfx0gCCIR/a5/5nZkAm+jkrioAhASRGI+xUmQKfGlYn4YGhpQyjQNdAZGJRIn73eqIHUoaWGMUbIIHgV+Z+GHeE4HRf0xgBAdGcHIV9Gc+x7DjyQpDYvn53INW8V4fI+IZOEXMaWMdOhd0oacunJ8J+F6cCwRMhQyFxC4HCplhYONAgC+Cwln/jcJyyrnTgMIT4O5Hp4OIPyuotRGeWtT5lfBgUalqqGhP2k0tda56SxIVvLQuk4tvlWrunQy6kptZKZNGW3Bmcax18bwa1NGpXJt5mGWZX6xriwNv5Z9/0VwoGwyPUDIbiKEB4Ge/m95BRRTWwcsChfidpfCqcpSg63/jX8JHD35nOkf4khMb/SAnKamXB5QARv9NGseHxvLylvB3P4RT1PHkowqlSMVC8iNk/eNt7g/SfEkqHQpBRzq6FDQ3Iiq+czQ11VHCb1qFaW8mfJ/QV++4/E2HqnCmijXUMViuelWNGcqcI/4GcbyZ1E8CY0jIDyB9jVKsbiqRaZyuPP0E/PfxmKir0u72qXpklvZ1qFHXzgTHE+iRMDc3JTNDe0UXhghKZaJviEExYsVRqt11WL0KfibHohsRudbcCgD7oYi0jPkQpsSqV6gTF8TJIy/Hoh+blsWl00DTJmVF0SJTL31Fb/IRILiJAysV5aphZRwUz5uaUb5N6ZR8iuCRMLiJyHcDY/ndWQSni3KUNtcCQCCw6JY8z6awFhRqlejUMHcrCmj7Lvc0O5+GsKdBAnf4yXKGnX18ahbmALJqPjF11A2fE7g6vcYptctRXcb5Q9iiZgPccp35HXJMt3fa/62PKZGWCa7tGKjo5n3PoZrP+IJTZIysVoRhuY3VniA7n/+wcGfEm6Gy7jYyA5zXZAmJbLYPwL/eAlfEpSeOqmuCWfq5cNMBwJ/RrI+RMrUstZYJXsQlr8O5W5kIk+j5OAzPZjOYheVvvv/WOFqUJKa6tQkT20MlDZlMnx/5psL9c/XwkCr1f2bBkFT/9LL43e/U1F3upf/SV1a9UvDGkhpM7XtLGSVKg9tymgUXloHtGlPTR5ZrA1NdWW3XrIDIyljk5gIJUqRuntVrVeD7c8eIKg2LDdwmzrTvIETBgb/vkv099X53zf/SuCvBP5K4K8E/krgrwQyk4BMJuPs2bPIXn0B43Sbw0wcA+oAITsEKAcIm7sQ+OY5lpaWf0firwT+SuCvBP5K4K8E/krgf4EEkpKSKFCgAKJXgaCfboOfie1PAwjZgYMUAWzq/McBQnSiCHNjQxWRC3z/+Im8RYtmPQyJ3xHr58Hgt6IGAcln7nwwpmap3KntyGJ/4HU9kC6tqv/6FJDFExQspmCBlCDEX6/if9cbUk6dukxdZ2dyGUmJiEjA0jLnf/YJ8f7XeSyUwck+bfz+s8b/cEP+d87yLL4gHRtV0NhSZGgopra2aXE9QGzQe0wLFNcYI/xvd1cS8oqHYRY4ls2ftnZi7nPnezFql7TWurlv/ncIMihNjWK/sAGRxRAdb4i52T87Mkv6/par38xo7pD2DVp3/B8XTOLa2SvUbtECVc2nTbWy8NccvBSES3tnzH4jjlb8/QWXPxrTvFYJbZpLLRPyM5Y8NsqAYvkTFxWFaa5f1XVSrp49R8WGrbCWn35l+wi8O7+PPA27ktMwNWpMcWz24eFtilWtnW0N/6RA/JsrhOatR2GVgGX/B37krlgbS4NEju04T+s+LhikxFupWjFxEk9DJFQuaKryXxl+Z45h5+SCXa4/65XPFCBkYfuVAEEbcCAvk3zE8Gc9CFLa1W/CsC3eOJe2ShakFM9BlQjpe5kJtfIgk0jR01edHMpiMRen4rIvJ94bp2BlkhwTIIjYPLghAY4rWdbfMcsT3S9HR1NveQw3z2+hQHIgozT8LfUc3dj96DElcmZsM+NkEzNzyixch03CwU6XJUMGMWzDQTJ/VSD8w1PefE+Jrsxs+orYtP8mixdNIn9OpQoRx4Xz4OkbeTxito8Q94HJ0zYzdcdhWlXIm2359AW+3fVk0RVDFk/qgqmKGMTRwQyae4gl80eS2ziJljWaMfHIWRoWMsH/5hFmrb3EqGWrqV1YdVH8cvNavbBzZFOO6Lbl4PJh5DRIORsT+Pr8KbblKmsMJtWq4v+qkEzM9y+f+PDpEx/eBfDi+RO+RUgwlOsNPWNsCtgzdPRwCufKOA+nudZE2nYpS/rWS+1tfPBj2nSfj8eRvdhbmfzRrxC/P4HzyAscO7Eey2TZSyNPULLTHZ6eXkhOXRkyPb1s41FenV9Jt7WhPDi9CG1t3edzC2g1/w3Hz+yiuLk2a1SDKIQEVg1tw8HvlfE9tpzkmN8/KjPVyiNf+eDYZDzTzt6nd2pWk7bNy7jvtZgh2z/ge34bObR9LaWcIMF7+QiO/HRg35JB2Y6R8rUkmjjUZczuU7SuoATkAb57cD8SxsE1Y7Kt40tILHZ5zED0kdHD1zB0/nzs5X/L424inhNqZE+eHBkNpiCKoV254rTd9ZA+TnboSKWKeSVEf8CtYQdGHrlFo6JKCSSIpZgYZDUfBG7ffUx1R4cMc22vpw8uXVpjnm4ihF+aTo+rjhyf1yZVnxxy70JAraVMb2nFuKqlaHv0NfULCiTKzDE2SotNk8WGULSoE/sfP8UpFSRIWdW/KZEt1zGnQ9lfHblfKq8RIGRj+3UYc1ZDFkO6dlMq+UMAQRT3k+u3HqUauoUTp9PFfS7FLFKEK8NvywTosZzaJomsmbOEVtO3MKyl6m5KxonRVfnY0YcxdQoiigwh1ig3FuIPtG3Qi013b6UGiGmUqkzMCKfiVFjqy+C6diwf1588rtPpXlGgWZ1enHnhp7Y7y2xkxJ9PU7PjFtYd2E7tYtZc2zoNo/YLqGWtIdUhuRJR1GcevovA0tQ4i91eIi6dF3HJby92OZJVpzSBJ3cfY2BpjTL2UsbI3jOYtG0BdgYyDi6YQOmJK6misiUxyJmbovktk9MNRdw7dYivWGJiqM/L44t5WaALnaoXUfZMEsE696UMWrIInYR45MkRDvWbUdQmzdgH39tCLffPvDo3jxzSF9Rr68Gx05tQfq6M1+fXUm/gfl698cM2pd+/NK01F44LecOOQ9exzWuFvq4OQmII8xdtp8uIsZS01iUyTheLnAbIJHEc2LqLeqNWM6ptpbRMleRqZeJo7vre4uO3cIxzWWNfwYH8BrFE5SqCWZg/X6NS0mp10NHVxcTUnAIFC2CSmhcLscEBfAhNUNRonrsQRfJqDi6Vxf3k5ftvinlukMOKMiUKKt4Rhb7j/uuvxCUkoKNvhIleIltmT8Ky/RJWj2qZbZiiOOgirSdeZc/2eeSWZ76kKn4pnv2qYzX9Eq2LWxH08Ayv9KrQtHK+f2EEQBLziWu33yqCQqVhj1iw8w3TJ3RLNQ6yhCcM3RbOxpENuea5nOASvdg0q2dyqqzmLry5tJb+e/S5tXuYln2UMLxZTUqN8mR0q4wKVhb9iS9JNhS2TdvpZqxY4PSa0Wx9XYBFQ2vgczuGCUNcsjVyWnZQi2Iilg9qyfsSfSktDmaI+wSy2kxHvjvO3jcmlFI1XrJYzh49Q1O3Tmpz/ObRgzgOW0iriuqbAmnkO6IMC2OVbISTgh/QZ+we9hxck2wspVy7/4G61UqiYTNM4uudNFkQwXnPcZim7sV+MqhuLbpdCKCh3JGQGMLVZxE0qGGvPocFGQOrOVB26ETsTOIITTTDNleakvp4cg6+xRbiPasNqTg/WYqfr6+h3dLX9G5Zk3x5zPj2zBdR2U7UEl9gyQ0pLpUKYpnXBlnsF07fj2bBomkUNDcg9MNjHr8LTR2L+4c9MGoxna/7FlKy5yCKGSVyzGM5rUfMwAAZU6dsYt8VL8paqY9ExI15uAf1Y0M3W854HyNO0OP+0c3EOfSnYWEph2ePx3nqasKfnOVr7lYsHN8pdUMli/tBuSINuP3lJRbJmVpyHbl+iCsWo47Qo+yv+o60mFoqRTIABC0cAxkBQlaRp38IICBN5MmjN9gUyKtwzQxo25kx2/dT3iZF2ck4O6stsonHaWWm/J+OvjG21rmQJYRzzOs4OmZmbJ44gfZzV5DXzIA3t3yILdWJAeV/MPpkTk4sck0WlQS/e/5Uq15ObZeQ+MOPqj1Ocvv0Isz1wunYvA+zjpygrPCRlnV64vNcCRASEkSYmGQ+kPJdbIDjXBb2qKloL+ztJXqsCeKsR59fG83k0uLEGAyM5W76WMrVmsSNmxuwVvOsJXL92FXsHMqgi5QhXacyzXMphQxk7J09ijJT11PVUMq5HbtpMGoq9raZ7yQvzGvC5TJLWeLmoGw96SsdKzdj1+sXaNz/yxJY16s+ehOuMqyyKSL/vbRbHY3PxmFpylUm4sCc2bhMc+fV+zCqli30BxSvhCXdG0OntUxqWwkdIZ4jm7ZRu9cI8qdor/TSF8Q8PrebGetO4zZ4NA0cSpIQ+pGDW1ax+9Qbll5+TOvcEdw7Opt24/bRbOAU2tUoQdCz6+zzuYNzv2nMG91B4Q4WxYRy5+gyuozehKXTAG77rFRkBaR/zq/oR+c53jQeuoL1EzuRz8Y8QxlpQjjbF08lwLoFC0a5Kt3NshjuvgilWsViGQCO3LW6sE8H6s7aQd2CMu7eesjjJy8xyGWJrjSa83e/0bROGQVXx5eA5yRYVMJ9fA/+DX+CIIh59PwdeW0t0Qm9Tv+5D9jhMSF1fKVxt2gw+xvXl3VM/p8uFja2GCXPX3HgdR7H5Ce3WdpO8dPtvUw+qsehZV3TZCONZL+3H32HDCSfufqu8tuNFXRb5k8Ptzoad/1B17dw3WIAPsv7ZOIVkHB+8wz2vc3DxAEtKFayFD/uHWThoTcMHTmcyiVy/4H5qj7sb8+uYODmII4cXoXM/yyzT8Szwb2DZmAoTWDnyFaYT9xHnRy6IItmz95TNHF1I5+5ul6ShL9gyMQNtB06lX6tqql9h+zbXqoPvsuojtU1tyOEMXP2QY76XcEhX7rVL8jY0L0quaecQLjvQ7iQAxOFu1/gZ6A/NoXtFR8ojvzC088yhk+eSGlbVUMrY0TlYnQ88oD6JWzSrQGBa9Mdud7Qm1mN7dR+Swx/x+Rp21i0cTHP1/QnoOYsOpaU8vxtIG+CBLp3bMjna2vY+MmR+b1rqvHTJER9x/9bLDnFN+mzz4rD4xzR0TVi+YgxdN66g2pmsczq0pIpXjcxQUqDRmM5dHEtedI5ICJvzmfa576MyXcfnQpNKWmTg0PTexHjuoUBDlKm1rFn2IX32JlltBGyuFAqFauPb+BLcunE8CU4HBkC+2cPJ2evtbQppg+Snxzy/cmIHk0xVdmE/JbxSPeSGkAw0GDD0tt+HR3UAUJ2aSl/CiCk+5D2tRvQd/VWyqkAhPMLumC57C5drDS7jJIiX2Pfdj9Xdg8if8ECGMm31IKIHZN78cG2JslZZMhiA9i4y48lh0/TvkryWaMgxmtkXc6VWczmoQ3g80k6TPZl/oze6MR9ZVTvqaw+4omeLJwpUzYzd8smHApmPFuXhD+kYdetHDy2kQJyZhmFco9jVe+mFJ99Dpfi6d8RCAt8xacIqbK/6R9JDLsWzaBgHw/GtCigGSDIYpjauCK1pmxBvnmcN3kNgxaOIY+ewJnNSyjebwql9cWs6D+QxfffUilP5g7IXwUIP16foqHrAiZPH6ZQMlFPvTkXW5HOTiUzfErSt/scuBDMgh1bqVk48/TNX10I8pTCqx5D2B3Vii3u7VJTZ6O/PGTkzANMmetOGbuM59mvL6yn6eCdnH5yn4q5VGWfxOqh7THqdZihtXKQFHYBuxJurLrhT/cKyp23786JtB67l3Fej5jVNHk3nvSIhjU78/JTPLOP3WNYgwLqnyL5SfeWzly895lJBx8zoXmhdJ8q4/vHp2z32Ekpt3F0rKn04kjiQlk9pieH35qxds92HAupnPEKMt5fXMEpmQujmpfmudccuqx6iffZg5SxEHi4fRhjz5vivXMJtqZ/9nxTHHSWdhNucWTPrFQQI425ROWJ33i5vb8GYAOiV+touFzEnG6VUmUR/OwMKy7psnxc8zT5SAJwX3yHo2d2pa0r+a/SaNwaujHD6xiV8qYZMUEmRUdXqSfurnbjTIlZzGmdMXZDlhjO3lUzeWHizNzRbfl5fz9DPfzZs202+l9v0rXHWHSLO9G9a3vKFyuIXaGi5DTO3BP4q3NXXj4h5DEdu85g8vb91MhvhJGRPn5bx7AjtjlrRrbANJ1eiPh0iw5DN3HijCc5dXR46eWOy4KHLF27gCrJ8zwh7BWRuesQd34v5bsOJn9ODWMfc5zyQwJ5sm+05qMc8SfK15nHFb/t5E6ncqVxHynvvJLb19dhkem0Enj37itFihfUQCQnMKZKUWg9iCLW6fWRwOfLG8g15oo6QBCSuO69jwJ13CiR1xzJZx/W3LVjvFtxRrVrS9NlZ2ld0ghpYgQuXdfjdWQ6oUEh2BXOqzb3Yr960WqzDdfmNlLorKlduuEwbipljOPZNGU4fZfuwggZA4Zu4cS19ckAQcKNQx48CJYpwOO9HK2pnTuOXPbO1C9hTHxcLPmLl0QfKYHvQiiYR04gV4qm1YorU8xlUiRSGbL4n1Qv1ZgrAXe4cfk60dGR2ObJzZVti8npOpU6eXVBdJ9hayK4d3IxFirHE78zt9K/kwoQXn/WEKSooYVsAUKG1AcBNv75IMV2terTc5kH9lZpRwzXVvQh16K7dE8/W5O/K/DYBFbpjKP0kTa8qr+adQPrEv32CovOSBlS7RvPjOvRqmpRLq8Yil7b+TRSCZyK/faYGq6DMK42gXsenbm3eSQv7McyqEExZNEfaOPUg+PJHoRMB0oQM8+tNpXnn6FNGVtFvIagEDDE/3hEBceRnL9/kRI26gtCzlano6ON0snEgyCLZXZLB0b5vMHKQIZrvX4sv+hJCSMp64Z2ouIKb+obJdK9ZBkWPwrALgs2wOwAgjQpFqleDgxTlVZKIKLSfbtraD0SOm9naIOMAOGfTvDonz/JYSU/SklDsTJJAld3zGTPvWAqNepBjcJpAOye9yoeGNUj9IwHxd0mMK5XK2xtbLAwNUQW+472VWsQ2dyDa2tUdqrJnYx6fZ7tH8szrmUBRBFXsCvejpXX36QChPBnJ7Gv04MyI/ZzfWFr5Vui53SbcBKjp9t4Yd2V20cXqineD97u7HkrY9fSLYz0eso4Z+XxQsrzbM8Ymkw8Ta26DhgKUnQNc6An/onf0+/M2nqY3vWVykb1iXp3glItN9C3QxVkkliu+QWx+eghquQxIuLjbfosf86x9YOIfHQU3/jSODvak0MtsOufjkra+3KA0NhtNc6t66ZxiYi/sOtzDd7u1AwQJB+20HKHHefmt0j9Nv/L6+nnqat+xJDgR7PePvh4LUoL4BOknJnTgVeyfJhVbEuFfGljf//wckoM30Prkmb4LnXheqVFTG9WLrWz8jX3M+g5syYuo/fSTTgWSjl+ELFygAtFpvvQzk4GukY8PLWZKQs2UKHbfBaNbEOqZ/gXRBcfFYGuqQXG6YKnxXEhDG7fA7dV+2hZ1pL5/dtQYtA2ulTPze6RzfD4VoXda90pVdBao5tfHB1AG9dJ1HJrj0tdB4z0dJDEhzB3QF9Mmk5m88KhZHqqF3eK8oPf82RvFgCh1lwu392Rbhct5daSdrRa/pFbr+9SzkaXAx4r8P8pRU9lbSKL4rTPdcZsOEqXGuqeALmnYaxDUVrs9qVO8fQBrDJuzm3IbeejGTwIorC3tO67mrrV1Y/IggICyFW8pILsK/WRRrBzmw/LT92gvcqRWgpAuDStOhiYMatHP9pv3q6dB0FIYrVrUZ53uM32XoUVTa3o54Jxp/k0LJQWMRN6bh6HrUaxrk8txVqI/nyX8dO3k7ewDXs89tBz9GCFF6166940q5yfNYPak3fSETqXMECI8cZxSiK3PbprBNW/MO0yFM0UIGThGEjzIGhwL2TszH8BEKS41GzCDO/zOORNO2I4MqYO8ZP96FtQgwdBGs2kxlUYfu4tV0bUJM8YH1qUs+HsiVM0d3XlxZ7htF5rzId7K3j5NYZKart/MV6z+lClW30GeBbh6gJnps3ahPvsoeTUkXvwtAEIAgFeY9ilP4z57ZXMgeEPvFnzMj+zeysnSZjvYsp1P8qxmxeoaWehFmsgJMUwfYMvM0Y0TUPbiZ9ZON+LSYumJCulzABCDNMaV6REv3nIAefG5XvpNK4n1roCNw9vx67DAArrSNg5ZTpbnr2nmFWaa0kmlSiZDJOfSwuacaXMYha2r5Js9L7SxaEl2188xRQZE1o58M1pFgdmdtQ4eTvVqMyoAzepVUTVgS3j1sED1OjcU01BKlC1TDPLd/p5Jw66RPmaPei29gLzOimPP8QxwSydPImG7tuoHLCAIS/c8BxRMfXVpOhIwgzNyWcoZceUjqx5UQjvPYspaZ0D/wtrqNFxAe4nPzCpflZn02gECI+859JowBbmn3/NiBrJhkkOECZdYpTjT5oPP8iGmy/pVjbFrSrQ17kn4+e2pk3L4RoBArJw/L9IKV3YFml8KKsmDuFjqX6sH92K8B9h5LK2RF8vHUSQinnyOZHKRUyZ0sGFJkv20KSkJUlh75g4aRert85VyENuEB96TqTXxs94+eynYp5/Fu2vSUnJAUL7CX4cPzgvzYMQdZ5y44Iy9SBIArfTcmv+3wIIPx95siG0Ef2ilrFW2oulXasmd0vC+sGNqb32Og5GcHmuMw9rr2NSE6XbGyGBY2uXYtFyLA1LmuN3+igfI5XxI2mPwIujS0nquJ8VXcpncMHL5SnfEWrkYUpXk/THfRrWb0/J/hvYNaVd6jvSxCDaNB/LKm9PSlvL14uEuV0aUXz2JbrbK9fopZX96D7vGEXrdGDypLG0q5sGchDEDGzSlhH7DlM66R5Lj0XiPqwBi3u2RNrnADNbJMcRZWZR5ABh0Dse7h6h2RBJAqnoOIcrDz3JqxItmvDTH6d+XkS+/8aj5xtJDRPT0I6ctExHU359MkAw7jiWoopvV3+CLq5Cb/AFZjVRBRZJ7BjVkjvVt7KlmyWxYlONAYhf/M5Q0KkNnw+P57LtUAY2UmZm/Ai4w4W77xHFPmPdrZyUee+JZa/NmF7bTactGo4Y6o3k0NUNauBIFhtM1SL25KxRh7YD5zPWtQrrh7Tlaxk3Ktqmrc2YR3sJbbqGGc1KqX2Y/IihSrH6XA9UjUGQsryfK8VnH6NdIf3/GQBBZcyUAEEbcCAvIz9i+OMeBAmtajel4xR3cgX7svGqmCmDGvHAczr286/jUjDj2Unwwz1UabuW0SPceHN2G0bVu5H48gKxFQZyZGk/Hq7ryaQLppw/von0G6ighz6ciK1K7/ynaLWrCBf6JvJccKJasodBE0CQE07oqjAnfru7hwXPS7C2f61UpL9pRAtO6Lbh+OphCsMtR80Pdo3GZZIX9s6D2b9jDnmT9bSQFEkDO3s2PXxOvmR3oCz6Ob26rWL/dW/MFVFCmQOEtROX0HuuuyKqds+EzrwtN4S5fRumDasg4cL5F7RoWxNDFZQfG/mdRKlhquG5sLAtD6rMZ1qLZHds0jf61HPD464fpgjIpDIEHT1yWeRS28krVoHoGRXrzKOTiyOVajko72aQe4ETwunfcwjLrr2hc8W088bEmAjCRQImurrZpuHJFbJzBXX9AAAgAElEQVScallHzwiLXGaEf3jE8xgrapWzw9hAj/hrM2m4/Ct17dOOEpLiopDmKsnqxZMwREB+tUVK6tH51QPoOOcaO569wc0u61h5VQ9C15LGnNi+hFmbbzB86SYGNq+YtqtPBgi7l3Sgh2NVAkuN5o7XdKVo/D2ZcKkIyxp+x95pqGaAoBBWDPsWT+F8TFmWuvclb06lt0kc/5NxnV2Q1RnDskmdFPciqD5bh7fGZsAmXKsUREeIZmqbaux6JiaHkQmunbrx9dxeGs7Yju7tlfjZ9mfnhJaZmY3f/r/Cg9BxHS1d66t5ELa+r5K5B+HTNlpuK/DLACHq6zMO++egf6MS/Dg6nhVJ3dQAwrrBjai19gbVjODklDoEttzJyHqavVqSRDnzqo7a7jc+9DnVnYZx6cl1ilpnvKtCkhjL99gkTPXkczdrmJA6d3UNyGVhjp4g4tq+Nby3bUq3xhVUgl0lzO/mTNGZ51MBglxnRH66z66rP+jf2ZmcOZQKQyaKYfKwuYxZPo8CFkoQGnTnAM27zqHr+tO4tyqe/TiGHabqmK9cWNdHM0AQf8bRaS6XXxwhVeUKiRyYPYHmk+ZRw3Ea959txEKIJygoVMmiqfoIsYzsO5WZe/dTrUB6EC4wsnJR3LKIQbhcx5t5zVUAgiAh+MMnLIuUwJiPVGy7hmVjXdSDGGUxrBk0ljmPArA3EGFoapK6PgWpmNgEEUkhx2m/w4Zz0+uhq6uPe9e2ULU+ufXF3Dy6l1rt+yrksWv3Ky4/201+FfUQ8uIAPVaep2STueQ+3B6dXtuwPDePPEN34FI6zS59PjCMg/mmMKtFaS0AgphZXdpQd9M5mliQChDWuBagXKMG/G5SjqYJkMGDkF1IgYIIdGy6LIasqJb/E4AgEJcoxtTYkK83d9J/VwLntg1DIhajn8zeeGjeAH44jGZkK6UhE2RiPn8JJ0+eXBwYVQ/rIYdpWjYP6OhibKSPz3RXHhRwYFi/6eQxUhlxWTTXLj2lXtO6xAdsUQAErw6xrPN+hImZnD5ZB0EUycFtR+g8bIBiskV+fMDdH/nZvnMFRXPpExb4iKsfDWnfoHzqZIx+dYzWY06w7/h27FSjypHx9lUAdiVLqkXBC6IonO3s2f3uMwWSAYIQ/YT2bRdx6OqhZLdqJgBBdSaIv9Co/kAWHjxMzULp4x3EzOvjgm331QxxVp+4KVVs7euItN8+htRNzofOLkhRpe2X23qxXjaElc0SOPzMml5tKiuyGG5t6M+ML25cXNhKo5s0e02WfQk5QEjvQUASy54ls6k7fjlF0oWE+yzpSfcld9j14jXtVTWAhqZSAMLItXswf7CVmXtfssrHl7610sUYJAMEz9Vj8ds+Ftfp5zn89DmNc+uyoE1dWm4+T7nI05TWCBDETO7TDp/7QZSqWIl8FkbExcbxM1KgSZNaWFpaYW4ksHPFXHI2n8eBuZ2V4EsUxdz+bQkv3YEKllKCw+IpWNqBZvXKopcYTZMGPXn84RGbutWg/Nxz1C+kS2iCEXmtfjkRLttBUMQgjPfl0O6ZKjEIl6k65XvmMQj+G3Ca/pmBzsVS6w97f5u9d3QZ3d0xrU3hK1vPxHPrxLIMHAGhxycy6UUZ+tZLyeGXcXr9VFx336aWCXgOroGkrxf9kmM6sv0QaQzL+rTEauwx+jukD6DL9u1sC0iSYokSG2CdgbNBwoLuzhSZoQoQNFcnjglFZGJLytUfr6/sZu62O/QfO5AnB1fjG12ICWOG41QuX6YBlol+C+l2xRHv6Y0zCVIU8SNShK2lWervkd8D+KpTgDKWIko7TFUCBF0Jn9+9R6ybttFQ7XUOi9zY5krnJRBkDKpcFOsu4zR6EL5cXElM57OsdsuE90b6jfKddnLviLs6WJb8pG+5Bni8ek4OTakX8m2WWgyCjG2rN9C43wDy6cewoJcr4/deVmSQnLnxitbODmmBrUISuyd1p2brKqz+2ofl1R/iG1OZF+sH8cqmHiVyiYkX65PTRJ+Ylz7IOmxhYVv1rJpUD8JrHzw8DmJhY4OBnoRjOzZTsl4jypcoC0IsH0Ik6Mb+oGTD7vRpUUUrT1W2E08ec55ClCSPQdDEhKyRajk7gJCeavkPeBBCAu7x+GsiFirkSA+PrsL70U/iJLY4d+xG66pp5DcJ8XEIhpY41qyCabpzPc8hNYlvMIUcCREUrFCPRg62uLs2ot2GJfh+dWCso2YClthkgHB1fgMSk3TJYawEEnIPQmunHpzILgYhZYSEOEZ16ky9qVtxc8iHOD4agxwZo9XVwLYoiqZ29uz6JYAg8PGZLx+j9MiRnOt7fvVoQquPpoeTUuEKSaEsGj+Ddss2UcZERlxcPDrGNtSqWRkTDSc1fWs6MOjADWoVTUb8WgIEQZaEa9VGLLpwibK2RuxdOpsS3adSWnSX5p1Wcub2Say1TWrXZqanKyMHCF3P2jO1XZqhkd8sGRefgHnBilQvaUh4kglWydknD7xm0HjgFqadeMvkBlkTu6h6ELqV0GGoS2Muxlbk8uX9FFHdyqsABCHsJS2q1SWh0WJ8V1enxYw3+KzqCq+9MgEI4Ou1jVDzkuTOaUKZcmXJkfSZyo3m8ObFoVQPy/cHh9j7pgATetRRjq80gekujTBsPY52jWtQuphdarBr0g9/ytaewJu3PmzsWl0BEBqV1kBYFB/EqatvqNuoIbk0TYpMxkMeHBodE5f6q+z7FXrMuMverVNVshhuUGvaV+6s6Ur4yzMMmbaXiZs8aWqv7EfSm0OcjHLCzbFgqhLUGIOQ5I+nz3e6u9XPsNv9eXwSM4PqMbFVivtdxu2ju3AcNQ/5BZ+zm5anxqrLNC5hgZFRxqMVv5OnsKvphHlyQJgsKQa/289xqu/IvtVb6DJ5AtYmf3DypkpQe4CQ8sqrmyfYdfwmxR2d6dSqEZY59BWbpYDHvriPded1VCI2trkpUbk+U6ZMoIRNyi5X4MacBtxvtIfxddMHy2a/AGWiSBWAABd2ruWrWSGs0nEGnDuwj/azPXC2t01XqcCze4+xKW5PfmsT/LxWsPd5ThbMGoylPkQEvkEvb6nUMcnQIyGEss7uzBraQj3AUohjx+RFHHr7CjNtAII4EbGuMQr1KYtWyWKA94HhFCucdllg+LubrL9rxqjCp5gS2JdN3ZUbhItHDmHftCOR1+awOMiVfcOqEP7kPN/y1KRs7pzoqhwLqh8xSAkJS8CWt7h2W8mCmS0IL9mV+pnE2MnbEoW/57RfIC2bN8ToN8gAswQImVItqwKE7C5q+k88CBD9/gq9xu9nRO+qLD+VyKiqseR2HU+1/Bp2PoKIgCcPefLsKb53nxP85CwVB65nRGdnLHMYEBPoR/MeW7h2aQ1NO6/jlPd0NaKflMmXChAWNFVPB4p6r5bmmN3yubR6CH7WPZjes46inp8BN1l/IojpE7pkSvwiJEXR2K4UvVZ7YJ4SJZ0UxNoNNzjveyT5BsWsPQiibzdoMeYiXp5zsFbUIXB3/2wmXcjJtV0Tskeh8S+o3eUAp48uUCxSpQbPJs1RaaYIPDebRUEt8BhQU6HAE4MfMnLqRvQjA2ky/xAdyqcQXmUnPe1+FxLDuHD2CjEyPcXxiNj/GDuDqtO/fl4EHd10Z/Uy/PYt43JcZbz2raS4pQkJX25Ru0YrzNosxXfLIA2NSggNkUcY22SIQQh7fZYWLXpi2WIWZzeOzHDEIPcg6CNwcW1fuiy5zcKuBSgx6gSNC+VE9CpzgCDvRELwA9q1GUTbpYfpVy6Jio3m8Or2InZsPYBFpRa0aeiAcTY8QIJEjFjHgNhP16g+4Bpvr8zGo0tmAEHK9l6VGHv8M2N2+zK3XVo2QXYjIRPFcfTgUYxtbTFMVoLB799gUKA0NvJIPkHCy8cfKVOlpNq9MGY2RajtoH42q9qW/6V1yiBFz+HZdUHxuxwgLE3orHLEIHetJHH/2hk8t27mrL8Jl64d5sHp47Tq5pYhvXNLn+p8qDqaRqXTsW9KRQzpO579Dx5Ss2DWcSpadTTbQtoABIFPz/wI+PKD0Mh4TCUv8bxrTvcm6eQpTWTWyFmsO3uYuICnFHFqT7kCaR5FQRJPxwo1WHTrASXT5fln203FEYc6QDg8vSsBDlPp75RH7fV+bXqz5LQP5W1VUh0EKZe3e1G3f1cWtGtC3uHrGNogD5PbN4beR1jiVhyRSEL0i5P4xZelVR17DUcgIZR328a9w+k8CIKY96/e8E6ah6YVc2vUebGB+6nnHkA/p3wUKlaSuOB3iPTNMDGUcGrjMloMnY6eNIpjZ54wdcliKubPCbIErp++QK02bYm7MZcpn/uxoNpnrj3/ip6+gQLA+1/azovcXehQUZlNE3T3CBfCyrFt9SRym0BY8BfevnxEr66j6TFxAqVKFKeKYx3ifVex+EUZ9oxzoO/4I+zdNU2z10eIZ3GbMiy8EcEy33cMrvTrbLGpAOGNpiyGdOcNqXdJpQCE7MBBytBv6PRHqZbl6Wmjxq1m0LK12H0+yoDdCZxa04FJg8ZRe9g02tUur37+LYg4OKM71w2cmTiyFzem1MV2lA+tyudVKCnvJYN5VcGdGa0Kc2hoHUS9vehZM31ULWQFEJo79eS0FkRJoc8OM/2kmFXTuiFPUVY+Ak+PzMb9th2Hl/RT3L6Y/hGSounZbhBrvfdhlbyLExK+sP/wc7r0apm8QLICCAJvrxzk1OOvyAQd9PX1IekH+w9cZfmJ89RTie7XqAAEKQfGtkLcdTu9HFVc50lBuFVqzu43mfAgyMFA2Bvad1rMgbM7yJV877Uo+htzhnblwte8bN7ugUPxf9tVKxAa/BWLvAVTzyCjPlyk4+D1jFi8DpfKNrx6HkDeUuWw0hjGLePc2qH0XHSFdScv07l6IRVlIuXp1RNEFmxC/ZLmJIVfwK54R5Zfe02vSsq0WDnwchm1jeHbLjDTNdmNmPSEjuMuccBjggIIxn9/So2K9Ygs0Z93visVhj3p+UFK1RvGiAOPmdhcGQWd8iSFf2TC0JHkaTGGSX2aIIS8UgAEhQdBiGHp8K6c/pqPOYvn0qCsMopbJo4l8ONnvn0N4mPgF+QXMJrbFqRBU2c+HRmLh3gQnv3LsbZzCkCw4NLpCzRp1SJ1br4/u4JeY1fhtv4KY5toPnrSxmhEf31I73bdsWo/n+1T3BTz/uu9g8zf/YgOfQdT36EE2qR1K4iSdulwa+9IbZrVDBCS3wx/dIqIwk0obm3MtoWraD5pLAXTOQN2DqqJTr+D9El3BCGIEyhbvCGXX/qRXy08Xqtu/UYhbQCCerWi1zsY4F0Qz+lN1X6Qsw3WKdaYY/53yK2BB+Tns7102WfG2cWuGYiItOl4eoDgPacHQU6LGd1EPTOnXS0XFp45ThnLNJ2XFBFAbZc9+N2Yy4o2NSg73wfXynkIDnhMQp7KFMuZyLQR+5i7vjdjWjhh2X0Vc3s6qRt7aTD2jcYzvk/TDP1P+HGTVVcL8cRnploGx4e7J1m73YtPoSLa9BlDz9a1MFT1MqTzIGQmh4hrs5kYOIBt3cwIidYnt7WcDfInE7p0ofWcScTpV6VVGWu1/ka9v0qDpoMp37oXw4YNpGbpPIrfk8Jf07+3OyM3H8Qxvz73do5hv9CZ5X2ckonvVHsh4+GB2QycvJ5pV97jVuIXqMiTq8kUIGRh+5UxCNqCA3lDfwggCIKUj4/O4L7yKgvWL6SYpTGB17fQf1cil3aOQpoUzoTOLbkntWfEsAHUKFuUAgXyZ0gd2tG/OtajT9C2Yn4Cbx9i9oEQtq8dpURlUfepWGciqw8eoEG687mYNxtpvqsIvovTUq4USjgigCZ1enD25d3knbyGqSNICXx6kd7uZ1m1fARm+oIiqC4lQElOBDWrc3OsJ5xhQz91wpLsFmRibBRSPWOMdMMoX28+t/zSESWlqyAuIpjrPntYf+geNark5+KFW5gXrkL3/oNoXd8Bi/TuUkHGu2tbWfyoGBvHOastOCHxC66VmrLH/zWaDkmkiWGsmTKBFvN3UkaxyRL4/u4eS+auomSXqbTI9ZzOQxZSo8sEhndtRrHC+TBKH4mfnQCy/V0g/MsTJs0+xMyVcyiUS+lGDv/gx+iR8yncvB+j+7fDVi0WRL7LjOPgghHM2HGJup1H0rV1HUwkUTz2u4lVnb50r1+C2LCvvL60gmaDttFh4SFmd6pNfttc6Mji8RjekhnHApm9aR+tKhcg6d0R2rk/4MD+pdgXKkgOAxknZ7fnU5v9jKpqSvTP79w/sgS3STtoPn4jK4Y0J38epWclMugx7pNX4zZzObXtjEmU6qIT+ZZqzRfjn3rEIGHV0NYsv2PK/Qfe5NeDxPDnVHHqR5fRUxjVuy2WyWMb9dGPHv0XsOXiafLpoQAIZeeeo0npnHisWMuQ8RPSdmXSWPq1H8ssz40UzvV7rvQQ/2sMGeyOQ/+FuPesr7YDSvh8g5Yte2DRaAybFo0iT8rBeSbj+vriavpu1+HOwdHZjry8QPTF2Yx4VI2t41tq5hKR5wckRjHOzZXKk3bTr566S33X4JokdtpK12rq/5cDhJpVXLny6r8DCHO7NqLYjEtaM+qJXm1lwNHCmQCEBhzzv58BIEgTQxndoSvuR8+TL4WxSitJpxXKABBmd+dxkcH0qKm+qx3VfTxrLvmkAgRpwk/m926Bd153nqx1ZWkbR0rPPUG7Kmksj4Ikhs6Ok9h6xwPx7bV03SNwbutYdS+CNIjynXZnjEGQq/iP2+l5vBonxlZSM9I/Xl1h7ztbxrlovssk/RGDLCGMJ1/iqFxKndgt4vIMxgb2Y1e/lPgIKTc857HhbWkOzmnHxsFu5Bm4gtbVSqkAEBnhYVFYWacZ9djQd8wZ70614Uvp7KjcLMiDT4c3cUDSYg6zh7SlgKU6QZUkJojWzWfidXUb5smbsV8ZOo0AIRvbr8O4c9lTLct7kXIXw78OEATiwr5x0GMx0pojGdC0VKqC+Xh5A/13xXNlz4RUOTw8uoJBUzfhPHIxE/u1xzpdSPfGnlWxHnucekavWHP0C3NnDFCjSL6+qjfdVtxh4MKtzO6Vxlsf9Ww1DbcX4sGa9moKTn4XQ/3aPbj85l7mAAEp592bMNw7klr161GudCmKFimEnV0hChcpQgHbXCQ+XUPh1ld5GnCMvL+QTB14/yQzp8/h9N0ALJrM4vnh8WpUtRJxEvFxccSEfuLw3h2ceRbLyKkzaVMj5Txe4MfLiwzsO5L3JYZxf9/o1Pfl55X+N7zYE1SK+T0yMqrJ4gJpVbkZO9+8ITXjNHkkBGkiPjvWUKbrZEqaSomKCOPE1vk8E2owY1wPUphTpUmRLB/dFY8TD5BYlGL0rCVM6lIn+yMPLWd+0MVlOAw6weDezkgT44iLi0OiY4i1jS021pYE++7gIAPwPzBYI5OeIEvg1qXzfPqRQAH7agpq2d8zk1p2WLWYIBB0/zCb7hvjPtgFuX2P+RHAtuXzWLr9JLkqDOP1tYVpskp4T7fOM1jovZ8iGghq5JHagc8uMWvZUdw3bqZUMgHU0SnN2PjBjioF4OzpJyw550fLYobyIAaOzh5EseFrqZz71+/KECSJPD69gRmHv7Fu7TyKZXLfgzjkLo3rtaX6VG9W9HHKUlAvzy6nvxwgHBmvnUAl3+jetA0PvovJkyc3piZG6CkyjGTIpFIS4qIJCvqGYJKP2Vv306O2euDbtn41eFSoC9ULp9uRScXMmbmZW/73KfCfeBDEzOxQm8IzfOlfWatbi0h6upFGE29Qq2K6gFmZmGN7LuD38SV5zFQ8loKUW/sXk9RgIo0K/D6tr1QUgX2VadxPTnP0mt6DH42WMKKRej861GvL/ONHKZNMbieJj+DEqevU7+CKnAPv0CQXtn7KTbViNshTIuWPVBTNocPn2HzzKS2LmCORSNFPf++O+D32zRcxc0izDPT38eF3ORTdldMTq2apY86umcyRlzFYmOdILifjR+AHchdWBrvKWVXfhxoyZ+NWHAunHTH9PD+V0R/7sG9IaaSieO6f3IDH7RzsWDFM0RdBJmJUy2pcjy9G717d6N6pPXnN0zSK/J33931Y6BXAwnmTyZ+OGRSi6FyzOle+6DFg9joWDGyitEfSeDxnjqfJnA3k/434A3kVGQCCFo6BjAAhO6rlfx0gSElIkGqkLw5+cZPHSXa0rKrujs1Kc1w8eJRS5WwINy9PlcKaz77FUikGeuqHuZH31+AV25aBDYuoTSzpT386j9nDob3z/xlxhSBh28UP9G9a6jeMowy/Xauw7zIaq+TgSbkMHp/cwoWPUM2xFg0dyytSrrJKunry4A3lqtmnLqr3Dy9iXNaZApnw7spjI249DaNOKtjQIHlxPHu2elLdrTf28sO2zB5BzPV7H6jrWPpfpa6Vo+61hx8xrEs9dZdhSj+kYs7c+UYLp8K/IXftbNS/X0rG/ROeFGvdR51WO5uGrp/0pkCtFpSwzRirk6KA5YlL2WTmafc5skSOeHjSaEh/rLK8EEdZXfjLczyRVKZRpawvCgvyv0dCnqqUtPjNS5cU2djqe56sUhE9Bvek4qTV1E1H2CP3ILToNZMDO5ZiaaIN44F2Ysu8lIhNc2fQcvwSCmmJ1UQBl/mQ0xH7vOliJKQizj8No6lDPrU5H/H1Hd9MilIuEzZabb9AKvpJi/67ObZ7vOIehpioGHLmysgsmyiVYpxOz6ZvI/1YKX/PZo4mvcB5zE18NgzJQFwVH3qDWz8r4Fzm113w2nx/+Lk5HMkxAKu3B3n83YD+QwdSTAOXw4tz2xGX6UAVFdZY+dHPinXHGTaqOzmyPG+T4h8cS+l8v3ozZtZfoAYQtKZaVvUgZJcXKV94/zpA0GZY/oMy8m/LRHPK1c1/oSL+g6/828RfCfyVgIoEslj2iku1/st1nzmx0N8hU5fAfz0yGeUvEwR0/xWk/d+NbRpA+JIxzTET25/mQcgOHMi/4/8yQPjvxulvS38l8FcCfyXwVwJ/JfCfSiAVIPh/Ub+LIUuq5RQPgjZsinJM7fFnsxj+U4n9beyvBP5K4K8E/krgrwT+P5CA1gBBjWpZDhC08R6kUC1rDRBkiMUyDAwyhnyJYqLRMTP/rRSbPzWO8VFRmOTKpS4KmQQx+lqlZ/0b/bp/6x7FHapgZfJ7N+89fPKWChVLKSiXtXpkYmISdMlpmnbemySR3yz5a+e/giDh/ssgqpYrohVbYlzoF8IN8mBnoR4oFRP8CR3rwpilI1zR6lt+p5AsiXs3n1KhTnVMVC+a+Z26/g+8IycgM8phmiFGJCJOhKVpxqC2hI+PSMhXCavsyBl+VTaCDJFEF0OtloGUJLGAkQY9Ex0eSU4ri//umECQIpbqoaErGiQgQSTTxVCFsj1jISlSmZwGOuOCTowIw9DCWo1j4lfF/Lf8/18S0AgQsnEM6DBeUxaDZtIExRFDJgBBJhUh0TPEEAmBb57hvWsdD5IcWL9gAOY5TNATZAR/9OfeNR88Nh7AefJmxrvVSA38C318iGMhZejXtGJyDqiYfVs2U7hidQWQEMV9Yd2ZMHYtHkgONS4BAf/rR/liVpHGVUumM/BhLBs/g+rDF9Agy7xRKYdHVOOp0w7mdK2S2qeol2doNfkU+w97UOhXA5UECZ/ef8SuREn0EAj78Axju/KYZhHQFfJwH64j97P20CGq2/06OcvrY7OYecmUDcvGZ0zr07AWEr7cp17HpRy7dpiCisBpGVvmu2PVsB8dnNLJMv37UhGxYj3MjPWQxr+mYedV7N6zlqLJ3PDR4T8wscytEQSeWNKHTUHVObVuuELWKSeKGwY24H2N2Swf2EAxjjKJBF05p0MWT9TnN+Sws8/QzvePrzAuUAYLVbAhiSZWZIJZjhTLIxDkt4Vmk+/ie3E7VirZJQmxERiZWf5rAZWy+DBeBHyjcOmymOnE8+rVB/KVroBNGmFGlt957+By3uesSrHk20BlEjEyPYPUy72C7x7hfb4OjO1YU9FnqSiWu3ceIRgYKu4ZSFnRglSCBL3UeylSGhUkYayauZQGkzcytGkZtb7snT0GWZ3+dG9SQSVQV4rP2OrM+t6VG54TMJMv0gyPwMElS7CtXR+zZNQqEYtAzzA1z/ur705+VBjB4GYqlyKJQhjUdAgtx/ZJ7Xd4VAxWGgLhiH6MxyUjvLZPRe2iUkHM8pYlCeuyl3m96mi4cvifG4eQF2e5F1uCVjVLKq/1TQhgcOcFtOrfLrXyn9Hx2JhnDBqVhd9i46PSnFjdP5XVVCxKBENj9GVJvHv+iL0blxJavDcLhziTM6cpOhIRX96/4tZ5b9ZuPMKIHefoXist+DYpNpwfEWnslhmHQ8wVz+XIGkyiTx31YOx/Lo2/NfxPl0AGgKCFYyAjQEgfeJGeajkTgBD9/SF1+nnSu0F+8tlXp3GD2uQxN+bdjW0M3f6JdtVsMMtTAgcHB8oUz59hpyknC2pVqgh9L7yjY2l59oGIka2b03LDBVoU0ifq00HKjvrOxxNjMqSryXNnF3VyIqT9Xlb1ULlARxbB8KZN6HDsIY0yBtmmjackiuG16jD66iNKmaVtW27uGs/k8xb4Hpjxa4ZCEHFx91qiynfFrVo+Pt31Zuvb4szr6aDCvBfEtq2+NG9bV21enV0+GvP283AqlsY8kBD2kvuSynStqiTYSH2kIiJiZVjmSkmLkjLAuTYuy0/hUklObyoQ8zOYHDb5NWZgPPKeycQbZbiscuWxNOQqNZ2XsefuGexNQJIQQajELPUSqZS2peHPad9mGq4DOyD98RixZSWV+yVknN66jGLD9rOke/LNkMkvSmP8cXMdTd/FKylrZURCyGMWXTVm29ACtOq5gfkLxpI7pxEk/GDtwnWM27qHoqZ6yCOAv/2IUoAJ+dpr03oAACAASURBVBMWcJOjgXa0jVrD6p+VKJNDl8CHl6GoE4WtjHh43pvq072Z3CTtVrvvV1ax5o4xpfOrZFvIJHh536Wdm1MayBCSOL1tPZUmezHdJcVYCrz/FET+fHky95LIkngfGEqp0sUyyPvSonZ0WHSFgevO0iPXJer1WkHVkQe5uiCFtChr9XJzTReuFJ7MTFelPG8u78+rlhsZVFa5sz82vRWvHBbg3l5+B4aCh5mvn0LIXzS/2px56DWTgfviuOC9Ahtt8zlF76lX2YUZx+/gXMKYOJEOpvrx9Ctfkg4XP9DKLrOwe4EVLqUpvcSX1mXkLHtSVg9ojvFgH4ZUV87Z7X0qwJDT9K+pwkMg/Un/yrVZ8+wtZnJSxnh/mjqPZL7XcRwL5EAmERErM8DcUAdJ4AHarUzk+BrlJTtpayOB7sXtGHrjPXUKaRkNLiRybO0s/H6YYKV6V0JSMGdvBtGscXU1PRAV9hORYMKQKe6UsjUB8Ue61u/LDr9rCsZGIeYp1Z1ns//MQUpZGSFNSiBR1xhTAx2S3m6gw8HSnJzZOLXODzd3MmDjG1pVtqVopdo0ru9ILiM97mwfzbqXeahVxAybwvY4VHGgVKGM5GOx39+w9+xjCufXfD10imx09Axp1LC++vXM/9Ot29/+/WMJqAEEbe5i0JEH6ap6ELICBwqlk7kHITbkBYVrLOXLB09UOWk+3dpNp2VfuXd8WjYfKOC7sBW6fb1wyiffPScysLkLfQ+do3YuXSVAGBvKp6MjNe5KE0Jv03jOJ66v75qWGytEM6p5Yzocu0/9TO6n+fHtC8bE03t3CAfGOfLz1ROM7athYyxiUkcX6i4+RlM7RYYrH33PY+vUGutsOOtfHJ7F/rhmLOxTm8gPvrSZcg9fL/W87u93PBnmGcH8Ec4KuQbfv4xxhfpYmBioKXQ5V8HZxX05EluLM/vXqDEDymLf0dbBlfJuLprdqEISNw7tofzcq2zqoXJVrGIsY5jWqS2Nl27l/IbN6BnoJ9ch4fXbQMqUUt4IF/LyKveiK3Ln4kZMVTw3QvQrmtcbwrEnN8goWjFT2zeh1prLuKjdlijjwKwh6LrMoUbiNXZ9LcucjhWIiklky6wFdJ87G0N/L9Y9tGXmoKbpDHEsZ8/5kTePiLmzjjBv8SR0dfSR3FjE41Zb6V1QH68pbdDrtI0ODrZsntAHh/meJNshBHEMfRo1oMe2GziXMuHj3SOselKQtUNqK77zis9p8ldyoKCNJZEvT+PxxIpFAxuqzFkJnevUwrpua/Jm5k2ShrDX8z7bfG9SL92to6F3d+PceTKtFvkwrlocLq17YNbLk/PujbRa+HfW98THahATWyqJXu54jMK/yQp6l1YC2tMLOhPbegOD62d9k9/emUMx674C19JZX9gkSJK4f/ceYh09RbS25+IVOA0bh8GbY2y4a8qptd0pW2MC/m+Pk0Oely0ku/oNVVGHwDq3MhSccZGW9nISHSnrh7pgNMCbgVXlAEFg98BqmI87T5fKKjn00jAGV3dixcP/x95ZgFWVvH/8c+kUUBERQVAxVrG7uxW7EwO7Xbu7A7G7de0O7E5ExUJFQJAGabj1f+69SIuoP/8r7DnP7vPscufMmfnO3Duf88477/taCQj31g9i/Lk46pRWReoL837CvYQ6PD44BZl3xoAgi/uCrVVNbn94Rn4DNcRiCZqaIsKCw9EzTLbOxXx0U0bwK5BmuysVa/hfoMGAM1w6vSZdsqhUgyf2omfDfmy+cQVd5LjMasGSd9ZUslIdufN1v0mAdW/Orx6YISB43d1L+/kfeHx6eqpqn+wew2KPGhyc0ylLc0UoJCiQkQKZAsI31v5kQMhC0ITMACE68CXWlRfhlQgIkiAP/ERW4HGIjot9sgAIylUr+WBRtCstO6zi4PmdKL7OSkAYFYjn8ZEZBrz5yi+puiGPZFTzBrQ/+i1AkLLOsTk+5bpSVFuk3M87vnIOtmP2MrWsFx1nXqNH+2qqhVMmxXnmFOydrzE9TZau1IMhY0DD0pz5ZMaxa5cI3dyBns5uLDrnzqAKiW9aslD61qtGkbEnmd62BNKYICpZ2dJm1Wmm9ailAiBZBK/fRWIkduNwSFmG17FIDwEJXnSo0I5dzx9nsEirIGByi+q0OOpOnTTrQbDrEXqu9eX81pEo0ld/L21t2s/lUa9pVqYl1k1T565QaSHH7dYDJp19kAoQPC+u471FBxqVMkMa/IxOXZw46rKObX3sCO93hbH1FaGMxfzdozed1u+nckbhG+Nf0KP3RnYcdFKC4LstA7jdbMN3ASHe+wY7H2vSv215Ds0fwuoHWqxYNhvd0FDKVftLOb6fXE/So89oRGV7c2z3XHKn2vqV0K1+S0buPUP1b2WAjL5Dy24HOXZydQYLSTyOg6Yzw2kxFlqxrBrZm04r/8Eii0FP7q/rw7l8w5lqr7IQ3F45iFfN1jKgpMqCcGKmPUGNVzOkfoq0xrIENq05Qe/hHVURR2VhbN1yFodBPdLNpZNLp6BvP46GxZITOknFYuSiMNz9NChVQJ9n7u8pU0oR91/E50dOtN+YwOhGqoU9yO0Umx4Zcvn8ZsyT3BXkOHf+C++KQymRT7Uo3zjgjGadIVQvoBL38d651Fh2k+7fBIQw+k3cT1ELfcaO6I1m+FvaNOjB4hsPsDNUS2dB8H1xg2tuPkjiwhi36DJLZ3ZESxTHhpUb+XvHCe7Obknu5iPIk2iKe350GTrddrCge+VvrirSnwAEbYk/9lOuYWumw6Kx9uB/n+btZrHhylls9dQyBIRPDw7Qbo4HDxMBIcHnMTF5yvHx2CQWvqkiAIKw7v+SAkmA8DbtKYYM9hqScjEoLAhZgYOvTVvbKcNcDNFBr7AuP4m9u8coF/Dnx5dzx7gHi5qIaTfHnUNrByR1LtbrCrP2B7J5/TRM5DF88PZDjgzXLRNQ67qJDuXMuLp2KOd1u7G4v8oEHxvylNIlW6BhYkhCXBy9lx5mdufkL3XkxxfoFyqd2mlHHsWYFvVpeyQZEG6cu06lpnUTcyXI2DSsAwVmH6FVXtUP1pg6Fem17zbnVk/FfvIiSudO3HKQJlC/SDHW3X9NSbPMIp3JGd60DLvuh7Lm4gsKXHWk4/xLtFx+n30DvwZJkhMTHYO2vj7qcjEnZnZg6+u8DHXsnZSMx/3CJlZfiefQ2f2Uy/ONqGcSH7pUsGfbsydkaOSVRTCpRXWaH3VPY0GRsXZIIza8L8aDixvQFofitGYrCdLUAWYi/J5z8HoQLnfPUyhNl+XRb2hdayCHXLNuQYiPT8Bp7gykuRRZ0mTEx0nQ1tFCEnCXF1I7yhVQLSIJ8fFoaqvx4MQ+Sk84zuy2KRa9NIDguXUAZyrMoqO5Bqfn90HUZhkt7fKwZ9546i7bl2RBUPhXnNi2mk8aRWjVrDYFTU2QffGiol07dj+9R9lEjRNivrB/ySRou4o+5VJm/5PRo0ELhu85/VOAsG3JUqr3HkrJ/Hpc3r8OvRq9qf69HBkpfg5uO/XgsuX4TLcYfOquYGTKVN6yOAbbWtP12G1K5NPH02Ut6z6UYumg+ojDPlK/3XquXlmEppqI7SM7YTxwG0Map9AaeLvTgTHPanNocV8i3I7Qfcxulv6znyezmmE39yx2OiB+s58+W8XsWdIbXV39FP4NctZ0LEnhudcz3WLQGnmOXhVSxPFPYUE4P3cSZYfOwuDtATa/zI/Bo/XQYRVjG6siIqbdYpCK4wiPiifm1RYcLlfi6JiKiOLdaNNnNydOrmFZ3xZ03uJCqcSv1MHRNdDo8w8dFGEmv3EpAKFuj0OcOLuFPNqZREb4akG4fo7948bTZv4qoq8t44y0Lh/3zMVuzGZ6VVXl88hoi8H30T80H3eFNbNV6bxvrR1GZLttdJUfYvajIiwbnpxzIerVP8y5XoA9i/uksthmZQURh7+iac/NHDuyDKPELJZZuU8ok70VyBAQvhtqOSNA+JbzgmKL4RuAEBP0GpvKK/j4YRO6anBxWS+umA/HsZA77ea95bACEORi7JuPZvPxteTTUcPUohBG2jLevXyJVEubnQPrUWbFQ+z8j3HwozUTHe2Tcp4rhibG4wQ3YypRt3geNLW0ifv8jHV7rpIvnw775s2nz9FnWD7fweMv+pgo9xAlHF+3jPKOkyik3KCU8vLZS6p1Hka7qoofGBnbRnch37SDqQChhoMjGoWq07CmHbkSf0jk0gSq2xRn1+PXFDNNnzY25dRRhI72i5BjY20B8RG89wqgUDHbdFG/FPe4n3HCyd0S51G1mLvoKGMmDeTz1bWM2+XF+vXzk3ILZDg1swIIzavR+NhLGqawIIS6HWbEnL2EmrXi3Lr+yjf+4IAQdAz1M9xf19DWTXeSQx79mhaVOtNp0rgM/BvknNq6nt57b6eyIHhf38CQA7EcWuFAdKQUQ8P0kRej/d4TZWSDQcgjhi6+ytyZwyheyBTiA7hz/zViiQ9LlpymW4vCnPQpzLxid7nbfGOGFoRy83ZRNQXYSKQyHp3axUeNgkqfiqC3l/HQrkSNQsl71NJITw5fDmTRir/Jlep7IKNnwxYM2/0TgCCPITxWA2M9LRR5OUK+SMiT+8ecUK8u7cAZg170rV0Ut1NOHPAuwtR+NTnpHk+3yvm4vmUeebstpmtiXHflfJHHM7JEIQZef4ddfgM8Ti9kydvybB7bjISQ95SsuYjXLzcrx9a5d0P0B22nb61kXwCZOJTGLcaz89hGCip9c2QcWzSQR3k78uaOOy2njqJfEU3e7x/D6ugOrBmgSkOdfMlZ1qY4H8r0oVheFcLeOb4Nrap9qKRIEqGIBnp4FfVW3aBfylwIXwHh4R0CgjUpYmYI0lBGtK7HBxtHTjkPS9q3z9gHQc7dJe142mY/Q0rokvBqH51WBXN84xBm9WlB582XfhgQ6vc+yPTBVdmy+yK1uwzBsWujdGF+SQSEtef2E5Zggo2JYrwD6VS3DnrN5rJjWqcky01GgOD36DAd5r3n7vGJSm12DiyP2uCTlHixlLmuJVkxvDFxgW+wH7CLcyfmK7d+LArZoBnvz3mXx5hZFUI31REmKXNGj6PjlGX8lS9FuN/4CILDYylctjo2iU6v2XvpE1qfFQXSAUIWDAMixl9IE5c0g0d9rSgTQFBYEIrUcObj27XKhVABCC5mwxhg8ZgBu9W5sX0wyBMoW6Iz51yPUSBNDgXFZ0uaWlFr+UlkYhOMJf5cvn6bwhWrKvchFYvYbefB3Co0mSOL+6UCB7k4iF6l6rP55XN0U5psM7AgpO6djO1jumI69UAqQKiz5CRtyohYMn8DHcfPwNZEA8WebFnrEhxze0uRPFk6f/WdMZPz4uohbvjlwbFHI+UiG+1zj1FTVxOgVhjnVTOwMs4cROTxXnQs24KB69dmnCdCHsu2KaPp6vKWll/XI3kUTks3U7OKGdMOxXJ2XX/k0ljCvsSma29M8BtWbn/C4oXD0uUnkEe9okVtR45804LQgCorrtAuRdKARyf2EGPbiDoltBjdrQdVugwkrS3m1q7l6HVcyYRmFsiNLDBOklrCs6fP0dYKYPLkgyxcMQ0NNQ2izk5hv1Fnahmrc3/vQqgxjKo2hrjs3kLHHSeolYZBTi/qxSntDvzdxg5JlD+T5h9m+ryhGCUmkQp9fIhJp0Sc2zUpzVaWAhBaMmz3qZ+yIGTlC5xZmaiwULSNcvPl7UX6T9jLqn3bsTGAh3vm41GoC51r2abOcpoICGPLWNPvkkcSIAz/J5LeTUohjQpixkp3PJIAoT76g3YmA4IsgVNLJlCg90IqKtOsy3GeOop8LYZhGnyDfBWbMetAAAfHV2LrgNoYOO6na+XU2fwU9xxcMIuKjhMpmkdRR3onxas7VpG/ZV/y62phYpBIsWl8EL54P2bZ6l381bQrcQ/3cMQtgT4D+tOiQTW0fTPwQZBFMaNJBQaeeYWltjpvDoxnRUATNo6qz8yfBISvPgiRHx4w0bE/NyOtOXnhKMWNUvwWpPJBUDjS3mSB0xHqd+7Bu1PrufHZkL4OfWhcuwJq79M7Kfo+PETnJZ+4/c/YJEDA8SRFHs9je0w7to5pRozfM8o3W80rt63fOOIo4cXt+5SqURORSEK7arWZcOgG1S01Mt1GjAj0IVIjLxbfyKfxq/NXuP/fV+C7gJDhTsP3ACElZWQCCJEBz7CpPR/nhZ2Vi8mrcxsIrTmTnkaXWfyhDgfH188SINTe6UF1c9WRA88r+7mftzldyxgjjQ+jQRE7Vj95S7l8qTfUfx4Q5Owa0443dp0pneh4dnDhXKafeUpFSy0eHZzFhAu5uLptLIrENKWty3Dm+SusTX4sTkBGU0MW6Y+rj4SKf6l+VOWxgWxZPJ/n6sXIG/2aKL2idGjfhoqlbb6ZPEga4k6TRiO44Hol4zLyBJ7fe4xt9epJC7HX/XNEWdYmr+9p+m2PVgKCLCGUHfvOkTevcfpFBnVK1m6MTZqENbIv7jSu1gPHedMzsCDIOLJmEa023qN7iQxgShbB8B7dmLr7DOZpPOm3DmmDbv8ddK+UcR4NUm0xyHm2dQye9SZRI5c6p+f3Rq3NSlrY5ebO8f2U6TsKmzSPP7/CARdTR5b1qsyj/ZNw2PmFBaPaoSmK5tiFNzg2NmHWWXVOrB2UZtj+XUBQNMbv+QUmT1mFTceJTOxVT2mpkwS+xHnVWl7EF6Bj+5ZUKvsXeb564MvjGV/Ohj4X3mbBglAfvYE76Fdblfckyv8Z979YUVHkyunXmrStrkeXbnNZsHcXBuFBFCliypjW41l4ei2d63Vh+el/sDX6+r2Q4fP0Gk+8o9HW1kp6a5ZK4jnhPAfdFjNpbpu8beZ15yDb7srZuNOJsgoH5URAWHDxLNcuXMUrSo9m1Yvg9uID1nYVyRPlzvxFq7jqY8KqmbXZfsUk1SkGSfhHalcdyo1XZ5XWkV0jmxLd1pkhDQr9MiAoWp0Q6cOAxrURDbrATocUKbKVgNCX5fvXcfXSDXzFprSulJeHrwMoUaEy6j63WbTMmWexRVn+dymcH1dKdYrB6+5uWk+/x8whKsfV+9umYDvjImaXJvGs1BSmtbP7LiDEBr6gWpkmDN5/m8H1LWmfCAiFo+9x9mkk3bu2SGfJFHtfo2rNDgSYVOGx67l0idn+/aVNaMH/QoFkQPj0A6GWUwLC96IpZgII4d4u/OXwkI+XJivfvFxPbSHAqinhh6cRae/MwEoGWQeE/Fr4BsVgrhvIjPkXmLNoBN4ui2i9PQ+P9gwi7TbgLwHCuG7knrwvlQWh5947VLTUJvbDNdqMPcml4yuQiaP4q3AdLr14hGVilrz/yaBFBPLg2jn2Hb6M/YQlNLXLr/xBff/wDLNmzMM9XAu7suUoYfsXzTv1oJxVsmk69OV5Go25xpMLi364KQEPDyQBAjIJB3eex656UdRTAKFc/IWTx+4xbOpIZVKWlJcs6hN7Dj+iQw979NQlLJ4+k/L2DjSsXBQNkQy3e3cpXLEmhhkZW+RRjOjQFLv2Q9FPM+du71tP9enH6FVNcUwzgyslIMjliGUivoaWSD7FYEZcdAQ6+um9HC+u7M/FvAMZUTqcdce9mT1rkPIH88yCHpxWb8/fVYMZdVjEyQwB4Se3GH54dFLfEBf+mStnj3DRPZYBjS3pMeMMLi67MdWC2Juzab7fhnW9cjF/7lJuvvnCgKnLmebQFDUFIJS3oc/5ZEBY9Ko0ziMaIw71pFyDFSm2GOqjO3AHDomAkLIFfg/3Mm7aGko4rGdmlwqJH8l5sKId1G7L0tOGHJjdIRUoimNDiFHLQ2L2bWSxgYzt2Y17noEUbT6UNTMGk/tb+/nSEAaVr0jjJftp07hqUorwwNdXGTJ4Hv33X6SFuRpRUQnohBxNd8wx+O156s/zxW1Xf9SQ0ad+E4buPYdi+/9XLQhfsUYa+YE34oL8lTuFf5DYi+412tF1yRZa1U8+0uz96AQDR25g5skz1MgLMTES1D9tSXfMUZHqetipPFxZ00up8eWN8zBuPZwTY/tQa95BmhTVyRwQ5GJOLuiJU2BLLqzqjVoKC0INK008b+5i8v5PrFo6ifwpvtDSIFe6th9IQL5qnPpnLf/Dn7dfnPnC7f9LBb4JCJmGWv4KCN+DA9V7Ljhl7KTo77aBtodLcHeuKsiNsnS8D4N6T2DJ/gOYKCOJfH+Lofa2Z3w+sh6r9mOpZGnIeaeJeBZry8kxDix+4E6ZlOlLvz4nxRaDKOoT3gmGFMtnDFnYYtgxpit502wx9Nhzh0pWKvO+DJT7nTLxF0oUteea+xUKZNCGHxlIhSNccFAAd6+c495Lb+6cfkibvi3TVfHq+nG0G4yjhqY7j/XtWTWgXKpz2Ld3TmCXtAcbHRLPvv9AI1IDQgKOJW1pv+MUhRT7pomXLMSDLqOP8PzhjtQ1yxN4+8YHW0tNOjccxqQTxyiv9YRyZTvjdOUZdYsaKjPqvbxzhXxlamOqiGuQ6opiZI8uTN6Z3oLw4eULRMbmWBfIk/HRzbjndO26gnHju3Dn/ktsy5dFG3U0NNS4u30G1BlPDWsRO1eupvm8/XQsk+yVr2iCy+oBnDfuxbgmZcmbK56F8zfRtEFeZh2M5eD6scTe3cTAA3JOOjumabPCSbE5w/d85xRD1wMcO/Wd43BZHSeZhJvHd3LLR41eDt0paKjNs2PzmHrTmlMreipriXu4mJGuLdk0qLTy/yPCQzEwzq2aJxlYEAZu96F1jSLI4sJYuzuAdym2GHQGbKd/neS4EV+bGed/my79pxNvXI3tm2djnhhoShx8kRIVHNh24zl1rTPJnieJwWlsDz6UHILVoyXI2izg9omLbHWejElGR4bTbDH4vX6MT5Q6xkaG6GrrkKtAAYwTtxIz8kGI8H3M2o2H0cxfnLrVjBk9/yEX/pmPoZr4fwYIGQ5hmi2Gj653CJLrY5TLEB1NLUwKWmCorvp1zMgH4e7uCWyN686WgcmxQ+TRL+kwfA+7ti1QbrVmtsXg//QkHcad5OLlLYlOy8lbDApAUPx+398xhq4bQ7nvsp18KSKoZnVKCuWyrwIZAsJ3giWpfBCyEFFJWUZhQfgGILhtHoJrwzX0LZz8yuh+chHrPlXDeWi9r8RA2RJdvu2D0MSKlxqWtF54kg7lzJX3JAS6UatUfSz/PsmRCWmdoBKrFQfRs1R91t07wqDpV9jqNATlGp4FQNg2uiv5pqX0QahA1913qJrGbV+R4rRI8YE8eH2UfJl5Mv/g/JFF+WBfpRunXt5Kd+fRmQ6Ed9iAQ5n0pxjkYn+GdunP5ENnsMpqwJsUT0gFCHIxI0raMuzGq1QpmyWfn1G5wwZc76xL1baYd+eYfiieZWMr06VCS3a8fKo8Znlq8w6q9OyDmfpb9p2IoFVVGVUbjubY09uUSGmCkEUyrHUNpEUbpPedSAjk9LmP7Hl4i+qmyVs5ckk0Lkd2snHjdiItm7Bu1UyKpIAZRQNTWhC+NQwqC8IglvWqqkjeToDbUWq2GYOj83nGtSpF0K1NDNgn5dT6IWmqkNCtbj3segzBWuUUk/6SeLFuvw+Xz63L2CfkB+dG+uJyZRwBum5leF1FXAGId13O8AdN2eyoAoRUlzyesXY29HPJyhZDPbQctjGwXuHUdcjEDG/VCcftB3i3ZRDrvCtzaeMI5LJ4jk62Z8X5VwzfdpuuFQtm+DOicO7dOKotHmX/ZvnA2qxwaIyu41k665+hbOdNnLt8iFL5jVLvp6cBBGWDZLFc2rOaKXPWEGXVkudXNiu31b4ZKEl5kxynnlVZdNmPpkMX4zSlI0scWtLW6TSJp0M5PKE+Og6H6ZjZKYbPF2gw8EfjICTKKIvi2IZFzFq6Bd2qg7h9YI7S0pIRIOydOhCTYRtoUSB53t9Y1ZenpSYxsnEJZYUxfm6Ua7aG12l8EBTOtaMGTWbc9gPYJDn2pAUEkEsimNigJCdt5vN8R9/EI9XRHNu8ltACDenfutIvz1Khgj9TgSwBQhrHRRET0jgpKvr2Le/GbwGCNJxZnfsx48ix5DdcaRDjxq1g+ooFGH+Ncy+Pw65EJ867nsQijZOiPCGCtsULkXviebYOrqqsR/LlI8O6dEa74TBebp1GkX7LWD2uEzqpQi0r9u/9aVnUjmfqJbn74jKWuRIhRRkHoT7tjj6iXoZxYWRsHt4OTYdl1EyMtLi0V0ccDtylmnXqG8QRd7Gpuw/3x07/UxOcAhBaV+nGmQwBoR+h7dYzoFz6Y5X3dk7hCB1Y2qfiT83GtIAwsqQtQ7MCCNIQRrSsD5024NTTmm4VWrDVXQUIXy/5l8cs2PSZqRNacG5GM1bnWsy58eWTFxBZBMO6d2PanvQWBCLu0nXgcfYeXJzKZC2P/4jD1CMsnDEcM0PtDKdoWkCIiYxEzzB1CM0LK/pxyXQwC9tas2TyaPK0mkb/Rja0LF+J+WcfY/VxNw57xJzZOCyNrhI61WnGqD2nqfbNOAh3adRxJxcubfktgBD8eC/dFz3n1KFFSdtscY+WMOR+c7YPUwVQSgsIWT/FUA+NvltxbJAi0JJcyo5hrbD9ez81rY2Rx3szbvRKljjPZ++UvsS3XsWASnFUL9uav/e70KG8CuqT5oEsnP6N7Wm/6gAtS5sjEklZ2qc+uoMvMLy6DjHeN6hSsyvGVTuxcsksKhdO9DtRbDFUrMkKV1WgpJSXTBLHjWO7qNxpkPItWQEI9stiOOnUP40vjBy3nUPZktCdFX3KMbd3E2JbLEP77ATKDl2CeeKW2e0NI7AYeZyeVVS+FxldUt9z1Bt0lstnnL4TKOkjPeo7sOWWIlBS6ksqjuHMkSM07tpL+ZkCENrus+XMrMaq30yxD9PGrGfu2gXJ3xOJDz0nnWLT0qF8/bmM9nWlufbd0wAAIABJREFUbPPVvHXbkQxVsghWzFlB+/HTsTZI6R+VQOsqtZl8+BYqC4LqivG/RoMl4dxe0VapWZzbIWzqDEBiWRmvF5czjqnyTXWED7KLAukAIQuGAZFcYQvO4qUoampqypMnTzAxSTYp+r+8zOGQ0gyvrQinqrr2LF9EiS4jqFQwxQl9eSylirbi3NNLWKVxelPckxDhj0wvHzqyL+xcOp1L/vmZMGEIZazyII4MYOuc4Sw8+IBceQvhOGs1I9qoTHHyhHAmt61NheU36VQyRXIWWRhDGzag7UlXmmQYalnKuiH25Bq5iUbKPRCY1b4pvfbcpmZhA+TiKFwObmKB00HCIvwpPPAgh8eqYt3/ry5ZhBcN7RpRz0FlMk55edx1oebcSwz5Gg4w8cM4n5ss2OfD1And+dljzJ/v78NhZ6zqmKM8gSElbely8DJFcidvB0gDX2M/7Ahu9zYkNSvC4wbrT76hu2M/LHW/MKRKeXL3moyFVvI0ivC8z7qzAbg8Po+1JIAIdVPyKjzqvl6yMBzb2tNk+PQ0RwkVv5zvcNrpybF/lqRzfkyZg93n8SmW7rqKsYlR0tFMb9driApVwzK3DuKoYK7eeEq/NUcYUFX1tq24zizuzZ7QirQoZYKeUR5yKY4eAuGfPNEyK4T0/WU2ullwYcuoNKMh5fptN6pULZ/6pEzKUrJYQsIVRxgzi+v9czPnwT+L2fZIl+nTHLFIsWUTd2ce/R80Ze/oDAL9KOMgWFFw2EzyGWgiiQknXKxNXiNdRaILvH3DsbJUhey9u9eJitOPMrxRYhwEaRyHlsymRJ9J2BVITmIW8vEBK53P0mX0KOwsVL8Bwc+O0qj9WHKXacIyJycqFFDj0YnN3IouQo829VJsMUlY2LMWuo5XGV1btYTGhn1mzdQBuOk3Z/Hk/lgqvOilQfQrVZ1Jl65+d7GS+p3CYauIS5uGJM0XaWwYayaPJG+7GXSrXVTpeCuNi+CLWMqywZ3ov92FIolGucub5pO75QjKW2QUlUs1VuKPJ6kx6By3Lq7PHPzEH+hcvRfzjx1Idzon7aiLPffgcKY0Vxa3Vv6euJ/dzlvLtrSzS/5dXTh2Ot1mTMc6RZTHSJ/HlGu6BA/3g0mAEBcRQrxmLowSk7zFhHqzx2kWTgdu8flLPq6+uI5d7pTgICdeAtpfT3xJ47h2bA8h+WvToVYKp8ufm6rCXX+oAl8BISoqCs2MQi1n0O5fBwR5PPev3qJSg4ZJX1Dvh5eIyF+Z0pbGqR8pj2ffuad0aFoF7cS9uFQFxL4cPXYbHWMzChcrTtFC+dMlWfn8wR2fBGMql0gdWVAaF4aatknqN0tpGFuXb6H5qPEUyHBbQMZjl7MUrtcKk0QzvdcHH8wLFUQrqX1yvJ+cwulKFFNHdsU4y6kSszZLZFEBLN96gwmj0odRdXM5Qq7K7bBJ5TWUwM1rDylXowaGv5D10Pv2bqZfMWDn9HbKMLlXz92hWuOaKfIpKCwzX7jzNpiaZb8dvjfiswfuH4OVPgdfL5GaBqYFC1O0YPp48coy0kCGd3PEcbkTJmkpNv49h86FMGZ4+0yz8CmSDsVIQF/7x/ZX7hzdTIh5LcpbZryIx3724J3MkuZVi2ZtAH9zKan/Cy6/CsfC0obiRSzSfR/i3A5yR6sBDUpm4NQpS2D1pCX0nDWJPHqZ63Rpzw4KNu5ESTMV0ItjQgiVGWFmkHyfx+NbBJKbcmVKKvMJpLz8XrqSYFYM6zz6KLYVAsLF5M+TNnyXlBNbnCjebjgl8qRsjxSpVIR64lFTuTiUVbO3M2LeuG+e4Pn6bHnwQ657mVK3oir5kLfbdV6GalK6bHkKpjuyJyM6Kg79r8cpszh2Yu8bOF+JZUTfphnmNElqS6w3TmtcGDbRIdNyyq+A/w3uh5egeol8iOQxyhgf1ap9dWyU8+bSIXQqtaWQSWr/ndjQTxx3Dadbwwy2lFL1R8aeORPQbeRIuxrF/qcvNVmUTSj2hynw7wDCHyaC0JysKaAIr6yWaarZrNXzc6VkSCQoHQuFS1BAUEBQQFDg9ysgAMLv11h4gqCAoICggKCAoEC2U0AAhGw3ZEKDBQUEBQQFBAUEBX6/AgIg/H6NhScICggKCAoICggKZDsFBEDIdkMmNFhQQFBAUEBQQFDg9ysgAMLv11h4gqCAoICggKCAoEC2U0AAhGw3ZEKDBQUEBQQFBAUEBX6/AgIg/H6NhScICggKCAoICggKZDsFBEDIdkMmNFhQQFBAUEBQQFDg9ysgAMLv1/h//gRFAMJbniI23ZIRmyBX5MsULkEBQQFBAUGBH1RAkaq+XnERjjUgMSjnD9aQs4sLgJANx/fFZ+iyO2Wc9GzYCaHJggKCAoICf4gCLYtLWWL/hzTmD2qGAAh/0GBktSlOF8VMPSzOanGhnKCAoICggKDAdxQIXqeH1o+lacnxmgqAkA2HeNVFKTOPS7Nhy4UmCwoICggK/JkKBK3REgAhzdAIgPBnztVMW7XqkpyZJ7Nhw4UmCwoICggK/KEKBK0UCYAgAMIfOjt/oFmrLouYeTprWQ3zG4GFsYjHXt92ZaxbTI3rb2XpWmCgA9rqEBkH5sbgFZJxI9uWV+PUUxnSNI9oUVpVb3QClLMU4REgV/73j1725dS4815GUOSP3imUFxQQFBAUyJoCQUulAiAIgJC1yfInl1p1VZ1ZZzLfLGtUUgRSCbkMNNjRR505hyNwDdKnZlERc06rYKC8lQi3T3JuT1Bn76lP7PlojoE2fApT9X5TL3V0fV4x9GJe3JflpcvyILTy5OX6WxUJrO2mjpEudK+qzvH70egZ6LL8xBdcvPTRUIeQFVo8fx+NX7wOFazUEIulPPMTseZMBJVKGKLI3FzKQkQFKxH+X1TPNDWELrM+8F7TioOD1ImJhzrF1BDJJFx/p6as1y9Mxt9H5Qypq4bLazmSRLZR1FfHFrbeEs51/MnzV2iboMCfqEDgongBEARA+BOn5o+1adU1TWad0/rmTbqa8HKmiO1ON5g4sSYeHqFERydQpIgJsbESqvW8R0DpxvgtFvH5fQAREfHKuiwtc/HeN56mW/TRzqVP6HI1rlzyIDIyHsXRSl1dDSwtjRg49yVPzetzcABUNPmirF9x1a9vTd0O57lfsDmbe4iIcX2IQ/8KxMeJuXLFk9IVrXC54MHqo8F0H1yH8Y1F7Nv3nDZtS/L2dRC5c+tSpEhu9MzX02/NMBY1i8XISBupVM6Ve4G0amBBVFQC4/92YZO0ER8WaPH42kt8fVWmBcX9TZsWxazza0Qly/2YqEJpQQFBgf+0AoHzowVAEAAh+38HVl3VYNZZzW92RFsTetv4UVAexLRxFXn3LpSiRXNz6tRbuoy8S3zddqCjx8tZ6kwYdAD3/LWVdfVpYEBprc90ulCEdhXUOeyoTpvx7ixwMEOSIEEkEhEbL6XGrEhEVkXYP0CN8kZhPHsWoLy/bduSVG13kacWDTk1BJqX0SAuToJEIkNdXYSWljrq6mrsOPGJI5/M2e2gzt797rRpV4rPHr6YmuphZmaAfsFN5O7rSMBSDa5d/YCNjQlPfUV4vfWnd1srTFs/Qa1sNd7PV6dnr2PcKdhS+fyi+UScd4im6HB/RFa22X+ghR4ICggK/L8pELgwVgAEARD+3+bbb3vQqitq3/VB6FxZndFlAnEc5YLb/b5cu/aRAYs/4FOoBuJEZwGvxTr4v/cjOlp1ZLJgwVw8euTHyAdF8V+mjUgEPRf7sH2shXKRV1gRvH2j+GvSF0R5zDg8RIu8UT7cuuWtvH/UqGrU736Fp+b1uDhMxvFd95g7oyafPkWgq6uJkZEOu/a/YvQid/Yf6kz7ChrcuPGR6jWt0NfVQC6XKyFEZLwWUaf+3BynhrH0C6VK5UvS8ulTf8pPCUNkYc2HRTr06nWM2xbNEwFBjfP9Yygy1BeRZZHfpr9QsaCAoEDOUyBoiUQABAEQsv/EXuUCM0+JvtkRxV68lZGEda2jaVLPgmXL7tCsWVFKl86nXOgn7gjG6Z4ekRsMKF52K95VuyTVJb90FI2m7dG/uI/A9wMoM/gdr7cWQyZTLN7w/FUoZScEo2Zmwb7B2pTQDsXKyoht210xMc3F6l3veW7ZQFlf16oabO+rqdyiUFMTKUGh3IQgsLBWfu63Up/R41ywKl2IiPcfadG4EFcfh7N+vycJtVrhMkGH2kXVlOAQEBBNrlxauLsHUWuLifL+D0v06N//FHfNGir/v4iZGif6xVPE0QeRZeHsP9BCDwQFBAX+3xQIWi4XAEEAhP+3+fbbHrTqkoyZx9OfOvj6wEJ51JhX1RfPd8Foa6uza5cbtrZ5mDKlNnXrbifGpiwF6tfG18kIzWpXkRZLv1+vpyUidIMxf/V7xcHRRlRpfIRa9Ysyb/Rf1FkcT8Gi+fBeaURYeDyOUx9SIq+Y0eNqk8dIkw7T33HMKw/dqmuxd4i+coFXXArrQN1eN7mnURrPFUYUMFFj9243/P2jqF/fRrnFsHv3M7Ye8MCrQnsuTzJg6fhDjJjUiOZ1zBg3+Tod2xSm5noDFSCsMELR168uiQpk+vgxnMIDPiCysPlt+gsVCwoICuQ8BYJWawiAIABC9p/YKy9ImHlUknlHxAlM7WjEmEbqREo10dQQ4ffenyoTA9ArZIXXmtxUKLUanyodQUsnXV362iJCN+eldD933u4ulfS5YjuhznIZz9ZYsHjKKZasaAFqakjFUgrm18Vh+GXu3fXmVfFW9Kmjw9qe2oSHxynvL1DAEL0iu0io0YIGhcW47jzBscMdsbY2Rl8bFM6VEbFygsLFlJkew82ZxtQqrvK1SEiQIpHKeebmT/U12sq/nRxrwNBee/EvobJY6OuqU1/fk+MfjMHMIvsPtNADQQFBgf83BYKddQRAEADh/22+/bYHrTwdx8rTqpMHmV3FzNUJOXUMSZGy6OhqYBD+CQ+94hibmWDjdR03rVJgnCfDKhTHCetovubaZxPyRvsSoG6KvpEeJgnB+BoWBcXrengI+QoYoRXohcJBISpaQrh2XtDVAz1DCuZWQ+3OOUJNi4OGBsXyi7j3MACt0hVUz5TLMdIUIw38DOrJuSVkUjkxRubUK6PL26PnkRVQWQMMDLWR+njiWbAGiNSU95MQD9opAEcmBTUhT8X35obwuaCAoEBqBTyccqGt+e2t2/+iXkIkxWw46gu3RrDiZCzj++SmeMHfGDxcsQArHA9+6VJsAPxqHb/UAOFmQQFBAUGBDBWIjJUzaqU/RAfx+Ywd2lpZC0D3X5FTAIRsONJrdkYy/2Ac59dbUKe0ytwuXIICggKCAoICP6ZAYLgMs5ZvIfQ9wbdroaUpAEJKBQVA+LH59EeUFgDhjxgGoRGCAoIC2VwBARAyH0ABELLhBBcAIRsOmtBkQQFBgT9OAQEQBED44yblrzZIAIRfVVC4X1BAUEBQAARAEAAhx30PBEDIcUMqdEhQQFDgX1BAAAQBEP6Fafd7HykAwu/VV6hdUEBQ4L+hgAAIAiDkuJkuAEKOG1KhQ4ICggL/ggICIAiA8C9Mu9/7SAEQfq++Qu2CAoIC/w0FBEAQACHHzXQBEHLckP5wh/yf3yTMuBQlLHP/ZBiqONxe+1O6hDVZjzspJyI8klzGuZLam5AQj4aWNj98elwawvO3UfxVslCWnx/t6w4FSqGfJu5WzJdgYrTzkFdHCMj1wxPpP36DAAgCIOS4r4AACDluSH+8Q9EfaFmrGRXG72Ruj+o/fj9wZGY3jsY3YP3cAeTKQohZuTiMvnalabbPlW4VVCm4fe7uY9mFCKZNHISpbuaYIJMmgLqWEibi3uykyYjrbN63nuJ5VcG+xDEhoJcHVfaNNJcslhWdSnOl1EqOz26DRgoWOLusN0vfV+Pq+qGqm+Qy5CK1zMFJFs3nEAnmpkbpHvXy2RuKlCqGtroAHD81sbLRTQIgCICQjaZr1poqAELWdMoxpeSx/LP9AA3s26TqUuSzvUy/kItVE1on/10u5f6ezVQcOAkz/dS2AakkHpm6NkksIP1MU7vqDDn8mrZ/qfJZiKNCUNPPQ0Zr4xev2xSqOgG/T7fRS1qh5azpX5NLFhM5NcdeWUdUkB/auc3RTFNJsMcpWs14wIg2f+Fz6wx6FVtgqvt1EZZxf+c03lRx5vTsFumeH/rmMnaNpnL5ym601NWJ97nJHjcjpvQsSpfmAxi9bS+FE+u6sHQoRn020K2aNSKZmLCwCJJzn8rYuGQzvSe1p1eLvlSoXQd1eTyvHrtTolIFJVTs2rSTTbef06aUCoKEK+cqIACCAAg5bnYLgJDjhjTTDiX4XMa+93YGDG+nekEWBxEtNsZAL/27tjQmBMdBo6k0fDtnlnRBK8VL8Odn/9Bw0g0cm9ompdiQSKRoKDJzKSuWcGPLTCTdjnJ4SmNSZ/mQc2NZFzYYzaRp/CXCJCJl+m5Fqg7vJ1cJLlCTCvm1kMskbF44lzrzTuE8sFaqt/jQ9+cxr76LcP99pDc2SNnQsziR492ZUC51+HC5LIqlAztQbcFZzE/2x7vRahraGCozfB5aPhOLzpMpJ3rGuEPBbJ5kn3rLQh7DIacVRBrb8GzXGMz7O2OrpUbeotbMnbORk0c2oSfxoXeVLmx9ckdpvahcvC2HXY9RSE+wIOT0b5oACAIg5Lg5LgBCjhvSTDokZVanijwsPIkzi7sq6ICdPYsxyaM2T1y2YZ5LtYwnJMSipaXJyZndKDR8F2VMddOZ2APfnKd4i3/wf73hGz4DCSxvU4hca30YWkQ3VZtkUZ7YV+vIvueP0U2IQyZSzzyPl0gNza/gkVhT2MfLmJYez4TRrVJtESTSCS/ObqPGVs90gHDjwBqkVR2ob2OAPOY+Vh0v8ubMVOZ1aoH1MCcG1bdV2D7Y1KsszHnOIJuMvCqkbOhhQ9H1njTKpQ6yAJp0mc7xfwRA+C99m9L2VQAEARBy3PwXACHHDWkmHZIR6OuHXl5zDLTVCXU/hFWtEQwaPoJ8+onv+PJojm1cT/7OK9g1pQNGxvoZ1hfscZXizfcS5LEFtYxejuXxLGlpQa51vgy2Tv0W73Z8NnVHnOem+13scsGb50+JjJekeY6UOxvG4155Eesca6ZzPgz7eJX8VTbi77kdnXTuClK29i9H7N9pLQhSIkM82brmPLVaV1OYOQj8Ekc+I128XNZyLLo2o+3LKtshjgxCZmBK8JVVnNXpxbpRTVO0IS0gBNGk7XBmTR+PpiyY+Q6TmbJjsxKqHLrO5fTzE4IF4T/wNRMAQQCEHDfNBUDIcUOapQ7FBr+io/1Ylp/Yz/FVWxg0dQy5dcWsGd6JO0Yd2DS9F7l0vn0mIdjjGsWb7/kuIOiv9maYrV5Sm+QxXgxp0Yqrn/Pz8s0l5aIb4OHG5zgNdLUySDcu0qRw0cKkTYynAATTMhOYM7VzhhaEx4dXU2lTegvC8+OLGOWSm/Uj6n5bJ7kcqUikbNv8Lm0w67eQGUPaYZi0x/IVEN5wdco8hs0fQt8BczK2IBSz57DrcQqlPS6RpVESCmUnBQRAEAAhO83XLLVVAIQsyZSjCsWFvGPB/E20Hz+LcgX0iA90Y/yMvRjxkSDLdqyc0o3vbZkHvb1M4XpLcV7c4xse/jKurBmF3TZfxtolWyEubZ2Hp3FZNk5fx+OX5zLVNcb3IZ5aZShlmj4NuWKLIX+VrZn4IBQjfOxLJlVIcW/8Zyb1H0b5cVtoXySOpr3m0aNd1XSA4f/iIqe+1OXWhvacehJJy0o2qm0UWRzXju7DX2TEbefBFBi8CWtJLEUrl2bypLUZ+yAUa86hx2ewMfzhw5s5as79FzojAIIACDlunguAkOOGNNMOyRNCOHnsClXadMQ80VM/+vNLJo8cyYsvOtRp05P+3dpgmSf5rT+jCv3c9lNh6Gv8bs/+hg+CmCPzR2A50Ikq+VQOkOHvb3H0iYzedYyoWn9SEiAc3rgSP4kOetopHSXl+D27gZd+TVbPdsQgpYckEPrhPPkrruDMsampnCdVbZVxekFv9Ka/ZXat1P4PX/siifAjT/4OeIfdwUg79R7Jw21D2KQ9lc09Cn5DyzRbDOL31Gk4iO59uqMpC2fHgvX0njZZqYvTunOcvHYIKwEQcvwXTQAEARBy3CQXACHHDWmWOySODuHOqd0s2/mACWucqGNrzPX9y5mx6jBmdrWxt29JCStTjAwNsChoha5W8pbDy5OT6X2rDo+WNM/y82JjYtDR00Ma4JYKEKICfFDLbYFemn0EaWwgXlEGFDZNDythnpdoPuwaBzcPQ5NI7tx9Tcly5TBRnsaQc9l5LHq9dtOhhFaG7ZNGBpAnXxNOXN2KQZq4DS9PLeaG7YqsA4IsAp8AGZbmxpDmFINULkddcTxDuHK8AgIgCICQ4ya5AAg5bkgz7ZBMEk9ocCDPbp5g+pRFtJ9/gE7VC6XaJpBFeDJ+5AJCIz158SGQJiNWsObvnpjofn3Dl7B9cAMiHC8xqnx68//3FJWkAYQXm3ox8KSMarapYwVEv3XhnLgzr89NJ2UYBrlUQqxMHR21ME7dD6BJ5eLcWz+I/nuiuXx1HzaJ+/3xEaFoGJpkuEArAcGsLV4ZWBCeHZ3HOb0+TGxmmbkFwfkNZWJDePXWl5JliqmCMkn8GNq4H2uuXkBDLmbF6uOMmdKf3NpZjzH5Pf2Ez/9MBQRAEADhz5yZv9AqARB+Qbxsdutn1/PsvOxBrWZtqVUqN9OalqTvGW+KpgmBIPa8Ren2zrxx3Z/x23fICxrWcuTiq9tk/H6euTBpAeH9bkeWxfZi/aBaqW4M+GcwM6TT2djVItXfPz+7yIHYOowsH4GpeXuee13DwiCe3nVq02HLPext5bx5G46N5g1aLfLhkNNojLVT+wCoAMEej4Br5EqzfYH4C3N7dmTwP9cpmMa6IJNKiI8JZ3bbYhz8/BfLdx+ifXktnJdvxbCgNfqaUWycshzHhXOT2mxZrh5ViuTJZrNFaO6PKiAAggAIPzpn/vjyAiD88UP0exooj2Jqk7/odzZjQCjTaTOvHu3M8NmXVg/iiOEwNjiojgT+6JUWELz2DWVRVPesAYI8hgVdG2M+9zq9rcMxK9ifV5+OY6olIiE+AU1tLUQJvowee5VVa3uwta8dC2P74X5wHCltHdIIP3Lnb8uLjxfJlcYHQRbrR+cKLTns/R6jFHGYE3zvULNSS74UbsK2neuoWjg3mmnPeKbZYvhRbYTy2VcBARAEQMi+s/cbLRcAIccNadY6JIticuOS9D/vk6EFwa7Del4/2Zuurqj3V3GYc42d22dnEMEwa4+W+LtRtUGyk+KH3YPpdjCWBnYFUlUQ+/4yMe2PsSnJgiBjx9/2jNzrx4uPj7GQB2Nm0QN3n/OYpUiuJA56RZV607j6/AiGQefovCqEgwt7pormKInwJU/+jhk6KcpjPtGyWH2Of/JIYyGR4fvuLXlsSvDNE6BpfRCCXRm+8gFL5jhiKOwyZG2CZNNSAiAIgJBNp+63my0AQo4b0qx1SBbBuNrFqL7oCOZpTuBJ/J/Rf9413rkeTF1XnD/Oaw7SevBQrHJlmAYpS8+W+LlSvuEUnr9SHXN8sak3u/RHsqRHpVT3BxweykrN6SyyN0/6+5cAHyLkBljmN0EuS2Bch/q4RuihqQ5yuaqYws+CvGXZu9eJ/Fogk8tRS+MoKP7iQ26zJix2mpB+sZdEsH7mGm5+/oAqq8S3Likn9u5Hz9wSPe2vMRxkRIZFYGhirLxJGhdBaKSEcrUaYp0385MhWRJPKPTHKiAAggAIf+zk/NmGCYDws8pl8/vkCbg/fkOpSnbpOiKL+cL7CA1s86eOohjh+4F440KYpknc9KNKSEO9WH38BWMdWipvjf0SjmYu43TxCGRxsYh00od5/tHnZVReEhPKjFXnmDmxB+n8ByUx3Lnzimp1Kv546un/ReOEOrKlAgIgCICQLSduZo0WACHHDanQIUEBQYF/QQEBEARA+Bem3e99pAAIv1dfoXZBAUGB/4YCAiAIgJDjZroACDluSIUOCQoICvwLCgiAIADCvzDtfu8jBUD4vfoKtQsKCAr8NxQQAEEAhBw30wVAyHFDKnRIUEBQ4F9QQAAEARD+hWn3ex8pAMLv1VeoXVBAUOC/oYAACAIg5LiZLgBCjhtSoUOCAoIC/4ICAiAIgPAvTLvf+0gBEH6vvkLtggKCAv8NBQRAEAAhx810ARBy3JAKHRIUEBT4FxQQAEEAhH9h2v3eRwqA8Hv1FWoXFBAU+G8oIACCAAg5bqYLgJDjhlTokKBAtlFAkT8jLCoGqTQxkca/0HJFQk4jA1001NMkJfnBtgiAIADCD06ZP7+4AAh//hgJLRQUyKkKzNvpglU+I0oXzv+vdTEiOp7dF13ZOqnTL7VBAAQBEH5pAv2JN2cGCHtdHmNlmjphz5/Yh+zWJm1NTQoXMEWuTD8o//qPMh2h4i/v/UKpYVcku3UrW7Z367kn6TI9ZsuOZLNGR8YmMMy+MhOcT7N0aIust14ew+wmvfn73D/oaoiIikvAQEeLLx8ecOi1AQObF2ZFx/b033caI+2sWwQ2n3rA4LY1st6ODEoKgCAAwi9NoD/x5swA4cRtNxraFUAqjU9qemRUHBoJoURp5sXUUCu5S9IEYuIkygXu6yUTRxMcrYmNhSL1rYzYmLgUn8uJjY4hj6npnyjLb2uTSCRCQ0sfDQ1dxAkJyGRSZDIZcplU+a9MJudThIyyRS1+rg2yMG7e/EDtuhWV98d7bOeedifq5ldHqqGLwop65eAmirUfREFNiHqwjKOafehdPuU4yHlx5Ri5qrTFyiCTH1l5Ass7D2bA3i0YaakRExePno420f5vOPpcRq9Gtmwd3JfWK3aQT/9rOmRVt2JDPTnXBkZaAAAgAElEQVTjoUXHqha8OzIPL7vBNCyWV/lZtI8rq9yMmdrKRlVY8o7DN2PpWD915km5LJ5pM/YxZVY/0lSfJe0Uc/XBq09ULVkwqbw8LpSXn9X5cmUF5fvPRjdFTRFBvgRHJn8XFB+FPTtGQlkHqtuYEBcVin9wRIo7pLz+okOzsj85llnqRfYstPuSG90a2DFx3WkWDW72nU7I8ff6gFRDh8Dnx+k+0IWx2+fSomQuAsMllClVGHV5HNePX6RqnZJ0mHWJka1tESHn5psIZo7oSOrZl/5x2848xLFtzV8SUwAEARB+aQL9iTd/DxAalM6PVBxDbGQEEpEaH/3CsTZKIFrPGmN5EJ5hGpQslAfkYqJjxYgAzw8fsSpsjTogUlNHV0db2fWomBjURYoSikvGpw8fsS1V6k+U5Te2SYSWnjFqatqIE+KRy2SpIEEmleEXLfp5QEDOse2rqdmhB36fglH32YuHfntEXu6UadIe2aeHbN50gHotGmBRqT7rFuyiSw0DCjTsSYl8ydYiSVwYl/avo2LvKeRT/zpmClnk+Lx6SiQ6RHvfpFePfxi5bSb1bY3w+hxD/fpV0SaW05t206y3Pa1H7GNyvyrKufD4bQBD+7VX/VjLxZyf1YOaU/exatF2Rk7qi0gsJpe+Hs8ubORalBmFdNX456aYAY0l3H79hbzGhXDs3pQwb3dcPoSSX13OhzuXMavcEH2NBG48fM+4cY7oZHH0UgGCPI53r94TH/CMtW+L0z54OY2m7uXmmuHENZ5Jk5KmRAT7ERItRhTlTbOxD7iwqaPySbrGZuQz0kEcEcLH0Gh0kvSKZtXtWJZ3LZ/FFv13in0FhL/XnWLhoCZZ6rjPk3McexqJ/5bT9FrUChcvA/p2boaBKI7PQf74fo4n7vkxXhVsQFm116gVbcFlF1cm9W/63fq3n33M4Ha1vlsuswICIAiA8EsT6E+8OauAIPvixxf08Q2KxtownlCMUZdJMDc3Je075pvXHtiWsEVNLiM8JBTjvKo3w6cv3lOoYB4lRCgWmi9hYZjmt0JP93t8/ycq97NtUgGCCC3ECXFIJBIUVgWF9UAiESsr/Ryt9tOA8OndS975BFKhbi18H97ji/8pPui2Ind8KMVrNMY05CrLT0ZSuWlNZK+uYVGyNDFe7rjcekqJ5gPpUrd4YsfkPFnfk71mi1je3jJdZ4M9brP58GNCD96g/fzWvIm3okPLOhioSwgODcbfPxbZm8M8zd+UCto+iE2rcvXCNcYN7kLwx+d8CI5HDQm7lxyn1ei2mKhF4xudmzb1irB90Sr+qleTQsUNuOZngE3UW6488yfcM5CR06fx8cwGtEpXRVuqpZxLcnEYz9y9qdTInpIFcmV5YNJaEO5eOY+OJJjdARVo5TMPs5qd8dQrT8vKhRLnrKpqadArysx8j/u6ViAO4dbLSGqWtUby8TIjtvvTv1WxxDaIcYvRpGulchjoa2a5Xf+FgkmA4KwAhMaZdlmeEMUzV1duXbuEXd1mBLwPoGARc5x3nKBkmfIM792UIB9Xtm1+T+d+Ndjhac78wvt5o9eOS9eeMtHhexYK2Hb2MUPa1/4l6QVAEADhlybQn3hzVgEhyvMx6hZlkUniiAvxJZjcWObRJy4yjFz5ChAe4I9MXbHQy/D180ZDwwSzfLmQSmXkNsuPtghcn72nZAnLZKCQxfHeK4qSxQv8idL8pjYpAMEI5JrEREfi/ckLKwsrEsQJ+Ad8xtzMnMA4zZ8GhLjYWI5sWUbtpo25cfkOCVr6yNAkMDyeBq3b4X9+J9GmxtwL06d8VDSFc3tQoII98V5uiCs5UMFST9lvWVwgYwcsxUoznoGbVmOomYh1kjg8nj/g9IkTVGjclo9PPSlSrgjbt+5Ex6w4syf1x9/jIRvXutN9bFv2eeix9K+TPBQ34eGdO0pAEIvFCncLkMXTtdkytl+Yiq4IPD29sTQ15P2HV2z9WIpBstVcuuSOWbN2vPSOwLZIOXq1SfmWJ+ez53uuXbpGhbZdKZ7PQLWAJ8QQGCnHPE/m/jOpAUHKxnWb6dmtI77hYTxyHolx5xWUNNXm/otAOjS24eqlB4h0dIj2c2P6NQ+GdmhPUQ0xERITmresiZbfVUZsCmf+qLpJc0cacoZ7wbVpXd36N82n7FltMiCcZP6ARlnqxLW9C8hVoxsmqlFm/slPbB5VTwVv4ncsWPSSwb0LM+50GAPMXdApN5jL157xt0MWLAjnnjC0Q50steNbhQRAEADhlybQn3hz1gAhmjBfLxI0NQmX6GGpHk6wJBf6eUzIo5PafiCPD+S9fxhyqTG2hc1SdTkqxBef4CiQSdHQ0lbuEeoYmlIwn9GfKM1vapMILV1Ff9WJj4sjOCSILxHhSofFvLnzoqejg3/szwOCotH7nefTdvA4zk53oM6Y1cp+zNjxAOcJLZVw5vfgOPui7AhdO5+KJXwoWtCCzwn5MGw7n5rWijddOa+v7uSFVXfsJXvZ6l8Xx7qFU71FP/xnFvr1hqHyXJAwc9dDnMe1UZWReDHl7ztMnVqLAVtc6VvwHpp2g3C9c49xA5vjcuoyUl195OIIJv/jwaAmxSic1xBE2pQpX4wrezazz9+SfrUseb/nCPk7luOlRxy21sXo17E2r157gpqiJ3J2DBxBK2cn8mrB5Ys36DZiGIHnZtN1dQIvLs/P/M00pQ+CPJIzR84Q+OEN2u3GY35kMKYFKlCo2+gkOPpa2bPTy3iaT5vCJYdSy1CxeZJ4yeM4t301Nz7GER0ZR0FzEyQSOU17DqKilWpZEy6VAl8BYcLak8wb0CBLslzbt5gCjfsnAoKEKXtesmlMA9WcS3jHxMH7qNSrDTeD8zLZ6gifTTtx+cZzJvT9PiDsOO/KsA7JYJelBqUpJACCAAg/M2/+6HuyBggxqj5IQvCN1MEkIZAI3QLEB/liWbgwinPEqkvOR/fnmFgXIDBAqgSEhLgw1HRM0JDHES2W4f05ikJ60fiKc2OhL8YzMI6/bAumWnz+aMF+uXEiNBWAIFMjPi5WCQahYSFoa2mjraWFXC4jIE7rpy0IiubtXTUFbZNiqL8+iVHj4coWb78Xxc4pbXDZvoDDl56St8NE1HavwLawL+VtbfBLMMXQXgUIUZ8es2CvPwsmtlTeO9++LtUWH6J+cbOksX50ZC6mLcaTTzUxGO98hbXj7RPf5rwY3Xcnf/XpxNNwIxaVPMUTWRMe373HuMHdEqeKjKd7RiNqu5wrC9bQddpozPVVi23UuxtMcy3JnFJH6bVDk3Ylv/D0QxxlChelZc9OmCVZ62UsbD6Qgae3kjfFOi0VxxIVL8LIIHNvhIycFB+e3ola415ErOxLvQmzWXEhmjHNSyf1Wxrrw6R+85k4oxSvLVWA4HL+NvWa1cTj6YP/Y+8soKs6tjD8xZW4QRKc4O5uD4q7FC20FHfXUooVKO5SnFLc3d01WAiQEHf3a2+dmwQtkISECHPW6qIrd87Mnn/2uee7e/bMEBfxilO6TSl/sgMlxh8m6vh8rhp3oFcDp+/Ix7/8kLwFhAP88XO9L96QEBfLvVP/UvB/P5IYJ1Jy0fkVFqZmVCrqCDGeLF1+jb6/1mKHmyWdzO7iEhbH6ScajO725fo3nXjA4A5fLvc5QwUgCED4oiNntwIpBQRpKkEe7Ue8cUH0o715GQoOdqY8f+pG4TLlsTLSws/1Idp5imKlF8XTl3EUL2pPmM9TIoyLkOByBdsy1fAJiKSooyUqlZzXL72ws9FHxyS3Oont+7gSAUGp0CA+NloNCIn/SSsZlGoJvg4QlKyfPYkGo6Zzf/ovtJq2QV3nkAXHWTq6GSiV+Nzcx25FLSI3/M3Qeo8JLD8V1YONBNSYRkW9p/xzKZxeHWu/eSmqlLH0r18as96bmdMrcSnY46PLsWvcj8TYj5Izd56Sx9KC0oUdUcV4MWnMTn6f14Nlt7Toa/8IN5khh864MXGwtNZcwdXt84mqMpjGhQxRKYLp2aYvHactolUFR4IeHaHG7JcsKfOIK87hlP91IFbW+alZyJJYpSHGBslRKyWzmv5K3w8A4fGBKbRcacir4xM+61LvA4IS12fPuHJyN52GTuby1NacVzalewUvxh7UZPXi37HXC2bO1AX0njEbTZelnM41gB/z6jKgdkcG75zBrJF/8vuQlhzWbc6Iitqg9Gb9PTDxfE3btrW/Ix//8pOcDAijl+3nj15f/uWuUMgTp6Xeu1QoVZro6vzHt4dKSYDLI3Tyl8Zc/90k2/+2bbMECJ1SFsn4VO8EIAhA+LLnZ7MSXwKEhmXsUSoSQKUkOCwGCzNjVPGRxKikL2otlHIZGlrahIRHY5LLEB31bmQqEuLiSNwcTQM9fX31tIKmlhRWj0WZ/KBrSCsc3lkqmc20S5u5Gmjp6KOUQ2xMVOLeB0mAkFzf1wGCVKUKDQ0Vz65epFiNeoT5P8Ar3pFSeS3UTQQ+v42zdiHCr9xCP/gWtfsO5+S/h6jbvTOGshj0jIw+SjxVSisudPSQEvRjwkOIU2q8/4tYJSdWpk1uW/PEv0tjnPS9rFLE8/z6RbSK1qZwrjicX4TgmM8eM+PE1S3SJY8N58kLP4qWKIqehhzXJ0+xKlgMcwMI8PUjKjYeuYYe+fM5oiu9D1RKgvxesepUEBN6Vnvv5SvBlkyhga72518MH0YQYv1f8CjEmMrFbQl8fAnjYnUw0FIRGh6DiSqU50GQL18eDHU0USpi8fDwU/uylp4R9rktkcuU6GrIcPP0R0sSSqXAwMIeW9OUrqtIm0dlx7uSAWHAvB1M6Vw206Mrm88+Z9Ivbb5KSgEIAhC+yoGy4s2fA4Q1h29gK31DiytdFZC2dLUzN3kTMXhv8wgNDXxDo2lZo0S6tikq+28FDlx9hr7u97SKJmt4QmB4DF3ql8bltR9r919AJldkmmFamho0r1WexlWLf5UNAhAEIHyVA2XFmz8HCNJDm3k7pGdFtb6NTdLvXh3t72fS5duoKloRCmSsAgIQBCBkrIdlQu3iLIZMEF00KRQQCuQ4BQQgCEDIcU4tACHHDanokFBAKJAJCghAEICQCW6XsU0KQMhYfUXtQgGhwPehgAAEAQg5ztMFIOS4IRUdEgoIBTJBAQEIAhAywe0ytkkBCBmrr6hdKCAU+D4UEIAgACHHeboAhBw3pKJDQgGhQCYoIABBAEImuF3GNikAIWP1FbULBYQC34cCAhAEIOQ4TxeAkOOGVHRIKCAUyAQFBCAIQMgEt8vYJgUgZKy+onahgFDg+1BAAIIAhBzn6QIQctyQig4JBYQCmaCAAAQBCJngdhnbpACEjNVX1C4UEAp8HwoIQBCAkOM8XQBCjhtS0SGhgFAgExQQgCAAIRPcLmObFICQsfqK2oUCQoHvQwEBCAIQcpynpxQQFEpljut79uiQBtJxtOISCggFsrYCAhAEIGRtD02DdSkBhLgEOWfuvaJQbos0tCBu+ZwCioQIjIzMAA310dqqpPO1pX8UchkPXvnSoW4ZNDQEJAhPEgpkZQUEIAhAyMr+mSbbUgoITz0CKV84d5raEDd9WoGwUD/CZTYkyCEhQUWCXEV8gop4mYpCuZU8fPWaplWdBCAIJxIKZHEFBCAIQMjiLpp681IKCAlxsYgfsanX93N35MqVCwkQgmJtkClUxMbJ8fULwtzChgSZCkcbBY/dPWhZXQBC+iovahMKpL8CAhAEIKS/V2VyjekFCFJIXATBUzeYyYDgG2lNbLycrTv28tLNnVbNW1IgfxHy2UmA4CkAIXWyitJCgUxRQACCAIRMcbyMbDStgCCPjyUmQU6w601snErSf6s/m/qXJToyBuNchmjIInn0yBW5hiZKWRQqbWO0NBT8s/82k6b0w1RLgcezR4QlvMUKn+sncOowjIIWuhnZ5SxTdzIgvA61Yt3m7ejq6FGnZi227thOsx9aU7tKHp5kc0B44RMikiyzjMelryHaWpo4Wpumb6XZuDYBCAIQsrH7/rfpaQWE5Nru//sHRVr2Y/IZPRY09KXPlCP8NWc05jpv2/M+NhpF/dnk1X/nj1ISXkICmjpv/3Z8Sk/yj9xEcQvNHKfzf3UoGRBcAyx56vKSAgUKoFBASGgE2jr6lCiola0BQaVSsfrwHfq3rPRR92OjozAwMv7iOEt1SHNbn4pOSZ+LBM4vypghBXaef0SneqUypO7sWKkABAEI2dFvP2tzWgFB5naRybs8yJ9wi54jJjL5qCdVzHXoUL8MOlrvf52/3tADw64bsdbT4vL6+Rg0GUjFPAac2jKLsm2HYphk4YsrZwg1K0m9qoW/i+mKZEB44m2BTAEKpUoNCHKFSr2awSmvMuWAEHuDef9EMeaXhmo1b2ybjUGrCZTJ9f7w7188E5sOY6hhn/FRmvcAQRHEnu1HSQh/xS29JtQN2ECriatRvNrHC+PGFLMx4vnNszwLjEM73o85mzwY378qithwbMo1oUpBaaWHklunDxGqMkzyDxW3V06i47orFP5Ook5Z6QtIAML7oyEAQQBCVno+08WWtAKC79V/2C9vRB3VHZ4ERPDvw2h+qWWPzO8ZRuU7UD2vDmExcjQ1FBwcXY8DLm1ZfnAkOgoZhuY2WBjrc27TH1CxM/a6b4Fi5ex1DF36JwWMc34UQQKEoCBfVNrWb6BAGtTkfI7QqFi8A31pVOnLSYoJtxeyO6Y1P9awYNOqfylg5k+l7lN59ze63P8qo2adoGGjymjKwlm78DT7Lm4go5T+MIIQGRWLnvdFZjsXoNLLRTQeMILpG+8x7Nd2WBpov/Fnud9d6s/y5NKS1h/5+Nlda4k2zPPG5muLf6Pv7lvkNcmoXqTLY5YjKxGAIAAhNY4dHx+Pvb09UVFR6LwTOf5cHRoqdQwxZZdU1Nramrt372Jubp6ym0SpDIkgRAV64RURzsHFOxkxeyDjzuhQSsef3k2Lv/frXxHpTfOftmLkE8XWa9MxeCe4kBDlz+ZV6ynooEuodQ0cc8mRa9tQqXxR3mGGHDuCEiCEBPviF2WkpgKVtBeC9K9KpYYEPW3wCvSlQYXPA4Iyyoed04ah27I3j86cJTzSkfwmjyhapxNPfE0Z2q0KmvJg1i9dSbRNNQZ2qcGuOeMx6zSDJoVMMkzfDwFh4cIVNG9QkVCTovhvHYRp4/HUrlKa5x6hFLON58z5+2jq6RHvfY+hR0KZ92sDTBL8Of8qFxMGNEdfAzYvnU2HIRPeRJ3CfLw4fN6dLl1roZVhPREV/5cCAhAEIKTmyRCAkBq1skjZtEYQ1ObLfJgx+STjfmvKuDN6/Bi5huDiXWhawTGxdyo5FzbPgv+NZFmHOWy+Oh0DmQt3XAyp4KTNzsMuRFxYyS/z1/LrvOuMb2HL9TO7ydN8BA2dcv6mTMlTDNFKW+JkifsfSHshSHsgSP85WCl55pGyfRBmjFjIr32sWbzJn9ajhhF3ahYVu//2JoLgev8uNsXL8eTCAe49uIdVnV/pVDVpnIAof3fijHJjZayXbp75HiCoIlmyfDuFTbUIzVOMyBNLMXeoTpE6dfAPhYb1yr+Bwmen/2a1TzhdOo6kisH75lzfv4arfhrkeocGLl30ZN7aadhKBCGub6aAAAQBCKlxNgEIqVEri5RNKyDEh/twZPd2Hpm0ZEJTI1pP3sGMUb9wfdlEcjUbRueKFty8dIYA8+q0q2rHuEb9qDGqC1qhd7gVWpnORV5y3bgFxkfHYdXgZ7UaF7ft4qcZo9BQ2ZA/T8b9ss0i0vMeICSBwbuAYG2qwNU7JfsgKBix9DRtuEhwnV+xC3zO7cu7KFK1OV65KtOnlr06quP+8BCz/jxA/V6/UNRKj3D3CxRpNQIHbVjRpwk+DaYxo2vVdJPnv5IUr+1Yj1brXgQvG0KtZnVwtWhFBbt3KEAZw4pJY6jZ0on48sPUgODjFUhuB2s0kBMUFMCR9X/T+H+l2BVWkX41c3HrnjeVq5RCT8wypNvYpaQiAQgCEFLiJ8llBCCkRq0sUjatgCCZHx0egpGpBagU+IRBHvO3P+sCfLywyuOQYfPbWUS+rzIjGRCilLZvdk9URxGSIggpBwQIenaS1oPXMnvZCuoUs+bC1j/eRhDkEVw4cRLDghZcOR/D8AEt1Ha/OjIF6+bTkfIYA91dkJvnJbfpBz/Zv6KH7wOCipiYWI798zc1eg/i3rx+FGs/jDXTFtFq3CQql8iPjoaMa3tWcNuqHc309uJTZhi1jTWYM3kVg37vR4Lrfrbct0PrziYGz1nAvpOe6Lmfx0LvLj7lptKuQp6vsFbcmloFBCAIQEiNzwhASI1aWaTs1wBCFulCtjXjDSAobN9MK7wBhAQV1mYpjSDAy2OLCSzaA/xfUqp0Ca7vXUCZ1gPYv+sev/zSCPXCkvj7TP/zBu061FJr5nvrb6r2WqAGhOW96xHcehG/tSmXbnp+GEG4u/03ZtwpyN6/urF5THsqTz1IceM4Nh24z4/NSnFk81YKN+tJmdyGRHhfp/fA2SQowdypEUv+HEysxzN0HJy4vLgv/9yNQlOlwtNPl71HNmBr/DbJMd06ICr6rAICEAQgpOYREYCQGrWySNmUAoI4iyFjBkzaajlSAoR3zmFQRxBSAwixrnjE5iavhTEqlfLNgU/JFmtqJsfeY4mO1sbQMPFlKpXV1EyO+qT/XpgSICzae50G5QskmpKcjizByofNqZM01VseiCubKOD8KoDu/yuTTazNeDPFMsfPaywAIeN9MN1bSCsgyGSyFC9Vkb763R+74FCiGNriBfDeGKoBQf42gpA8vSDlIqQmgpDujpFOFcbEy96CQTrVKarJGgpoamqgrysiN8mjIQBBAELWeDLT0Yq0AoLLsTVcselCA+UVngZDgudZfAsPpH/9/KCMYdncpXQYMw479Q9UFdt6VKP+ymvk+Q72N0jN8EiAECFLBATpJMecBgip0UKUFQpkZwUEIAhAyM7++5+2pwUQfFyduXJkO/cMKlGpXBWqaF5j74vcDOhcC52kaLa/xysi40Px8olSZ9BfnjOcYr2HYVOqKbWL2+Y4HdPaocTjnm3VYJB81HMyJNikIgchre2L+4QCQoH0UUAAggCE9PGkLFRLWgBBMv/w7P7ccRpIj9wPmbvXmwHdapMQ7YNG7gbYKry5fukaTm274nngH+r2+pXDP9enwfJz2BqKOYZ3h18ChLAEGxLkJEJC0goG6V9piuFFipY5ZiGHEqYIBb5TBQQgCEDIca6fJkBQhPF7jy6El2pOrfZtcVm2gOpW3uQuXxT/IkOoW9yK438vxb77EKxdDnHKqAnaMxoJQPgP75EAIVQCBBnI3p1iEICQ45410aGcrYAABAEIOc7D0wIIHlcOcuWZJ3HlelDMZw+Gpauw5Egsk03WEVh7PlXyG70BhNJ6KqLCwtg9uA1N15wXEYQPPEgChJB4G2RS9EABCQnKxGiClKRoLiIIOe6BEx3KsQoIQBCAkOOcOy2AEBUbh8/5TZw0akbvMjBjxgGmzx3M0fFtcRq3m8LG0aybORW7juNoWsyK2NeXKNF2P0/vLMBISwPpHHlxJSqgBoQ4aYpB9SaCIAGCtMzRRgCCcBOhQLZRQACCAIRs46wpNTQtgCDV/ezwMk7pNqVcbgNqlLBm96yezHpWnetbh3Jly0byteuBfbwPqxf8ybHL9/DyDSAoKIIVJx/SoZJdSs3L8eUkQAiKtVHDgUyRmIMgTTdI/0pJii98UrLVco6XSXRQKJDlFRCAIAAhyztpag1MKyDI4mNRahug92afnQRkKh10NEUSYmrGIBkQpAiCPCkHITlhUQBCapQUZYUCmauAAAQBCJnrgRnQeloBIQNM+S6rlAAhMCZxikGeFEGQyVDvi2ArTTGICMJ36Rei09lPAQEIAhCyn9d+wWIBCJk7pBIgBERbI1MkrmJIXMmQOMUgACFzx0a0LhRIjQICEAQgpMZfskXZrwWEiIDH3A2zp56T2Uf9VUZ4suzfF/Rtk4dA3fw4mul9VCbgyRnC8tTHyez7TFyUAMFfAgQ5byMIUpKiTIWduZwXPp60rO6ExhcOKZC/PsnFkFI0KC+daJjAyR1baNj5F5JngPyf38cvQQdtVRxxmnZULGmPPDaMA0/iaVfRVr2ZVXpe8TI53oFhONqao6P19pRPqY0wX1deBCegjxwZWuhqyAmSm1G3bP70NCFFdQWHRxMZG4ejjTlab86seP9WReA9LntZU7e8Q4rqFIW+TwUEIAhAyHGe/7WA4P3wEAf0mjCwqM7HgBDyiK7TnvHPX03oWbkpc0/tx8rcAt03BzLI2T6+PT/MOoDF98kH6lUMflFvAUEdQUjKRbBTTzGkDBBkT1exxb0OXfK/ZvljS3TOr2TYsg1vxuTiX30x6rqCsprXmX9Yk551TTG1MmbgcQs2dpHOc0y/69Stpxy84kz5wvZcfPiK7o0r07BisTcHMble2MO9/LWoFneLC6oyNDbxZ+ddJUNaVE0/I75Qk1yhYMnu80TGxJHbIhfPvYP4tUVNiub9eJfPx3/351bxyfSqIQDhmw1QNmxIAIIAhGzotp83Oc2AoIrn2oUbOFpEcFCnEc2s4shnbar+JXrv3CFcQ2RoxXqyYGcg3SvEYl26Jn73TmDXZgoti5sQGSdHI86DUYP2s2D9UKJCwoh0OUZUsS5ULWSR43T+VIckQPD9ABDUeyJIEQSLlAKCisun/mTtX9cpWaMsRjXbE7RlGs379OCKZi2G1bTm0rw++FcZQkmD5xx+mo/iIdtp0Hs4g45ZsCEdAeHucw9uPXGjY73SBMoCcTB0YN+Vx5Qr4kipArnVMrhe3MPt3JWpGH+f66ri1MsVxAFnTYa0/HaAsOvcXWoUcyCXkT5aWlpIJ14u2H2R8V0boaWliUoRT1BYtPqY7A/N+A8AACAASURBVDmDptNj4RSsFNFEh7zmhJsFA1uV+G58VHQ0ZQoIQBCAkDJPyUal0goI0c+OMHhbHDM76nFA7wc6+c3jsvkvtCrzNlwd73aF3keN6OI2mUZ/LKf1pHMcXNALvaR49uvru9ilasqoKto0Kj+WvfeXYPKdRRIkQPCJlCIIKhTSRklJqxmkKYbcKQWEwJP8tuUgxcoPQdPXmU5dW7F8aH+GLPlbOkBZ7Y0xUdGcXDgF896zqZVbk5MrJlC3x5A3gKBSyFFpaqH5lectrz54mS71yrDeaz2bXm2ikVkjZlSZwa4LD+jWqLLalmdnN7HTR48Cslf4kpe8+lG4a5dlfMfq3+zJqTFwPsf//FXdXjIg3H3hQ4JCSf1yRd7aIfdhytbnTO9VjzUTxlFt6hzK6H8zM0VD2UgBAQgCELKRu6bM1LQBgpItq1fRus8Aoh4fUQPCgKLa/N60OPWWXqNeYfPEF8Hpzdwo2BmLZS3Zf1XF7yeO4Giqm2SYku3zRtNm9AI0gi8w7kphFre2T5nROaiUBAjeEdbqJY7y9xIVVdhZKniZkikGpZy453+z16s8FQwjOO3sxu1d66jYsDqaDX5nUGUlhw6e4+qeY+Rr0xTXC5eoU0CDRu9EEGa1rohHk/msGlDvq9RddeAy3RuWY5v7NhY+XUi/gv0YVHoQey8582PDiqCI4MzB4wQrNJFF3uYFZSmZS5uXD1/QafQ4CnwjQqw1ZCEn/uz7pq9SBOHGM0+0tbWpVbrgm7+7ru9FYL0l1HAMZvzkPcyeMzrd8zW+SnBxc5ZRQACCAIQs44zpZUhaAOHF7ctoFKhIIUsDfB4eTgIEHWJfHcRVszZl8puDKoY1037np4mTmFi/Iv0OPMLJSkZohCbmJkaAnNePbnHy5Hlun9zJ9P23sdF/P5ktvfqYleuRAMEr3EoNB9IyRylZMflMhtwpBQRA5rKGXT716FrfSZ2kuFQdQVj/TteVzJq/hVHDm7Bixr8UMHaj8S8j3kQQIoN8kBtYYW6UDHBpU83Fw59DVx4yoE0NAmMDsTWwZeXBq7SqVYbC9tbqSmUyGVLe4unpPakxfiuGOhpM+301Y6YNwDi9syU/0Y1jN55QzMGS3Jam6hIqlYo/t59laq9maL6zl0eIxxPOnj7L1dOHKT14I71riE2+0uYZOf8uAQgCEHKcl6cFEJJFCPF05ZnzBR4W+Yn+Rd5PUry8bwMhtqXQjYrG78A0uiw+i57sHscfmNCkWmF1FfHhXqxbtp78jZrx+vgGnPUasnBsO/S/0UsiKwxmMiBIYKCQAEGKIiQd/ZwqQHi6kn89qvG/UtYoVAq2TBtLj0kz2LLXhTEjWuBxbiNuJlUpnsuLVQfimDCoJtGRoYw+Z6NOUlzaszYhbZcwtW35r5bl5lN3dZKikYEeEdFxtKtTjsrF8r5Tr4IHxzdxXbMu7fOHEGlszaajLkzt88M3+3WuUCrZcPQ6zq98sDI1VidQ/tSkqno1w/uXjH0rFxJuXwGTgFvsvRLK4nVzsfz+WPar/SKnVyAAQQBCjvPxrwGE+Eg//lm9lubDp2Cj/Vaa149vE22cnxL5rNR/DHI+zsnH4WjJo7Gv1IKyFrE8dHFHqWVA6UpVMEv60Xp+9zHKt22K6Xf05SsBgmeYlToZLixOiiJAVKwSXVTktkrhFIMUj3l1nJuxxbDRjkdD+53B0NAiv7UeTwO1KVXAlPN7d2JWvR2lLOI5sXUpFi0mUd1OC3l0OArdXOjppE8SiFKlUq8QMDUyeO+ZiQ3z5eGTl2hbFqJiUSlpMYG//1xIlV4DKW2XvqspUvKwyuQK4hLk5DJ8fwmuQhbN7Zu31Qdo5StZhbyWif1wu30ZRalaFBZ5CCmR97sqIwBBAEKOc/ivAYQcJ0YmdEgCBI9QK7S1IFYdOYCoGBUoVeRJBSBkgumiSaGAUOAdBQQgCEDIcQ+EAITMHVIJEF6HWCH96A+PUREvg5g4FboaKvJYpzyCkLm9EK0LBYQCAhAEIOS4p+BrAUGpkKGhpfOVc8dKIH1C29ltgCRAcA+RpmJUvA5SEZcAKqUKC0OwF4CQ3YZT2PsdKyAAQQBCjnP/rwWECwt686DhCoaWfTvXHOLjibZNbi5tWkqtn4ZgpFIS+PgE/RY9Z9v6USgjQjE2MUMrKVs8NvAY671rMKhcYkb593RJgOAWbKVeuaBUoj7yWS5PPIvBwUZEEL4nXxB9zd4KCEAQgJC9Pfg/rP8aQIh+fZWfFrgwsqQvVftMRCs5CKCUsWriMPJ0G82jOXNpXiUEs3q10bT7FUcbfRTxPowZM49Ro3/CyKEc+sHn2SWvQg8jP8I0HDHL9fG2zTlO+KQOSYDwKshSvbxRAoTEpY6Jyx0FIOTUURf9yokKCEAQgJDj/DqtgKCK9mLOjLWULVeAqs2bMqn/n0xdMxc7Qx2czx7ghZsHASXbE7l6Nm0q+2HdsS0hylYUsDVWaxgZ6sHlf3ewPqIyC9pEclhehmaPF/Ow6Dhalv14P/wcJ/w7gPAy0FK9ekFa5iiXoghJpzo62ihTtlFSThVH9EsokI0UEIAgACEbuWvKTE0LIIR5PeL8XR+qN2iAcdgDBu1Wsap1An/MWUOVPrNoVtaG0+uGsT+uBQXuHKNjDV9sug/mSWhJqiUtffS9dw7nOH223NZnbdcIdiVUpt2DWVxxHE7jkonLI7+HS4ogvAhIAgTl+7sp5rUVgPA9+IDoY85QQACCAISc4cnv9CItgBAaGoFmQggvfMLR1gSVPJaZY6fw278HKG1tiI/zeR6+9uDEPSXym+4Ma/oYs16rWXcpkPE/FMXH/TlHjp2le6saDNvhza+VAjmrKEqj8LvoVu5BKfvEKMP3cEmA4CoBgrRRUhIgJE8zCED4HjxA9DGnKCAAQQBCTvHlN/1ICyAk3+zj6kyolhU8P45uzZ8okisxCSE0PAp9n3OM3hmAwrQ0I7VnscfZmpuBJqzeNg8936NMXhXG0rnd1eXjAs+yS16NHrkNc5y+X+qQGhD8LdU7KEpTDBIkSPkHEiQIQPiSeuJzoUDWUUAAggCErOON6WTJ1wACqgTOrv+D1Y/ysG3BQLSTtkj2fXqZJYs2YlSpDl179sB3eRdMOg6AO2c5LGvNmBqhDJ79mlXLflb3IjbgBNsTavGzg3RGw/d1SYDw3E8ChMRVDBIYSNEENSDYZe8pBhVw7p4bRvrfPulUAq0aJR0zzJnkCiXXnnihK4XQvvFloKdNmYLpcybEc69gQiJjv3KZcuoFkCmUVHbKg57uO7t+pr6aLHWHAAQBCFnKIdPDmK8ChCQDQh4fJVfxpui8c8iNKjaMAJkJtik4nU+R4E2g0g677/SwJhcJEJKWOaoBIengpnwZAAhyuQwt7dTvW6FSgYaGCpVKQ31uQUou6QCk1Yfv0L9lpTfFFXI5Wu9sBR0XG4OOvgFaUqVKBbHxMvQM9N/sihEfG6v+/B3XSknT7Lv8lLa1in+hrAKlSjNNR1zHy+Q4vwqgUtE8n+xbfGwMuvqGKdYrJR2TwGTPpSd0rlcqJcW/WObk7RfUKp0PQz0J4lTI4uJARx8dae/vDLwkMLGzMMbkgy2uM7DJDK9aAIIAhAx3sm/dQHoAwre2OSe1J0UQnvlaJC5zVL2NIEi/gNMCCAdXzcO+7Ugq2r5/oEXMi7tE2pXl6vwxaPf+k5Z53z+18cL+Axjmz49u0nsh1O85FtU6UiZpa4pRA2Yxdm4zVi96Su/O+QhKMEHudweHuj3JrfPfL5MPAeH5xU0MXHCZY/vXooMK9+Nzuaoqw8mroaz6oyvrp47HxCkPt3ycWDy2CaH3NrLXy5aX/vrM6FM/VVtppQQQZK5LmPCgMX91KJZql/oQEFzOb2DQkpsc27sS6VUbeGsDhwPz4OJryKxfaqfK9s8Z8yVAcLu/ixN3ItQ2SNeNV7osnNEDo0+8798FBPcr66nVbhKxVtUIeLyPjDwS5XOAIIt+xJUnCZjrJlmgDOGJmx5d2tVI9Th9yxsEIAhA+Jb+9k3aEoDwTWT+ZCMSIDz1sVDnILyZYlD/f+oAof/YVcyd3Z+Ds6ZTbuwULFyOsMa/Mr83slG3ve7nzpSZuRn/LX9hNWQS1XVjeeomo3hhE/Xnqzp3pfKytRRPepM8vbiaiNojqG8Ej0/vYvjCU/ToUoyDW65Rsk4V6g4cTN5Lv2PabDbWnwizfwgIKlUYIwaOYd7KtWhF+dCwyTJOXZrFo5U98Kw+jO1Lt7F+9TAmdJ3Dgs3TaFT3T47dWMDNvzqT0GYN9YukfCOtLwKCPIq+TX+hWo8WKFxP4m1Rn8JWGoTE6PNrvy68f8TUx8P3ISBIfRs+aAJ/rViJVrQ3zZos4cjFOVyZ3QbtLluoUSB9DqL6EiA8Obse32o/0zApnWfAX0dYPrr5JwHlLSBo8/LZM/IXLcqzf0dzqepc+hfMuPD/5wAhNuA8C72KMbxYom8Sf4/pc14z+8+umfuwfqF1AQgCELK0g6bFuK8DBAWxcRoY6H9qHlZFQoISXemXQGwsSgODdPsllZa+ZsV7JEB44p0MCFKSYuI+CFJIPzURhHbD1rNz8c/smDGdsmOmYP74JFtUdRhfUTp2MJypqy/Tr1UFTi9fgmWfoZTXTiAgQoNyJRKPYV7XowfVVm6mlHHiT83H55YRXG0wdZLelIN6j6Vx+yLceWpFq8KeXNYujPWznTQZsR7LFAICRDBi4CjmrliLdowfDYp05Mjri7ze+BMXnKbgcHsBM87IWbZ6PiV0PMgz4j6h/3QnaM9wtlsMZGh9pxQP4ecBQcmDg6vRrvwTJXMb4rF9CPdLTKOudRQJVnmxfj+48p9tfjzFEMHwQeOYt3wl8V53KTzFBd8NXQjcOZD9DqPpW6Ngim3/XMEvAcLTs2s4HpOPEkkhhM23E9gyqWUKACE55qDi0dbRmP84H/uM4wM+BwhxIVdY6luKMSWTgDD+NlP+eMn0mZ3TRcOMqkQAggCEjPKtTKs3TYCgCmPb2u1Y2NujbZab09tv0KJ5PMpiP1O3gLm6L/4PDrPukR3N9M4S23Q0rwfVo9z8kxS3FOfkvjvYEiA89rZ4s8xRAgQpDyF1gKCk/9hFdGxanjPrt1K0Z3eM3O/yrNRAJlc3wPngWszr/oSDqS6H5s3EavAkKhCOTM8U4yS2W9+zA/q9R5Av6eXo5nyCvD/98RYQ+kyiXfcSXL5tSNMigSh+6IvDuYkYNZqBhbaCRy4+FC+a772w9Mc5CG8BQZpi8Lp/nJPP5NxYNIme20/ifGgP5io3NjvnYc+sZtiPuEXgth54bu3Hifzj6Fsr5S/ZzwKCMgH/0Hi2d69J7b92EX1qOo8LDae6nQwjx9IUsfvyMtvPAYLc5wGFJz3Ga0NXXm/sxcUS0+hZJV+6PONfAoTH59YTWv1naiU9ZoMWHGPpyKYpBoQo/yf8czWOvm0rpIu9n6rk84BwjUlno2iXvKpJ8YK9x/SZP1sAQoYOSgZXHh8fj729PVFRUejopCxxWUMlfYuk8JKKWltbc/fuXczNE19E4vo6BdIKCH/NXEmDRnXRtrJh+uJHbB/qyWP9HpR1MMPX9SGvg/05ffAGVX6ohlxTxvXHCupbuqFfvivVC1t+ndE56G4JEB55WSTupKhUoUj6N1WAoPBi1akQ+jcpw7akCEIJhS8z599mypSWhIXLiPJ2xjdGxdXNGzHv0ov8kZ5oOTWiZv7ElSN/9+xJ1RWb/jOC4PHkHnNWH+enHqXZs+U2+Qprk7taUwzvrqXSLyuwiL5Kk/ZbWHt4FXn13052fwQIqghGDEqMICR/PUS7n2Ls7jgW9LNk/BxXFv7Rlim/9GDy6k0Maz6SxSfWc3BcdwqPXEf53CmHy88Dghw/P1829/gfrf4+S8yJKTgXHkuj4ia8enKP4nWbY/mF76+PAEEVzrDB4/lr+Uq044MZ1G4SSw+vYufwTpSetIVSNnrp4rVfAoRb++bg5diY/EnT94tPeLN+fIsUAUKU/zO2H3lA0x9q4OadQK0qhTJsdcPnAeE6S/2KM6aEiCCki9NkkUoEIGSRgUiNGWkCBMJZvnQXPXt2xPflXZ6a1qC1tTNj5x2mda9B1CxkTULYC2bO20qnBvkJKNWKm3vPM6hPG4x1vv2ysNTo8a3LSoDg7CkBQuL0QjIkSHakfIrBl+n7fZnSpsIbQCgpd6NVj+Mc2jvgvS4lRxCqfzDJvrZ7D6qv+vQUw4bfxlKybVteesuQu5yl86jf8T+WFEFQhXLxphdVa5RF751kuA8BIdT7ISv/Pkjn/iMoZK3P66f3uOwcRocO/0NPS8mhLX8Tb2yKTL8oXZqWJdb9Akecw8G8OO1rFUnVy+rzgBDPo3tP0TFOFCHgWGIEob6TlCeggaVDEaw+ldWXpOaHgBDq9YAVGw7Tpf9wClobEfnyPCefRqIyL0n7mgVTZfvnfPDzgJDAP7PH03HCgjcAlvIIgop9S35j7y1v9cmqDYYtp3elL0dS0vq8pHqKYdoLps/6Ma3NfZP7xBTD52UWgPBN3DB9G0krIMwcP51i5SqgnceG2xe9qVoihu1uBdg8qgmxIZ7s3LyRMKUZhoY6qJQyztz3JyjgFVPnLKZ+Uev07UQ2rk0ChIee5m8Oa5IAQUpWTBUgxD5h8tantKtYgKsHjlCwZXPsZD6MmenGmcNDCPTxQa6pqX5JXdqyAbNOvSmtp+LlhS3kbTsGR10NVv7YCnmbXtgnTTF4Pr1I2RGLqGcIgc6HuK+qQKMy9lzYuQgPixa0Ka7g7KY/qDd2C6bRN2nRay/rd83F5p156/9a5vithuqLSYrvGOK+bSAPSs2gdVmLFJv3X8scU3zzVxT8HCAEPDnLLtfcDGpdHJUsBPcX7kw/5M/fY5t+ElDeX+b4FYal8tbPJymeYfgef36wTYoYKdw4f9uBJXPEFEMqZc5SxQUgZKnhSJkxaQEEWbw/S5fuoc0P5XjgJSef5zH8X9+j6KgDFLTQwzcwjNzWuXjt+gIjc0tQyjhyOYAe7cqKJMUPhkUChAce5uocBPUqBmVi/kGqAOG/hlopJyJWExOjlEVs4uLk6Ot/KStNhn9wJLaW0otUhZ+3L3b2b/cB+NAMqR9L99/AyeHbTyn5h0bxU+NyKXoI/G8fJ7pAfQpapnwaIF6mYNfFx1iZfNvdPyXoipPJaVvzgz0eFCE8dY2leDH7N31Whj4iUKswtiafnpo5e9+N2DgZWm+OYk2RZF9dKCI6nqZVC5PL4GPNVapYwCBd94/4aoNTUIGIIIgIQgrcJHsVSQsg7F/9J5cCrJg78Wf1F4vHhYXUnB3H8yMTMEhePC17Tv92f1LqBynZScmx8StZH/gYW4OUvbCyl4ppt1YChPsSIMhAoVJJewWRnJST8imGtLef0Xcmwk6K04zS0ZyUb+iU1kZTkT6V1iY+cV/69S1xeDJjfKSNtzJ2M6Z0Fv2L1QlAEIDwRSfJbgXSAggoA1i06DCdmjhx8MIzGrRtg4NuKMO6dKDowM2Mbl0WElz4+YcZ1O31PzUg7B++mXWB57D80o/U7CbgV9qrBoTXyVMMiXkIyVdOAISvlEfcLhTINgoIQBCAkG2cNaWGpgkQUBAfL0MuU2Jk/E6IVZmAEh00pX1xVfEEBsVjbS1tdqIi1D8YU1srMcXwwcBIgHDP/S0gSLspCkBIqfeKckKBrKOAAAQBCFnHG9PJkrQBQjo1LqpBAoS7bhIgqNRbLb8b7RURBOEgQoHso4AABAEI2cdbU2hpZgGCQiFHS0vMN0iAcOeV+ZvTHN8dNgEIKXRiUUwokAUUEIAgACELuGH6mpAWQFAlRPDSzQ+0NFGplKCRuITu/p0XNG33A0ZKH/afdKVJgzK88vTH1yeKfPksOHP8Fl36dcZEW4NDS3/HoO0ozJ+eJ1ipzbWXMVTPE4Iyb1OaVHBI305m4dokQLj90kx9FsOHuWICELLwwAnThAIfKCAAQQBCjnso0gIIkEB8vCZ6eto8PT0f/+qjqJe4Id+b6+yR/VRv2pyIVw9pMeMpR2aXIUynIE5WxkQEB7B62UI69xmEMj6AQ3652b/vHH3sXKnQcyxFrb90VE7OGYaQYF+8ws2RyT7okwYYG8hw8/Xhh8pOOS7jO+eMoOiJUCBRAQEIAhBy3LOQNkB4K8N/AYIsPo6Hd29Tpnot4jzuMOJmYdY12Msh3yY0L2GHpsKXBfOPUaN4FEFaebgcZ8vTJ9FMrReOu1Zl2tUolON0/lSHQoJ9cPGR8g80pHVfahCQojEamhrksdTD1cufBhUEIHw3DiE6mm0VEIAgACHbOu+nDE8rIDy8fJxXQXF4Oh8jrkRTimhFcz3WidldKqOUy1i/fDHlnKy48SKEUG1zHHR8CQ6Nx7RsZ3rYP2KdW0UcXq2ndouW9NnuQa9Setw/dZGfZswhv9n3k5sQGuKLnq4+GtJOhxqaaGpK+0RoqFeCSAsaLj70EICQ45460aGcqIAABAEIOc6v0woIUpRApaHJs7OLCaw+jNrSrICmFrraiTslrV+2kO6DB7J98giMyjVQ/23b2WC2Le/HnXXziG/YnFub79CmqienwwphI70Xlb5EmjakT7PSOU7nT3VIAMJ3M9SiozlcAQEIAhBynIunFRCShfhUDsLq6YPQLtqWuLMrGbRqj7p4y+Fb2LeoB9pKGQdXTOewrxa9a5XhblwBQojFwmMrhev+xg/lbHOczt8jIEgRkJ3nH6GTBI3fzaB+Jx3NZaBLo4rfz3Tgl4ZVAIIAhC/5SLb7PC2A8OL+dbwjZepNj4LcbhDjUJW8OhDrfQ+dMj9Sv4Q1Zw7vp2zj5mz5pRFV+s9S6zJu8zPOr/6FgCeXuR9kSsNSBszb9JiyeSxQKl/zz45jzNq0hUKm3892zOkaQZCF4ObyAh/yUt4iiGln5czp/vY8AnlcFB7ur3B97oLr8xeY1/6ZblXfh7GzR49QqUlzTN4bAiV3nnhRoURedX5EXLgf1y+d4+QTXWaObf/Jg4D+67CmqPAwjE3NEp8TlZJXLs/JU9gJfW1NkEfj5hVGgfzJ5wmo8Hjugm1BJ/Skz4GIQE9idG2xM5VOlVLh6focmwJF3nweGehFtK41dqZJe/zHBZOgZY5u8imi8jiCIjWwMn/7ebymOXq6SR1WxBEUAVbmKT9aOts99OlksAR/neqVSqfasn81AhAEIGR/L/6gB2kBhJSLoMTf2x9b+9zqW6LiFRjraREZGUOuXB8ecqPENyyB3Gbf1xfzVwOCSsXNEzO5GVSGh5ev0GNQD+7s3UOjWvmJK9qWig7STpZKnj96SEiIL/v2nOXHCdMobpSAfq6kFzUKgiLiMDPUY/miRfw6fDiacVEEa5hin3Ts8bHZE3H89Q/0vG9z//IF3Et0YUT9vHwuW+RDQPB/fpZBv21n+79r0VHJuL5vG88Cvdhw15rjK7uxbflWylUpwJXHGgz7uSHXVv+GokY3Lh+8RP8xfYm8s49jPlbYxz6kQMt+ROyYiqxad64evkTf0X2JvneAw57m5I13Jn/LgRTX9Wd0k8p02+pCBQcjkEexe8FILjqOZUmXwhDvx5imVei08QmV8xqDIoq9C8dwNvdIlnUrknI3/05LCkB4f+AFIAhAyHFfBRkLCDlOrnTv0FcDgmRR5Ha2XSnI9fM3+PGHwgR4vuSilzEldb3oPHoKuYBwjzv8tXQP9X/sgXGEKweO3WPcn1OTIgVR9Pt9PR1rleDA/v20aNOGkBc3cCs/iIlVEyEiPiKUBIWMwPBYgpwvcNGoFu0cwtG0K01+k//GhI8jCBGMGDiKuSvWopOspCqeX2ceZE6TEBY9KsUfvaqxcuLPdBs/kxpN/+b+5ak8XdUNt5oLubNmDj8tnI+F2zm6bA3D/cR9Hl6fhsuan3CtOpdHG+bS9a/5WL6+SJfduhwbX5XtvxSh6LQHiYAAuJxeyvLApomAAOzoW4yCk28nAgLgenYFi30bCUBIgacLQBCAkAI3eVNEHPecGrWySFkBCJk7EOkFCMde1OLy/kNM/q0fYbf+ZXlwC36rp0JpYIa+JiT4PMElSofnl05gVaMVlnER5HFywsJICtVHM+TPrXSqWYJ9+/fRqk1bQlzvEvnDYH6y1+LQvzu4vH0zbVbuoXoefbxuHuOE0f/4pWTya15JZHQ8xkYG7003fAkQlPJI1k3uwWntH5lQ5BonrQcwrlkxNk3pRZm+I2kw+SkhmzoTvG8km3P14s7OdaxbswRNj9sU/nk7YbkrEbGlC8H7R7PBoAeP9q5l1eplaHrdpfioW7za0ZftfYpQ9PdUAMK5FSz2EYCQkqdCAIIAhJT4SXIZAQipUSuLlP0aQAjydSWXXRE0491J0M6Hkfb7x7cmxEahrW8MqmhkSgN0NVWgoZXtznnPyKFKL0CYvjKUe67utKnmRIz3HVa42jGhWVEcq7alVkE91g5vyT8eNvyvlCUxxkUoaStnzcKbnL+/QQ0IEzfeYXqPmixfuJBfR4zA/+5Bztm1ordj4qqUnWMmUn7WLAJPbOXhIxeeGRZCx/k5c9bMAv995Cu1iJNu5yme660PfAkQknXtX6kEbft34IZlB35rW4pl43vQcfQ0SvQ/T+DuPrzc0JvrJaZybcsyZi75C61XF6kx8z5eYfoE7+vLq019uFxkInf/Xca0RQvQcb9CzSVBPFzUSgBCBjqvAAQBCKlxLwEIqVEri5RNEyDIAti5eT/Oj2+Rq1RNTKIe465TDPcTD1i0bRHBtw5yzT0cN+dLOJaujU58ENdiTcn38hKV+s2haSm7LNL7zDcjvQDhn6PabN1+komzpqF4sI9Xehp0bTeQpFQ85AkxjPx5NL361OWohy0mUT788nN7jPSlElEMnLWVbnVLs2/fXlq1bUek7wtUnFlzjwAAIABJREFUlevQIl+Bt4AwbTTHlm2ix5jhmCmDGdp1I0t2jEYDBdExMgwN9T8fQVBGMGLQKOaufGeKARj901TGrejN2r+vM3FAbWaM3cLk+cNZ0LEDA3YcYv2AwTRbuBTPf2YS1Xg8hdy38zBfWzxHdqLfzqNsHjKUxvMW47PjT8IbjqGo1w7uOXamU35t/lFPMdynokPiFILLySUsD2rKkq6JOQb//lqUQlPuvJ1iOLOCRX6NWC5yEL74cAhAEIDwRSd5p4AAhNSolUXKpgUQwoICiEmQc//8LszqdMI65DwPjWpROfQqrwzqUa+kFc8eP0UpjyI+9DXHlBVoVcgIXbfbmFRshl2u72cjpC8N89cDgpJD6zZR6H/N2LhuN5MHVmHdkWD6Nbel7S87OXpsNtrKcJYt30XNhvWwCLjM7rj/MbBiNAO792XViQvooSJepkRPR4ul8+fTb9QopImH4Gcb0HbqhammBn//3ICA5rOxdTuGsVMF9FVRbF3vzY4DY9AIOUWJBhs5dXsb9u8M7YcRBFlsOK/cfXEoWBgjHQUXD+4nwbYYZUsVwzqXHiFeLrh4ReFUugyWRjooogO4cceFPMXKkd8mFypZNE8ePERp4kgpJweUMYHcvP0Mu6LlKGArfR7D0wcPkJs4UtrJAQ2VjNfPnNHLXQw7MykpVkmwjztBchOc8lqpP/d49ghdu6LYmSd+HuLjToDchKLS518avO/8cwEIAhBS8wgIQEiNWlmkbFoAIcjXi+cPrvIoII4oj/tEOZQjv0YYCvu6tKjshI7nMVbd1MXY/ST56tQkRGXNi6vO5HPMS+vOzbFWz3uLS1Lg6wHhrY4nT53G2sqeYmWLY6Cp5PW9EyQ4NsQsxodcefKiLY/i5P6DODX5kcJm2kT7vcDArrB6uWry9ez6aR54hqChAmV8NLU69sJBX4NwPx/0bPLw5MZVSlevgY4qjqsX3KlRr5j61qiYBIwN3x/X/1rmKEY95yggAEEAQmq8WQBCatTKImXTAgiS6Te2LOSOQy0cfM4RVLABZRQX8bfpQXMna1DFcf/KZSLQ4PjRq1QpU4RyZS25oypD+xLfzyZIKRni9ASElLT3LctIp1OuP36XIg6W37JZ0dY3UiAkIpY2NRMBUVzisKYv+YAAhC8plAU/TzsgLMG1TAvyep4gsMgPlFee4YlWa1o42QAKXt67xLq/t9Jx4Gj05aH0HraWtp3q0ax5S8rkNc+CSmSOSTkZEDJHUdGqUCBzFBD7IHxedwEImeOXX9VqWgHB/fZpdpy+TJH/daeU8gUP3F/gWLUb1fKZ4+1ylxjTgjzcOZ/2Q6er545bjDrF6j5WGBaqjoVRYma8uNJ3ikHoKRQQCmSeAgIQBCBknvdlUMtpAQRZtD9b1mykZNuBVM0vbcMj5Xf506j8CDZc34aDgZTepWTnX8Mhby1UigS2PrTkwOym7813Z1CXslW1IoKQrYZLGCsU+KQCAhAEIOS4xyMtgJDjRMjEDglAyETxRdNCgXRUQACCAIR0dKesUZUAhMwdBwEImau/aF0okF4KCEAQgJBevpRl6hGAkLlDIQAhc/UXrQsF0ksBAQgCENLLl7JMPWkGBFkI+3Zfok2X1h9vKKOKwvVVGEUKOaj7KY8LZcGFSMb8kHhcsLjeKiAAQXiDUCBnKCAAQQBCzvDkd3qRFkAIfOXMM98oHl09TtEKlbjvZ0yglg51vFcSXf8vOlSwY+2iufw4dCTeN87jFxXPvFuajC4VhFWl1pTOY5rjdExrh3I6IJy954aOzrtbMaVVKXFfVlNAX0ebykXts5pZmWaPAAQBCJnmfBnVcFoAAeL5ffQI6rXoxJMzf/PDiBmsdbbA7uQmek8bjM/di3hHy3G9f4fG7Rvj+tiNhTc1+dEhnjbd2mGuL5Y5Jo9nTgaEtO6kGBHojYG1PVrxQYRpWGCh+xnAkEfjHqQiv13iWQtpv1QEernhFxqDpX1B8lhIWy8nXYpYPPxjyZvHIu3V58A7xU6K7w+qAAQBCDnuMU8LICgTwpg6dgT5S9fC1+UKfSZOZdEDY+rlUdGkiBXul44QVrwGx6ePpniZMgQq9XkVroGdype89XrTpnLeHKdjWjuU3oDw0tUVx8JF0P1gLick0J94ufKNmSqFjAQDG/Jb6if9LYEX7kEUzp/nP7sS+eQMnmZVKWZnSITPS17r56WshRZofvpcjbQCwss757AuXx/DsAe4aJWgpGnysdIfm+b7YAMjj+Rj+8QGaR0CZJEBHD1yEoviNalSwpY7Jw/gbVyRjnWd1HUGuexj8HIf/l0yKM1t5MQbBSAIQEiNX4uNklKjVhYpmxZAIDYQF89oiHZjw8pdtJ8wlj0ellS5MJfKI38nd+BhFh4NxtS6OnVtj+Jj3Qw7DfhjyHqWHZ2HpTiK4c3opw8gqEiQK9HR0mT+vIUMGTMCHYUcmYYOeknBmuCAUMyszdHSkHJCQtg4axxx5fsxuG0lVPFRxMhjWbT1LEO6NMP97iHOustQPjtCrQk7qGKqZHrvARhWqUTwq1cYGMuwtHci+vlFmv62hVLG//0L/11AkMWEExoLFqYGhIaEY2ZthSIqFIWmNvEqfcz0VYRExGFpZkxocDCGVtbIQgPQMrXBUDL6nSs+KpRYhSbI49HQfs3wNWHM6VoUrVzWWJroERkaSmyCHAMzawxU0QRFg1ZcKOSyxspIm9CwSFRKBVq6+piaGLF21X669WuHTnwMCQo5MdEJ6IRdQsepLcrwUOTxLoxdcI81M3sTFBKOtlJOvJYxua3fTpVFR0YQExuHkZkVhjoQFhpOgjweU0trYkP9UGkZERMbj7m5ISGBYdg4On4EcVnkKyHFZghAEICQYmcBBCCkRq0sUjYtgBDw6h4nzlxiz77dVKjXjhKV63JbszAz8+5g++u6dK9XBO87p/nnrg8lCkTgVHcwRXRgYNe5zN06lk+8T7KIIt/WjPQBhEi6jZpPgxKOnD57kYYN6hDq9oDIhlP4o771ex1yvryf21569P6x6Zu/Rx8fwSGNDjx0vo9ReBAVy+dD2bgTTwaPZdTGZXgcX06sZRmeXrlCdOFKOFWoQ4HoOxzTrkzPAimMIMQ/pcvgbWxd+zvzh3bixwV7kO1eiGOrmvy8QsbW0ZXoOWAC61YuYOPYbtSasQ3lytYEdttBfSuD9/rgevYohevUYXztQvx8YD+Dhh5g08LuTJy6mTVTWvPjDBe2TKtExTk+PJttQsNuu9iw7BemTPqbgU3teVx0ME0ilrNCMZCZ5a/wMLgcpSz8WPzPCzpVjKPxzNfc2dKLS/HuvHzlwK+O9/hx+mt2LWlFr8adGLppL6s6lWfKRR8cdTVRBl9h+QkFLWydGX7BnmVNo9hr1JHBtqdotjCOjqGLCG6ygvx3/+SibS8G5bvONqMxzGzwfr++red9fWsCEAQgpMaLBCCkRq0sUjYtgCD9gotI0OTqoVX876dxaIW/5rcb0bhNH83kHbsIvH4cx2r1KWhngdvVJcSU6EVBbRjZdyWL/hknAOGdsU8fQIhm0Lw99KjtxI7de+nQoR2BT24Q3XQw3XJr8uj+XWJlidML9/bvQKNBR8qZgPPBFdSYsAnHK2N5kH8oV67cwSL8FYXymRNargGR0db0LGmAy+1bBLvs44KnCeY62gTlrky9vEqOLtrJjF0r0fzE0pQPpxiW9v2RAkN+5+nmVTws0J5KeqYM7R5Pj2XxbB1ViZ8GTmTtigXsmNKLilM2YrChM6/bb6TeB4CASsnFFf25XHI6E6p78/PScDaMrs6AIRNYvORPLm1bTYRNCfrvCMNvZUF+WRTM+rG1GTh4LP1bObEpoD7DC57nvE0/2nuuIbh8Pw5OHknl3+cTs2s0lwtPZli5F1xfMwq7PicobeFJvynnWT2zFSN6jWfhli14HBjP6aoz+dlOC5dtQzltN5hB9QuRoFCybXQzis45RQ19FcULdKZ3kxDKDT+C0bWJ3Cr4B51M9/K7S0vWdDLLIt8CaTNDAIIAhNR4jgCE1KiVRcqmBRAk0yOD3Ni95ww/9euDPCaAo35mtCn48dyB7+Mj6JZohobfS9acD2Jsl2piu+UMAISxG+7wW8cKLFuygr5DB+Jz8xD3nDrRw0GLyLBwNLQT5xoubViOVvuB1DBJfKtr6xujODeGAwktePjoAYaxkdQpZ090/Q54/fkHfWfNJT4qjCMz23PRdij9SgexwdWO/xVQcmz5KRYcWgIh5/lfq42sP7mB/IZvaeFDQAi7u4m2U+6zZcsQBtbpytRr16ho4Err6U/ZM7IErQcsYt8/y98Agv6GTrxuv+mjCILn9S0M2C7n0KKenLtwiS23VGwYU53+Q8YztU8dem9TsnOgNQV+98d3VSH6LQ5hw7gkQGhfk0uhuShiakzVOnUwcN1CoG0nRg8ZydgpvVk5+y/GrVjNjV1nqax/nEUxvVjcDnr9cZutf7VjSLfhLPp3J4/W/YppzzXk19Uk6t46Oi0OYNuSX7lx2QULvx3syj2JeU0t+GHwFjppbsdxkAQIk7hZYBqdzfcy9WlL1nYWgJBFvgbTxQyRpPh5GQUgpIubfdtK0goI39bKnNta+kQQIhkwZzc96xRj5559tG/fllC3R8hqtqZdPul0zbfXuTXz0eo0gjpmb/MGok99HEGIbdSLQkcGodduGfkUHmxaOgelRQU0IkJ5YVaFpkWU7J+7jzkHlqCpjOTWPS/KVCiO3jvRhI+SFJVRXL/hSrXq5Xh2ZhdODTuhiZJ/ly5Cq3gtZKGe/NC8NUfn9KXaxDXIbhwkLl89yuezeGf/DAX3zxwk0rwguTRkBCcoiY7WokHFvFy4cpsqVcpxdOsWcleoy7VrLvTtVo6bLgk0rJSfC5dvYqIRzC3vBEw15Pi5vGDYH+O55RqDXeQTAoycsFd5E6Vvg51xFN76RXm1cyUJjsXRUOrQuklJRnfuRfvBY9E0cqBBdTv23EugfQVLLu/bxFUvHbr27EJu/VgO7zqESV5HipStiM+1Y+gXr4+e3x0CjEtSSOs1d8NsaV6tULbeF0REEEQEITXfzAIQUqNWFikrACFzByJ9AEFJSIwMC0M9FsxbxOAxw5FiOUGu/2Jc5EeS1ykE+PpwedsGrPpMeB8Qjo/kn4jG6Cojcbn/mAZV8+JqYsaZ+RvZcuQATy5dJb/mPa7otadCzAn2qZrQrbSC1QPmMG7nEjTDLlCj7b/sPbUSu3dSElK7ikEV68PRk86EetznxyHjkKqSeVxgwZZLyFSJ46Rllo8hg3uQtkWNKv6dOxw/6+oUMNdFobSgZZt6+D+5yqsIXYqWLImlbgLOd+/gE2dB84bl3neOhNcM6DaW5bt2iCgYIABBAEJqvj0FIKRGrSxSVgBC5g5E+gDC2z4c37gY5zAV0sLAaP9XNJm4hIpJB276PrnAzNVnmTp/GtbvvMjl3o+ItiiGqYE2MdExeN07T3TlZpTXe1tv/IOd3NBriFPMDY4F21PJTsGtw3fpPaGP+ldwQHAUNpbvv7ZVKlh39A4VnP576eTHysvwdH2JWb5i5EqarVJ432DHqUckL9DUMLChbeeWvLNLQeoGUCnDx+0FMsPc5Mv9TohfFsmDW7cJjteiVKXq2OT6eGllTKg3Lz2CsC1YGptcYvOn136htKtdInX65+DSYopBTDHkOPcWgJC5Q5regJC5vRGtCwW+XwUEIAhAyHHeLwAhc4dUAELm6i9aFwqklwICEAQgpJcvZZl6BCBk7lAIQMhc/UXrQoH0UkAAggCE9PKlLFOPAITMHQoBCJmrv2hdKJBeCghAEICQXr6UZeoRgJC5QyEAIXP1F60LBdJLAQEIAhDSy5eyTD0CEDJ3KAQgZK7+onWhQHopIABBAEJ6+VKWqUcAQuYOhQCEzNVftC4U+D97ZwFW1dL18R+ggt3d3VdFsbuxCwPs7o5r6zWx+9otih2omKBid3ei2CKd55zvWQcOHvKgH76od8/7+lyF2RP/WXvWf8XMjisEFIKgEIS4kqVfph2FIMTvUigEIX7xV3pXEIgrBBSCoBCEuJKlX6YdhSDE71IoBCF+8Vd6VxCIKwQUgqAQhLiSpV+mHYUgxO9SKAQhfvFXelcQiCsEFIKgEIS4kqVfph2FIMTvUigEIX7xV3pXEIgrBBSCoBCEuJKlX6YdhSDE71L8aQTB/sQNTBMlIH+2dPEGrEqlZpadM5snWMfpGLYdv06ihAkomCN9nLb7PY2p1GrmbTvN+rFtv+ex76obFKyixqDlLBvSHBOT+PvmxOsPHqg1aizLF/6u8cdXZYUgKAQhvmTvp/WrEISfBm2sGv7TCMLCHWfo37yCwblr/L+ycP01BvauyQPHzSQtZ8XnU1sIKmdDuczylSgN5xbYkLfPJjKamhhsL2KFfS73aFH9r+9+LqYH5m07xaBWlQy26ev5irefPDHSBIJxIjRJc5A3Qwr2bFhNtQ7d8Lp7FaMUabnuakSTytkZPmoRo6cPIV0sp+lw/gFNqxQzOI4freDh7ceGw1foF4t1dD08mxvZOtO4eHLWz52N9bDx2i+JRlXunNxGcKk2lEyt901wA4NcceASfZtX/NGp/E+fUwiCQhD+pwL3v+hMIQj/C5Sj7+PPIwin6dusnEFQNT5uVOt9Bucl+XA+fZ0rrxIQ6PGZfEUL07JpA4yCAzk7oQrFx5zh7Scv/D++wNTMFA9PH8pWKqf9WmVMxeHsfZpXj/C5ZoOjirnCPPtTDGhR3mArr+8c5LS3B5m+3scsWVa8zerz6cUDcH+GVY/eOE7vR4F6Ndn/tTRt2c/ZwAIk0KSjZYOy2i9jGiqHLzyiSZXihqr98O+/evux2fEyvZoaXseZQybRfvpEkj8/wtCV9+nesgQ717swe/UEPj26xlP3IDQfb3A3QUVMrtnRfuwMEglxMoqORoQf9qoDV+jbwjAp++HJxuGDCkFQCEIcitOv0ZRCEOJ3Hf40grBguxCEsjGDGujN+VPH6TPnNqNGJMb7phmqV29IW688N+8+YfLQvtw4d5lLq3uRv+u/rDrnRwbPJ/w9yIq9G1fQfeRE9L5EHWVfB849oGVcE4RtzvSPDUG468idpJDiyXky5ijMG9/K3L1xhVQqN1p264XzvJGkz5qPfFWrs2z3I9pbVeLSzuWc98zIiEHdSZ84ZpogBKFp1bj1juiDKARhkxCEJjGvo9r3IQ2HOlKteArKF8lDxsSe7DxylQo2w6md79unvwPu7GD5hWBePvPEqnZ2tl5wY+TgLmRLYthlssrhCv1aVI7flzSWvSsEQSEIsRSV36eaQhDid63+PIJwit5NLAyCqvZ1o06fMxyf7cWhox9x3vmUTB1bkdT1Dj0HDccYNXv61qLuQgdm7HlMwP2rTJ/YDfsltrTtP4oEhjwI5x7Qqqa5wXF8T4W525zpZ4D8aAI9ObhjM29Tm2DmdpsUGXJx+XJKUuTOSA6NGy269eD0wjGUqFIWJ88SlEzpwfaVO6nctytFc2chfbKkBofkePERzarFrXckIkHYePgiPRvHTBCc16/AzjUthTOqaGdZCpcTTrx4fIOgjOZY2XQg2bn5HAkyJ2vQY5zc0lMlf3IqlMjC7McFmVozscF5SoU1B6/Sr2WVWNWN70oKQVAIQnzLYJz3rxCEOIf0uxr8EwlCr0alDWIgBKFuPxf2TU3DnluJKZk9FQS+xemqL/16NMFY7cvEBv0Yc2gxC4+95PPFi0yd0JXtS2fRpt9IgwTh4IWHtKppeBwGB6pXYe5WJ/o2NUx+Xt3Zx8fUZgTcPUvmPMV47VORuzeukkr1lhZde3J64d+U6zCYzquu0CJ7AFccTvBXq+p4fEjAwN6tMJQW6HjpMc2rl/qeoX9XXfEgbDh4gZ6NY56rv1rN1Ll7SJvUC5s2zXlyegc3yEPZUuUpkysJn/eM4EGJ8VTKk0Lb/7VjWzFJ7I9/mS6UM4vdkNYcvkb/llVjVzmeaykEQSEI8SyCcd+9QhDiHtPvafGPIwj2zvRoaEB5aVQ8dtlOs7Fn2LJ9PjPWnGTTyNqoXI+wyCULozqaE/TlJV3sA9jcXc26O6Y8OODEpDEd2bl8Pu36j4gFQXhE69qGlfn3rJUQhN6NDXsl7h9bRobiebl+YC/F6lvy2L0Ub549xMj9GS26dMd5/jA+vHxC/vHbmGYzngqlspHdPAsWtVpQII3h2PyRy09oUSNuyU9ED8J6h3P0aFTGIDzj5+wmbSo1Dauak9bsCyPHb2Hc1LYkyWxBggOjuV98NBaZArh6/xPF03lQv+d2XI4tMNiursI6x5v0b6UQhFgD9gtXDAgIIGvWrHh7e5MwoaEsopCJGGk0Gk1s5yRV06dPz7Vr10idOnVsH1PqxYCAQhDiVzz+NIIw396Z7pYlYgZVE8z7t19JnzkdxkbQdtpB1g6rhdr1KEvOZ+PvjqW4uXsxiVKlZKrtFPqsuMLuNVsY0L0RDts303vEWINJiocuPKZNXQO5EN+59HPsnOjVyIBrX+PLtoVrefv5Kp80FRnVPx03PpSlQFoN+/bsoWv/fpyYN5r6Q6ax3XYu1foP5dCcJdQZ0xs721kMHj8x2lMAuuEeufyUVrUMK+/vnF5YdfEgrDtwlu4NDZOQCXP3MKB7Je5fukWeYvmxnz+dVPUG06F6YZ6t60yvk9lYM38UeVIHsWb+cgoWTcmJgGpMalksVgmZ64/cZoCVQhB+dC1/pecUgvArrUYsx6IQhFgC9ZOq/XEEYZszXS2/L8N+r8s9KhZIB77v+WCUg6JZTHHz0ZA1lRnv3nwmQ5Z0vP/oTqYMqfHz8iJJ8uQGV+Pwxce0rWv4xIHBhvQqzLE7SY+GMZMflb8PH1WmpAr6xEfjtAQ+vEia4hUwC3jL3Wd+lCmVl+uH91KqfnP8VEYEfn3FzlMv6NSyKprAQBImMuxBOHr5KVa145b8RPQgrN3vQreGhr0l+4/fwiKPEU/eBZIrZ2ZSpc1AcrOQDBFNgBeBJknxfH0ft4Bk5M2VnWSJNDy/fIRkReqSPpmhTBLYePQOA6yqfc8yxVtdJcQQM/QKQYg30fzxjhWC8OPYxcWTfxpBmLfNiSalM2Ca0HCGelzgF10b647dZ0KP5nHaxWy7EzS3yIhpQsOKLU47jtDY5pMPGN212U/rwsvXnwFztjGlY9wSrO8dsFqt4dCNT/RpoSQpfi92v2J9hSD8iqtiYEwKQYjfRROCkCRJaoy1+tRI+z+MjOT/ePqouPb4JTXNC2AkP/gNypsP7qx1OI8R6ngbrSCVO1smrOvGrRv+V5ibgJrnJ8wt4mJtOXqZF6/fE+v4709YbY3GmB7NKpEpbcqf0HrcN6l4EBQPQtxLVTy3qBCE+F2Ar+7v8FZlxD9QQ2CQhgD5Exjy3zyZNdx9/oJ6ZX8fghC/aCq9KwjEHwIKQVAIQvxJ30/qWSEIPwnYWDYrBOGzfwaCgjUEBkNQkJqAIPmvhvSpVDxxe0XjCgpBiCWcSjUFgXhDQCEICkGIN+H7WR0rBOFnIRu7doUgvPNKz8VrtylcsBAYmfDC1Q1T06Tky5GEp26uCkGIHZRKLQWBeEVAIQgKQYhXAfwZnSsE4WegGvs2hSC8dE/Hhq078PcPpHrlqthtt6dli7aYF82gEITYQ6nUVBCIVwQUgqAQhHgVwJ/RuUIQfgaqsW9TCMKTD2kJDNaw98ABHj5+RMvmbciQPgvZM6oVghB7KJWaCgLxioBCEBSCEK8C+DM6VwjCz0A19m0KQbjnloZgleQdqPD09iFx4mSo1ZAzk0IQYo+kUlNBIH4RUAiCQhDiVwJ/Qu8KQfgJoH5Hk1++vOWLXzrtCQa5U1St0YQdLUtqpuLxa1fqWShJit8BqVJVQSBeEFAIgkIQ4kXwfmansSUI+889IGv6kI+uKCXuENAE+/H4rQpjo8if6DFCBUYBdKhT6re5ByHukFFaUhD4vRBQCIJCEH4viY3FaGNDEKSZ7/hkRix6Vap8DwK/yyVJ3zMnpa6CwJ+GgEIQFILwp8k0sSUIf9zElQkpCCgIKAjEIQIKQVAIQhyK06/RlEIQfo11UEahIKAg8HsjoBAEhSD83hIcxegVgvDHLakyIQUBBYF4QEAhCApBiAex+7ldKgTh5+KrtK4goCDw30BAIQgKQfjjJF0IwnR7f+aPyUSuDPH7Gds/DlxlQgoCCgL/GQQ8fTRYjX4OX57y4UxlzEwjn0z6z4ARxUSVzz3/hqu/eIMXm519uf/K8zccvTJkBQEFAQWBXwkBDXi9w825EsmSaL/hrpRQBBSC8BuKwvlrPmxzfP0bjlwZsoKAgoCCwK+JwKzh+TFNpHgQ9FdHIQi/pqwqo1IQUBBQEFAQUBCIVwQUghCv8CudKwgoCCgIKAgoCPyaCCgE4ddcF2VUCgIKAgoCCgIKAvGKgEIQ4hV+pXMFAQUBBQEFAQWBXxMBhSD8muuijEpBQEFAQUBBQEEgXhFQCEK8wq90riCgIKAgoCCgIPBrIqAQhF9zXZRRKQgoCCgIKAgoCMQrAgpBiFf4lc4VBBQEFAQUBBQEfk0EFILwa66LMioFAQUBBQEFAQWBeEVAIQjxCr/SuYKAgoCCgIKAgsCviYBCEH7NdVFGpSCgIKAgoCCgIBCvCCgEIV7hVzpXEFAQUBBQEFAQ+DURUAjCr7kuyqj+hwhs27aNv/76iyJFinxXr/fv30deoJIlS8bquRMnTlCrVq2wus+fPyd37tyxelYq/fvvvzRv3pxMmTIZfGbKlCkMHTqUpEmThtWV8WbNmpUUKVIYfP5HK6hUKkaMGMHEiRNJmTLljzbz2z336dMn0qVLF27cHz58IEOGDJHmsnbtWqytrTEzM4uTeQYGBqJWqw225+XlhampKYkSJYqTfpVG/nwEFILw56+xMsNtWXTNAAAgAElEQVQICGg0GoyMjMJ+6ujoiI2NDf3792fy5Mmxxuvdu3dUrVqVZs2aMWvWrBif+/z5M4ULF9aSiaNHjyJjKFiwIB07dmTcuHHRPuvs7KxV6jly5ND+t0uXLsyePVtbf+bMmXTq1InMmTOHe17aFhJhZWXFkiVLuHfvnrbvChUqIGN+9uyZdv63bt2iRIkSkfoWZRMcHEznzp3p1q0bxsbfvnB3+PBh6tWrF47oXLlyhTJlymjbkb7Hjh3LunXrOH36NPnz59f+3NfXV9tvsWLFYo1vdBWXLVumHfuMGTOQv8tYhZAYKv/88w8y1uTJk0eqKuO7du2a9k/atGm1vxeZiE0RUiTkr3LlyuzatSsMr7lz5yLkc+/evdq105Xs2bOTLVs2zp8/H2Xz+fLlo0CBAuFkVFfx6dOnZMmShePHj4f1c+PGDe16yBrHVFxdXbVzv3z5MokTJ47N1JQ6/3EEFILwHxeAP3b6QV94/MWM/BmTEOzzgZfuJuTNFrLxCyFYvnx5OI+BKD5RjA0bNgyDRDb7OXPm0Lhx47CfvX//XqsERHmKkhVCsWHDBq3yk2JnZ0edOnW0Cl2/bN26lWHDhnHkyJEwS0+U2qFDh7SKNCgoiJUrVzJ//nySJEkS9qg8s2rVKlKlSkWCBAm0ylBXvn79Svfu3Zk3b17Yz0RBC2nYt28fOXPm1Pb18OFDatasiZOTE+nTpydNmjR4enpqyYKDg4OWYAjZ0BWdAnn8+LFW8YjyvHr1Ku3bt2fFihVagiCKT+bv4+Oj7Sdv3rzhxvDgwQOtEtQpY29vb758+YKLi0tYXZl/xowZo/WICJEqXbo0PXr0CNd2oUKFePv2rZaUjRkzRvs78Y5IWzEVW1tb7Xpu3rxZW00IwPDhwylVqpR2fmLZ3717V2tlS9m5c6cWp4QJE2r/LdhLf0IIpk6dGqZkBQfBWeYohE9HqGRNLSwstPOVNRS5q1u3LjJ++buOVEUcsxAAwaZixYrs3r2bLVu2aGVOSuvWrWnZsqW2f12RMVepUkWLgZQGDRqQLFkyLTl88+YNN2/e1MqryKWsicicUhQEYoOAQhBig5JS57dCIND9MaPmODF9cg8SeNxnzoar9B3QgZQJwd/fn3LlymndwTVq1GDPnj2IImzVqhV58uTRkgR5KWTTPXXqFE2bNtVawzqPg9SVjV2sNRMTk0i43L59G7EQ5b/6lnf9+vW1/xYlIgpa/3e6RqQ9sTQXLFgQ1q4QECEzO3bsiNSXKIuFCxdqPQW6IlapjFmUQosWLbSKQRSHEAFpQxS6EB4hDWIpS59CKgQHPz8/+vXrp1VKMt8OHTogxEZIkRAIsb4FI1FeQkKk9O3bF/FyyO+WLl2qrSdzF2Vdvnx5rYIUr4Eoc7H4Zcw63KR98W5Uq1YtSvkSMiVeFhmPfhFMhEgdPHhQq/CF0AhBM+Q6FyI1adIk7bikXLhwQTsfCQNIiEDWPeK6Xb9+XRt+kjELWRAyJNjphw4ePXqkJQuy7lKkH/EeCEGQNqUInlJHFLkQQhmz/EyUvxAVUdy6IjIgylyIhfR/6dIlevXqpV2n1atXM378+HCkSTCUdsVLJR4QIYMSupIxijxIqOfly5dawiE/279//2/1PiuDjT8EFIIQf9grPf8UBNQcn9oMT5vVNM6Znl2jGuFd15b2NYpilsCIO3fuaC0wUZhiqYmyePXqFZaWllrSIIpCiIFs0rIZR8wvePHihfZnOndtxCmI8herXj/kINapWI5r1qxBiIK4x3WKWfe8WOTivRDSol8kl0AIQ1RKVMYp5EFHEMSyledz5crF6NGjtX8krPDx40etohc3uLzwonxE6QphEEtUZ+VLToSQHzc3N60VLQpK4taimOQ5qScEZ9GiRWEEYdSoUUgMXJStkCshH/J7sV6FqEj769ev15IRcYXrFyEZ0o94TqIqEroRD4IoRP0iVrooVwkvSB1ZO8m3MFQkNCOKW9ZQiih78fhUqlSJkydPanMnIhIE8S7IWotFLh4QKToPjHh0xNsjPxePkciWrggRLV68uHYNhGCWLVtW620S2ZEcEHlO6ovMSZhKvBf6BEG8JjL3Y8eOaRX64sWLtb+Weco4e/bsGVZfnyBISEdkV2RA8hwEY8FX1kVkXSEIhqRE+b0+AgpBUOThz0JA48/spnmYftqXOhMPUPD4YBaffUqj4WvZPK5FuLmK+/z169daS0/cyUIORNnKxiwu+qhi1bEhCF27dtVatroiVrMoZyEcYsUJWRDFqJ8HIX8XJSpWsX4RBStKbdq0aZHWacKECdrERX0PgpARIQlizYoC07nHdQ+Lghd3uHgFRImJy1zCGBKuECtTMJExyHMybgmfxORBkHlu376dIUOGaMmPYCgeGiEguvyGs2fP8vfff4dToDIeUfQylu8hCELsZM6iNCVnRBShkJTYFMFSiJv0KXOXOQqpEuzFoyPKUzxH+t4dIWai6IXwiCdECIm0I+RHLPVBgwZpvTQiR5IXoCui0GXdxLsingORKWlfSJiETsSzIqRC1lU8KfpFiKv8XBR6xBCDeLoGDBhA7969IxEEybE4c+aMlgwKsRGvinh4dOEjhSDERkqUOgpBUGTgD0ZAwz27gVTuv4UqI3YxKrU9Tcdup2a/f7H/p4123mIRy8YucWCxamXzF7ewEAWx5sTdHl0RgiAu56hCBPKMWNFiteksPiEG4lEQS1xc5rJx69zO+n2MHDmSRo0aaeP7+kU2fQkjRBViaNeunbYfUeRS3N3dtVa//BGLUZ+k6LcpRETczmLpy3zFwyAnOAQX8QYIeREPh4QcJPYt2fjSlih6qScWvZAgXRHFKOEMUbw6b4MoX52XRNoUzER56Zcf9SD8qPBKWEJCCkIqqlevrs1FkJCRzFFyBIQk6cIPuj6EBMicdQRB5tK2bVvteoiS1hEE8TLIWksR0iFrIOsmRELIk5AQIYhCOgU/IVPi3RFMZUz6RcIzEnJInTq1NtdCyIcQCsFWQg5C6qRNXahG50GQerIGEsIQL5kUc3NzNm3apPVUiKdE8SD8qPT8N59TPAj/zXX/s2etUePl5U3iZMlJYKTGx8ePRImTktAk5OSCbLASVhDXrygycYGL61aUu8RyZfOP7giaKBRxF0uYQP8IoQ5QUT6iAMQNLEWsQVEc0q4QBPm3JKmJ9aifw6DzVkRUouIlEEUe8QidtC3WuoQYRGHpiig5cYeL5S/xdvEo6BfpW1zt4n7Wz2QXxSfkRxSkKDshCaK4dEpe3Ojyb7FKJewhilFXZMyiCIVICOmSZEaxXAVDSVYUV7qETyQHIT4JgvQt+QNy2kBOZ8h4ZN6S1Cc/F6U7cODAcF4X3ekAHUEQT4CsrdSTOUdFEIR8yHpL+EKUtTwj4QzBTnIEpE3xOoh3QHI3pIjsST6C4C74i5wI9iI7klQo3gghCEIYhNBIvoHkJsha6wiCyLSQAPFSiKdKEjBFFuX3QjqECMrclRyEP3v7i8vZKQQhLtFU2votEBClIAltElaQzHaxvCUGLJuybPgST5fMfrG2xFMgyXeSLCdFYtVy1FCIQlRJcdKWWH66IpuyWOzSlhCEokWLakMM4haXEICuyO/kaKJ4EvSLuOZlPGL9ynFI2exFsciz8m/xfOifINA9K+RH5iKERb9IGEGUXUS3ttSJmIMg1q3kJBw4cCAsSVESHqU//blLvSZNmmhPSUh4QwiEKC4hYuKel3bFwzB9+vRwY/mREMOPCph4cIQUiHtfvBlC8GQuQhDFQyCKVU5YiBdJvCsXL17Urkft2rW1hM5QiEHfgyDtirzoyJIoZyEGouAl90DCP4KPJCfqjrjK7+zt7bWyqCOeEroRgiFF8kaEkOiKeCSEqEo/IhNC7OSki+S5CAnYuHGjFn8hj9KPhI0kPCNERSEIPypF/73nFILw31vz//SMxdqVTVSy/OVMuRTJ+JYNW2fJyYYrRSxsIQOSaKa7XEjCBaI8RMHo5xDEBKpYh/oEQfoThaqvvMXFLS5nsSJ1RaxF2dSFZOiOyYkiE4Ulykw8COLmFksxomtcCILcRyBJd/pF4v1iycpxxYhhElHkEgKRsUmWvZzFl4Q8UX6i9ITYCAkQ0iDKS/e8ZMpLeESsVVFOkjQorm1xeUt9UW5ipceXB0Gsb3H3Cx4SjhFFK+stlrmHh4f2RIruCKiESyTsoruMKqIHQax0IRBy9FO8OzoPgvxcyKN+EW+O5C2I8pcQjYSEpEj7si5C/HTEM6L8CHmVHAtJapS6slGLJ0k8PxGLfpKi1BMZlXWTPAvpX3IWpCg5CP/pre+HJq8QhB+CTXnod0VAd5xPLF1x84oi0D9WKJuqKElx44qbVoqOCIjCk9+JtS8KMLZFnyDIhi2uehmHWIC6IspXrG1RZroiG73cWyCWoVjxQgokpCDKTdz4omhE2YnyEWIh8XJdEY/I4MGDtRajfpEXXqxUsWh1x/KEGIgCFXe2KEwJDwjxkERNcXkLIZK/i7dFPBdy3E/614VIdB4EcXvLMUrBVTASjEXRCaGIiiCIB0EIkL4nRX+sEssXV35sLkGKaS10HiNdHSFo4hGQsId4FoQISTJhVMo6Yg5CdEmKEp6RNnRFSEGbNm205EDWWxIHhURIyEXyD2QNRMbEQxGxCLkTz4IQLsFYxiphIcFcCI4QE/1jlvoEQdqS0y2yXoK93N0g/Qj5VAhCbN9YpZ4OAYUgKLLwn0VAlLIoSbHMdEVndYlC1r/IRjZ6UVaiTEWpfU8RgiBuZnE56wiCJJHpK2+x7MUK1xEEUShyJ4EoBlG88m/Z9GUcUuQooiggUc5CFIRMiIWsK7rz8uLp0C/iPZC+5ey+7kIm8UQIFmLhyokGIQDiatcVuQlQkiGFQIjCEaIgSlsXShGvjHgd5Bif/FxOVci5fUmUFBwloVGSLyPeNin9CfmRUwlRFXlelKngEBdF1laIj8T9z507p/UK6TwI4jmI6qptySeQcIpY7pLTIRa9kAQ5YimEQjwMksMiZEY/f0RCSJJQKNiJt0FOdEioSsIcknj65MkTbY6CkDs5mSDeKiEy8m8hCEIKBDPx9Mhzso4SJpDjj7JpC1GQNZf8BiEI4lmSMJR+EQ+GYC4eHCFr4sGRY5DfK79xgb3Sxu+JgEIQfs91U0YdBwjIpikJdJJ7oCuizMXSk81Y3OW6orszQJL+orN4oxuSbPxyNl0IguQgSGhBrHT9q3ElXixxelG+UmQTF+UqcXtRaKIM9JW2EAVpU5IRxWoXRaF/pFE8AmKBSjhCv4iSlJCFhFf0b2zU1ZF2JUQg4Q3djYIR5yX9SJKlkBYpQhzkGxFRJW3K72V8EqqRMekXmaNgLCQhqiJrEd1pke9ZftnkhACIchYvjaylrk8hX7ImcpOmeIciFrG6hUQIeRCiIARJxiVzlXWVNZGTMOKJErImRfJG5O9yh4Ekakryps5DI6EZ3S2bQgwkLCHeFSEcQlaFJAq50yWQClEQAiXHL6WI50E8L0JuhIyJ90NCEIKj/smSqPCRvASRE8nDUIqCQGwQUAhCbFBS6vyRCIhSEyWqHy4QS1A2bIlP658ykM1X3PuGbuuLCihRyqJ0JTlMFIsoRrGO9XMYvvfDTYYWRKxQsTqjsiolVCGKKK6KhCDEio7OEyBjEQ+D7hsHcdVvbNuRfBMhYHIZVcS7LeQop1jWYtVHVcQTIKcbYvpAlngC5L4E3fcWJIFV9w0KaVPIgTwvHp+IRcYW1fcwdPXkKKYQsqie1dUR2ZEwWUQCFrEvIQhCQnX5NrHFT6n330VAIQj/3bVXZq4goCCgIKAgoCAQLQIKQVCEQ0FAQUBBQEFAQUBBIBICCkFQhEJBQEFAQUBBQEFAQUAhCIoMKAgoCCgIKAgoCCgIGEbgN/YgaPD88pUUaXS31mn44PYavyB1pFnfc9xJnpZ9KJguSbjf+b9/hkmGPCQMuYE3UtEE+dGx2zCG2s6mVOakMaL56fkDjDPlJ01iEzzf3mf7FU+6Ny4X4zPBn/YzbOlHpo7uQvJExlHUDeTGaUcO3tUwuEdTkn67eE9bV+3lDslSY2wEL0+uYs7FJMwZbUPwl6ccuvCOppaVSBTN3CJ2FhzgjyaRWSQsPn70JF36FMSyGcMSF1UN9WcmDB5Hjb6TqFEo4/e3ofFk24bt/FWrJUWyf7vFMMqGgr3ZbXea0tWKGu4nwJVT941o28QAjsFvmDhoKtUHTqNGwTSG2/1/1/Djyftg8mVMHk1Lak5fe0kl89xE/iB1LDvX+LB+6SZqduhGDvlOdmhRBXqxdPcVerWqjmkCI/z9AzAzMw3X6Ifnz0mTKzcJohEa9YdjDF/2lNHDu5E+WUjbKveX9ByygCFz51AsreFRqz/dZs8Fd+rXrxrpvYhuhupAH1ZsO0dXm9qYhl67HUs0IldTf2b0wLHU7D2ROsUyf38z6k+MHzSBWv0mUb1QBsPPawJY3M2GQiNXUqeQvoypubxvLf6FmlKlYPpo21GrVBjrfZ484M4BBqy/y+DhAymSKfy+GNNgNixYTkXrDuTPEPN+GF0bPjf3YfckDe2bVyFxVFteNA9qNP4ssztJ+1b1SGn6TT6euezBI0cNSuWI+iRMxOY0fs+xnbubxl26UzRrSsO4x0kNNRcPH6NAjVqkNvu2ibu/usG++xo614t8eibmbjV8ff+Ku3duc975OEdOPWTxvr0USh3+PYyLof/WBOHRIVuWPynCjH6NtS/8lWN7eOmXCOMgf5Iml81TzfMrh7A7+YwmfSYwpGVZ9GUy4NMtWvdexvSl8yiaMfJLogn0oWyuEuy694AcqSJo53Doa5hmXYl7hQaycUJbNJ8f0M32DhtmtYpxjYK/7KDEMC9uruuKtO5x8yAznTxpUjoDL5494+HdOwSYpSNzxgzUa2VDwYwht/2FFDXH/q7I4fxzmNWtMpdW9mGFewM2jGos2y3Xd0yn27/3Wb1xJebZvj2nCvDh6cvXhB6nJ9j9HlsuBtPX3JsR29/Somr+cGOeO2khC44cony2FHEhb1G24XN/B9V7HmD/sQ1kNguvVfz8g0ms91JFPQhvbCqXp/pMB3pUDn+1cKT6qs90LlSS5otXk1iYlcaXNSvtsLTuRJbk3xShPKf5cp5J2wI4tH0aqWNiWqq3tKvemqGOZ7D4sX3z+7DVfKWARWcG92mCwKV2f8HBK19oXCf08ibVeybMO8aJM4comM5M23bAl2csXmZP8owZwr5JIT9/e8eZC++SYlnTAjO9l0MT5MmLVx8pXKsd1jWLhY3P4+4ayg+6zTmHuaQ2M2Hf7EFcNi1NicyJQ+poVCwdOYyeu65hXToqsqfB+R9LRr+ox5EVg/n66ilpc+TFzPspNSvYcPzBRcKvQvTQbBnThlWuRdm3YQIpY6Vs1NxY3ZWJ96uxdboV7166EaR7EfS6CXx3mfuaUrSqXjTcfqE/Es9bG6na3YFdJ7aRN/m3zjUBn5j6zxo6jhhMzlTRb9g+9+2p3usQB46tJ5OpYZlX+32mcu5K7Hhym6yhpEo3Hq/XlyhfaxS3HjpFQwg13HNYwFH/8vRtXp5EJkZ4XFhL2RGnOHdyA2ljCbj3k72YN1nAmDkzqJA3MhEO/nyDCRuesGTuCDInSxTlwn04MI6uLkU5YNsOI9mfb18ieb6ypDPAFtR+tyhceRx7j9hTOJ1O1nz4p1lpLheZzIEZkU+IRCc517eOx2b1ey4dX0kyPeh9PDxInDJl2Jprgv159uwlwSFXj8RYPl/fxoZnBZg3vA1JozD2gj9epkXPfxm/YD4WOYWYaHBa2oMRR5OxZ9sCsodOSb8TdaAfd+89wM/fH8+vn3j37j1uT29x7ZkYbRnIkzcvObJnJX261KTPXZIiWeN+8/mNCQKoAzyonz8nfU+9oFnubwzyjuMqpu18SOfm5rxNVJIOtYsQtcGg4bxtQ8a49+LEzKaRNgNNkC+Vcpdkx90HZDbzxltlRookkQU/8J0TFetNZ+3xQ/yVPiFo/NkwogstZm1Fb++IJGDB7nsx/9uL6ys6aF9sn5u7sPznBqd3TTEkj6gD3KmdswgL7zyleLokbBrehDfVZvJ34yKhz6pwtm2DrX9PDk2s+80DEOzF0b1HME2bHOvedthvGYAZxmT0ucGAnSr2Lu4Rru9apZuz2nkXuWOaiMHRfqsQ7O/Fyzcfwj3hvHwITslaMbl9pXA/V3vew2bAWpZsWU9Z7UsVXQmgU4069Np3moqGeIzqC71LlWXGtUekTmCMx431NJ10g6VzBQfwc3/DRZ+sdK2WF9Wr7TSf9ZW9S3p+23g1GoI0RiTUV0iqD9jUbs3ww86UCtHH2uLv+QWTZKlJKEQkLovGiyJ1p3HhyExSGEPg/YM0m36PQ5tCPhBFwB2K9j7NzXV9tcQzprJ5VBvuFRnE9E4ht0bGWNT+LOtYhWLzzlIltRq1iRmOc7pws9AoxjQJuW9BExxA7XyFWXv9MTlTR/YEaFS+1ClkzpSTl6iQPTEDGpQjQ7d1jK2dnHoVrHG8dyHWXg+N70NaNxvPtAPbKWAKKn8PjMy+bfD6c/H++Az7y5+xqV+IGhV7s+vkOh6eOkKCVBlInDD8OJ/tm8T+ZD1YN6qplqx4vLrK1CV7SJ/um3Cd3bkGdbFGVIno8VKrCFKpyFSqAV0bmGvfu6hk3mnZYE6nasNE6woRZP4u1v3Xs2zrOixypEQdHIivfyA+H29RppczN3cNxP/lTQIyFCWBz2cCxWGq9uOw3VEs2zdF4/+KOVsfMmNcDy2BCyvqAGa3LMnt6stYN6gGb47Ow3qdFy5bJxpade3v1QGf6VCtJo2mLCV/aj0h1z2t9kdjbKadb/rchciZ9ptR4v3mGhv3XwJVEK8v7uCacWlqFcuCRh3ICfv1NFrkzIDKWaMch9zLoTEywuvMP+xP2ocO5ukICFJhmjAB/m8uUqvJJA5cPkwa7fuowScgmKSmIYzH1+MDbz95RW43+ANbt1+gjXWTb3u+2oPuja3puHwfnaoXDPm5JpCLh/YSkDoHSRIlQP3Rid7/vmf5hLbREEcjchcqRtpkURPD0/OsGfOoKqeX98bIz5XerfswcrsDeaMgB1GBoQn05J8eLTmvKc2yRVPJE6PRGqtlNVjptyYIIhA3t80nV7NBpEzwnuUbz9OiWQ3tpnhpzQBsv7Rm14gqWmt79twNDBo7hExJIpgaqk+88ExK0JML3HnjiYn+Zq4OZELvEQxZtJBXR5dzxrgme1cMJ0m4/V7DXOvyeLdaycQWJcIA/3h3F8Nd8rC+V6lI7vkAHw98AlSoPBypMcWLfd0SsvV+DoaU9cJy8rVYEAQNb66uocywN9x1GI4YIBNtGlJ+/C4sC4V/eT8HBvNk22x8K/ajUYlvrtAgn7fkKzeDu7cWkcwY/K5tod06X/Yu7sj+5cv4y7oPuVKYEdcEQRPohcuFh+QrkofECYzRBH/GuuVQJm1eT8HkajzdvUiSMhUJ9JbJOGFiUiSNyX0WQKeadem195RhgqB2p7e5BTOuCEGAqR1b41e9K8NbVMRIHci2Ma25WHACawbXRO0amSBofN/TqvEo2g9soUc6/Vg2ZRbNxk4ki964HeaMIFG7f1ncp2bchmg03hQq0Zi6tUtpZV3j6cqRq1+pX6N4iPxpvNjz/i8e2Q0Ib41r1Hj7BJAsmW5HCmTitOWMHDOQpBE4jM/XLyRMnopEJt8mJBt9vX/ucmZFBx5t6MeCLw1ppNrJrQIjY00QPG8updXO3Bye0gCTgIc0az2TtbvXkcrnOZYV2nHorhAEFY8euZEnX/YwOfjw8Dwu996TQG884XY3TRCHFoxC1WE7K7qYa8Nu+sXj5UVKNljK0zsbkcVQqdQk1GsrONCfBIlC3p0rS9qxL8cYpjQJxTPCNqrxfUCV2qNZ67iLAsLQ9IpYnRoTU4yNvg1ANnaXi4/IXzgPZqEy367FMP7Zso4CWpn3JknKlFHKvN+7O0y03YJpwF1uJKuNZa4QypciT1lKZzIiaYbMJExoRmJhrKpANMaJkK4TJ02OaQTig+8Fqgy8yrFV/bi7ZTiTrxdj/9zO4WenUaHSGIfbB9XBPmwabUNay5qcvJCY6sUie4aeOsziYZnZLO1ZIUaCZ9uqPIUn7KXJX5lA48Noq9pYbzlPce3rrcEjIJiUoQpefuL54hLtZjpRI/gKuRp1IJH/Y+Zsec72HYt5aj+SqVez0qd2yOeyNZ8vMn7LV44eWEymxMb4u7/l6gtPCuXOqB3TV9fnJMqckyShm4sqOAC/ICOSJdYz+oxMSJ4yeZRz+HhgNF3OlebAjFaxep/VqiD8/AO/4RvkiuN1f+qXzc/DE+txMq1H78qyJ2s4NmcImTvNolyuqEOkQjLnDrQmRas59Kkb8uE4VYA7y4YPpcnMleRMGks3kEFKEL7Cb04Q9Caj/kRjq79Zbb+S9MZwblEvrldbRL8SInn+WDYYwlqHFWSNzqQSphpxIwjypUqeUtjfuU/WUB9mxA/0+N1ZRZ3ZPhxdPzg8cVD7s9CqJOkmnsPmr/DuOLU6GDDG7+G/lJ2XnBsr2msFMuj+AepNuIKzQQ+CCudF3TmbrhnFtT6yYOZMW0an0QO1c49YNGo1JEpLzfpVwjwaEQlCwDU72q7zYc8iGyY3K81fq+7RPIMRtUo1Z9WpXeSJsBF+p5xFW91xagtO5BjJ7I7lIfgdXStWpfK/5+laOu13dBE1QXj27B2582QK/zLrEQTTe+vY8aUaGW5sxLTZaLI/WYP1Sk8ubR8TYvlF4UHQ+H+kWUEL1jx8QlpdLFT1kQ51WzP0oFM4D8K0euaUmutIw+I/kFcR0+xj4UEo0u0YNzYPIZy/K/ADbfP9RZJ6jUlgZITfu/u8UmWiYNbUqP09uHr/M8lGasEAACAASURBVBalQjbb28cPUHWaA7btSoeOJJidU7tRdfQGMphA29KFaLvOGbNjY7iWP5YEQeXFwDK5sdfU4865TZjdXku9kfsoVjAzBPtyyvEM1RrVA00QHh6+NBk4HZvKeUP71yBirKd3wyF0z2EGtQY6cPKaC0VSR34JPF9dolSTTTy+sVhr/XVs0Zq85cuSVP6h8ePQ+o302XMXqwKJDBIEu4HVeZi/DSkDfVBH2DTuH1hKtiEOTG4WfY7L4X+a4ZxnNLbty0HwW7pUrE7V5efpYh5N/orGnznW5Wi0zonMJilImfDbJua8vB/Dj6bjyu7JEPCc9n/vZcmMQaTSxYvUwXh7+6LLzJLhimwfnNWVk+k6M7dr1XA4fjwxnf6OmbFfNogUsimpvFk7YThVRv9LHs8tFBv+mVtbBkbwTKnZP6w8j9sdZbhFDDlAHucpbbOPE/tmkkrajkQQAlnt/ILu1QuEjcn75SXKtbbnzoU52p8Fv9pD58VebJ5Wnf5dJzJz8zp0vgq/c7NotjMrh+eH7KfhiuojZfMVp8zwrSztVyNkT1D7snFiL57k6c7kLtUMKv1j/9RlX7bJLOn6zevz8cFRjvhb0L5k5HkHfX3N/OW7yV0wp17Oi4qlk/+h9rCJFBTLLLRobw1NmI5a9SuTNNzgNbhd20u7MYfZsG0RuVKFkNggjxcMbNWEj+Z9WTezF8mjezG+YxeNqupvShCCOLVxDofueqByu8CNdD04OK8RbdoMZ9XWVaQ3gbMLenC9xhL6awmCH/Ush7D2wPJQgqDB9d5V3LxUBL87g+3JlGyd14MEHy8xZq4zk21Haq1qCTFUzl2S7XcfhBEEfRCD/V5Qqe44dh5cR/YUkRmcyu8DTctWILP1dBaMaBMhmUrD6UlV6fK0Aw829tQmBwbe209p6/k0bhAqgBo1aoz5+tiFMx9ysXffOvKHuW3llQ8RMPXnk9Tq4cjh3bO0bvLYFB1BuHawBQcfpaNNulu0XevDnoVt+LthRRrtvkPlxFCrVFNWndrzUwiC+r0TVXo4sHfHbNKbigX0gT4NmjH+0DmyGM5T05tmAJ2qmZOwXFMyhO6dGu+nbNx+lg6ztjOjY8VvL38YQbjKjkOP6NLIApPANwzt3oUHX3Kyec9y0oUq/igJQsAnWhUow8pHT8MRhPZ1rBh2KHyIYWrdUpjPPUKD4rFIQovNounqaDzIX7IFzRqU08qNyv05h6560KhWiZDbGdUe2D3Ixv09o0msb0mrPtG5UDkWPHhMKhNjbm3ox3bTTkxtWxbf5+eo3vMwl46FhLcmVitO1RVO1CqUTvvv2w4zsJl1gSKZk1MoSyBPsnRn/fC6HJ/XleWPs1Ilf2iITx3M+nnLcLj3LFKI4d31LYx0vIerZyVOzGjAjjH9SN9jNjVzJ0Ht+YKGFdrioPUgfF95dmoNTYfvY//JneROHnXs2/PVFUo32cDDUILQtWZ9uq/dhXkmE1C9o1/d9iw446Il0NF7ENTYD6rGDLf6nLYbSYKgIL2roDXc2jaKuXfyM2N4R3JnShmlwlG/O0nlnofYt2NWmMz3btiCiQddyBzNxP3f3aGS5XQuX/qHIvUXcu7QQtKYGuPz3Jlu4x1ZsXY6KUPj3l9vb6J6byccTqwhmySoaIL59O49KpOE4bwatt0bk6nrCjpV/HbNuKD+yG4wS32s2TS6odZDFujnSYBREpJLHtDHbeRrsAWrOsUjzc317HZKzr3CsDJRJwuqAtxoWKk9M/fto2Rm+OJlQpoUMLpFVRqsv0KVlBD03oXa/fexY/1MMoRqSR/Xq5S3suP2hZCPmAW/2k2XxT50KvAG30q9aVLkW3++zlNpdbgQDratwoUAgv3e07JcdWxWH6GVRY5v3qXgQLxUxjw/bEvTkXtY43iSmnmij1HOblIcP6tZNCuhC4douLxmGMdyTWXrkPIGCUaIVPvRpoolQw86U85QOFT4me8HquUqSLLa7WhWvxblLErw8MB8/r2YgH8XT6ZwllSx7Pf73ild7d+UIEBwoA+BGlO+bO3ElvyzGVUpBU2bd2fklAmIAXFjy2QeWIymbQHZMALoM/Bf7BxXhnkQfL+85s3XIIwfraff8WLsn2VFImMNhxb0YcnDwhz6d1CMBCHA8yWDBi/Cpll+zj3wJmECYz68eYFZupyk0CYdqbi1fw3pOyzCe+cIHF8koe/kOQxvXUm7oJpAD6wL5eSixVDKBD6k3+yFlPd3wXLKTU7ah8QFvRxHMsC1J+t75ItxdR/ZD6P3gUQMal0hnLBo/B6y+bwZa2b1J4UuyU4TzIPzTniZJKR5x3Xs3joAI+PkFAi+QqcNvuxd0JQeVWrz96lb5E0oBKExK533kTd2WWCxlkK/x5uo1WYV8/Y4UD5n6JsSgSD4vXTm9Jd81CuVzUC7PxBiuHyXlAkSaTfN24eWMXP7VbzfvafdmDm0rRoST4+SIAR+wqpAGVY8jEeCgAf7XN7RqHJBbtlPZMq59NjN78crl608ztiIhvk13HsZQKHcGcLHSlWf6V68LHNux4YgFKPqCucwghDw9S1nn3hSulBa2rYYwdo9q8icNAGOc7vGyoOg9n3HuGHLGDEiJ63WZuPYPxYs23qZ3jb1tNbojxIE14vb6DR2LwvtVlM8g34Sb3iR8XK9innj9WEEoWftBvTYtB+LzAkg2I0eNdqy5MxpxJyIjiCog7xoWTIfTe1u0FkvXOfjdo/pmw5gXqkFzSvljxTe0I3E9+FGardbzYK9DpTN8U3m9QmC3wsnTnsUoJ5OCWkCObx4MMu8WrN/ZH4K29ixvGVqspSvipPDOQoWykb1WiFfhPzqOIoOB3NTMZU3ncYMI0s4dqiHR/AbGlTpzNRDRzCP4G059k9tjuS3ZU6Y5+jbc6q3Wyg+7BO37AZF8iDsG1qO+1ZH+btCREtaxb3jm1l8zI0hQwdSIGNSCHpO0yptabd4J+ZBl9lx6hEJjI20+RbpC9egfZNKmIUegfF9fY1yrbaEIwidpl+lc8eOpPG6QdKyLSkksULJ4ToyjrYu5dg/pXHYPujldo3B4zYzaPIEEl/eTJI6fciaPISJvbuxm8qd/2WLowPq/f3oeLwIt+2HahN/oyptzQvSa9sFahTQzVHF6l6V8O9/iv4hMRLDRfOJ5jU6MvXIIYpGeOSzRwBpU0ZsR4PnZw+Sp03Fy0v7sF13Est23albsRhBn+6y1P4Gvfq2J/XPiTBoPwwmV4h7e3uH+9ZLTBM10ug+KWcYDu3X5+STtfJ5Wd3X32LxWKyrvF5vw7ZCcxhePgXN2wxmpV1sPAjfmve/Opv2RyzYMaa6Vqh8XzhTx3oBJ8/tJVE0HoRg7w/sO3aFGg0bkCbMYPGlfQ1Lemw7SbWMJqD2YXTlArQ9+JQSyQK59uAjJYrnDbOOPF1P02DqHtwxZ0vl6ww7l58d3VPTdtFrjm4YHkoQRjDAtZdBgjDNqgIpO9qS+P0rLBuEfvJXE4z94Ho8qLaARX3qRjrWFSkH4epm2q33Y8/0GjSqaM2a005kSp2UWqUsWeF0kHypYpUmHqt1Uwd6MbNLPdYn6cO9JXWx33qIJKnTksjEjzXTp9NmzHRtdvHX1494p85E506tSZskJrvyBwjClUckdn/C0pV2JMhQEKu2ViT1esj8yeM49NCPchUqU80iMRtOJg+XpChZ6i3yl2bi0eOkSBQ6JvVXRnYZQLfVmyio96Iu79qUaouPx32IIRTlVxc2M3jJLeYtmUquVIm0hNZ+zlhe5mjIoDa1wjbZsEVRfaFXqbLYXn8U5kFY8LIknasXJODdXUavcuNKmAehGFVWOFM71IOgbUMdwM4JnUnffRXVcoUo49gRBA2X9q/CtEInCnhvptGabBwZmhf3hDlIH2rxRyQIfm5XOPk8GQ0rhf/YlL6Avb2xlwFTDzF20VxKZYnuyGfIExEJQp/a1cnavDPZRdA0XuxYas+uy2eiJwgqPzaPaYfjpUs0XHaDdoW/eYV8XlzAvPFULt1wIGU0YqoO9GR653psTNafe4tqY79NZD4diUx8WT19Bm3HTNOT+cx06WRFGq3Mq7jisJ5HifKRNdFXukw7zspxVmTOlI1ceXLz+PROTCtaUdgsiNXtChE07Cx9LDLF+B6+OW5LR7sErB74F6u3n6VFz0GUDo19r+lmwWfrzYysFRLn1i/BT9dQddRFalmUpFyxnHrGiIanTlvJ2WMVTQt+Ow0muRdXLt3CKFVWyhTL/a0p1Wsa1+jFrOMHKazbPzUaHOYNxqTuGCz1QnJ+r6/zV53JTBwbciJM/fUG+5/9xc55HfF/f43W1jNYengH2RPBl30j6H6rLrvH19HWdX99mzO3P1OtdnXkpK7G+zYbLxjRqbacytGwd1o7NgV1YNekhkAgVx97Yp4/XTQWuT8WhWqy+ewZCuqO4Wp8mdykDOab79E4Qg61xv8TDnsc8VBFAFH9mUXzt9N+SJ/QxMqQ3/u/Oc+0dVdZYLeLpubfEjY1qiBunD7Auj0uFK5cnzaNa5AqoQYPj694enrwyGUXPSZtpcO4JUzoXCXcMfUPdx0ZPHEN5XvNZECdvD/kafiDCEJymjRsQ8uu3UhuBI+OrOZlkc7UyS7sMoiZC4+x58TqSDkIEQmCxPPdXD+QJXsWgyEG/aVXfzlHXZu1bD+4OmThVR50K1CACTdfkTNSVmswR+f2JXO7hlhP9uTG0vrcf6ki6fMdDHNMze457UMJwnAGuPaOmSD4PaZqk5ls3beaN0dW87FwKxoWSo3X8xP81XQZly/aky5x5MSLiATB69IGOmwKZPPgwlS2WUDrtPcps+QK87t2ZtnereSOIw+Cyv8rmxcvJF3V/Ixep+b6cr144f8nxPA9SYolS9J4+gLc/RJR17IOKYPesm7pQpyfwNQlszC6f5KtF3wZ1NAf63me4QmC/wca5bdgwMZNJNMdZVB7MmPERNrYziePHtRbRvTAcvlJmuhZm7FiUAYrBeG0aR5brqoJcrtE3UHzsKmUG7XnG/oMmkUli+Rs3HmBXMXKUL5CRRo0rE+WFIlATnCYl2XmtW8EIfoQQzEqL3eiTuHQs/XqQM7tXsyuz3/RqUxy3n3xpXCZ8txd2x9H0+Z0rpw9ZNTqIPo2tWLrraffQgxqP56/+EruPJnxe75GSxB2djHF/vgz0qZNqU2I0/h9xHb8IkbOmaL1evi6v+NTUGqsO7YhQ8TEYuDD3cMMnXmEv2dPo1gmw8e7IhKE3rUb0E3Pg9C9emuWuLhoQ3SRPAiaQE5tsuWMqSV5TrSDwU6UVn/GL/T8W+D7e3QatZut68dpIXC7uI3j3hZMHdwS0fEqf3c2LV5Eusp5Gb3RmBv/Wn8Lo6g+YCjEoBMHjfotRdpu5rr9iDAr1+fFeWYcS8gkmxxY5K2P45NLZIx4YUo4eVIxrFEFCo7YRs9qeXh9dQ+tO46l1qh1/NOxHBNqFKLgrKO0t8gRSQrVPu9wWTuWvjsCmW87hPRhRxPVPDq+lzI9xpNH784M7XFrxy1ceWdMynCnv7xZOGMl1qNHIg4cbdGocXV1xShlPrq0b0Ty0Mtp/N7coGyLDVw5PVNbTfV6P92X+WI3t5M292pVz6q4tjrMP3VT8npbP0a6tsFuRPi8Cv2JzBs1moajJpNH85g2LYcw9YAjRWJzQivwHoWrLuLM2eWk05FA1Ud6VKzBwDN3KB4psqXmg+tLTFNlwCzRt03hy5V1dFz+iRGNs1DI0oaMEZ4zMklIorAMbQ1X1vam9t+OWDZrQt7M6UmRIhmndthToc94KudJTUpJbn13lLpdj3D54WGyaZNqQorLwvY0GL+fVHVm8nRn32jv+4lpu/mDCEJimlqNYPW2/58HQR8sQzkI+nVvbxnB7OcV2DiuRYi8B3ymcd4SrHr4nMwRMkz93t9lqv1HJnf4SslRHtxc2Um7YZxaMZA9idqzoEvZEIJwaBgD3vSJkSA4zWjFucKTGNusGBq/N/wzagFdJgxlTrtG1P73DE3yRX0JSlgOgss43F64kSr4Hftd01LZ6AijzuWiyt3J9Nh9n8RGRiQ3UaEySsS3pG81T4+vZLLdbUbPmk3hCBdQRStwmkDOOewmUzUrcqgOYj7aM34IQtgpBmP8vL6iTpiUpGYmXNq7EVWVDlQItRCiDDEE+eJy/QOVy+b6xshVH4kqB+HZg5dkL5Az3JHIIJ93TB42CiOLbkzsWjXay4SiwjDQ+zN37tzG5fgRslTtRPOqOWlXvQlD7R0pn9EEtedL6pbrwNF7p1F7vWLtkgVQqhM9LUNP14gHwbwstnoEYeHLknSomp+gD/cZs8qNy3oehErLnagbShDcH52gQq3u5ClfB5vOHWletyJJEhprPQhHzFrSuXJoGEgIQhMr7G49ifKYo44gHJtaL1z4Q+2pf4ohZob09s5Bhtg6MX3hNPKkiZ1rNyJB6FHLkp6bD4SFGLpVs2LJ2bPI+Y5wBEETxFVHe+6YlaVTjXxs7VEA9ZCzFPV8gso0mfbkgWDXYeQutoUSBO3ojYzJlb8oKc2COXtgN1mqW5E18AClx/v+EEHQaNR8fH2Nil3WMLNPdQJVKajXzJK0CX1ZNXowFnULMfxMKY5MrBFjDsfrU/Nos9QTB7tJ2lM8Up6fXkWNbjt48vAoHUrno/vWC2GhJf2V8H9/hWY91lKhYiFq1KxCSskbQs1jlx2MWHmJOWs207JM9N6L187reJu9KRa5Amhaqzszj+wlqesrMufNG63yEg9C2Vabw4UYOi7wwG5el5CxXzqAf6GGFE5hzIPVnZkd2Is1fcMfHdWfg8+jvYzZ6UN549NcTd+JOd1icbwXDY+2D6f9Dg19Gv6l995/ZfWsdRx8eJPYXbkUzBSbOiTv+C8dsj1nlpMptv1DPb7RiHxwkDefg5Jg8mAHz1PUxiJfasa2bUaVaZvJ6fuaXEWKkNgEHByvUb++ebjQT6D3O3ZuP0K5Fu3Jq80K/f7ymxMEDY+Xt2V74TmMrWJGI6vRrNu++luSYvVFtEn/AU8/Dzr1Wsz2I6vIEsGY9r8yG5ujFuwMDTEIhL6fXrLvqAuBgf5M/nsuLo/vkCUmlqkJoE+jJrRasJNa+UNcnWqvt5TIV5lTLx+RRv88MnDfZT95KjfB5Mtu/hrhye01nTFBzcxurSn29xYa5Q/Z9LwchtDfrR8bekadg6D2fU7VlovZt3cuaUMvW3G9ZEeNTjOo1G8VG/qXj0IiNPh7f+Xl42tYtrelUbtWjB/ShfRJE6L2/8jwtm2ou3gvV3uX1hKEDKYJ8Lu6nbvpmlMmZ6j/XOPHrEaFmHrGndEHbjK6mp77MJYyGOy+/5cgCJ+fXWHt6nVcfvaVdFlyY2nVkUYVCkR7iiHK6WnvQbBi2OFTmBvIEv3yzIG8Ja1Rp7Dk6fNtpIvuGs8oOvL6+BLjNDnDspzV7meo1WUP+3bP096HoPZypUHZdhy65xJ1HFwIQsmy2N6IjQehKBX/daJeEZ0rXYX7V19SpwqR7wCfr3zxM+bmhsGxykHQTSdaguDxzOA9CHJu/uGpTXRecI8DdrNIHz7dO0bJi0gQOlerQPLKDcksFpfaG8edJ3G8cQGh0+E9CBqCg9UkSCAbrBq77gVQDT5LB72jfn6vLlHOajm3Lq6NcQyBn/Z+N0Hw+/AY2xlzuHz3EUnzl+WyW1ru7x4ZLk7++upmLFpM5dLTB2gdptEpG++X1K3Shul7j1Be/14RTRCXjpzDon4lKuQrxFKn25SOcHNPoIcrA7qOY8z6VWQLus/CLffo1rUZT5zW0G/WKbYd2UGuGM7zB3m+pHrpulTsa8vk/uVoV6c7M48eJM2jI4xadIKO/XtTsWhuzCJcWBNVDkKHee7YLegWyWV+aV5z7DKMZ0H70AvDosRBzdyutdjqWYEzO6drCeGPFtWXB9Sq1o2jt8+GPy0UTYNPD8+k7w5jdq0eSTIjf1aO7EgqmyW0LhlzEnOQxyvqlKtF6oaj2DS7KzOsm1HFdjfm3sfpPm4bPUaPo4553kghRbUqgPfvPpMmcxa0XO4Hym9LENTB3jgun8hKtxKU87pA7YG9OXv8Pr37tNG6Cd9edyZJieraG9ZW9KuNQ4qu7JlhHY5h+Xu8ZYR1W9xMCzB+gS1/ZU/zbWOVc9XT2mHr1oSjSztq7xqIrtzfPpqFr6vy71DLMKH1+/iQfKX68/j5UZJEowTkJsXCQz15sL4b6rfOdJ3kwroV48LG6LlvAP3c+rKpT+FIXcuFM9Oal6P+6ouUyRDiJVAF+WA3tQfLrwTw7m0Qew5upmjG5OHONPu8PE/pso1JV6svhzZPJkXogXGNOogd03twPKk1KwdXZlqjEmEE4cW+qTwvMoIaocRFS4ACPzCwRnnabb1GpVhec6o/idgSBN93LwlMlY1UEUhWeECiz0EI9vdBZZIYU104QOVO79K6exDCvzXPzm3Fuv8i9l0+j6SRROVBiJogvMO6RmuGHj1NGYPHSFTcP/4vNjuScXF55x9y+4WMQcPBKa1xyT2cGXJcTktKXWlYtjUH752PhiB8plvxssyNVZJiEcovc8KyaMgRTVVQAH5+fry+f45t23bgavoXk8f05c6qPtEShOwpjTGOcCGB3/PVNFydnePTIngQvj6jTsV2ON6L4iZFjYqPr24yum8/UjSdjv9VF8bajiBLqpCLeWJTIp5iWLxsE9Zd25NWMtJU7jg6PKB+0xDLM6ZTDJu6FkA91IVOxb5ZynFNEHzeviQ4TbaQK4U1vpzY70Stpg3RBLlSuJ0d13eMCjudIvvghrGd2f3gC0U7LWVa80KYRHHkTcIcfWuXo8maCzSM7jrw4NcULNCOw9dPkUcvpBjo+Zops/czaXKf0L1Eg9uFjTTuMI0k5TtxfOPYGPfHYJ8PDGhYnRqLXGgtR75Vb0M8CEdDchDUAZ783aI8uz3LcGz/KnLrXRmsPcXQagvXz84KkUPXfXSY/xn7RT0jrf2BUeW5XmM9E+pHnbeiDg7g5NpxzD9rRknjy7zL25GFw1qSLHHsvFAR5SzA9QqlGk3i3k2HkPcvKACNiXhaI0ul51NHLAfsY/v2JWRNFmLNB355QrMajem47iRWpTJHeZmf35cXtK9jSedN52hcRJIj1SEeBNvd1M+ZgECfVzQqWRbXvO05vceW9OJOCC0Xl3enzsgdlBpxCOfxIcnx31t+U4Lgz+LOldhq2h+XFV0w1qhxXDyISbtf0qhJA0oWK0jm9GlJbJaQ4EA/PL984t3797x66UrpJj2oVjg9by5vpbrVDI7evUbuJEY4LhnMrKNeWNu0oFTRgmTNnIG0qVOSQB3Ep08fcHN7zWvX12QoUgOLAiFHv6S8OTWfyRdysXhkM0yNVFw4foTkuYvzyXk2nQ8V5PHO/tG6kYO/bKXAQE8ebe7F3H79qTVuLmUyfxNWz9196O7aE/tBES9bUnF6aV/8Gy+ibo6Q+p4vL9C97xRaTVhKq7I58Xp6nMpV2uGfqwr/TJ+CVY1iocRDw5c3bqTKklVPiQSxZKANHpVHMNrKAmN8mda4GNbbH5E7SQIOTbPiWbnp9K/97RrmgPfn6LDWB7vRdQze1heVUAa778N89Ffapr3Ba/eA0CqBXD55ghI1LUMZuYaTDrswLdUNp50zSJNQw+v7V3j5Re/ykZBtg9nDR9B0+jy0h1bCippZgzvzvkAXjm0ep81NkTh8t0JFMandTHsXQMSiVgVjbBJqhgW85o6JJU4r+8R89C7YjTZVrRh28ixlDREEtT+LbGrReKVTtEfyYvMSP3OcQZ8didixcigpQq0utecr6lm04MiDK9EQhE90yl+ajhu2YGZshOuJxTglrE9HCTF8vM/g2ZdYOktiu7B5SGcarzlDg+IhivDU8r60mnyIXlNWM65TDcxCL+GJLklx3qbpTN7mxuYlQ8PdD+L3aDn11mTD2bZRuBCDyv0JNSpYc+LBpUhXLfu+uUKtqm3oZn+R7mXSoVH5MbZtbe4mLk2tyiXJnikTaVKnwFgThLenF57un3j+7CkBmcozrldj7drJRUnmTTbw+MayqLFRB3DZ5RYFypfh+twmOBWfzuRGES9KUrO+UwHUw8/Qtfi3S8c8n56hovU67hj0IOyh9Hgv2qa+xpuvOhkWmT9JiZr1w2T+xIFdmJXujtOO6aTRS3rVBD2lcMutXNs3TotpkPtTBnTvR6Xhq7Apk5qR9YtzIXMndi4fSya965jlmuaRrZv9H3tvHVZVt71/fwi7MMDuxsAWExsVFbEDUbG7sQsTsUGRVERsxBa7BbsJFWxUumPXeq+9qb1pPc/5Puf9Xc7/YK8115xjzbjXmGPcN8Ocr9NGR2mCyKI46XSEonX0aFinCvd2T2TNJ0Penlig4qGQH2/Ij0xSuANicbGczf7H6mzfasHVbbM58aUCq1dYMKBToyy2FUV9Ytb4xSxxd1esJYoi/oxR12lsvXExI0hRJmaFUWNCBrnjMKlV+hSI+/KIJt2XMX5MSlyBkBCEd3QbLtpNV4yfTw88eSOqTFu9aoxv14qJJ58wUAm8pVWU+M2bgYOXYL7LlaFtq6MmyLjrtoaRFs606G/G9LEj6Nq+KYVzIuLKZlKG+13BYOIZ3tzfo1iD5vVuRrThFpznZXwoKoJM3Vdj9aYe+y3HUDzTx2JSZBBGrdsQXM0IZ4cdtK+TwYUR7n+FkcuucPKYFSXVQrjj85WadSpjOdaUwQ5XFQBB8UokP2lWswkTjz5kdocUHhN5CfCyou3wLZg6P8V2SB4U9DksOv8/BQggTowlQaM4pdI58gViI0L5+OE1d+/4EBD0idCwCGLj4hVsVnLmtNnWbpi0qaoY6LHBvpx4p4V5l7Q8YLn4Uwgf373G++EzPn39QUR0NLExccQnxJOYkMzUeqJ07AAAIABJREFUDS4MbFNNcRYvSQxjz6btNB8+nfYNKyvSdORFlBCNl70F012+cMv7HHWK5+zzkwQfpO7cKA7LwxZajqRdXVWxlchjE1mWMJu945XOveTnbj5nSajRhUYVShLoc5YDF17Svo8JHZrVU6GCFidEcdfTkYUrdlB/1DrsVo1HK5Ov6efzc+y/HcbQEYOpXSFNlEng09WdzN5zR4FqkxLFDJ6/mYm9Ujj55SJWt338ad+hGQX/kEZYHHaM9pZq3LbqT4GChVRY7XLbIEVy13a8ON/XK+pSU6dEKTkroBpIwjBt0AYb/w8KquXcityDMHJnPEe3j88DIHxlWGdTFl+7Tcs8dG+iPj4jokR9apXLO7Auu7Yl/HyD1Y4jdBhmjoFeTQop9UEW9ZFObUdx2987W1AqiEIY2bAtm70fUyIPsaItxh3pvO8mRqmLrVSUQFi8QPnSKe1ODH7Du9giCnEymVoBFX2H5KQkxVeUWKZGhSrVVLjp415sp5NTFZ7aDlMFCBHvaN9uFHcCnigyCTKXhJhIipQsrXT+K+LH1/fcvnaDV/4fCP4VSlRUDAmJiYgkEnrMtGbJoNbp8zLqozfNBuwj6JVrDmmIAokx4XjtnsYUWz/O+NynXY3MJ8tSHEfVQ2pxl6nNUoKYH3q5MnuuJZoGq3jgMi3X8ST6dYQOGwtwe7MRBQsWypkVModahOQ36I08x/U9A3G2caJY456MMDJAu1SKo1wQx3Nsy0ws7B8x38aNucYtiPzkw1bXZ8yeM57yWlkd6pLkBIKDXjBxgBHPNVtz66YnjTIFfUZ8eY2nhwe330bQxqAnRt31qVK+nOKdCzIJYcEfOX3ICdfDJ/kWK2A0dT0b5oxAI9yfq36J9OzUjBIKbhEZn19cY+bU2fiX6M7TK3soqYTR5bwxftGFaFwhw+4xn3zobfGAB8fnK/oo+X6NQ8/KMq5/isCRTCriR9ATjNr3RbO7BdfdllIqdRMWJAncOePO+Wfh9Bs6lBYNqqfwOaQXgfioEJ7eOIOd4wGuPQxgwraTrBljoGC8jA35hF+ojMqls/dUCTIpyWIZhRXMjwJJSUkIagWpXLUKhTVl+N48waH7YZiNH069Sto5pr9KEsJxWjUJpw81OGxvSb3yxfF/cIlIrca0bFCVFIoLmeJD12mZKQ7va/Pgih1llMIKPly2R9Z8DPVSvckpA0JGbEwsxUtlz8mR62BN/fH/twAhP537b16THBOCpIg2xbI5PpAkJxIjKUCZXKOJ5VwI4YQnFUdTTUCrRNZPT2lcFGrFtHIcWEJiBMExUFFH6Wgkm07LgYJEowRFlFTQUi4TCP4VSYU87v9v2FEQR5JIKUWg2/9pESR8/x5J5So5K9+lt0cSj5giCo6LXIsgIiIyiTJy5pf/ZpGK+f4znIqVK2TLBS9PiQqNlaKTyraWpSkyCcHBUVSqkuEBy6m5EaFRaJXLeez9aTclYQEEq1WlWllVJCUkx+LjG4x+8/p/5ArNqz1ScRKRyeqUy0FEKGPPSOJHpJSKZbIDcAKBL15RsXGTdLpe+Rz6GeRP4coN0MrtHFKxgUeSqKZF0ZxkLvPqhJBEvKQAkT9/UFqnAsUKZf/xERoaSVnt0ooxEh0eQrGyOnl6+eJ/fUKiVS018DCjIUlxYXwPiaekVmm08xrfMgnhYSEU1SpPkbQU4Gz69CPgGQladamdoxppxk0yiRiRWgFyPWFEIOxzECWq1qKQ0gdLfMRPYoViVCibewps2tPkIFSzaCmlLIK8XkjOv8uS4wmOTKZKhfyquwoKJeLMuiCZnyCKDiVWo2SOeg9/3uLs7/wLEP5pi/6t768F/lrgrwX+WuCvBf4fsMBfgPD/wEv824W/Fvhrgb8W+GuBvxb4py3wPwEQEuMTKFys6H/FtfhPGCz82ycK6VSleC5uM+XnJET9RFxEJ4u77p9oS051xIYGIy2ug1Y2pEh5PfdrUBAlK1alVJE/4+uUxoUSIipGxTJ5HMDn1ZB8/y6QmCCiSNGM02ohKYaf8ZpUzOS6zqlKkUhGQRXddilJSTIKF86/DYSEED5FqFO9Srkc5F9z75A05ifhghY6pfKKbMy3YRQXCsnxCAWL5Xg0lVZbYmIyhYsU+p+dd/nttVzWN0FDK+/jg/xWqDCiiO8/oqhYKRNdtUyMoFYgi2iU/DxahMYfp5P9TtOUrxUlJ6JZqEi+x584MRGNIpmuz07C/E8bJE+BFUkopEQO9B9Ule2tQlIkH38lU71ahWwj//N6niw+nB+JhahcLmdq7rzqkP8uD2gWq2nm450LxCfJFFwrf1IkiQloFPln9keZKBlpgUL5zp76HwAIAvtG6vHBYCsbp/QiPeYwP5YURBzb5UbLgT1TAznkL02KmoZG+qL37dp2YtstpVfD8ioLYVJcMNGiohQSwglOKEXB2Ai0KupAzC++SMrRonaGmuC5ZQY4aUzDY92IFHnd5FhefYqjevmUoJ+vT+5Tuk1PqsjZ6gQRjjN64RI3EO+Dc/PTi3/gGgGbyT05mtSVmweX5ysnV/mhPx8fYtDsw1gfO0GHan8QPCeLZoHZOJpOtGKskhLbP9Cx7KsQxNgMao7WksuMaZtCS+p7bguDNz3j3JXD1FFSSct+hUlmSceO1Fh1kMmGDVMWV2kIs/ub0HLxQcYapCkI5tWDZFaN6MXP1vPZt8A434t0eq2ySCYNHY+hxU6GtP2zKGO58mFEZAJlymQEdiU928owB4GDuxbmei7uMKkfnzosYsO4vJXs8rLEv/n7m4tWGFu+5I3P4Tzy2qW8f/2NclVL8dk/gGqNqxH2XYpO+eJEfPRFu1E7SqQtQLJI+rfrhJn9TYY2U4pXifFk2MK37NmxVIWHISk0gNZDNnHhkjPVcqUFz81SMvYusqTjrLk0zWfq8Gefo6w6E43tusmUyEdsw93NxpzWmo3V1O7pcQmi0Pd0HLGZUxccqZKmAplbMwUxwV+/IZKlpLHKsxxkMjU0NNSQRrxiytpL2LvupGY2Anb/zDgRYzdvGNc0+3DCevLvzzshllUTzKg8fANTDHXzaJJATFgIJcpl7B/yPQYNDeI+3KHL9EOcv+iQhV9HpVKZCNOWBvTbd5zhLXWIiU9EyKQCKot7zxdRdfRq6WQC7FJOzWhN2MgzTJazlUpDeR+YjLay7oj0Fz6fC9GzeY08AdO13VNxDe+Ey5rR+QIJ/z5AEGTM0KuO4ZEnDEjNuc73IBKSWdOpCoYngmhXUR6IImXl8B40XO7FqKaFFLKxuwfWoNLm1wxpqBos8u2pM6P3JzBN1x/P6AH0+LqDz/VHox1yHe+iQzi6vA8fA75QuU4Nbq3vTlA3R6Z2Stk4ZNEf6N/RnHGrZinU0tYuWcFs5ytM7lqbaD8vOpvasGNWC1qYWqKVj0mb7/7mcKH453X0u1liOG4IU2fNoFo6BWo2N0ijOGB7kRFTUhgf08q13XP43nopY9spMaFJvnDvaym6ZwJX8nvk0cuoaaZ/SUU8dqPr4ps8uuGSGoUukCSSUTifXpffsoEgwX5YVRrvekcHOQe/LI4Zxv0xWHecAQ3SApJEPP4momOdbLjVhSTmN65Cl7PvGFA7dVxIQ5jQqQcDPV/Qv3z2QYlBz64RU6cjDZRTKZM/MGvFKXZaWyhlOghccXHHYOIEpSyblB4KUgloaKYvAiG3bTDc+omH57alADtBRpJYyGK3N7c8uBcQphCXkmcUSNWLUFBTDTnV7m7PQFwuXqJrzRRwJ/bfg8mR2pxd2zt98ZSIkpFk0iY+NL8v8ca7mWKQQcQV/MCR45L+LO5ZI+tXslREZKyY0iUKqdalpk4BBZFQ1hL25QOS0jWpkCqQk5/3HBmdSKmSRfL0gKTV5Xd5OxOOFOXBgam5Vy8ks9agNjrm1tx2sGWc3RbcVuzEeIwJl5y2MvfEM/RKRREarUm5kuoMGzqFXUfdVBf/+Ev0WR3Nha0jVDYmUfgH6ulb8uqlg+JjJfT5eb6U6UaHVM4BueS6yp4gyIiKlRNPpWUOKVYW1nevS1ObBwzQzSoRHh0eSvHSZVU3ECGeNcatKb3yGXNap3iiRKHPOXQ3gfGDO2XZMKwGNKfBRi+MlYievj5xpt3YiwS+PqkS5JdmTLkUsXIJ9PWF4qWoXqOqYsx6bx2Bc4X1OJnmLiqXn3ef3TVR373xK96c5srpLeLvLJ69mfV2Nippsd6nT1N/wDAqZabnlkmQqWmmj6moV550nOLOU++T6VkzOXk+vl1axd74Eawfoqt45wFnrNgWUJdtQyvR1fwsT25uzL1rMjETGtVlzvU3NNVO4Oihs3wIDKKeXmr6uiDjtsNy3teezlGb+ZRWzkSND0G/Xkc8At5SVZ66mvya/kbLMZ0yJmNuB55hh58+N11mZpKKVm2WIP6GUdvuFO0yhQPW8yieRyaT/O5/HyDIJLSqpcexpy+pXTYtKldGcpKUQkruXnHIR+JL1kBLWWpLSGZT92p0cf+QK0BouPstPaurypB+f3GQOff0cDe4zSpfQxrdm4/WJDdqfrLHIdIQG7NG7BrWiLZ2vsTZGfGhy74MgBAbxLCeizjp44HI157xntVwW94HdURsGNOfctPdGN8wgZ6Dd3PlyrYsQkl/OlFyum9J/xYUMXNiea8iLF15Aqvdq3JE1XEf79N/9gWsV6cAhLjPAahXqU9RdQFBTU1FgMXXbQ5rH1bE65w7dbVV3eDRL20ZZOVPq6qpHgdBSmKShCKppCMycSjux55x7cUDdLX/maOH0K8f0a4qZ22U4DKqGvW3BigAwqMDCzkc3hrT9C9/gcCTi9ng14obRzZRLvMXnSyRCbWrMu1BEK0qpmYeSH4wRt+QEV4vMCqXHUCQcWi5OQyYSQPFXijwOSqR6lpFFYJkCpnl1CITRzF04CiGbzmH1di2Kgv6p5ubmbD/ZwbfhSAhKVl+tJGyKiTHfeXImfc8D3hAJSWKboU7UyoX/05mdadaVN77hsly0hlFUSMpJoL4IjpUKAri9/swOVRDBSAEPvbCL7ooFbQy3sW1XXOJ72yBcfMMyV+pKBkxBWjRuiVFU7kOFJtO5Ec27fBi6aopJP0M4JzLRpbYXUOneX+2bVhEl+YZHBnK43TPjP5E9tjMCpNG+R72oqgAVrq8Zu28IVmV9WLCkJUopwIe/K/uxNy9cCaAIObx60+0bqLULkHExh51GH7iHc5jRzFoz3ocVjtj57KOTWMNmX/wLkWln2g+1Jk7J5YxYcRUdh5xVQUICZfpuzqS89aZAEJEEPVaLeLIsaUpEtxiERTVpqVeXTRlCey3MOeRpAplihVWAC9xyBsOXA7m2N27dEnlMpEDhI2G9emw1wcDJQ9miuFkeC1qhVNiNxqoZKkIiBLj0ShcPB0MiJMSSBRDD9PZDGid4pmKiYigZJlSjF7pyX7LIUh+fSOpbBXKFJDiOrs3CRNOM00vZS5HvHuJrFpTyhVWQ0gKZc2USUSWq8tP79Po6A+ioCyZpn3NGderqeKjzH35cEzWn1Thu8j3y87zQoF7O8fhpz+L5ortQeB7aCSVtcsoPBdqaspzNZmZo4fTeOJeHBcNUJl34iAn+i5+RItaqUqMivVKTJEiqeuaEMmRIz54eN+ndRXVrAdpYij1arTksu876pQtjPvi4UT23IJ53Z90HncmBSAkvONpmA4ts/P8CGKm6NZlhhwgVCiOfHH2u3aEwJqD6Fe7EFFP7ei4OoT7nqvSUzTTzBLsbcuygF7sH1ePr7/iqFb6K0PH2HDo2N50YBN/fRnT3plycFru3pCD8/pws9IMbIeXZvkeX3ZaTcrT+v8aQAj/+Bzvt98RZIlMX+TGVuvJFFMXc8RpP2abHHi6YQDFes0kTVjT/4ItCT2s2TnJIKNTgogtvaohMVlPldT0pQsuO6nYbw4tdBSiyjywt8DkcACGWQDCIebca5IBEO7PR2uiMkBowj6zRpg4+vLauo8qQIj7yKgeCznqc5y9IwfQa88p6pQpxKNDyznwsy22CwegLk9/euJKv6V3OHTElgb51SvI85WpXvDYcSqr37bg5NZJivSpwHtuzHP9xWnHhVlBghDPxjHdeNd2OwdmdVAsOqZt61J69G62zjJKYUMTkggICKNG+XA2noliiWknimST5hf/yYnm64vwZt/wbMGIOO4Fdbsf4O0j2xwV7n6zq4T7XsFshRfHTlnjMboqdawDaCV9zFq350gj41mwYRVyHpjI1ydoYebB/buHqJQND4U8X9y4Zh22vgiiXrnU3HBxECaNejHkgh+j62aNQ/h8/wB95p7g7sMLlFWHsFsbaTnvCWcvuaJXIWVBiYn4RoHS2pxaMpdWczdTr2LW/OPvj7fR41BdXm3rm+3Zf/TX6zQYep1vj7dky04np7ytU8eYp58fo11UA5FYSsECGvx6cQaj5d48vLAZ2Qd7TNyqqwCE7GztNqcnMQP3MKNrPcXPQbedWPOgCq5Le6vKhsd/ZckcSxbtcaBcWipfwkP06hjSx/oym0enMDlmW+S+1GwIqTJfKwp7x8araqwZmbKhhz12Ye21EuxcOlSFgyLp5Q767Y7DzKB6ehWh7+6w30cTCzMlXn3pJ7baPuPENQ/ql071bggiNveqw9BjaQBhAw5rnLBzVgYIP2g17RQPHcwZOTQNIAj4X3XC7f4PCglfOXk/kT4N1PmqqccYo+Z079kNtYgg6utb4ud/gEJE4nrmFaNNDNLd+FJpAhoaGeDs/PoReBY1w3l+XyVTZACESO9rtB8yDJ30DyKBWyvb88LkLHNb5CNFV8XAMq6uMeJ6xeFU0xAUsVT3j9qS3GkpdmZV6WWylokzh6a/81O2G6g6fi8207orrbUSdgyoS1f7lzSrVBJEfkwYspzqrZrwJeAz1eqnEPTEvL/FQ/XeXNxvQX40kPJaA8I/XKd9nwXcCXiB3LEX9cSJtuOPYn/qCF1SeWNECcGIi1bixoYFlBtqQdt65bOsSUL4ERrPi+aZy8TsOU0k79DttIMH3o6Uy5w9Kkg4YXcEo8mmFNVMYNaEGTTt3A3NmC9YOb9k2fz+iGJ+ES7TYdKkMZRJ9eAG3jvCtuNP0ClXguuO+2g+ahK/fJ/QcsxqFpk0YMeShegZ92LO4tNcvXKQiiVUHyyII1g9ahZLj7lTRPqBlk1Gsvf8PratcMbt6O8BBL9Tq5jnpcVR27loFVTD/8Z+lnrE4rFnTq5HNP8aQBAnRRP0LYLCkRcYe1Qb94WdURe9Z+wkO9wvHMRlUjd6299FL9WtdHq5IZF99zG+gxLvv9yD0KMaXQ7l7kGos/MNfWuq6pR/f5EHQBjbFMdxugzYlw1AiP+EafcFuN1xwPpKBBb96vL57gGcnhRhycxh6Upk4tAXXL5zi2UrHKnXbTS7rZZQKa/z8bxmjNLvoY/3M3LbR9ycVxLnc4hrcbpMHtCCe65rWHwiFGdXWxqVU/aHywj/9YviOhUppCbwynUGsw9+Z8KMSZRNPXv88eYy6w/643nbE70yRXNc2xOCD9JstSb+jqOyBwixz6jRxRW/x7sUOgH/SBGSsJvYFZ92e+l+24ja62/if9ufIcP7cX7tSD6338y4yi8ZseAILicPUSdDi1vl8UJSNI2qNuVaYCCVSqaykUU8p3fbYfSy9WGhYUb8SdqNcgKsyCQNypcpjjTpBz3aDEDXbAZGqVoFgiQal/WrKTt0Kztm9KFY0eyDHX+82E23/TXx3ZWhWa/cuKjPV6gz+CbfH2/KFiAEnl/JgH1xTOtbF3UkHN2/H/Ptp+in9RaT9R+4e2wu4mwBgowvrx/wNb5gOgvi5e2ziDOwYHDLFCVGeaCdDA30WrWgkNKmfnqTOReKjcVxthI4T35JizoGGG27xrphGcx3f/aeJZy1mshp7cW4mKfRikuYa9yDFkvcMGuXqhQp92QE7MXIrQaX1/dNH3f+V3dh7l5I1YOQeJteppe54LExwwWdH4BAKK2nHMfHXhkgKKyj8NSQcJW+qyM4by0HxiLmDu1H+4WbqK0JEok0RbMh+QmLtn/j1BFLtFJ5UsQJv7DZc5XZC0zRVJcypZcB3S2siPn4Ae2K5Sggz98XBM6um0a9yZsoHBtC9bb9MNJP84AI3FtjwDNjD/qXklKjVgXFhu7tdZLGvYaobMZ712yg1dhptKmZ5mESuLnOmM/jTzKuSsp6YDupH5VmHUft5mo0+6ygf72MGJZp3VtitPMa/ZoorZlCZoAQwPChG3E944pGciwUKqGw86dj83FQN2Xj0Nz0EPI/SqSieH5FSaikUwpkMZj26kfBdoMY0i4F1MpZNT22LCa83WoOrBpO6Zx4LmI9aDwzjJeuU7IHCGJ/6rbfgY+PPWlqztm18sdte27Rg5EGtUn8/JBOaR6EbC6WzyexoEFBdTFTdesyXe5BqJQWGCngc2gZxhbujLJ0Zat5VyUxvJTx9vyMLY8rDmdyq1JcWj+UG9UWs3lkOUaaWmG1fW06+Ex+vAPLXxNz8CDIeH1qI6u8NLHbsYAKaV5JQcLTs3uYu/sOizZupV/bmtmu4/8aQEixp0CA/XA8G9mypKMO4qCzDFr5nDPuy9hq3gNDu9t5AoS1natSyGwbtRVuNxknbTdTeaAF7apoykcP13bOoe8hP4xrqcYg5AYQtr2pjknP9oTu7UV/u6wAQUj4hGm3Bbjdd8XB5gjdO9chILoUzSsk4vXwCyXUQjlwK5KphlWIK9uWLtXiiCupS700d3b+5we3XJZh+0IHR+s5lE4nYpHy9uoBtp0LY7PVAnSKaOLnsZrp54pxab8FhYVkbrttxGzlcXqMNGf0IEPaNm+swmgX/vY8k3f64rx1BO7u9xlpPhzxh8tMWXyAJXud0K+eO7lIwg83mq3SyBUgVO/ojN/zPQo9jH+qfHniwXVZJzRtm1NrrTdtqlalgKYaMb+CuHruFF5v4pk3uw8/YyvTRa9ytoNeFPuNavUn4/vxAmVSbZr07goG460wMl7MKoteOTZXJoplx8zx1J65h0rvPYmu3Z+eTUpiv3wmr3RM2D1/YK6siz9e2tDNpUauAKG28VW+P7fO4l6Xi2lN6WnIfK+nNCymhvTXNbpMOMu5M7uR+l1k4Lp3uQCErF3K7EGQXyGTJLB99hS6LLOjVZXiyCJf0qPtSGZefMGgOkpgM0+AIPD2wSUOu5+k/bRdGDUugTgxBJv1O1HX0SH0+1eo1ZP1k9tzfPsallntp5LhNExaVmDSjJmUKKiOl5Upa9/ocs9tWbpNxYH76Lu/2n8BIPSg57BpNOjdmx4zsgMIqfZLAwhbBvL6VQAHrS0Z63wSechTekm4xlCLQI7ZTlEZf/Gfb7HxCqwcVBCjiac4eXIrmrFhFNUql9q/3I4YBO6v68qLgafo/dmdoJrD6dlIhx9PT7PuVjH2LuiZ+vgkejapR8flJ1k1ok2qV0DgvtUQ3o8+ogIQCvWcSXJSAcxGdEceX51WzA1aMMzuNr11ldaALADhPSNHrGf/KVdiAy7QZeYlHl3aTajHQhw1TNkw5J8BCBmtEnBaMAb1vitoI7wgQLMZgztXx3P7Qo5GtsF9w9jcyaDiTtF4RmiuAKFO2634PHZKl3MWxQRz/ORlChQtiLOtO1vd9+B/9yk1GtVRBNPLZb4nrr7NwX0pDJoBl+15W24IqyZkBICmbHMpAGHaxduE+b6mSv263Dnlxk9ZZWrq1Sf63mGO3P1CXd0GNGnZiTGjB1OuYCRLBvUmsbEJBi3KsdklAK9TWyir/oHBQ1YxZ8mcjCDTly44Mx+3TEcMksRwDm1fj2+xjqyeYUIxFVI6Ga+uuHLzq8DVfRsIL9UEQyNjpkwwpaJScOm/CxCEZKz71qbXoffolS3C5/MbWPakHu5rBrIlnwDBdoo5fa2dqaVIFcscpCjBY90s6s/YQs3ihSmWSon57LI71x4+4EJwHSbU8eVMsC6V3h2haOcplAu7ybXIOgwzaIrs+lIG5AIQ3H08EH+9zOwjSexcZJz+xRfie5n+W77w8EDKGY88NiyN4EtIiuCwozPJJSpkCAjlsnvGxcYiEwRaGw6jVa2yJEZ+45rXZX4U1WVyqriM/Pb3Z9ax6HYVTqfKoMrB148Xl5i32JrWo+YzdnBvyqXys//yv4vd8TcsXTlV8aUY+/EOK7Yf4/v3WBbv2kvrqnmn/8R/ckFvxlvWjGqRratcmvyVBRve8+6dM2ke3n8KJMhjEPaPqkY9RQxCEQKe3Oai122KNe3LxAH6xAS5U3/yKz5e2pytUFbsZ08ajPJkzYo5jDVsqQgq+3DNlvGOPxlVTcI06xTt+cxFmhzNKWd7ihmY07eRnI1QxsGNi7nz5iMl9MezbbZRnhHV3x9vx2BjBGuGNMzWbgkRfljYRPMjwCYLQHh7cRfLbyTQuo0hS4a24IXjFGyjjdm/qC8Rby8x0DKAO9l4EJ5fOcLdoATKKrF1SiLfsc3uOG0GjKdr45RMEKQign4mUq6EGkWqtGZ0v1YEnl1Pp4W3eOB7DZWTl3wAhB8BZ+lrMInZp98xXr8UN6xH4tXYhi19tEn4doeZ9kE4rRuHuiyG+d3rETXmppIHAb56WdF80gWuvLlFi1SUKQ60p+/+qr8NECTxoezbc5AHh7ehP2MTt50caGU2mNtnbmM61oRLzta0GzqLGu27sXbv1Ww8CCkmSv7licEELwZ3bUyPwUM5sngM2kbjqKQcoyn2x/1hRc7ZTc8EFgV87Gdw/H4ARXpvYsOoNvx4doYN52PZscqUArnGIAjcWK7Pe7NLTKmdxMTpNqzftZHymqHM6tOf0e73aVdeE1n4VVqZHOPCFUcqKh1PeFsPJWDkYRWAIO6/mVk9ddi5zoZBFquppZXiTRvVsRnmLt70qKdEzZwFIAQyepQlziddiXvvRZuF/rzNOVRMAAAgAElEQVQ/M5evx+b/4wBBkCZzaf9O4huPYIh+ddSQcdF+PaceBpJUuQeu68bkToUu36PDj6I76i7LzNpnP0dlISy2fMozv0PopHv6pURHJVKisIS69Sfz5J0zr+4/oZiWFu+vO+D2oxmr+pVnxOwLnDg4PYXeXK0Q9RrrkkGiKxD7IwCzDt2oaDKeDq2bEBsromt/E2qrfUG37Wg8nj6hliQQjxOetBg8i8YVU2JBJEmJaBRQw27qEFqsOYZ+5WJyFxrDx+7i4JHcjhikvHt8i5uP/GjeewSaz9x5GFVShYZfvj8kxsUiFCqP+ehuuFmvQ6fPPPo2T5VtT138/lWAIEsIpWNdI7yCHlKykBqn1wzlbbNVLB/YIA+AIBDy0ZdvkaJUGdaU3shkYuyWTqfWxL30UVrNAq/YsOOxNoed1lClRApU/vLYnvXv+mHT1CMlSPH+AspMPkT1ILuUIMWxTXAY2whj+5w9CHKAIC+DWndkrr0TxUlAQ1MTOe/7HNdfHFwzEKThrNl2iW2266ip9WeqYekblZCAz53nNDfokIWv/sPZDSy6VQnPdICQ/XYsiwvB69FP+naTBxjJwW0ct07Y43jjKxUKRlGqQU9GGHenTvUKuU66iDuWmD4w5MIS1SC8tKdKk4O55Suha/NqeW6avwccZHx9cYGp48ax+IAnfrefULpBezo1y3CRxXw7T5ddAjenFuGFuDmDDXRVMgx8nSdgW9KSjg8m8bbpYtaM68LV7eYcZSTmxS5Qw3wnNVREn1Ja+Pn5HQrU70yl1KPk0E8v2Gq5ESpU43sojDIfi36TepQpnvN7fu9pgcX3cZyaqZstQEiK/sT9L4Xo1qSiyu/JYb6sWHecDdbzGFy7NiueBuE0tCsDbL3o30Sb8De/4UEQRzHX2JCqMxzQ+PiCKTPGUgQJz05vx2z3O+5fdaRUavaNx+rhTLsEnx4dU0ghp5c8AYL8PMCPbg27Msbdn/H6JXCf2YYdUSPw2DVDQbV8/c4runVumiNASH7pTu0u87H0eo9525RgUlHAHrpsjmfF0BRdEHn5+caLXbcKsGmm0pm55D0b9v/gpufmjLRfIZnlbesz7eoH9poOUwQpOlkeYI/jmowgRSGE1lNO4KMSgwARH59z2HU/Z+48Iq7RTO7ZmKKBiIWjR2Lm4pHFgzBwnj8e9jOzziEhlk66TZjn7sOgFhUUbvMVAzpQ0uIWFp1L5xqkeGxSbWTLnjOyphYuc/rxpvEitk/qzDXrESx/35eHDmPxdRzHkVLzWDdMT+llCTzaOgT75A40kctbAw893Rmy+w6D9Yrw+YE9hpZfeXtpPRpqAkPbt2TmIR8MailNgiwA4QOjRq7DxcOVGD8P2q+P5J37RL7IAYK6KRv+oSMGeVsj/e4QXbUzNVK/WyKD/bDbvJkfRavy63skIydOpEOzhrnyiSQ/24LJ6Wact+yV/XokDeHGi1gMWtbO8s5kSVHUbTCdJ+/dKZ16ZHR201h86i5nZScJjfscwP/plixpg78CfHCyd+CGbzIF/W6z+e5rGumo4ecXhFRdA6I+MXbKNtyO2yLEvWPdwQBstllQMT04WYb/lT24J/bF0ri2fINDTfI+HwBBftwlQVNTkZRPUpIkB34XGdHhMZQqqxrArzLNk5OpXLkycXFxFCiQP44YNUEetp3PIr9UW1ubZ8+eUbq0ahxA7I8n6E68Q9D5+RRQE5jXvxdGO8/To7Z6nh6ExOgfJBWuSJoyqCCOYc7gvlz2DaHD2NXsXTY6V/5u/4sb8Sg5j4WlHBUAoYbXXBos96Sc747ULIbG7DVtxCBnP95kDlJUxCDMx/HGYQpqSBnWrh0Wbmeorq1F2TJaRL+7ovAgeLtMzCJ3m0+z/fZl+QUIaRXLxIn8CHzGxhUbaDLJiimGTRQb0qfHp5k5czFBQmV6dO9Ci6Z66HfqQoMqysI1At6bjbhtcIgl7fLLNZ76ZEFGTFQkGkVLU+x3RcoFKYEPPVhyUsSAkMXUWnmG19dfUKJ4YQoXL5EuUJQY/pS5p8F+QktQK0ynXr0ok/Y1JY1lWe+WmJ/zo476J/Qb9WTl6btcXTyM9lbX6CycY8mDxhyYnENEsCAXBfvJ9RP7OPRSA5stS6hYoiBySVuH9QvZcvg+TTv2oJN+S5o2b0mnti2UvBgyzq/ox8cRp5nVOBsEkuNbl3LR3ZlWwyejoyHh4OS26JpPZvqWYK55yCW7Iez1+TxiEFIqlyaEYTnCgNjB+9k6tg0vjm7gTWVTmsVfxvqmgLPVFBUeDYcZvbF8qa0IflWBPfkBCOIAujc0wPSQHCBokRD6ioE9hvD0azKT1u3GwrwvZeTkXDl4EMQfTtOojTkTDj1lcd+U2KOkV7ZMv90C51nt0wFUtjEISQ8YMesObo5LMmIQpAmMrtOFXW992D58CINsV+C07hz7HBexPj2L4Tstp3ry0HECo9KDFCH46TG2PdXBerSEfmuUYhAGdkbWuBclJfFcu+1Pjx4tUZd9xzusOV5ZAILAuyNz2PNVm1c+cXgc30wZTTXu7ZvG0eJzsDWtlzNAEJLY0L0GvY4G0lqnGMHXd9JlvS8vbzjw44EN3ef68/HxHmZ36cWsUxeoqywDicCjbSPwHe6m4kGoOPMYg/WKIQp7T/MOk3jpd1MRHzFQvyMWx+/RvppS0FwqQGi56SpaMUEEJcRzbO9pxRFD6OPdmJysx2Or3nw+Nh872SisRqrGpQjSJMKjEilTRq7v8SfCwxAfFcr986443fjJOqt11NcugvzI78j2JSyzOUvD9t3p3L4NTfVa0Kl9W0opeVDe7OzP8QZ7sOydEdya30U2C0CQxTF36EiGOZyhucRfBSA8fv6J1s1TMkd+vDzL5rtF2TXDQCkGoSjfvv+icuWKyEL96NB9Hj6vvLJpiox3N1wwtX7FItPmBAZ+pkiNjkwZXpWRxgvoP2JIOtCRfr7ELZ3VWY4YFJUKYmyHtUXUfTplVISqQK7yabXpIJfePadWDvwX/6oHIS7Yh+Wr9lBGrzeThtdn9CRXPD1t0FIX5wkQVCwqyLCf2ZvXjS3QurmB8oMXcPthKMe2jc+ROOLWtskkTXag66fdCoBQ8Ng6Bju4ovFgS3qa486hjenv6svH7X1VsxjiPzK62xzGj6vNqKX7qWZsyb39s3l9aDGWT2vgPKUWxluCWN/8CzXGrqZuTuI5+R2h+bguPwBBnhYkSYrlhocLTmef8+nJOzoM6pQF+Yb43iGyyXR6F3vONZEBx9aZqErwSqKZ2qopK70DqfybzI0/X5+mYQczirZezMdry3+DGEvg8dF1THL4wdMbtriPqUptq5Q0x+CbNmx8VhObBf0Um0b0p+M0Wi/ji5NqKprcjLFfn9B2ohdvLq9QTLBdY3tRttsAHE8Fcv3MDjQSfmDUfAjH396juBKHhVQqISzwCTa79hIpxPNLVo2amaOOkyLxvOiLre10Du/aw4ID12imrIwn+oV5J0N2PHxBZp3AfLzijEsEGWNb12e42wP6NkyJaJdnMQxa+577ngtzCFIUSAgLZFzvnlwPlOD75TPl5WHmsghmDBrFgO0nMayV9WjJbUF/Ft4rxueHR1FJdM0NIIg+EyupRIkCQSoAIaUDAoE3Xeg/bgli3fE8Pr8FLbXsjxjE7zzR1Z/IjBOvmds9IxUzs61S0hzlQYq5qynKEiNp2HIlT9/YstF4EAPWTOGg+xf2bhudARDEQTQ398Tn4HTGDMsuzVE5SFHKt6+/qFK1EmLlLAZ1ecBnMkkiNYqkpq/K2yxJ+kqLvtu447WDNcYtqTDNlSUDmiAWJ1CggNw/k0sMgjiGoTX12BvwQUHQJIv2ptsAGzxvHqZo9HfOBGgwrFUiZrZfcJ2bmfhKwMd6GP4j3VUAQoUZRxnSLOWdSyH1y1mEUdterD1znVYVNBSBk+KkOO6fc2XVKitaTtnJ+pmDKSb4MmzIFtzOHuDFbjPcKltjM7g8X44vYEfsYHZOUMooEcS4TWrOjOPf2H3Xl3F6Ob/LzO9Wnt4b+9OPPdbWBEuS+ByhRYPKmWaPNJkjBy6wY/86rh90pt+ao/RropTpIUtkll4Npt38iO4fZJNlBgifru1myZVSHN0ylsRfvioAYYfrFeaMzeSlSI1BkAcpNq6QkhatsHmYP517zuf+84spf4c+5lFYFTo0rqJYx54cWs6ej/WxW2mWMffydcSgbEUp+02ro7XuNSaZAvXFoe/R7bQQf78zOe6T/ypASOtGckIcLvP6stLzM6OX7sJ6nhE7s4lBiOi7D3PlLIbUCpxnGfK6kQVbJxuwenh3dJd70eLnPoZa+3LnsoMCpasUWRybJpgwZ/9VNF7LAUIPPnodxc7JkuALm1KPGJoTGxlFUa3S3FzfM0ua48geCznmfYK3rwKp06g2BRJ8Meo7B4sDHuiKHjJAHoOwfxwHZvYmrI8NC/vlxdj1W1tElovzAxDkymiJScmoaxaksKYY45rN2PfGjwqZ8pGeOszkWpOtLO2QPX9BeOAlOi0L5PXRmXkyd2VuaPi7azRuMwhZtQl8ebkj20j97C0h44brToReM+heUZMDo6tS1zoFICDEMK5LG9pvvMfkDuVyAQgyzmyeSClzB7qkHjTKJCIszYypNXs/ZvpykiiBVw7jWBU9mVOLOqSj9OTEeIV8ceHCRYj23sTyz+PYO1KJVEoxwf3o0W8Ttx4fyvb44OtTd0Y6irm3b9x/8LKl3No0iAs11mI1oll6bMuPFxdZeymZfUtNsgIEWTwnd6zhvtCSNeO7oVe/NQ8/fkwBCEC47yVGzXHD/vRhamQi0rzvNIsB2z/w4tUlqipnYeUIEAQurphKi6V2VCj4XgkglOCinSN9p6WQGSV8OEpTfQvsfALpWTuJBd3qEmF6g/0TMuZJ/CNnavWxxuXxK4yU3d2ZrOd/ZUcKQHCdnqtd40Me0W+fiOurOrKi/yA6jenOjbhmWI9vngEQEBEdJ6NkcYHhSh6E9IpTgxStDEKwOv6csmW1FJLSsuRYjpx8xohRBoo5EfktgE/J1XE4aEOdkurIPZwL+pow1+MS1UoW5LHLLJY8asD1fTOU2pwzQBBFfaa+sSv+t1alzhkZ8fFJFCuWNkcFAhxGIRvkQsO01N30mgUeWA3l3WjlGAQjtKcdYXiLzAqkiXRrNYjd1y/QWB73IQ5nXu+OFDNzYMlwfYqncdPIovkZok750nGMM+jDksvn2brQnlVWC6lUqqSK/Lccflxc0oWRe1+y9vJr5rbL/1e8nONBJIVCRYog+Dsx9UJ9nBZ2Ul3OEyNoXWsANz7fp7QyT07qVfG/7tN4ojf+Zxf+xnqT8QhpYhh1Gszm2Qd3Cv+8z7zt99m0ZRGlC6iTFBJAPX0Lnrxwp6j4G/0HL2KLmzutqyrZNR0gvOTJYRuiCpdDq2hB5FTt23acYOHylDEgB2JJQnFMRo+lmpaGKr+KKIpTB5xo2Ks7a5Y65hGDoAoQ3MZVp/jqHABCh/n4B5z73wYIHy5tZtPjalhNbY/V9JFI+22j3NXZVB6zkYqpEfBPD69Ga9xBpnXJID6RJIVgMXo8redtZ2j7+gr32NLBndFdcZ0xepr43XCh/6TtdBg2meULplBPJ2X1Sw5+itk6HxZN7kKhAHtcxR0oklQOy0ndeXM2DSBkROFeXdeTwByIklJeRSLLJs+h+9wNdNfVRjlIURBF0F+/M6PtLzGydUa61n+wQ2R76zt5kOKtKpzZMT5fVcu5APrXaoaTb0AWgPDEfjrXmmxjSfus+vFIY9g8djD9bC/RODWoKV8PVFqs3pxciUuByWwzrvaHOgASXEZWo/62VIAAnLHfTvVBs2mmrZkjQAh5e5ndD0uw3jzj6+a23WwuFzDGUh55nIojJQnBdKjfloG7z7PYRC/LmWX43fUs/zqRfaMyAwRfuhlt4PYj96wmEYezytycUXtO0aDkn3Gyy92F1+wWcUHdhC2TO6ekxmVTxAF7MTksZ1I0VJzv+/l+p3SlKlQoUwJZYhS1quopAILGr0ccOP2UoZOnohHohdnE5dQfOI0F08yok7rJJL4/R7POK9n78inddTLaLf1+moZ6Y9FfdJCDi40VrZBJErnpvol5V6vy5NAkCiY8pUO9Pow8+IKZ3XTYO74lRadcZKx+ZeLeutJx8k0uXt9P5cJiNg/TxTWqNxvHNqBu34k0Ll2YV4cX0s82lJf3XCmdSyaMr9c2JhwqhPehmbkMRQH/owv4pTceHc2ibJo4i1qtdGk3Yx2GNQUlgJBWRSJDh05lVxaipFQPgtVgZII6mhopDROFy3kQ1uIf4JqVm1+WyKnt66hjtpymqWuQ6PN5ptv8xGnrxHwBhB+PHTmiPoz5LbP3PQmiGEynH2a/w1QKir6xzfkO06aPSiUvErizYSAv++zEuFzKOzy0fCI15xxnZKtM58/iD7Rpv4ITD45SPfXIOTk2ikIlsjunlnHZZh6n1Eywn9mFZPmZuvEQShouZNfSERRRGp7ydMQRLXuz8eYVaqedC//ewoHo7T6mXtTFZVFnlTvlsvctahhx8/MDVSI9+VXSeHaMNaTL7ps0Vzl2ycfDZUlc3LuC3U9KsWNuO1y9/OnTozutmtajWBpDrEyC730vfN6HKCosWak+hl3bUUL5+FSZKCk9zVHO7u5L225zefLmSpbGiOMjuH7pLF4Xz/M8pCjTZs+kW5vGaBf9yogcghQdhpZFKFMeVSJdKQfHVKeEZQ4Aof1s/AMuZUqxzGjOv+pBkIkTOLFzNZ91DJk5qhtFC6gjivnB5xg1jiwezLD999NpbW86rELWeSbdG+gozlVeXD3J/W/QZ8BAaqUjZgkWA9vRcPldxitoRwXCAp+yasEMflUdyLql09GtVIpHZ+yRtjGjatRLxg1fwCDjJrSduAT/UwfwuHCJ+pNd2TSsLu/uncN+/1Hu37/H/MMPGdYiJdpbTrU82HAxnoogRQnuLq406TmYgt8f8uJbEoQ9Z8ezGjx0SPlS9Dthyfu6ExnQLP+utXwMX5VLfD1WsfBWFS7aTM7XrXKA0KdmQ3ouWaEIEFUu33xOoW7mwWqDrB6EZ+f24lOoF9N7/RmtamTgPTYd8WfDiomqxxb5anXqRYIEh6FVqb0zgO5V0pC6iJsn3fiSVAwh/C5r/bsRaDc4fXOXxX7moMczRow1Sc8OuO1siV/ZHozr3z5TvIrAD29H9AdvZdwWZ1abdlIBCWE3VjP6ZCmGNFdNBZXF/8LB7QVPn57M0ps7R3YQVNmEcZ3/THNBHPsD171OlO4whMEd07gCMh4jTYjg6sUzeHqc4dNHXypNOMH+ScqBainXiqI/UL1Ge5rpd6L7qElMGNKD0qnHRHG//LFZt5ythx9iscuJmcMNKVYgibUjuyEZ5sa6QSnvPD7kI299/fkcGgdqGhQtmkKLLBElkSSSUFGvFx3rleDDS29evgumRIVatGmjxzN3a96EqSEtWBQ1zRL0HTKEeqkkUyH+d7Dac5ImRuaMMWym+KLZN60Xvk2XsHtat1xHx9uLWxh/oACPjs/L8Tp5iugSC1c2WU/mwYlN7PQpjV69ypj1rIaL/X6ue7/n+sO7FBbi8Ny/D49LN3geXZ0Hl+0opQZxoW84eOw+WhpvcfnYmStbMs6A5Q9NDv9Ag7ar8Q9wp1Am/Bf1w4+f6tVoUF7ZPZPKoFmoIPHhQRxyceHmsyDe3rmO4/0A9GsobciyOOwXW2JuvZlD27Yh0ipH0UxiSDJJMp/jC1CzlDqxwQE8ex9Gx6HTGGcoHwMyrq0x4nGnDRhpp7iBjq+fQ/0FJxjTthyCJJEbZ47gfvI6MRHvCKk9met7J+U6PxPDArHZvhONBsbMGtMj/agw7tsDenUfyzKPJ/RrnApmBDE37VYQ3m42g5tX/sOPAkh+YUv/Ld8Y2lVVK0UQJ7Bl9QEef3lGaWVUIl97rzlxKakj8/s1+J0VRnFtzNcnmE+3w97DibIF1Yj++oI9NvvwC1NHV7c+5bXLULRQQdTVBJKTk4iLiSYsNIyKLfpibtwOteRoTh924eTlB9y98Yqbfq+pXTYj9kj68w163Wbwxvd2lrYJyeFsmDaRSoOXMKxXW4prRONs50KCLJELF58ycFDvjNTfzze5GKZLAf8z1DfdzMaJ3TPWK0GC44gaRI88QCeFHIHSmhH9DdNptrx/f/N/DyCEBT7jzouP1Gndg6bVMqNiKRFhMZQppxrUmNY1uVjSx3AZtSplvk+C46Y1tBy3mhYVlSMuxUilGmjI0b4Qx8P7/rTtmBJEI5Em4nnnE4O7NkQtKQRnZ0/6mU+mQupASw59zqbD71gwbVi6kIss6j1mEx04dNJaUUcG1a6UDz5nmbPQmsFbPDBvX/G3B+Wf3vDqxHpcQ1qxbUbvfFUhn1QW87eyatvKDIGa1DsDrzjyU3c8HeRcEkolNtifu+/F9DVokq9nZHdRfGQohUtr55mWlOsDBDH7xvei9dYLtFQ6U5QDzqc3PJk3dyNTj97HVC9jkZXEx5JYqASKsAFByuMLniTX6kAHXdVsAeXnBn4Ko1aNrFoOUQ/suVFyFIMaZ5pwUV/Y5PyAFQtGqDQ/6vMLHv8oQk/9+n9kNyEhlDs+fjTU74BOHkJAsV8fMXalB7tt5eyiWaOOpaJI5o+bz7C11nSoK0/VzFwEfn78inaNaulux5DX55i2xZtjbhtzzzX/o95lf5OQ+BHTSbvYvG8bVYvn7nH54H2cSz9qM2tQyxxbEBPyjuCCdWigJf/il/L1oRcx1QxoVLE4X59f5uI3bab0z/AaXnbcREKTEZjoZxCzxX1/yahB0zF39GRgUx2VZyWGvsdgjAP3LlqnC8f9ljlkEl5c2oGrbw02zBuiYEVNK7E/3/MwriI96uSdfpyDNXnpYUuJvjOplbquvX/zlvL1dCmZro4nEPb2NAtsnrDEcikNlcWAVCoVeHrbi3chIlp36kqdCpmPKMD3yikKtTGmtlbKe5Prj3yPSKaK9h8IwSk9O/nVYY5FtMWsSyaAkBzLkrUHWWs5ncJKdosPDeL6y2gG9Gj+W69C+WIhVfwv439SPvu95JXvO77/+ElEZDQJiUkki0SIRCLKNTNmyfgeGXFdghS/c1u5pd6Hyf2aqqx74pD3TNtwAsddy/IFmqKj4iihVfw3s8Kk3DxgR92hk6lSTDUwWu5NPH03AJNe2Weiyfv8r3oQ/vit/ds3CjKkaur/2Sb3D/dBKpWiofGHrut/uC3/dnUikYSC/0W52X+7f//3zxd4edGFm4lNmTu49f/B40Uc37GBSsZz6ZjGnf9/8NT/5BHyjwS5lsk/yAn2nzTn771/LfCPWOAvQPhHzPi3kr8W+H/fAiH+d3kqbkSfJr+Z2vpbphG4f/ooVbuaUE1Bfva3/LXAXwv8Wxb4CxD+Lcv/fe5fC/y1wF8L/LXAXwv8D1vgL0D4H345f5v21wJ/LfDXAn8t8NcC/5YF/nWAEHbXnejGw6hdOi8aRykymQbqfw/5/rtjRRbL+aNX6TVqkAqjXm4PjQsPRbO0NipkXHLGQRGUyJQhkVs9spgvOB17zMgJg/9IKlYS8Ymj3hGYGv2+UIyQFEuEtBhlU6lo/9TI8eGBeEdo06Nu1uCt3OsUCP/5i7IVVFMnc7snLDSSMtqlMzI14sM4cjeM0b1/P2I77TlyBbrgRHUqF/sdtjtBEb1dTvt3ZYj/1MrK9yVz7exVDAb0+/OsmN9sRsi3YMpUqfR/FrCZY/OkEiQamirtCIkQo5NDOl+M9xGC65jQQPvfP7r59PQm4TqtaFk1d1G47PrudewQFdoZ0axa9kHseb3OK+cv0bJnH8r+DvN9wg/EBSsohOHkRZqUSHLBIhT9zf0o9PkVfAs1xUA3//M8r/78E7//ihNTPpug5n8dIIS6mzPh4xhOLe+KpuglE822Ub9V1ij5b69uE1SkI/ttl6CiYPxPWOdvHRkWkEWxoHsrmti/YFy9/EVN37Udz+rnDTnnZEHaviKPlm+i255lR69j2iq/6Z0Cn3yO0WeKA09e3uD3Y55lPD25jpmHE3jgYZWjVHV2r/uV5wZGbH2Dx0V3GuZTflIc850TB+zY63ySBqOscFpsjP/JBXTZEMHHxy4UyUzQles4k+Iyuzdfe+5jdX/VKO2cbju9oj9nS03CedEARRR04M1ddFv8mIf33KiQHp2udLcgJviXiErK7I6ZKpdnCOnW08f9rC3bthxmzgZr2iin3GXbGAlWpvqE9diD9bi2/6ezKeKVJ617L2XjjScMb5C/8fqfNnDv6FY8b7UWu3lGvwkSpOwy609ovc6USs2FlJPEqRUqTlpa/dcHJ4k3sMRhrmEWoadba3vjWdWS7eZtFb8Joki2Ll5AnbFWmDTTBslHdJtN4OiNc+l8C8p9jTs9k5HPjTi1ug8qwn7/qUF++34JK4e352FpU7z2zf7twM7kmE9MGzKUhvMOs6hPBi9OfpsR/+UOQ0evY5HbWbrWyIbrJUtFAi92m7Dq2xCObTKliIacsvwna2bPRX/BPowa5qxlIK9KEvkFtVJV0VBXw2PNNMLbT2diryYp/ZYmcfXOZ3p0rZ+vTIb89lF+3fc3Z7gUVJL6pTOy0ZK+PeJcYHm2rjBV+gAU6KjXhvUeV+hSRxV0/esAIfLkNCwSLHA0qwnJb+g9yBqPC6753hykke+486UYXfVSFenklhEkBL18wP1nAYjUC1O9XhM6tq7Hh8/hNK7zT5IVCfzyf8h+ZzeM5m6hiVxt6zdK9Je3fIwQK92hhmbBwpSvXA3tUvkZuPl72MtbVymj14mqpfPx5SCLYWkffXp5+tI1eyLFLA/dMdGUhots6F0/Y3DFvd5Hq4VfeHhuPaXkconZFFnENbaeCKZhJWXdeRHep47RZsEEjqwAACAASURBVLCqQtvrW+co22cRU3qoLgiy6I98F+lQNTWFShL7jdEDZ3Po2qnUVCMp931e0ka/Rc5fmJJQZhgPpulCB4Y1K6/UUjEOdu4MnzadGqnkLrLkeC5euEh0QiKRz07xoPgAVo/rRZVK5SlWUMSmwfoUX36XWZkJaLLpf8Dtswj1utJAkZ8sw23eQCRTTjK+QUY6UkYKbdYKzq8x4lOn7czsXh9ZYjDT+valqukK9HRSP42kUVx/FM7K1XMoq/DkyAi4so/1N9Sxs5xMcTUp0gIFVDYiITmOFtWbc/FdAN88l3O9gBELR3XMYyOUYD2mKxVWXmdMvd/RmMjf+M35qmQ2jjPkZ/OZ1In9wOQVS1TpoP/T6nO4f5p+A4wcb9OvifJYyc/DpGztX5/G27zpXU/ubZGyzdyQktPPM6lVCm+L4xhdii24zqgsnCkC3uu78X7UKcxqlU4X4/nqfZBRNhHcdZ/JmSWmlBxvQ9dapZAWLJglyyr+4gJmf5+A86T/LqtrXpb4dtcOk9UPsZxtQHQ1I0a0UE0ZVb5fEIexzGw97UcpCXHJN78Xtwgu25rWVTPWXFmMHxcDq7Bj+ShUsoFlYh48/4F+yzThOAF3y+lIe6/DrE1Kqu+vR2dQb9IXbbk2SKYi54kY1qQBC668QV/J4/Hq7HqmnCqH94EUdtCHp09QvYcJFYqrpofHPNuOoW0Si/o14FdYNOXLZaTni2N/MtNiP8+DvKmSIQGZlwnz9ftH7z2M8SiH6/TW6eDj6619OH77/9g777gc2///P+0t223LSrbsPZIWSUVklISSSlRWFFoom4SyqRsleyQk2St7FNlpa3et3+Oq1HVV1j2+9/15/O7jL7nO8zyO8ziP8Tre79f79e7JniUGfLh7ifLKg5AalPor98EvPJw2teUj4f5xgJAcZIVD6hwWt39ORr1azLHcxO9Hd8oDBGESp669R61fhwK1O2kPJT6/wKYLOcyfpl6AiBNfXWeJ4wqqdjdg4oi+1Cgv5EH4UdxWbKbJWE/2O+r+VOf+zEUSsZC7V/cwetQ8dl19weDWv6awn5USx5ML69EyWcdQC2eMBrQlI/Etwf77eF9OiZUb19Oj0V8AFIRf8Fu7HiU9S/oVCRs7fOA4bVWUCmO3JRmsMx/LgPXHUZExwT27cIjX9YdhOapwsL0O3UNsna4EnozARH8IcY8ieF93EOP7NsDbqBtikz0Mz9f3fxF+jORWozAa8PV0LCHQQZ2YYR6M79QQxGns995Kt7EWuUlYZIso6Sn28zegOs0O0xF95JC2KPYkg4z2YzNzdMknEUkirou88Th5keEtSzb7X9wyl53RTRmvKm+a/3B9D8sDE/HZ74daCSbB+OOOuCeMxMs479Sc+eEOfQdNw9FzicyGKuak/wE07NcxWkVeFyPUYwR+paexy2EUZRCz306PbLPf8wGCmGcRe7FddY1NuzaiKM3IJBVvibrIbUFHBretzenlI4jq68Us1daEbFvAUYEGC/UKRZQOu5gSVkmbTUvNqZO/YkpT5y4a3oaeW6/R9UMQjgc+ozOkfWF3i7Jxtl6I7WovFCqIuXLmDH1MHTHs26LYlHh8LYL6nXpRu7KE1cbDqLvoLIYKMWTXbkm1sr9oe/2ZCVfkmodBbljtT+Hw/hUIn59hoX8CW5cb/fKJ9NeqFtKv/TD8Lp9HqVYZYj98oH7Dulw7HkQtpa4FYzMuMoS3dYZiOEhW+0LMutFK1LDcR99mUlAsZtfiaVQ12oK+snRjkhA4fwQtl17CoENRDRUJNzzUeDr2YC5AuLvfmb1vG9K7eWUSk7OJefGO9BqN6K+kwLOTPlTUW4PdyI6IczKIjnmPVP0/+9pq3D7qsnR0CwQJTwh/XR3job8x1z0QtcFfx0A2x849Y7nHQhr8QH/i1/ot/+rsj0zQMEDD9QATe1Rns+NietuspFvDkte5D7cPor3kKad8p+U+4N6hdbxqrI1u71bFTtzbbCeT0tUQO/NJ/FZdBqiK0hnfVJGB7uupV5ApUbb1YkK8ZlHW4gTrJnUvNn7S355hwPxojtg15fTteGpKtQhKgSAzhURxNernuyVfPH6A4sBxjB3UVq5t6Y83orKmBk+2TSz+7M+PadXTmaiXv1NZHlf8oe6VvSnmxlZMz7Tm/OIh/B5wjH7qamRdXs3Kl93wsVUnbMU4dtWYx/YZXRnUvg/bw/41AEHErRO7uftJTGzYVi5WNkBLUUSlpg04uj8UJxst7r9KQ5T6Gt+LX7DQbMHnRCFjp88skIDNSnjGBENH/M8dLBClyI5/yDgNPZrP2MGaaf3kOvjNhfXMP1OD/R6T/3THyz1AEI1y8z54X3z+ywAh9zlZ12nbXJ1puyOYOzwP2Qu+vGVMj85cKadO9N39VMtPMfpnGi5KfoSZ5WZctm2gkYzjzKKHEp3t19Hut3xzgSSbXY4z6e7sS3sZMH1x+1KSBy5ltVn/gmY82KDP1tLjGJN/krrmv4pHTaazaXIDhk4NYMWCkQViO4GrHcgZuozN1sNz7xfnvGOM4TxW+G6nVa1KRJ3biPqsvSxY6UHvVnm+bFHKE16X6UKD+LtU7zUSpTolWEDSQuk77gQXj3uVzJkQvkFtiA1bQoNoWQLNJf5hMBMcT+C9ezMtqhfO0JyEx6gPHo+53wkMexTmSJee6KWpVKUl8aQTK5I0GVErnhYDtYg95UZQ2XG4G7QhNacU1SuUJu1FEJMWnsPeZTF9leQX/cteepxqtgg3A6nAj5gD9nrEai6nffpTHj+NpnHL8mwJyuLUngUFgEOclYRul95MD4qg3GETXvTxRLfGc/Zez6Ty/T00st6DfvsaPAz2YM6hTPZudaKevPYqObEvyUy8TfTreBYEpHNip0OeyVosQiTMZJBiRw4+iaJhPigpedzlMGVgZ4Tqy9i1aDTrTNSos/AMExRT8XReRe0e6hhoDEChSAa5PzOGZe9NexuBoakXS/x20rluudx0ttd2zsP7fU82OhhQ7S+2oae8vc3+05HUqJLDknWhOM4eTQUy8VuzAYsdZ4lZMZiaUzajmH8AuxOwnHfdluBpKps3QMx6vbaIx65GpaEUrEo4vHoBVXRd0GiRl5r37EpTOrqHY9jx61iREP/mBbGpOTzeOYNXqsuJv/IIjeYxHPvSgym6qrRXSGGgmhdXbm/m3IkrxIe5UnbMdsZIXXvCNC6duUipatUR3PPFJ1GDWUMb8fHaPva870zAov7o6rpyLiIgr3uFMQycuIVTB9wL3IV/1TeTWky2WuvytP1s3E36UbZCRbJiI5lgvIyF3tvooVhTftOXZLJ9vhmpqsuxHd4Csj+i0a0fzQ0XMX1079y8ChJhGiGhL5ll0Z1Tj6swUqVwrha0W5yBWbOGzLnznnYlijUJ2azfnKoud5mcn/ys4F5JDvssVak2/xw6Tb9tgc349Ii0qq2pV7W4BS39+RbaWz7AcZxKMVCTkxaL05p7vP47AMLN7ZiebpkLEEZ3aIPNkZs0ebKpACBcWTOVa/03M7dHBQb+uwBCfvdLclg3qhn3dMPYYdpamuydEWPcCQjOsyAkx5yivf1bYgKmy1kOpAPtiJM+/nWX4D/rKyFNwk47HeaFlOPu7UAaFtMMErLJLxgL06/yuxKyUpNIShNQrVZtqlYo3ByE2WmkCipQs0pp4mI/U6FGXapLFzqxkMT4BMpUrYlC5fyBIHiNsmIvvC88p09DSErLoVadOpSXasXKFGkijsTkNMpXUaBmNRm0nH0b5eaqmO0qBAjS99tvqYL53o9EvnlLc4WvR3kJackJpGZJqFGnToGPW5ql8WsC7lKlSuf63sVicW7tX/+W/nv/IgNCak7Dz069oGXWvZQZe+Aa/VvkWz/EaSwc0RO1Q/IuBv/5BsT0d2PeiDYF9z7zGU+QkivzB+edLo+6TSGmnxf1Ly2gk50PbWVcFCuNVak+9QDmA4ubEwUpUUw3tqPFIDXUVQfnAiKJMBX3GcaU6juTNa6z8k3kJSxVmWH0HxtM6LFvA4Rhg63ZEnqEVkXmbkbcQ+a5n2C6oRLzF+/Ddr0Pw9rWQpoYZ+LQIXRwDGaxXl4a7K9FmB7LornLqK6oSEyoH69/00Cjc2MatGrJk4s3cVrtAtnxtO9tyrHQ33kUsJsuE6bSvFpxEasra8dyotEcbPrU5+WTe+zwcqWqgQerzIblukNyXvhj4BXPkS2zZE4eEt4GzED/qhpL6+4mqqstjcXl0B0xgFfhW9jwZiCmNc9i5feegJ3u1PuG2XKv8ypU9RthuvotK817EpsO8Q/P8aD2SK45jGP342gaVc/icsQjuvfqUYxPkXLfl34mxzkcehCpZ2ntFDVqLzhT4GLYbqfLxjtV2Oyzjr4lKjb+eNtJ+vSB8rUbUKUIQM5OeoX5JBsmePkxTEmBZVO0aTXDD6Oe9dg/T491LxTZuHIBXVs15K82ZAiebMbocCsCHIdTKvMBuqM98D+9Cz+zfvTeeJ1u+XvIafexPOm6DFs5wqiYNbpKKK+M+L6Lwe48RjIZD5Ne3+HeRzEpwba8Gu6FRoNqxEds53iZQaQd8kR98UZWzNxC+NUF9Btux+i2cTQ325sHEGRKavAslgltWaXfkocHHfFJGMZagzqM0FnOKVmAMMWPc3uWyqf3/vHnyr1CIkwn9os4N++HXJEIubjFlr1JQ9m0YDSvTnjieKEKezwtyI4KYbDGLExW7cBEvTs1KpdEWBezz3YkEaU7oTZiNEpSiW6JgJvBm1gdms22A370qPMNq5UkE4sWDbC68X2AUHn5HUzaya9PaW9v0llFiyGeZ9lq3JVPt4+x88wjKlQsL7MuSHhx5TSpbSfhs2wyVYpM9fSXW+nqWobra+XluaX9kxH3jK7DPIn+GwDCm5u+TDndIhcgGHRoh0voA8pdX1EAEK6un05Enw3/XoAgzoijb7OWSDr2Z8xMJ2y0FRg9zoMDgdsolZlNyttz9HB8z+OdY7n5PJWhKi1zT6TCuPv06TgahzsvGdMwf1CI4tHs2o70bg6E7bD77nCWiHMI2+PKmnAxw9sIWLs9BJc9BzHoqcjdE1uYNXsZXRYcpUvkMtwO3SCjSifCLh7g/MrprDwYATU7ceH6KVpKT+L5AMF5jRc+7kt58i6JJgOmEuLvQfX8he11+F4ctlyhf/emBO3ZTy/ztbiaqeadrksACOKceKz6tcX/U3uiX1xAoWJpJMIM9q6w41JyY1qWjmL7yRj8Q47RvX4lbgRtxc7RhciP5XA9dJoZPRVYbq7D9htlWea9i6mqLXMH8+PjK9FYcpnHt49RNX/Xm91HGYN9fwwgRPlN4mCLpXIA4XrdcbTs0IGejavTvkm1gknkYjSYBlZBTO0jT4KR+vdcZ1rQc64XQ2p/ZolXKIsWT2LXzOG81fLBfWzn75N3MsPop/c7gfuXl2xBEL1jtPZCfC4fQ0nW6pgWhdOWOyy0HZPrr7wf6IbrrZbsmN2FSRqatHU8joteu++YqyVM7tGK0uPW4m2lReTZgygMHEPzciLKlUmnTdeF3I70Jl9tVn6tFAn48iWVYLfxbIisw2w7OwzVOnPQXp+sqQEFHITM6xuZHFSHgx7y0s2I4rgfV5VYP0Oe91qVy0GQlpy0OA6stCeiliEbzcqyZEM8i+zHyaWtzlvF05i/L4ql3R6h5/WJo9vnFPirpd9jXGslPO68pMGnw/SatA/foAN0l2Obi7FV60aXZUcwzs3MJ2RNvgWhkIMgZoXxEDyvVSbszkmUq5RClJNOQkom5cr+WPFT+PkWuqNMUTJZz7Z5o/MtURLS4p9hYuKB+25vWteSAm0BzmOH0c49hLH5JqLQjTMxWRZAw566OMyzRW9Ah5/c3n50mYSbKzW5NsgXq16NyH4azGjn25z0X8Lm6f3ptf7aDwCCCA+N1kQ206ZR9Twkcf/iMSp20kapVt469vz8fvR9bzC5qwynKu+jybkYHgUsZHeODiOFQZwtNZzz6w+yykhMM4tN3HLXJUd3WzGAEONnxL5WK1g4sAl39s1ln0CflSMV0Bm5jBPfAggSEckJiYhKl6G09OTxg7Jrnj5e16tx8tzvdMznwohyUjm1cS73m81igX6n3DkVfWYtFgdLc2a7de4TpfwBtb6a3P9SnRlz7LGcYkhDhfwJKxHz8pQbPnFqeBj3ws91OV0nWVHu/g4sd3ziQuCK70ewSDIxb94Ak5CHKNUpgScmEeJn0gUF97uYtZcBCJIc/J2nkSz4RN05x9D/HjteIkJM6RL7KP2FDx2sn+A0rtAF9bUbc1JjcfS8xau/GSDodWiHW1GAsGE6Eb3/xQAhKfoE3UfaM3TecSrs0KGHsycHV/tzYJ87IWfvUl78kqm+cexzGAKSUnTp0Z/a1crx8uIWek725mb0fVrmH/zFiefo3Fqf1tO3EOhu9N1hHBnswhRfMbeOLsndfBIue9Jp9Ea2hd1Fs00OZn068EzJmpBdiyhfKov+yi3JaTOGQ3s9aVo5CfMBnfhidAx/6575AEEFg5WnWDquBxkfbqLRV5Oy+t5cXGMIyWEo913NqZuBNK9Smsw3EfRQGYW69zW8xrQsAAidxzswuk8bclI+cnzfFsLe1+HE1Quo1M5bOA4tMeBIeSP2Ourl/v1gjzn9bS/w+NVDGlUrR867S/Tro8/A5afwMu7IbtsJ6HgdpEZ+tjnpPamRQbQcZM/G208Y2yIPpdv0UmbMH7QgvNoxmQBFZzmA8Lr/eqwHViHcYxQvhvkxpXueu2Dx2AG0cTjFpO6yTHMRrnMcGbfIiZa18xZMaS4BlW4j0dl+E0+dH2d7FCeeZejUUE4dcv22i6GXOeuvn6GDDKdCanWRWlcKikRC/MsLaGnNZMHRG4xW/kGYYvI5uvacxkA7FxJDL+K81QdFYtDsosnMk+HM1V/Cirm9GGBkTD3ZFLSiTLbNMaOVxVrKnbbkVON5uBa4GOQBwpvABSyLGcJ22zy3TNFybIkWMYPWMEu1OSF+Hmy/U5ENq+2pKyWFZl6mm3EoEb87FTsJfgldzP2Wc+mZGIihn5BJnTJppTqaCklPWHo8m7oBM7G89Jw7Kw2422UJKyf0lqs6/oIzjk9U8Z45IB+8CfEyGUa9hWflSIoSwXtG9zdi7rFQBtQrg1gkJFNSqiBZ1o82m68EzdJlylBKnM3Z7e7EtJqI6ZBWMulphbiMH04blzMFAEH63Jy4h+y8GI+Z/iBK52e9lIgFhJ0JpbPqMGp8DRv4USNkf5cIWNS3JeOCntDxtyo8C3bF6U5b/JeO+kmAIOZC0Hl6jRyWn2uhOEnx0Y17tOrelrjELBrL5aKRBwiRBxzYFj8QO52OSFLfMm6CH/7BSyhdujQX106lvOEOxvWSNbdLuLSkL9FGx5jStg4R2y05Wc2MpcMqoDNy6bcBAhIyUr9QofLPR4hIv5v0m0kBRdKrqyzfcgVntzlUl1mLYkI2MMNfwul8gJALgSRiTmz2pPUYa9rUq5g/tiQ8O7uBa7XGY5y/liDJwtFwAOeEalw57FbEulzCBxWlY9y0CfPuxKAkk7ulcO4L8R7bEonTLaw6F4YfvrtzlP0JnekWMYNky6O5ACHp8wdSs/JcjIVFzJ3tszjZwJ4tFoOK8wyebkbFq/o3OQgtuy8iOjpQLv/GrwzLb10bI+Ni0FJuz+qwSMpd+5+xIIgIdtanqlJjAgRzWdXtOQkKv2FtueaHLoYrO6wZ5XaTNy+u8tWKLY49SYd242g7w4dAt/Hf7l9xElZDOpGof5B91vkLnyQDzS5tqKjtSZCLBpaD2sL0MDZNyjOnW/RuDVN34D1N6n8Xsm5KD4LqLeHiitEFFgSpiyGPpCgh3NeS8WuiePvwFPumd8MlaxoPds/M9yML2DilJ173lXh1x78AIIxfdwKLoW0QC7K5f3YnFgu2Un+gKef3OFGp9HvUOvZg5NpwrIfnkfyyk6Jo0qwrE/zuscYgz8R/77AbGtb7MLUZj+aEOQxoJB+GIIi5SIeueozefh8Pvbxojpk9lag+yoKmNb8erwWc81uNssk8Gsvsn/dP7qHpND8WjSokwb3ZZYJPZVNM87NcXty2iDStbdgMrIYg/QWt2psQ8eAyjarBPL1BqDiFYNi5cJeW5KSRRSUq5S/WMTcOYbXkEHbrVvE+0JXNV4XYL3BAu0+bb+a9yLq7jTHbRRzdZF6ypUEiIjUti6rVqnzTEiGIucICty3cTqiD71YXWtQqPGVkRJ/jaFRDxqnJEPkQscO4G9VU+hBRw4SxHGbVo06sMZCg7fyM20FzaaeykJu3l+Dscpjly2ZRkjs/Yp0hJxo5fBMg7LYeylu1tSwa2anYeI70X8Teo+dpoD2PxuWFlClfCYVqlQvfUfgS69V3madajj0Pa3N4hxOSuEf4n7rNXvd9BN0/hfjSSqwjWjEk5TgKph60TwpmQUQbRtw3pbX7WTxMHdkYvJ82MumpBanPmeR2Ez8XKVP864lSGsUwmPqOoUyWmmly3jKkpzpTNp/CoHMdKlap8qeJgyJhFpnCslQtxmkQ4mI0nDbL5QFC8QVAwq11Y1FdfIb203cQ7lmY6fNnF2Nx9hc6Kk3g0tOj1KlYioOOhkT1Ws78kS1+ABBEXN3rwf4b8VSvVjgnhdkZ3Ag9TrVu+nSUSaX99v4V7n4oxYo9v6PV/qu2hDxAeHzKl1tluqKl0lS++ZnRnA++TLvR0+konXhfi0TAau3mDN7xDJX6VQlZN5U7reyZ20fMKJ2lHA+X4SD8CRdD0Y0z/Us6lapXK/b9SwIIJX4HsZDk1GxqKOTNSWlW1rnTbGigO4fh9WKY77SVoWbzsTLW5lt0bkl2Cr0at+NodAy/5WZrK17SkhKpqFCTsl9TqEsyuHPzOV16duLCUq0CgJCdmkhiuoCyZcsUX09KlaVmrRoy4DWvni/31tDJ4SUOurJrSN5vwvR4XNZd5tWrs8VcaT87Lr8JEApIigPppaxBwPUziC554PGiK9vmaBKxzoyrfTf9O10MmZ8eYLbiFhsH3mZe6ly2SsMcf5KDELJhGkYbH/H6WUQBQEAQxWDlHgj6OhC+e/43NwNxyn0Gtx5E86Xn2G1RmHjGenhHIupN5PruGVgPzgcIE/MAgmWfNohN/QoAwoapvThYcwFhngYlAASICt9C/ym7efM8jJkdmnK1txP3fGcUEM0urpnIuI0veBt1nXIlchDEPDq2lD4T1jJjxx08+j2hQ/tJzPr9DpaqednlJFlJ9GrcjJo2Rzm9eHDe+4oz8Z41Ao9rVbh/6yi5ietkivBDBN06atNvdTibjfMGq8/q7eiZm1D3K4VWnMrCEb2KcRBunw2iQkc1OjQoPEnE7JrCgWaL5SwI0f3WMXtQdaRseT01S7ad2EqdShJm66gyeOVZdGVC+L427cV1KUnwJEqDdDEYMYTa+W359OoRKxfNJ+RBNOUqV6epUi8c3VbSrXGhr+CGtwkBlabhZSJPSv3ZyRV9LQhntzU8E7THZ4Ul5YpwRz5d9GbN804ErZ1eQIbNSbiFwYpovPvdwyt5JJ5jWhCdWIYQTzNqmO9hTAsRbVUWcDPSmyfbbNiRMhQfh1HFxmRxgKBHhsk++onvsNzSnLCUlpw7f5CWCqUoV+6ruVVImM8czlSZQL83rkT3WMaIltVIiI1CVK8djb8SULPvoDU3nOCN1pSjNDXq1adyGTEvLq5FdXsNovdN5coaI87+NpsWN7fRcM5mOicEYBXWAbeyriy6FE9bHQ+WGxVmehNnJeO94xzG0w2oKtdPAlaaDKPFgnOMbp7IhMH9eaQwHJ+1i+nT9tvZMn/2G33/up8FCJDyMhSzORsYs2QTY39am6Ow9qyEy3Sd+5LInVMoh5BZo0Zj6BPEgN/4oQVBLMxCWKpigd6BIO4eBobzqVDhCwq9DbGztULpu6TQQoBgVDebl8llObNiJmkq4+mQb2WUtlTw6Hf25ehz0FlPLjRVnJ1C/1Y6HH1+gTqVShO0dAJxQ1YytX0Ko0Yu5fhfxEH42W/60wAh/4HC5Gg2uLnzuWYPJhuPKQiNzkz5REjAGlZtO0aSsDK1ajbCeL4bpsMLN+Os5Oc06evFqwc+/HpghpjzMgBBHBeOy8YbKLWTdwEJPl7lTHIftjkZFrOQCb+8402CmKZNmyJJfcZsaxeGWbkwukczpGm6PyRl06hu9RL3rKy4Zxy5/Br9UcOLrU0/6utXVzdjFqLM+QUtaa+9haun3Ig74Ybb08742msT7mVMRN8tOPSp9G8jKQq55L+VlqMsqHLSknnp9jIAwY2l9vpERiUjSHmG65Fklk3pRcg+XzqarcLeoCc39jugufgC0VE3KZSokOBuPBCvaxW5dOsM7asVJ6wkxn6iskI6hh26k6S+jrBNhRENtuqded19PkHLNbH8kwDhWehqtBzuEHVzF4sHt2RL9iieX1lHzXzXa9h6E4x3ZPPq7oESOQjSD5/6+S5NWg2i9/wTnLQuR482GgxyOcFq07yNUJKVTP8mTenpc5c1enlWhbjH59gd9oHn/q5EdXDg3EYzuUEniLlEx656jN39mGUjvhHDLU5lgXYvhh/+sQ5CcReDCS/7rGHOkDyegTS0Ku+MKcBcUx09n7MMb5rH1n53N5Q7rxLIpgI1iWJjwDssTAvJk18H/9r5jpiu304jwXsqtehP1+aypn8xszVV0dkQzNBWv6BcKBHx8MpJQm9HU7dFRwY3SmCa12OO73MqNufeHFuK4/1O7HYcnfdOwnQ2OixmrJsnpc4uwi1Bh7VT+pD49BS2W1+zY7UFkpzkAoCgkB3FiMFGWO8LRb2VvP+zKEDYPVubL5ODmKVSkaTXkWTVVKKBQgWOHg5CS380ZcXZHHSehOuTblw94EDYCh1e9PbM5SDkxEUyfpIbD1jgJgAAIABJREFUKw/701JaTWYE3aecJ8J/sZzr5cubQ/RaVYZHG0azVG8Yfd0O83arHY3yAYJFqDKHRtxBUes4EXcDaVq1DGmp6bkWmG8XCempaYhTnmFqOBFJL0u8XcypWyLZ7EfL2q/+/vMA4VefXPR6cXY8V6/e48XTh7yOe0voLRHHg9ZSvbTwhwBB9lmS9DeYTzSnj/Vq4nbNovKkTTzb5Yrxiq10a1ASU17Mp+d32LZ4Cm+Up6A/ZAB9enVl75zx1LXcy9j2hVa5jFMLWJxogNcE+dTXqTFn0NlWlhAX1Vxr3FZLPeqY72VUw1clchDO7ln6t2pK/AxASE94S9jVu6SkZ1NNoSY+cxwY4+pGvcryXIjY8O0cU7DEaWh53mTVRqOvkpzF4tVxR5bETWL3lD8iRiQPECQpF9EzP8eWDbZyVs3Mc4tZX9aSVWPk+S6pn57yrGZbunzcheaiGAL8FhN7xhOjTVHcPLOFMhKh1LeCl+cuJs8ypp7snBGn4aypzOpraay9Ho1p219Tjox/dYV72Up0iHLHJU4Lg3YN6damLqUq16Jq+dJc97Hj3UA39JXL/8sAgiSbz/E51KtbjaSDM3DImM8240ILwp6ATVQuV4V8sbFi8/rdjf100XXlTPSjAlKQ9KKUFyFoaU6ihsZ8Dqy1QSZqjeTX1znztAxjNbpyYNFo5h0V8vD+SfJE87LR6dkTo02nGNetcq6LQTL9Epsn5ZG/ci0IU/zwnp7nYthgmm9B8CrJgiDE39GQiDaLWT+5CzHHF9LT+AB7Im4zXEmaBU+E78yhRHTyxNe8B2RdQ6m5BtNlwhyRiLi+Zw5q1vvYHv6csR2q4zC6F2cZTkSgO9L5kfPlDU0Vh3LhxUOUa1VEkPiMDftuYG45iawXZ+k1YDJme6/iMFyxACSk3A+ijdpC/O49RLt4mEdeP4u/MF+zN2pBj1H9gVDSS99JHGopS1I04XkvL+xUaxf5ZplMHKKNZWAIfWoWB26CmBMYu71gv8/sYt/aZKAWtoeO0VnGBPv1oozoI0zYGMcBr2k/7deW3pv06h4faEQ7xbq5fZPzLBi9Zfd+CiCkJ7wkStyMTnXL8fHIPDwSRrFuSmd2rN7A4BkOKFYrjTgfINyQkhRLw7bZI/kwaAVOo+UFaooChAcXT1C7xwgayskcS/DeuJmpsyxzN/rUd/d5V6MjylVLc3r5SF72zQMI0nG5w2IgtwcHsNGwyTcBwrujdvTwa0pMgA4TrALw3TKP/Tbj+dhZj2ZZD7hbRZMyB+258yYZ+/3nGdm+NAeD7jHGQO2b+6uU2Hgl2A/ndYcZYeOGtV7v3Djx/5vy8wAh+fExJtv5YOC4mcl9i5jmf6mxWSwzHsPDdIjNrMuqLWu46TyUmlO30DqfgH9jjyOZmmux0yx0yUmryIl/ytzZTvSZ4YrRAEVWGg9DwfIUExpEYjB2Nuo2y5mmN5iqBRwJMec3WeJwNA1np0Vo9WlbYMLeMkuPaCVDejWUCc99EMDN1vNYLQsQJNn42xnS3jmIjtWkH0bELJ2xTPA9SM9Sj9FQt8Nty/K8HhB9xnJNBBf9XXPXmb+rvA7ZgHkRDsJ365KImdihC85hd2lVRMzn5X4b9jb1wLl/cSeDKCOW6VoGuIaE8dsvKZt+bY08QCD9MmMtLrB/t6zWCaQH2+BWaiauOjK6F5IcAl2mUt9uD31T/Bm6LJOQzVMoI0zi7sN4unZpTWz0EUTNdZGErULX5REHD2+jucLXKA4x94I8MZ+zEufLr9Bo/Ouy1KLsJCYM0MD1XBgZl7fhcfglU+fMZWhHecHAf2eYIxC/fyp2mYvYObUF5DxlhIEHAUWFkqRyAfHPufuhHL07KSJJjUan2xA0fn/GrC7yiPvt7SNYWC3hbTklpk0ZS6vfqvA++jmfyrTAdppOrna2NEzKytCQ9+2msGLGEN5c9ediendcrLRJeH4RYy0DSo9aw07nCZSKe86UkcMRD3dkh9MkKqS/ZvFkLcIqj+eo72IU62QwVlWVUirGOJiokxoVwZFbEjxdpueb+MSssdTj9/dN8HSeQamPd/E7EsU6H2cksdFEhnqjZ+FD3wm2GKn3onKpLB5eO8/Bs5FoznLHaXL/3AUhLSaciYZWNDaYj4VWO+6d2E50awsW6bYlO+E1yywtaDljE1OHtECYGYezXlc23qiCX+ABtPt1pWLZUjwIdmP0qsc8DN/77dOBOAX74b1QO/qU4T8ACE+2GLIxW4dR+bHDNwM3Umb0Nuar189FxdHRMSjUrkP5jPtoG3iy61IQiiVEMAleHWOyRxQHSgQI6sw+eIIu9Yv6DoXMM9Rj3Jr9dG348wSqkhahnMeBjHC6wb7Nc4v9/DHEixXPe7DPSb84UD1kh0eiLssHV+B1JWU61i9LmqAU1cploKyykK8A4Uvse0Q1G1FA88h/0rUNRuwqM4UNFmrfJFoJ0t4ywdAC60176N9c/gRxcukIovp5YTUsb1GKfRZBTtO+NJGuk5kRdJtynqtFLAgpT44wzb805jXOkK66hJGd6nPj3Ama9teiDglscbKj2mhXdKpcRtsmGPeFGlx+1wrHKcVdOKLsVB7dvMgO370k1+nJ0iWzaVpCOOfftcnkPVeAs6Eqyi7nMfy6O3+jws8R3oyesxVh7wVcXTv2j/EiROnsXTmfz22MsdXvypnN9gQJtVC+NYfW8w/ROn+YXvWdy9s+Ljjqds5rjURE1N2zrPU+wwwXVzrUl1pkRLhNGERNq3NY9K6EMPk508ZN4HpKXUzNTNHRUKVNo5oIsjMRVKhU6E7Nf7/NlmOpM3NPMQvCos/6rDHuXtALcU/O43S2LK6Dktl+8h5fkt5y7kUNTgd6Ui3+AcO1F+K9zyvvevFnjBcFc+bgqhJ5M3/Vt4w+uxbzADjrW/xQUGIdEjHjO3Rmedi9EgHCzobuuAwuumBJuB3oziGhLu5j/6h6pBQgaJJsmR/FkH4ZHaMDLHScImdByApfy+mWS2QAgoS7R1Yx2jaA21G3qZ14kEGLUjjvYybn+ok+t5IbijMwbFWV8f37Y7XnLP0UC4FAduILdMd7E3jC6xel26XWzkyCvOYS238xFv3ydDXuB3ow2u4QvmHX6FczLVevpWJZIUO6a7E3IuLfp6T4Yfdk5qbN58DMdqQ9PYqm2SbUNAcWI6Ulf3xNbJYC891caVevPBHbZrHopToXVuiUMJ7EfHx+hxsPX1Oman0GDOmLQrkioVUSIS9uXebhpxx6DhpCI1nlrT8wC6IjI4h8lYhyjwEoNSyuqPg56j7XH7+jeYcedFT8trTod6sWZ3H/ShhvMirSb8hAav2Sqq0EPzt9nnRayKrJhYtHsfrESdgO7sPwU0/R/IFy9P0Nepzrshq7Ac1zH3NyrQ2vuy5i5iDp+0l4fz8Uhzl2nLz1moHTPTmyamqJfjbByyDUTHehpl7ICfnarmN7g9kcGoFKAxmAIBHz+Kg7r1pboN1OapX5cyX7fgBD7E9gbapV7EGpT85xq6ouPvYji/32yt8GjwQ9fCwH5f6Wk/oR31VL2HXqFp9r6fPglCPfy/2U8ew4o4yX8DlTWKBjUfxNSlGuSgMWb9mFbmd5t9DRxVo867sKe82v/lYh4XtWcexBAimfHnAVTW7vnl1MJjkr7i6rL4mZb9CtYJNMjX3Bzs3bGGTlRqc6eX394KgXE6w96W27m602eRYEsSCT2I8feXg9hF37T9FKdRyWUwyoWzT4+899kl+4W8Aivb60XnoFk47fnxBSXsz9I+48UbRgvMovyiRLRMS+eY6f50p6zPJiWK418GvJZrv9ZNTcAmiWD4CfXD5F6TYDUKpfFUSZhAT48rmxBuMHyioAClk+vi8Klpewljn9Hveez6Mqw7GZMJSK34kIXTdNk1vV+hSESEpbI4q5xMeeLmyZlqfuKUh7j693MOb2M/MaK05kygRbzFzX0K9FLYSfItE19eb4Se+830UfWOQVwiL7yX+rBeH5SU+m+4u5uNvh5761RIxB+7Yo6k+mhmxUkFQv51kopScdZYWa/IKVHH2NVf5vcF049ufqKPEqMacd1UiffSovzDHxPIb2N9nvO19uj0oPtmVlKQuW6hTqxMTcu0gMigzs0gyyI+nXbxZdB/SkQmmp8zVXmYzXd86TrDyHM5tNEOVkU6GCTKiVMJXd7i5oLVrBtyQevvViwuwvnN6zmfQuJhh2l00MJcF3nikKxlvQqvcOf19vPNb5kVZnJHdv7KR+kb79x6WW3x2wIrjePCxVS1DA+s5nlWTFY6Wji/OJMOr8xappf2I0/WtvFSTcxnLRETZsWf59ARRxGmHnHjBQvc8P3+Xz08fUaNOuUKa5pDvEyRw5+wRtjT7fjFUWfojkQU5jujYvvtnffPyW7u2ayAGLnMwEnmTWoHOtH8fT//AlpGtmWgrpFRSo9qOEokUe9vH6MRKbDqZ9bi6Fr0XCk2O+/KZhSs2/eVye3epJHa1pqDQuDkhdJ+oz0GU7A4pYHaR5Sk4du8dwne4yC5yQF4+jaN1OVhY4fz/JiOPB63Q6t2tO1pf37Np/hq5DtOmuVP+PncB/5oP80jU57Fjpjrq1Ew1/kGpEJEwmvZQC1YsQUX+muo93TvFaoS99Wv6anPr3ny3m+qVLdBk05A+JEl07d5oW/TWoJ2NZz4mJJLNeOxQq5YG87OxMylWo9C/5VoW98TxkD1dK92TK0OJjrsQ+k0g4evEJWkPaFQO8X17eoEqrnkUOlQLu33xA5x6/ntlVvn4xJ5caUmfOAXpKIyCyU8ikOpWKZqnNyUZSvsJfnnDpZ8ZmSde8eXyXeu26/hSPJPXWIRLbjKRZ9eLpLf9xgCBLZfvVzhCkf8Zsqheb93j85SEiv9qWf/f1aXi5+2I024oGRWR3/93t/q91//XAfz3wXw/81wP/VA/8CwDCn3t1cU4ar2OzUWxS+1+D3v7cG/31d398/xGFuvWo/EfEYf765vz3xP964L8e+K8H/uuB/4Ee+J8HCP8DffxfE//rgf964L8e+K8H/uuB/7ke+FcBBPGXGMIik+jdtwsV/0C2WGFCNJHxlVFRkiVl/LlvIk6PR1yxNmV/4LdMTvpC9ZrV/5ivT5TAnccpdO7Y4puKgbJvIchJp3T5KnLXPop8QquOyrkZzn6pCHIQly1fGJYmFvAlswzVv8Gue/vgOlXa9KJWcXfVL1X75y6W8OzSKRr11aDqL/r5JYJ0zp25Tm/1IQW5Mn6lLZKcdEKuv0a1f/v/w1C+X2lh4bU5qV+gSvXvc0R+8tEZX1KoXP3n/O/pzyOIr6NCs1o/IAUgQiwuQ+nvzXVxKnduRdOpZ+divucfN13Cly/pVK/+s1EuEhITUqlZu1C0Rpz6kXvvy6DS9teJxSKhiDIyeSck2clQvkZuMrWiJeFxBCLFvnJ8gh+/3//hFRIxCakSasuoav4f1v5fVf9QD/yrAII07OfYamtW36nN6b3Lfp24I8li0zwz3raYiLu5xq+7HETpPHz8jvYdCwU1ch5vRsMlnkM7FlPrO7vvnjmjuKdsg+e0ob9eryCKAV3GsuRoKGo/QYJ6f+8g41Y+JGz/0ty6JJlRqA8Yy9iVBzAbWsiiLT6mBPgsmMFvRqsY1TFPq0D4+TaL1l9i5tyZNKtZkYTHp9Gae4pLJ9eVqC1wZNEoAqpZcWD+sH9oyIIoKwH11q1otfw8m01UfhGUSXhzZQdqMwM4d/koTUsg5nz/xUTc91+Ic3gDdq+2ppo078HfWHJehhP4sgxdFYsTOE8cDUVnymRalZSABjjnMZ5DFSaxxVaLUuJkTvhfplU3mfEhiCX4/GvMZkyiVhH2suwrSTLeYDx8JD2dDjNLrdUP3zY50Ar1oFaE+FlTTRLFiuWHURlYnCz28d4JQuOVWOdijsK3UpqLYpnUbxADNlxieo9fjDxAyEIjTZqZ+TBjaJ4c+feLkC2GnUkzOYydZtvcS+8dcmHS5miOH/el2XeEAdI+P2Xi/APs2epEtfwUkuH+67gu7ITNxCGURcSF5SM433YFy8bkJSySLZGbJmIdpUeIl96Pcwv86DX+6O+iFE6dvAjlKuUeiKThlaJS5alYvgwZ76/hfOADJw6vp2HVX2Tz/tH2/HffP94D/yhASHh5mgvpzWgvG50kSsRn3W7M5syWOyFfPuhPd1M7VIqIRYgzPpNVvg6V8ydl+svz6NoGcPLY1nzWvJhnMYm0blanYFK+vHaMc5GfqVKxHMmv7xJfWYlW9SqTHfeCI2GvmOO5EdXWeRqNgmhfRnhX59SqMfn3i/n8JoqEdPmEHWfXWvFexZYpAwsXog8RvuyO74/P3FG5OgTfLMK3DB44G99Lh8lPSPfdgfEhMhDtTenc9ZmUe13IqslsS+iHk/HAfHAi4tG5kwyYZkd9OVKikJWm+vTZFMyASvD1hHN2xQSCqpriPbM/+5bbU9twGRpSOb6yxReCE0sNiRy4gwVDfiCS8LcNbQmPgxczYr0QYxUFpi+1p8FXmegS6pRkPMQvKJq+Kq1lfhURtMSM3vZbaSATuvD+UThxTTUZ31M+okaSk0piRllq18iji0utEBoq/dhw4Spt6kj/T8LHt2+o27jZX764Z9/bwwCHi6xxLhoiKsZ+qjnzD15kZIc6Jby5gEnDNJnqc5jBUtApjGWGqhZG7hsKoklE70JZsD+VYwdXUPM7a/6V3Qux2f0Cbe2JONsWl4wuWnn6SQdmvhzDLuse0pzVjNa2Z8e5IzKqp78wOETxmA7XxfxEOD1/ZJCQfocnd6ik2IUaufGBIhwNR9LTPRid/ORk369ZhN+EljRxuYuaYk0k2bHM0B1L99lrGNA0P1RAksaFp0KmjuojJ+SWEfsI5eE7eHnPM1eSOzfRlCiOqeqGTDoYSm/xC8bN2su+vc5UKF2qUPM/v0GPtpnhU28t60f9rLXjF/qwpHkhTZyVnVPwi0ScTdDuYHqP1qVlgxqUQoLXjNHUmeaLcfeiwmd/ru7/7v7f6YF/DiBIBAQ6jkVgvIZeUoAgyebyjUd069qFykVOZeKsj0w1saH/NHeWTlWVQ9/it370Mo9Ap7c07WxJJYnN3mc5dvMq3WWTl0gvFWdj17s5yj53mNo1T0hCWtLiYrj1QcKAzs0hZgdaG6vKAAT4/PIWr9IqU79G4SZ5drU5b7s5MHVQPkCQSMgWl6JCmVL81qgxFfN1GMSZSTx+k0XTBjIxu8KPjNSex4bju2n+daGWiLn3uw/N9G1yTbXipGgiYyvSqW1DPj8MRnPDl1yAkJN4FwO746xcPKngxJ/48jL6FpvwO3OeIS1kY4OFeE0fQ891QQyoJOHEQh1S+8yibtkvJGeUQ5gQxYPs5gxRrkbEtsWorr1M3wblEQuySMvMW0zOrTLjYe8N2A6ohCjlMZ9LKaGYfoPA17Xo1y7PtSNI+4zvxTSWmw/6y83wmbEPGNbfiM13H9BRdJc5mx7jaj+eKt9wNTw+MI/tif2w1pYmPBLx6NJZGnQfRq0q8juiRJjKejszPrcxYtdKGzlztiTpKurDFtBfV/Ub1qEMgnceYNyWi9ip5WlC/FUl+4E/6ksjOX/IrYj7SYi6ykDcToTRTVYjIr/ijKe7WHCuIWuthvHkzm0atWmEo8EYVpwOLxDcyXm0B8PNaQRtsvhmczPeX0V/3BKcDp6izuPtHEofxLwRyiWayb8+JOPcImY+1cV7YiMySGGG0QK2nyoCECQ5vPuUQsMGdQvms0SUw+1HsbRuplD4fFES1vrjMQk4jYqMW+tl6GHEnUfRXc6yIiHQQpGgdjvZaTWYMohYMl6H7q5H8gCCRETi2/NYb4zG23UG1fKtFh+e3aZ8o47UqVqG3SataOB0BzXFGoRstuVChZFMU82TMpfGrV9aO4U9GVoErLOjtjRP+Nf+/vwYZTW/fICQwTyndagO6ElaUjwVKpTn49NwmnTToqwkFc99j9jvs4gapXNIzcjKfcKzvbPZUdsVD80qiNOiiEn9jXaV3rLzRjYavfLHlETA9qNPWWihmbuu/JkiSY/BY/l6SteuzaWAXahOtMgdX120x9GzaR0qVxCy2mMt1vPn584FaSrxrHK1qV7h77WY/Zl3+u/ev74H/jGAEPvoOH3GrOLe40tIVfQ/nnWn9+wL+B7yY0DLvAxmWSmvyKjZmktL7elr70HTr/nBZfvhyyHazorn0W7zkv33gle06evB1Ws+FFHozBURUWwzljsvwqhbuTSpuZrzVUl6eg5VizPcu+iJKGYnWhuryAGE3E1Qqm4momAhC3Iey+veS7HVyJNWfXVhI8YBVbmyw0LOByxOeoDmoKlMXmBbCHQkaaz02IvZPHPy08JLpyT+822ZfDIK/fZSBT0xXtNGIRq1ksmKL9Fcn8zdLeOxMrCgg+IXBGrOzFJXRpj8EiMNfYz9b6LdvNA0I5ByDcRC1s0cT2fndTy/nkr7e9NJNtiDdscWlHoRzPRtKexcNY6PnzI5bNcLwx1PqCvVu854zY49Z6lYvRoPTvvyqa0Jas3L8O7cGiKVnfDWTmXKpkQObsoTY0l6fYFui6J4sc/spzgVPzusJaJUVkxSJ3PiAZw0muSmtn16eBGu95XxdZpA+aKLpjiWIV2HYLP7Qq7IUNrrK3Tva4ztjkBMBufHXws/8zK2LKJn53ijOIoRbUvws2fdZbi6B0cvBZQcVyxKYLKGAbbHLtD1h6fcn33bvOuyH/qj7vyrAEGCk64Rprv30rTiW3R7aqLvE8itpdPwOPnzAEEsjMdcW4/+yw4wuVcjqTQbZ1zHcqHlYpYbdqGcnJ6ykFBvew4+FiJ6d4ObGS1pVz2T8i07khwZieXkXgRc/kAFMol8mUzH5pV58z4DGy8fhinlnVAlOUmMUmyLtutqmY0oiz2r1zLEZj6NZWQvQre40MxqH44GXWQ6VMLx2e35ZB6GWVupVUWMk5EOXZz86ZoRwUrPrbTX6sLeq4qEb5xQMDaz3t9i6EgnAq8dJWRGK+ovuUPvnDBWnU4i5fYFZm3aQetqpfh8Yxu95tzjXugmFMrnbdASsYgcgZDMuKd01trJxQ3tESqPZo7VctZvc6FZtaqc95xFkuFaDOonkCPJQcvuKGc3WlI26yN7dgRRtkZNPl3fR3gNQwyUyhJ7dTcXKoxhr2UzjOac5ljgqry6BK9RHh/A3YPzqPTn8EFhn4kTmTNKm+XHrpJ7lMgMo7eqC927tSIzQ0DlytIBLeHz/TM8azmfG35TyX/1XxvI/139P9kD/xhAkOb+FgollJOerEXxDOujT9eJ0zHole/jFKWxwcqYOBVbgjbbUvlbZLS0IyhbfuLhru8AhN7uRNzYSp0iujqvDs1m7N5shihJSUkizgbuR9f1BDadk1CzjuDmGcdvAoTsjGRyxGVzc55LS9BSQ173ci4ACNJJJaEUlStXkTtFS748Rk99Lv5XTxVyLIQfGDLIiu0XZVwM4nQslRSxu/kGxRp5u078jX30sQ4ixNcE3XWfsf/tOcMdllNbEI6OTTiHNhgx3WASqm5BTC7ir715JohPpRQI2+5BOytnWkggM8SBbANnNi78nS3OGiw/8IXV0xrRZ+JmzFo9wmRXPkCQGdpHnSfybuR2ZnarwEXnwbw18Gdc+XAmrYvDXwYg9Fj+nue+E3+RH/C9OSTmgNMkwn+bwUaLAYQsGsyL/t6Ya7blxAozloTAAf8ttK0t66+SIBCIKFuuLKUk6bgZj+RF7f6Yj9MuqOjsRjsOf2rL7we30KbGN4SXsiPR1HQlKPQ7AEFdn9nHL6LyNwCEYfMu472i6ClfgqXRNFafCS9mQYi7vIIj5SYyrUdNzmyag3+mJn52/bDR1sbU07fAOiJ+e5bFxysRXJIFQfiZicMNGemxk7E9mxVaTiQCgpeNY3FYVXbsXE+3JkUBlYQAi44cVd7BPqmLQfCKMaNs2XYyz4Ig/HILpUkhPDwyv/gmJ0hhTAtl1j2JKfRzixIx09Bh+jF5F8Naw340tj+IgVxWRgmn53bm3bTQXIDw/OoxbKwW0sHMg4WThlC9UiXE0VsZtaMxx121ZcamiKAFmmyuuhCT6CnUtfudt09zMB7Vl/PrZhDWeC4zGlxG1SGcmxd8qSGTJEaS+YnfA0KpVacsJvanOeBjTNnKdXDz3I5RnxzCRNroi06SZLia33Zqsq2qBW+jYgnZZClnpXroY8Yh5fU4D6zMzc3GnG9uh13HeMbMPknQ4UKA0M4kmHt7bX6djPytqVUUIGTdYKhFKGd2zCcj4TMVa9ejAhLurx/HDW0/puVmAvuv/P/SA/8YQCjoYImA+fr6qLlto33WNQ4/rY3lmM5sspnASxUHvEz7f3+TSQtG2fLjdwFC627LibjrR12Z9V+cEcuYXmqsv3GXRpXKIHx3iqHmpzl1dB3CqAsMm3XluwCh6AA5uHAUr/q64TCiMM2oRJSJlfZQhngEod8lz/wuSXuKgZot+/8AQJAIEjgWfIOe7cVork0gYsNEKuW6Y0Q8OL8Xd9/r2Cy14sbecxg5WlO7mF9Z3sUQ5jyAlInB3LXXoe1YY07eKote6490Hm/DMQuVQgtC4cdin/04SpvvZXzLspy070am6Wl0yoUzac2nvwQgvLm6D+0pq1h5+hqazfN3W3EaGxfNo2y/qZiNUKEsEi479eeQ8jbWjmtHKXE2obtcMFu8j1b9tJg5wwTdobJy0hKOeNnzvPl4rAYpsHhVCCs9zLniPZO10Z3wdZ0mt+gXm/zZkWhounLkewBh2GisToXR4+8ACAuv4e8zr8g8EGGkMQbP05flAYJERKBNH0JqmTBDV4mlHsFs2rGWBuUTsR4xAlu/oAIriPBFIFYBpTkiBxAkfLjhj/32SOY5OtCxaU05t4pY8AUznSmMmaaG44IVZFa+vlZSAAAgAElEQVT6jZFTHXC3Gp3XPlEO+u2a8LZJf2YtdGHygIrfAAj2RL+Oo72iTMSRMIXxisp4/UGAIBEJ8DXrSFBpTSbq69G3c2u2zjWjl1tQAQchM3wpZrdGsG+2fLbDxNc3uC1pT5xrR+rOj2Boi98oUxoEGXHs8VzKzbK9cDL+jaN36mA6omsxrkmGnIshi1HjFuC9ZgzmZn7MHFyROPU5XD37jHWzO6I+OzjPgiAzr66sMuKe9m4s25Xj8moDbnVcjpXyZ8baHCfwLwAIKS/OMkDdAvuAcCb1KHSnSqWX5SwI2bdRtQjhtN88nhxxY1aghAu7F/Jw/Thuavth9h9A+P8FG+S+5z8KEMQ5qWx08aTfFBtUFGvlEmPuHNnIvNWBdDFeysqpX0l33/kmiQF0nPEMv/myJwKZ60Uf0Ru/l+tP/fmtYMOUcPfgcrZ9bkdqnITtS8Zwc5MpOwRj8J2jScqLiwybFV4iQHj39BbPE4QoVCzcfXM+XGWGox9qE20wGpqX7lMizOLqgyS6tatF2WoNUenQPHdR+TMA4etbfXwQhNbGtFwOwuenV/A5cIbGXQajqzGQmuXimTpYA9ujN+hQLFmDPEA4v6g3n0ftomuFLMqlRbJkfywOM3SpX68Se62GYLxXakGQTZIkZPW0UXRdc4IhVSX8PlOZmnOvMJgwjFd/ZP83LAiv7kXwJqM0VSqU+2GEh0iYg1AkoUzVRvTo1Ix3d85w+m48/YZr0L7JV7KUhGsuQwjusgv3EV+5J2LeRl5ivc8RJljb0lmpeX5dEk7v3kRGs6HoDmqXu4klRV1m4iw3yncwYJeLCdW/lTb0a4dn3EF92BKcNyyVS51cMMrEX1g6cwEOF67R/y/mmP0hF4MgB0m58vjMnkoTUze0O9XPtdLZ6OjifuLbLoasLx/Y73+Sxh17MrBbC26E36JCtaryhDqJmOwcATWbtqNx+SRCrr5gqLoqCvlJAwSpD+jYXZfuFtuodnoRPee5cXLVOjYH+HD+aBgVKyZgvT6StbMH8u5jNvoTxtPoq+tQkMK4Fsqs/kWAIBF84dBWbyq06U38IUvEthcLXAzOE0ahsjywACB83GuCVyVHPPVLisYQsXNSKxotk3IQKnM5cBdnH35hqK4+gzspkvnpKErTH/IscAGVi5CO5QFCJiMM5rJq/QKECWk8O7KGhOFWaDarS3lJPAbOoVz0sZYBCCJ+t1On4pIQdKrDGRct3gzcwJSW7xlnfYxD3wAIH57d4WlcNtUrlf/hvBILcxCIJJSuXJ/unVsWApxiAOEew2ae4ZTvPJ4edWPxjTYccdHPtSD8BxD+v8IG/zxASHv/lKw6bamTTz6KuXsGr02HaDd4KM/CzlG1/VDG62mj3ET+FCP7mbJuuGN4tjdHHIeUPEkkaTx+nUFbxXoFJ7C093dw9rnBCidjpndSRO/YfQ6ZjkJ/00lGtK9F8vMLqFn9pAUh8x0TtA1Rd95J+q2zGNpY8v/YO++4mv/3/99b9t57hmyZIRnZlJVNIdmUmU22yCYhRCqVUWaDkspeIbJlp73HOef1u53TOqclfu/v9/t5f25e/9V5jed+Pp7X9bgeVwXlVK7ZLGXpZQnuztupXix7k5XEPEev2xTGLTWVM9smsH2LPcZLp1M+y7eYyumli9kRFErDDPa8tN5xX5+wcdNePJK0WNFDhUhxCTRbN6V4pgtGEs3mWXOZs2cfezfZs/X4HmpnhSUpAoTrW8fzpvEkmsqY+NlXcvw3HnhexsTSlorySa4kUZiNNGCx8zVqqkg4Mr4Jrbfco02aL0ZWX/MFCH88rYQEQj7G06heTt1/gdsbe+HW+rgcQMj7K+LoUD4mlaVB9XRTePz3YCwtLFHrMAIh+DLhJRoxZuRwOrasl2+cveijJ4PnXeKi2+687xFSePXyI/WbNs4338SftsEfAQTg9ZVtnE/QYaFBJ5QkEgQhkvm/AAgy5n1WkH4KaSJV1OTi+LMBUQIRKWpULJ4zOZLAkyOTeJBWFj/RRDa2DeFVKQ0OLNtQKBeDkBqNQX0N+m7YTuksMlwK9julHARzasrx43wObqb39iuMVog4EfBYosmnKd55AwRBxPHJrRAv8sW4RU5dAzHBHjbs3LqBYevsCHvxjhLV1Wlar2rWPE2OvM3wPZGcGCHCJ64tK0z6Z/njc1oQliyyoMfggSgmtxR4//YDD6LLYmU2JHssCQmsH9GZiS5B1FOBM+Z9EBkcZUTND4yZ654vQPjTMaXwXC4Xw0N0Z3tx1dacJ6dXse1dF04v65/uYhh4FBP1vy6Gf6Td/yUv+T+1IGS20eeX93Bzv8hXajF7hhE1yhSRpaq8ce4YKyz2Ia5UG43GjWim2YUJ40dRo0zmhitwd5MuPtonMdepWbgmF9LwdT+Lpt5oyipL8Nw8mZKtm7PCSeDicXNKKUNUyDX6zrv1SxdDatRbZo3Qp+l8J+brtSTU5xCu35ujKdwnIF6d5dMG5dpQxFEhrFh/jo075LKB5cVBEJLYaTybMftsqF4i3VoR+f4263e4YThFmynWPzmgV5rUcqWJSSxC9QoZE1cSg9WChczYdURGOipftwXqWdlcsgFCJ1E40WoVmTl4OL0nGGSRrqTfeedznA+dtnJ4qqYC6BKF3Wf0ZFtcLlmjLIjY2r8pA+0eo5HoiZFV/haEwnXM79xVeICQ+dbor6/xuOjG3dexTDRbQpua6Uf9FwHubFi3hZBYVRo2akKjJi0YOXk6reUy/3z02MF8r4qc3W70O4WE1BiCgj9ST6M5ZQpKy1fAW6UAoduss5jOGJoDAEuwWrebQz63cnAQBD76HGCAmRsjRulSpVw5qjdozsA+Gpj316XjFPMscp7k532cQhpx8UAeUQyi9wwbsx79Yb1z+btTQs5h+6UXnodmytKnZ16ihG8YTbBi3/QizH81jOO/yUEQUmOYb7gEC7sDlM206uTDQXDZtJSaY5bQpYG8PkTeAKHlYmtS7p7Cyd6JO19Lce/RNWoUV0E1E/xIUrl17gD2oc3p8mw6VZZcRPL+M2mJcZSsVptSGdEOKVH3GGsdhevyviijSpNWbSiToY0iDxAiQ0Mp/vM6U23eMLRndpphQSJivfl2HB/cQrNa9kYrjn3P0J5zOP/gkqxvbKf1pNo8F/pVCGbM3PwtCL83GPO5WwoQ9PoycsVWPn8Ko3brqizfeg+PY+b47JmOe+lp7JvcVgYQ/HvbMruZnIlMEBP+/RtFKtT4G93wj3TGf95L/o8AgkDE1w98+/wBPz9/0kSf8XlTCd3WORQQRUns3mjDvnOHeHn9Ch0nrKBLQymjP/2ShqYZtmjFmtsvUM8g8v12E4vjGNu9D8bHLtG7UboJO+KFJ33mBfDQyyJvkqJExLvHvqyzsMIjIJg7b95Tp5wySIlw0yZQc5o1Rh1+Q81R9IWeOvM4fOMM6vnEo4cFXWT8rF0sPXme5om+DNgTlaGDIGbW+CmMtdhJN/UKUuUjZvTXY4v3HcW4c2mI1/ePbDWdgtBhALWrNMPYcDCT23XFwuMmGnIEjds7p3Bf9yBzWimeEIMv7WDnu/YcnqsjpZwzp2VzFvoFUyvqAoY7vuP4P0pSlO/ZwgGEhPAvfPn2lbuB/nz++R0vj1cMHdUr1xC55mRHOxML6sY9IVZ9FHMGyJufBY4tGk38AEvm6v5eCOPF1YMZv8uPCZZu7J/R87eHpvSBP7EgpH5wZ4NbPKbTRlKxeMaAKoSLQaGA4u9067ec01ePUkPeywTEnJ2Lecw0Dk5uKfeIwAtvWxLaTqHZveXMDBmRroOQQVLcbmtF9M9EhKSXGKy+y+nthvgcsqT8sBVM6aWRv4lcChD66WNy0Z9Ov+R35AQIYlaOGUhbi4sMb6LKG19XVNsZUK+0EjbHvZk6qTcqQioX9yxks395brqsxXFKQ6qskroYyhMV5ILpsS/s22ZKGVUlEr9fppl5GG/tJilE54jTEnnz0AddoyNMH9+eDgPG0b3EHabYxOG42yR7vRKn0raxPpeDrlC9ZHYYwpdHrhi7FOPqpsGyezfpa9N9lyedit5n9LwLnPkHOAg5B58kOZon9+9y9ZI7d1/8ZPTcFYzWbYVSkj/DzJ/gsmcmu40HUXSiDdO71+aV7Uwea1sxXiMT2Ihx270Ezx+lSX7zjmUn7FAvQGzrjwb/34f+z1vg/wggKNY79bkNJpeaYrdER+EHISmSTvX74/nhTq4c4NIbI1+7031TFA+PGsnESX73koqDOC0ewsdee1g6KFthLvLtHXZ5RbFuRv8cAEFC7M/PuNlZ8658T1YbdqNZ3eZ4BL+RAQRBLCL+21MmGS5jzkF7ujfOFmcqsGyiT/TUnsfhm+fyBQiiyGCc/aIYN7Qr35+5M2BvTJZQ0iPb6cwJbIafrSkqeQKEVCwM+3DymSqrt+/BsFc2kXK8ZkvK6epTXm5yf39ygzYbrykCBCGFrWZmDNiwn1allRHSEunUeAgXnntS4csZxll+xGbrZFk1oz8F0GdnFK+PG/6DUQy/DxDknxD/uMOoKcc5cykj773cjxvGD6P9Omf656FSJY5/wSjj/dg47MsVBfOr8fbSdRX6Zjb0W+XM3uk9fnV7nr//CUDIfFFSfAxREd+55+dDyda6XFg2uUAOgmIBwtHpswSnK3kDhCVRJtgYS7UlMi4hmddv42ikXpmEy+bMfGPACTmAsM/VjuKqZSmT0yvxq1YRR2DcV59plwL+ACCIcDhoTZdxs6lXRjF+f7mVC+sWjpRZ+J5fO0Niu2F0KAcnJzek2up0gAApmA3UpIbpNZb0q54nQIh86cWgYSYUbTMKW5stNMz4TlqIM71NTtFNJxtESUMi7U/c43aIVzZAENKwXzUd9UVH0JIeMhAY3UWP1RfcaJLkz4jZZzh2bK2slQTRJ7rOu84Tx/n//1EMqV+YNmYGeqts0NOskd0LklhSxaUQIm8zzMia/YcXsH3LWWatNKNZdbmEeKI3bLe6wyLz8cR9ecLqIHV2DvjrfvjVcP63/f6fARCeWWNyuXk+AKE3nh8e5AYIohiW6esyz/0e1QtSKcynRwRJMucsJhDcyZIVAxsonmAEAbFEIvPHpr05gv7h8uk6CJI4voZJqFEt3Z8tpCXJAMKVpy9R+XSdHScCmb1qNbXE7zDo0YOwxiPZsWkZHRtWRE1VLX9xGdFHdLTmcSTQjcaFWEC/PTvPwD2xPDpkKCuHKCyASyFVGNKtUb4WhOgfPyhatSqKbAMY27YLa3JZECZzt5cN81pnF+brzSMcfNcMXXy4k1CL+qovWXCuLK8uL0UlxBmD9Y9ZMW+IrDzxP55i4iTw2sHkH9VBkNuNCFyng7umPVv08hPIUux48ffbjDS242yeAGEI7da6MKBR7sZ3WDKM1CG7mdS1zh/MbYFVo8cx0Oo4nWv9WfKKwgCEGj8D+Vi+PVq1SyARpXD+xAEcHE5yP6w82w7aMLKLeoEkRUeL4USVrEJ1+eB68Q+69VvKqQuHyKnDFHPeDPNIE2yny2sQZDdPgvsCTN6MxmFBp1xhjgowT5JGXEIqZUoXsLGIfzKp1xCmXQ2kS87Bm6tHBDyXaPLO0JMZuTgGcqNHSKD/qNWcdNhOFYWThRg7I3WqrX1AvwwBpsALp6naazRS8n7eFgQJ37/+oFoNucgAqU7Ky9MYWcfikMuCoMfloKtZACHy2WWWXACzJk9x+1SJ5hW+s8QukrueVpT6fB09EzvWrkvXFxHEEUzcFkTQ2TxCRP9gdOb3iCBJwmKiAfXnHsJIqyZpsZ8ZrKlJ8XGHcF43LIN3IWbPmsV0MzbnvetWKk7dQXepoM3f67+qBf4jAELK4730WBJIp2aKWuuCOAV3R18efgqmfA5lkPuuW/nQdDoGzdMlkX/nSon+yIaVOxi1aiMtq+amnUtPx7c8XNi4dj1Pv8bQc/UV7GbIh82lf02U8IEG9dqjXF6dDUfsGN21MWoZYj3i1Diu2a5j4koH1py4hMmA1jmEZeRKnPYW7bZzOXz/Mk0LsY98feJK/x3RBNlNzXrJ25uOHHAPonIFFVxPeeLz7C6lC9EoI1o1p0zX3pSVyzPxM/gWrSx8Me+csSKnhrL32B1mmIxETUnC1+CrtNPbhPf9azSvUJSUZw6MOxDNmQOZQkl+GOz9gafVyP8xgOCzoiNums7sMqhfiFqC6GsgvfrOo21v7Vz3P/a9wQLHO+g3VQQIcc9OYfO8IfNHafEnwnU+e+YT2cWM4e3ldAR+WVoJz5zXYnn5C+XKloKEb9x5HY+WZuMcZniBu/6BNGmvydt7t4krqY7tWRfaVgTvdeNJGbKdPi1qUEQ5nn2rlvDop4jPz5+h0UEr6z1C4lcefkilVNInaDgY9+MW2SRL6Wm193KOntlHtRwuhtgLS1gWOR37ebnzK0irF312DsYhIzmzrDsJry7RYcBieur1zUXgjAp9wbPvRdjp4IROvXxAgug7E7vpY3LtLjqFUPeOuL6O1ka2FC9WNF9ALhElERFXghM+N9FTABJibMc2pPL6B+irZ0bMpOC8YzWPY0pTMuUZR8P1eHUkW2Qpv+5MeWpPd5NTaGllCHJliCqdcb7PndcB1CwtjaH8gfWesxibScXUBOLCg2ijZcwRDw96qlck7b03Qxd4cOlctg5Cf9OrnN8/458TSspRgagQb4yXnWT+Zku0m2QTNJMigmiqMQCvF29pVCnd1yNOSyYyKgaVoqWoUPav9eCXU/tfeMN/BEBIDT5PIF3o0UyRWSzNnHfY9R5TxvQgI9WCrImjv77ieUxpujZVRO2FaX8hMZyn72Np2Lg+JX/hl5Ai56V7PFmxyJAKcpEImd+RuigOWFjRb7Yp6lXyniCJMbEUK1OmYMlh0UdOX/jAkCHdC5XF8uvzSxx4UIkNhp0UqpwQHca5fSvxVe3P4aXDfxn6JH1427bDGM+dqpCs58udS0iaDaC2dBEDfoa+pVjVepTOJI4JEhLTBEoUSReWkCRG8COpKNUrpoMtqQgWSsqF+n5h+iz3PQJXVwxCNMGRwU0Ll2FQHPYch4A4Jg7TyvW6Gx4etOjel4oKPtRkrt15j04HjfyB3S8Kn5CYQokSRX+/HYQ00gTVP/5uzmKlpaaiUqTI77l7hCievoyhadPc0R3iyFDCVapStWzeaPb76TlYJU1i2yQpqBbz80cElapW+f12kO1CP3E+dYMB4w1yRATk3/ixUZGkiiUF9o5a8dKULZmj/IKII3Mn0NHiKK0qZqMRKbnw+7snzB0znZlnfNGt++tY1tSXnji8q8qkga2zyyERc9LtFqP0tWV5HKJ/fEJSpjoVimcjsMQUESUyQouF5Fi+xEioVTXzECSNRlEuUOb6z+YTSEGT0+kLaLTRpLF6A0rlCv0V+HTHj0rtdCj+BxbbPy3X3+f+b1vgPwIg/N82wX/X16Wbs5LSf79eukQsQVmqZPP3+o9rASkXBxXVPwME/3G1yS6QSCTOjnz4Dy7n36L9bYF/qgX+AoR/qiX/vudvC/xtgb8t8LcF/rbAf1EL/AUI/0Wd+bcqf1vgbwv8bYG/LfC3Bf6pFvivAwhCchxhScpULf/vIM0kiwSK/cM+PWnWRkFZ9X+IIPhPDb3/nfekpqSiVjS3FK04JRnlosX+3AwuSSQ6SZVyJbOJjYIoha+RydSsUjhehLQFklPSKFY0H/GLPJpIqnYoTSP+h7pLGW8USJOQi+MgiMUoqeSTsCqvsoji+BkDVSoWhg77v9Pf/+NfSYsiVlSaMnK8gdSkOJKVilMmD57S/1h5hBTCwhOpXDl/ldmCvh318yclKlSWcSF++5JyZMQqqMkTwwp6iUTEt4hEqlWWJsVLv4SUeKJSValQuhii5EjiKUu53xjUgigNkbIa+eXw++06/S8/kJaWgopa0d/jBeVRRlFyPKGhP6nbqH6+ROqU5GSKFlMUEUlLSUGt6K8Z8f96gJAQ/hXlctUonjFYU4Iv0rD/Uraf82FMu/S00XlegoSYiJ8kS5SyMjLmeV/KJw76JLJ0vLbcYBRITkxELBRuVCW+9+bMqypMHdZZIcmLII6nnfZ4bFxO0qFWfjFCAqkigSK5JqOEm8d3U2fwNOpUKqmw0f187UO/he74uu2gTJZ0bl5lTeDYuXsYDOpG6QzCofSub89c8Ittx6guOcI/C6iuJDWJZIpkERczb5WkxJEoKUapTMGejB8k4p+c8v1K/1aZMdgCEoHsvhBS2HzsNusXDqdkRt2lIXzhEdGgnIMAKQgISkq5N3txGMYjzJh/3JmejbIFtqRpgC8v6sKHgQ7M6tUAacKaj6EiKlWWA5WSCO6HKqHdrHaeEy/p8W6aT7qO5zVn1CumTzRx+AvatxnMhoAXDKpbiHhV4MzWhXxqOJzpQzpny2UX0M7i5EgmjLPA0nYrtcsXoBwkpCESVFBVzounEU9PPVNsju+jccXM2EEB313G3K1nxuKhrQoJnJJYMn4kdcZtZPag1oV85tdzRqqiGpeqQpkShWvDX78xxx2CmIQUCcpxYUSolKZ8jl3y/t0QOnZrk7WmyD/93XUO3feKuHHlANUyZCTfBx5l0NrnBHta5VuU8JduvFDrjEaZbMGW3GReAftNWxi6ahP1K/xCFUr0gcFtejHowA1m6tT+zSZIZXa/9nxtY8qZrca/v0kl32fI4I0sPWxH5/rp65Y04uxdjIgGFRTXIulvkoQfaDVoxWKfEEY2Sydcpr2+QucJhznndxa1V9a0m3KfN7eOUERJQKUQ3KL4J2fou8KbI7bbUE2Io3btqnnOH0n8DzYd9GG+6egsUvrHe158LtGExjKFWTG+BzegaboD9VwiHQLPrp2jbJve1K6YY32WRHJw00H6zl1Eg8xcIrl6QeDN7WtUaKlDBbmDhPS2iGAPzE++Ze+GWRQvBEiTiEWyxEmpKSkkJyfy7tldvDw8OOfuQbSoCIeu36dPvTz2EEkSi7Q06WEXyOCm2aqj/vYb8VPujvk47QIPkv96gEDKK9oN3ML5swepXbYI0Y9c6Tr3LI/9HX6pix8b+pJitZtQJJ9NVJIWz+SuTbgpacmpMw50rpvZwBLuOW0jIKoilcsoBmcHOB9Epds0tKrnXJiV6dBLj8bVsxnQ4sQXNOi0g0ePDlNBFcJe3ebc9cfI4w4h7hmHrhfF49x2qiiw7CWcn9OY0EkBzGuvGB4a+dafbksf8cxlbsGLduJ16tafxflHj9CskV2P0Du70Heqx6OdOeV981iHhHisHQMxaPiNPnMd6dC6NqKUGN5HF6FR1eIkhN7ncwMTvK1nKSQ6EqdF0KS/FY+8NiENlkgNdmPE9vdcOGom+4gk8TGNDU7z0G0TZTKjTYRk3r8Np756LYWC+Ow1ZplfVS44bqJyjpC8vFZOITWObvVbYvv0JU2kC3HqC4b2M2PE1GxhJ3HoVXY9boHvKXOylL2zXiZm74hGvNQ/y36jNpyxO06nEYbUSHtDn+5T8Qzy+w3rTRJz+msS3WMb9kv1CrXQp745Rn09bx4FrMfD1ZOEPAj7EQ9Oc6fyNM5sGpt7HiRcQ2taENft51Mic78SRzC7iybVtz5kZY9KhSqH9KaE4PO0nWCL//0LVJYb8p9ehlClSZMsQR+p6NmpE87EFwJUv3Dfg8OHRtwOcKVh+cJbV/IrdHLEB064XpUBUOnnE0IuszegPJc36zBzz0Omj+qi8Kjl2n3Y3bxGm2o54iqFVJZ2qUetnXeYo5W9KYfedWDi2RLc2DI0/T2xb4lWqkO50tll//poDwNPqfNo+8CsObl3hgE15jkwolkGEJKIGNREg+3+z2la9RenO/EXhvaYzEZvT5r/+iCoUL+kpyfQnHSJyVN7YjZzRnba+cL2esoz+ozeh9v5fbzy86eNTnce20yg19pXPH4RQJ1yisBOSAyjl0ZfLr55RMkiSkitYKKP1xi7zB8XhzWEBR9n9Fl1ri+oQq8RVti7WlOrVMG7ZuqLi+iYXiDQ04YvvjtoOeUCL596Uq1k7vHyxnkeve3qEnJxoWw8vnLbwCKfGrjvmgKSaOZ2aM3Um+9oXSL3N4W0aEy7t6Dautss610rez2VRDGnry5Dzz6kdwH6D6nRobRtpofH2wfUlLM6SQ8pjkuGEzHKiTntM8CgdHDKCf6lxXxj+879fAsLIy5NmSpVqlIm6TVvyw5k97JxlJZl8i34Sgi7R13tLbx96kLZrPwmQOoXxrfXZcrtl+hKh3lKHCK10grRgtI3//sBAvDSfi5DnMpx33090f6HGbHtFXcvpMcO/+mV+PMFo0auYIXtQdrXr5xnyJl0oCcApeQAxuG5Q1Ge5IRxu4xOF4URn1Y+1wlaWq6k1zb0OVgVP6uh6ShekkZ8QioqWdYCgcX9utJ6lT2GPZtSVMGKIHB5QQt+zPRjskwiOgWzYX3RWnOOvmVeoGP+kKe/AAiR7mYMvNoO/wMTFXJGfLq/n6Eu9bm/NXsxy2pHIQW/M46kVKzHxdVz0Fm+WxZ+Vpt3rPEsgfP28fwMOYuRe20uLe5AqMsiHEoasWygvCyvtKqRaPTfzoMCAEKz2Xd4dmx6vkmUMsu0fcpYNBZZMzjjdPKrPo8KOsqsm5qcmq3Jt59x1Cz7jTHjtmDnejRrsUy8sZZpDwdhP79DrteJkr7QpKUxN59cokbJVCb06ofRsavolv1Cfx1jrvwWQIB31225nNqdOf3VQZTMJf9vDOxRPxe4i3oXSG+Tg7hdPYb5HBsOSXMoJMWjlEfEwMMD47mivob1Q7JP9mKRiFRVVaIcp/Ot+3ba1SjJt58xVK9cHqkiYO+Z57nnsz8D3IgI+RxDk1rpegAfH1zg2IUHeTStmNiYRMqUlXMzpH3j6CFXWkzYzJkd0zJi9gWS4uMQlNMFw9KCTzB4VxSXD5nmA8mXDCUAACAASURBVKaUKFK0KCrKfyCRmrOUgoT4uHjEKT9p3n0nT+5vo4SSEqKg0xg6iDi321jhiR6aQzl+8yz1pIlZ5K7UuNc0arecBwFrWbtiF2Wr1ZTNyfgfIbiHFGWcTroUd1JsBOKK7Vix2JCyGYD12+MDDLCvVwiA0JQ9t17QsJIc0hWnEZWmhoLBSJqltpcR6z0VAULoLS/KttVV3AwUaiFhwYAO1Dc7xcS6H1l3NpEdy4cVPGWEVM6vn4ZPXHUqlC6OkhCDi/s9hg3uRmR4LA3atGDX+iP4BPnTsFxutCIk/qS3Rh/c3zxCSI0iKVmC5LMfJhvucPTgYsJfnWayWx0uLO4sK0eJMuUoUaRgpC/ViOgz3RFvT1tUJalYT+hIySE7GT2qZy6VyaSoEDpO8+T+6blI98jnrquxeNwc5w2jswDCzJvvaJYHQJCWJy70Ch2WfyLo5LSs5FwIsZj278Wwc/fpUaA+h4Trq/vybYobNfyPcuNNRFZbp6UkoFSkZLpVWUjitP0Zlp28hmGXvMXfxD8fMNBgKSab96PfqRFFfiXOIiRzaHofWm66RudKRYh+4cW+0wGIMkoQ8+MLpavWlO09VxyOUG3kNlw3Kh4o/isAAuIojl8KYaK+FkGua1niWQ2vQzMUB70ogrDYYlTJTGqUz5RISkoi9m0ARwPjmD5RnwoF2H/EqdFothvJ7IVGlMwYz/7OB1GVsyB89T3AzYqzcNkygXQDgIR7563xfp1E8rPz3C7akz6Ny+Bz+TKTt53CoF26yV0iSiPMbyd3y49jsGatPMyAOQFCKvPGGjLdzonqnwOyAMKngCNsvgpbVk+lrAK4FnF4jAZPuqxDX6MSQupP7I57YH7gCBVCD+cPEDLbTUhjZRcNxp4Lonm1kiQ9dsbIPq3wAEEURZOeK3CymSs7xYre+WJ2/DP71k2QfUFIecVQqy88PzlL4QQsTe176dIzBg/NOPVJItlrH8gsw8G5NprLe7fSePw81CtkW0cEUSwbx0xmjpMr5fhI17aj2exizcGV+zjmUhiAIPDokBEnK6/FalgDJBF+jDL1xuHkOtRi3zBQZwqXnvihIonAdMEhlm9cQtWSGScTUTyn9+wgpmydrFj3nMMw/Pkl1tr4c8TvCQYt5BMRQfS7ADqOcuLV/b2yk3DozzjqVs7cmAW+vHhEzabp4kV3dxtwpcl61vRvmvWJ+C+P6TTMirmjW1C8Sk1UEkPYdughJ6+e59XBqXirdUG7VrqbRfLjFuscfnDF24lG5VVlCo0xiSJKZqQW9tq1jNLDzNGqm24yjvn2Aq8QAYMe2cmJpEhAVTXvcMc3jmYsedGds+t+sTkVvHX91q9pcV+or7WVkKd7KKkMSQ9OMu5EKud2jWPH5D6E6e5h88S29GyTARAydEDSPyJwb/94rmpYslJX7iQp7YecFoQ8SvXtiTUDTtb9I4AgiQ9FX8uA0UvnyYHGRGysDjN8vqmC5cZ981I6WnqxaFB2v8sXJ8h+ISvuN+G0lQklVCR4H1nOZfFAdkzvXvi2THlO3zF7OX/uIOKvDzDQn8Pysx50r6N4lI4Jvc+uo56UKJqK7U47xpsM4kZQLFbbN1C3aCReb1QY2bslCT+fcC+6NlVTYmnSol7WWpca+Q5Ly4NQthLFcpANhPhPnHS9y4RJI2T3CwlfOHsxgK5TN7F5eu8cVjMp50Ypy0XsumoUT1stx2JkmyyAMP3mO1rkAxAQBJJEUFxeN0eIY/7Angw58yuAAJLUeFArhSQplkRBjeJFVLm0w4StT+rhbbdCwbKqrKKaJyj+es+ZNadesXj5fBpnaO5Evb3BEP0Z9LO8wPJB6rkOFB8D7Nn7WoPtk9rz+cpaDPZHYndkPfUqlODmYTNW+JbG12F91gFMGh6voqqi8J5/LUAQ0uJx2rOdyJI1KS7nP39+zZ77dMRINzu3gnTkJ7z24siDClxx30eNfJOKiNgwpT9vqo/h6Mapv/TNSVJjadpoCDeCr1FNuuIAOS0IAZv7Eqhjw+Ku2Yp/srS6pGE9SoN21s/oWDGFQYPmceDcCepmKBoGHzJm5o1WeJ00JW9LUjZAqPnqGV36dWaFoRHTjjtS7ZMvHQxPsHbOYOqWfMWO69Vx2WGk8B5JSgza6trs9XSnckkVYh67MszCh3MXHCj39QR9d0ahV68ERrNNaF4jDxJaDoCQ8sSZIdtesHKGLjGf/dkcWIUtoxoT5neQkDbmeVoQmvTfzsMCLAhNp97gqYOpwgSSqs+N1dBiqt1J2Wn/vcduAkoOYoK2OinfnrLsQBA71o+X9YXtbEP6HrrB2E6Z5mCBF15HuFJkIAu6VcZn12Rc1QzZPb0hE8euZcuerVmTJfXBXla+HcGpHBaEtJhQenbU5meLOTw6vZgvbquwft+U4Vp1ERK+smzeVjbb7kYJgbQ0EXWbd6BBlV8L60jL++PpRQaPXccae1cGtq6TS1wr5v0tOo1y5uW9nbL6jdHtTw+TmdSQIixJDDZrtrPC6xFdqijnCRASvwbRZsAhXj7eJ3u36NMFJm37is3CZizY84B9VmZZC2vSrR0McSzP1T2Tc82DL4GH0Ft0hU0H9tKvTcZmKYh5fecSm3c5MHDOBoZpqxfoZjm3rA9HY7szsbtcDpRX13D/3IJz++dQ9Feno8JvZ1l35gQIKQ/sGXsihbO7xrBKrxPaDs/oVwZ6tB7KMf+z1JcDCGmxoei200bSfRGeB+fywmklJ95UpHWdckR/esixR0WZr98chDBOeMTjenI9leTUSb8FHaTb6o8s12+UVR4/p6OU051Eq0zfjCDBes1GnB6/VrAgCImfGaY5EKeQILKYCeIfDNedyHoPRQvCso6NGeR4B225pHaZH4wNcWOE+XWO2FlSN0PkSroO7F9iiL9ab2y2zKFcDsJ0XOQPYqW7o/wleofh7KMctJrBRtPFtJ29nRFt07Ppntk2j2/NZ7HBRBcVBARBibgvt2nUfgbvQtNdDMmP7Biz5xVThmULvQmSNJaY7sLtoRcaFTNrKZCSnErRYnn4UFJCGDHQnJPXzpPfAT4xKoyoxDRESeHsv/ie9XOHUFT0DcNxS1l25ChNy6vKTu57xnXBPrwGFUkktrgW585upoqcASPp+3uKVa2vKFAlxLNgYA/05QDC03tBNG7XSmalkL9SIsJQq1Alaz5Hv/Zk2pqLWB6wol45VZ4cmcO1MhOZO1IrV06hlPjPmJrM4GVsafroaKIsEShVtjRhrx7w4mdRps83pWf7JrmsrB/vOjNz7RnGG+qRJpJwbLctK44707d5VWLf+7Fohy8Wm5ej9MYP1aY9FcaqQtlTUqhZsybx8fGoqRXO3ackSHe4Ql7SWytXrszDhw8pX16eKFbIF/zWbRLWje1JxVmuzO6mSFB8dnIeG9/3xHF1QScWMevG9abu4isYaf4ydRyS1DiaNujFEssllMlouxun9qLaczZda6SPko9XLZFMdmaJtqIksJASxRCN/px8eYvSiTcYYBrAxRMrsxbol7ZT2VdxF/uG5txcBF4FnOHGm2S+XVhNdO/V1IoLQ2vQMI4tnYPmRBPKxn5k09UiMg6C+J09xvYVsVs9QKEl4z550HKCP8E+62UpewOPzGPH+064bhxPpovBc0pxJk4xp8WYFayZNQTZQViSyvuQ1yRKxBww1Ke/pQ3eXk8xG1wd8/PkaUE4VcKI5YMUXQzitO807WHO+kXDUIt7j53TDToM0KNk1DvqtZJmAfzMHt/iXN1nrGgylGrzt9Bm/4sQWTrrx7bTcCs/gzXD25L45ga683y5dXmNrK4rujSl34kAdKRZLmXJbiJZPlSX6CaD6aJZg/0nnnLu3F6qq71n9LCFTF1kljXR0oIdOJ46DQcFgCDhlv1KXpavjP3d1nhZ9MLKfA0jVqyhQRllJDFvGKQzhYtSC8JvjVuIfOPHpCmrmbz3NMNaK3JKMl8V8+E2WiNP8yIDIBh174/Z6YtoSrWQRZ+Z2tuI/b7XZMApLwtC0vdntOl3kBcKACGUoc3FaAwyokWt7OiLxBtbGCF1E1mNlwMIEj7eccZ0xy3mmU5Fu3PLLJOrKPozx73fM0qrKPq6w2mz2BGrqd3ybQeLQW2oYnqCsR0zc1wI+GwdhU8HO3YPr/GPER5lbSdJ5vbVC3yIisNs1SW2L2qK/89GbOivzDSHVM7uHM78ft0ZfyEIqTu4R2t9jt08T/2sBE8CD5zXcq1ILTyeqOO9pidP7OZxSmk02wy78vGuPUbny+C7SR+S/Om56CXe+6cq1P3r432McG1G4IZev+Ag5HYxCElfGKE5AIeXfwoQBL4+vswq60Cm6DciroIWvbQ0ZH33MciTh2El+e65l61XvjB+0mQG9tSmfZvGso3uR8ht/EOiZNEG8ldSWAh7D7oyZM4SmlTIsXEoFadtl05ZKeTfXFpFh0mObNp/CKNhPVB57czYbW9kcz/zkpIchw/fQ+DL48h7V3JPI4FH94LQaFOd2fpjMXe7RpN8uKw/397HLzic4inBTNrxmmCvjZzavJ66QxYwtEM2h0QQp+Jkf4Xeet0pVqw4pUoUJeHbc5wu3KVsWRXs165kjHMQ9d+68SJOjVLFpPVNw3nHBtrPs6CBDEykcunsJYYs2MywDnURkiM4c8qFlKLFcNhogbl3MDo1ixP75Qn7bb0wmDGdKkVSiQv/xBjdESy/GMCAltVyjXshLYGNcxZSu7cebVo2pWjCB5wc3Sinqc/UUTqUVFPLc67EvL/NNudgRuh1I2CXGRWn2jC2Yy1EsaHs2efKaFMzapZURpTwhQVTZlJ94CxMx/WjRA514X+tBSGv9VcS94xBA8yxOLmHqqWqUrdy9ubqbWnA2TKzOVBg2l0x68f3pc7iyxi1+TXzRwYQZBYE7ywLgvWsoZSYfhqj1unPSy0Ifl1sWNZdESAk/QymtYk3z8/NI8pjHYvuNWLZkGakZkCv0EubOV16Pot1ihEdfBmH4EpYrpwqlzMhw4Iww5f6L67xPlbAw/Usq1xcZC4GbfMHPHeZlzdAEERcXDWMtGqN6DzJkmqlVNg2aQBlp9gyTadmFkCQchDSvj9gUO9RmBwPZJSMDCkh5OZFvkjKcdpsIr0321O3QlHKRj9mgWMUm8z6Ex3qyxq/auyeoMGP67u51dCUNfpykrMyOeYkIpKKUKm4COuFE/nWdj7rJnTmZ4gvR/xTWWysS56BmuJwjDW12RP0MgsgHIzQZpJOY1K+PMHc9ju3swCCBv1OBGYBBGl/iJISUS2qxgmzEdQ0PYFuw3KQ+oZxEzZxzLlgF0PcpwdsdvzC0iHfGObQCI/5Fbn4vBhDu6br7ecJEHIQj/Iat3FfHjBn+moGWRxiVLv0k1heV8yHO2iNdMoCCMY9+jP1mDOtqqhIk00wV3861jeu5wsQkr8/o3UOgGBocZs1q80RvzqPb0prZg1K76cEz7WMut6Ci1sMZAuQIErmnpczLo9V2WQ+lrjbtnysNRrNOunWpXf+R+gx0xX36xdpGHGe4fuiuLjXJJ+sgxKGtWvF/NO30FHPtE6JODS5Hax8wLSGhWCa/iYAS46JQEk5mYZ5uRi292dC58Fsv/OIaipSgDCIozcvyECf9Er6+ZxN1g9YNrU4+ocr4bWmJ09PmnFSGCkDCO8CbJnmVQvvtf0yAMILvPcrJir7fGs7U250w2Npp/9VgCA1b9/2csP3UxmWzdDjyYFxbAo3wH7VcBlAeHJhPdPPlCTgmBnBV4+yeKsrYxavY/SAjhTPxYETiEpII/XzLTZZuTJi8Vp0pPwnQczbx0HUbdMG1ZyEbyGJ3RO7cMRHwt4Vndn8tDVOcyoyZetTls3JJuVKN+kJEw9x68UJKmXgDSEtBreTp4hSKYWaioRbj0Lp2KoC3hd96Tt7He8OzqaVpRfD6hQ8XuK+XEVj0ScO6xehfpsm+Hle5vW34miopx8iRUlhrFx7hGP+99GTY/pLfxPSwpnYTIdDL55TQt66kocFIa8hKSVo9mnaF7fX6daTnSYDuPCtBA3r1qNFi8Z89T9FWOfN2M7pSFKqEiXz4V5Efw7hrMtpXqdUY97syVQvrUZi+Gu2WdlSv9sQRvTpRMmcMZ+SVHyOrOJ2zaksHdQIJXEE84YOJbl5X+qUUqFSpbI8v+5B6369OG5pySS7QKZqKaa0/68CCI8dlrPiVh3cNg9h9Uxj1HTmMN+wP+WKKnNibm/edN/KOoN2BSwtvwsQYtBQH4jdxWNUkiWTEji+ai41THbRN2PQPj5szMvetqzqm21alBbg690DbAsbxc7BlXBaoMuPgXsYXFsZteLpPuCP7muwK7Oc1T0ygYoS5StXo3RWuGBuDoLpuHQXQ/VP/mgvuc/zM2Z5AoTksBeMXnaTM5a1cf3YijGtlBky0BQrd2fUi6EAEKS1+vzwGuIGPahbTu5cnMPFEHXPkUXnU1gzvRdRH6+x6FpNbKdoEBF4lHvVxzFNzpSc1QGiRFy2mXLqeytsN0+nYokiSBeKQNedWHpGsdzMmEZ1a1K+TIlslCwOx6RdN3Y9flEIC4IGfe0C6C4jcWZeEkIDj7P7oxbbxzaTIhWU0t7+GiAIqXg42dNj7BRSQmxkAOHiXHU+hCeiopLut5P6RaePX8ZBN3vZqTs62A2HkDpsWjAyX/36xPAXmJosR2+dDfotFXOR5ByosR/u0EkOIEzt0Y3qg8dSo6QSUtLUeTsP3O8UABB+BKPRaQ7Tp/eVmUuFhLfcjmyH2/4ZCCnfmdpdlzFuQfSpqkK4+zJMHmhzzmKQrBiRX4IJL9qQxpUyxqMkhq1Hb7LQeDCqpGEzqx+vex5k+yhF116ek02Io2MrA04FXKFR5ildEs+qAW3ROfeKPoVIyvSb+EB2e04XQ8K9E0ywT8N1lRa9e89g2+5NNOjYheFaAzhy4yrqsvTLEu54nKVlPwP46pIFEB4dm83O1xpM7NGE7y88ORRSj9VDG4P4HSvOSLh1ZJaC2ffNhRUsfjOEI0bZvuIji6ZQbdpBBmekcJXmfBjfqQv777zM5WLQb6nLLOu92VYJIY6tK62YuG4tNeSm5akFJkx1e0S3hlKrWQq+bm407DWC2lImMfDEejyOlRazRep/B55d2crCW83wWFeICBohGR2t/hQpV5aOXbUoI0UYsk00AbvdNph7hzC5jaKVOOHTPcYtvUrCTVfc3txlyujlWK5si9n+j1guG4lELEZZRQVpdl29QZvwD3agcsZ75ftYEH+lUa+dPPDZRtkM4HLOYgz+jddhNbbgMZcJED46mqT3iRCL7RF3pphMkM3bD56r0XdpwoND43OZ+P9pgCASiWS8HOle8eGWM1N3vcDz9Fq+em9g4gkVzh1ZSrms+gtEvn/MkQO7cXqcisXq+dQupUpKUgIpEoHUpATio8PYsXYFsU1nc9NpKaUzsJI4JR4vu804hHdg3ZgWpIhAIqjyyO8K1SqrssL6Abcub8GsqxbrAl4geepEaKWBtJKzIkqb6r8HIIjjmdinF8N2ejC8dXmElGjMh3TkVNIoXl/fwM4RHSg314HZuoobteJC83sAQUpS7DbQnHNndlG5bHGUSWTu8OFMcbyKZsY6enf/DMJ6bGBwc/nQMTHnVg2n4Qo3WhWTMEqrC0tcb9BeLiVwiN0M9pbdnoeLIbPE+QOEaqF+aC+4wy07Y9Len2bBpXqcXJXpYhDje2wDjSauoaaqmFGTLFk3WpkV16tyZtsk2csLjGLI+rwiSVHGq8g4PchHMShJ0pCgirI8G12QEBv1iXXTjGgy8xC3No+hnbkLs/s0RBz1li6ag7F/fInNI4dz6fEn1LsYYG29k1Y1SoA4gmkdtNn5MBsgnC87jdVSF8NbP/qY3pBzMWjQxy6AHlkAQeDzPReGrLzFWpN2PA0KRrlWF+YZaWCkN4v+Y8ZkARHJZy+ul16Qw8WQXvnYDIDgtUaTbxEq1KycTs6SWhCySIqF2MFS4z8ydcx8puw+Ro+GvxZXygkQpBaEOU7ZLoYpvSaw389XltI7LxdDyo8XtO67n2A5F4Oh5Wcc9s6ULVhem0ZyrfUhtgyqwMfTpix9NxjHZX3yrYmn5SyS+6+jR7FHDJx2nGu+pwoVMpca7oXmqAt4nNuYtdgjDmeWdj/WPn5FfgYEKXiMTxJRqmSJP0pYpAAQlASibx/F2EUZ60mV6L/Qi2GqF+ln/4r95mux3LOeqlkxoOlNkCgHEN7d8uBDEXV6tmvIi6tb2Pq+HydmakLqKy49UGJg50YKpt9H+yayMWIgY5pnm+O9j++j/IBZtKuaseMJEqwWLsX+4SsFgCCJ/8TIXpNxvOudzccRf2e4rmEuDoJFn470OeRBl/p5u3MDtunj29qSFX01ZHV6fnUbCwI1fgEQBJJiw9m3eCLb3aPwe36LJhWyzQtCUhiDNLri8CpEdhjLvgR8j22m3GATFrbTxe3NE0oVUSLlkT1z3NU4vKw9Y3vM4FigF0XFSehPtOTE8dWULyRAeHVtH4YHE7jtYl7gbJMHCEJSIkpFS3Bh72ZqTFxCx5JRTO3SASPvN+iUzyvM8Z+1IKQXVODb0yvMWXuVk2f2oBb/ng4t+7PD+za9cnBHvt7aR6+55xlpMASdbl1p16YZVsaj6Lb1LP3rZqCB5BBadliD1z1HqmXw65K/3Ee702BS6mlhusCMCfo6FMuIgot9cpaBax/g77o4CyCUyYfzkxAfS916Df79HISbeyez7XMvzm+dmOUzTUv4jqb6UHzf3mLJgDYM2uHBiHbVChhMvwcQ0rsaEoLsuYUuunU+M2T0Plw87LLJRHl9TUjB+8hG5m33YMxsfc76SQh0WZUdkw78/wCEqh9v0GVOAMEuI+nfoSd6B7zRrVuSFupSv1saEeEpVKyU7n55ZT8HPXN3Nrrfw6Bduu879N5e9Jzq89hqcP6+4EwLwmkfHrgeJaZaR7q3SNcniPniz+qb1dk9piG+B+bzocMadhjryH6LfHsLyz2OtBkxFwNtdVSVY+nfZSI7vd1pWkK6yb5ngPZUPJ5ek53upea/WFEZKmTqTUgtCO27setRNkBYdCWNNvUqIo7/jn9oI+7JuRj6HPenR+NscPbYcRkbn9ThyDoTSquppAszZbgYbJ2OZG1wSX4WTH80OM8wxyyAYNFLgcAniX7NAB1jLhcmzDHpHb37LmCniwMtc8bb5zNCc7oYJnXvj6kcB2Fyz/EcuHkjX4CQ/P05rftZK3AQJm4NxXHf7HSAIxGDkrRNINjWGKsEQ2znFcBuTwtlwuRNVOYjHZecZmyrAgLC5eok+nKdRY7fmNAjOxUyaeGsMFzI2dfPZZahXJeQgs2U9iw9/40TQe/Qq124b8m/JxMg+LsMx875HuMmG1GleiXuW0/Hqfhk6rhNZtb5YCqqqUByNEnK5Sgu59+WBwjSk+f3QAe8JDrUerCBu222Y949PzKqmGOzdCi/IYChcoEpu6eNoJaZYw4dhDzCHGV9IyiC7HzCHAWJgFIBoaEnprVDbbobY9ulz9UXnjsw829UAEAQcctxOydD67Fr4Sj6tu3O4oP7qF1KLvw0NZr5w40581oRIKR+fcjhO8WY1a8Suhq6uL8JkgEE6byWCptJfj5iiMFmLt5wzuimFKaNmc9ymz3Uy4wPzfglLwuCJPoF/TqP58CThzTK6KcHjz/Qtk09hXUrCyAc7c2648GsnjmItHfXmWb5nGX9fzLKqTJBTnPzJKUrWhDSeB+RSP2K5aTmwlwkxTyHrZyLoUj4PX4UaUXUrf3suFWeQxsno5wSzbgOzRnu+JzRLfIGddI95s7OUXjUXsEag5asGDMU7dV7eO7szPilS6heDMRiSS6BKbFYhLKyai4w/e76AWa7FOHKPoMCAcIHnz30Xn2N8Ke+JCen/HtJinHPnei30I/TrntkJhh5BJsQE0+JskXp16Y1K84+pnuDgrgFvw8Q0r8l4bylGT5vvxPTYCLHzQthrpP6vpLj2D9Fm/33ROjP28z6OfpZed4LCxAulB5McWowbdpYrBebylwMVUJvsMw5lsPL9UiOj6doSVXszt5k8ojcp8GXZ5bSd/ZZLC9cZ0yH9EXjQ+B2Bp6oyfODY/MACAJhb+5x8tgxbM48YcWevQzVbkFJ5VTCoxNRVVMl8u0l5lytiePsdDOmkkoRypUrLZuAYlGq7O/MNSzp6XGG743lwqF5MvOfJPYDg7tO5vJTn7y3SXE4UzW7sTuoMC6GxugeC6RXk2yAoKBelxbLZSd76mprs9F81y85CJkFyhcgRL2mX/cpXA26WQBJUcKra4cYNuMkTn6etKxeeEnwnCTFMdq6TLU+QYvKKiD+xvyR87ANvCljdedlQciLgzB+8wccD+ReHG/tGIFTxSXsNlJMKa7YKalsndyH0+Ht8XGzyrYG5ANwCvq3OOIVnbtMJDDkTj66F2nYz9Zm1smX7Lz7HmMNxRDQgj8p4cPD6+zfsxPf+ObY7VhE41qVUVVWIunLbYaP28xRTweODG+bBRDi/Y/yrPZEtOpmn/hzAgQEESfWzedk4Av2unujkc/SIqR+Z3qvkez2vykDb5nXzqlDqW3mjEELeaGkvAFCrvqJvzK8pxEWXl60/DVdKuNxEbotdLG+4U3jiun1KhggCPwIfY9auWpUKJPu9+nRugeWZ11oKHO/pF9CcjjjOw/mdE6AkJKEcpHiqCSF0bNJdy6+fcbzW4FUatCAkmoqfH3ggtmxD/TrqovxWGl4roSkxGRKV6pBpTKKpMgsgOBlQYjfVfwff0DHwIToMzOxeK3LzYOTZWVZae3Jupl9FTb7uC8eNDa5QsuKFXA4vIJKMklnMWc2TMT89Ce8796gXm7CRXrdMjkIT6+zYKkjG7fOo6JUefM3AYLt6QU4BiujGhlDn+EGNK9fLDgf3QAADaBJREFUFRK+YzZyIKJmg9mweQ2V5KLx5Ps7/K4NWsZnOOh0lF7Na7BqzFCZBaF3lRhsVxpj974ep45ZUj8vRUdBwreQ+1zx8CGmaF0MjUZza+9UbtYyZevoOnIAQYxP0Bd6tsrQYJBEsH7SNhYdtqD2vzmKQfTjNvoz7Nh5yIomlfNxXibcp3W7lTjfu0KT0gUJr4ixGKtLPXOPQpEU5Tvxnc8BRs/cReMhC9ltMZ1KvwyCEPgeeBCzS2Wwnq/DmknDYNA29szsKXtt/gAhDY+Dq9l2yo9anfSYP8OQFg1qoKKcitk4Q0yOO9G8SA5mnPgn0xcfZJfVqiwAIrV9vLq8DYtrpdi2sA/WKxfyILk2U6dOplf7eqBWnnJ5aEBIksNZOWEkLWfuYGDXVpTNQz9dwcUgtVkkJaFUvHgeC38ai/R6obXmNAbtM/QfYj8wsMtErj67mQ9A+MnkltrsCy5MFENjeh0NQFcjk4wUw81rV7nu7cHdjxJGTzSkT7f21Cobxvh8SIq2RvWRlKukQNiKfWmNvn0jrm/orWhBiHxF7+5T8Hjqn6eKZ+gDN0wXWdJg1CpWjKjLlm1nmbLIFI2qhQuDjH4fSKdRLoRkRDG8ff+J2nVrp4evCqmE/UigSrX0U0ieUQzfntK6zx68r66RlVvy04f5ByNxsTHNdXo6NbszH/RsWdFfTtdArkfiQ+8yz3wHXSbMpzUPWWx5nnELLZimr/UH8AASPz2k7YC1vHzmLns+7t1d4sq3pkb57N1PnBTOkFaDOPI4gGqZwiOF+Joo7gMm+uPov/4oI7Q1siNVIkOYO2sFA5fvR79FKdbrZQOEZ/aL+dZ+LX00sgGcDCAcqoTX2p5ZwDnQbhlG268zxmw964375lman8EezHQW47p2oMLv2yYPou78s4xqlcnrENG3kQbWOTgIeb5U9IWh3Q1Zd/0amY8X3BQSHh424VTRGVgadsgCsFKAYHpTHc/1+oVoSSlA6IWNj3chXQzpr5QkhNGjiTaX34ZQKjP0UxzDqsmGaC4/QfPQE5xN6on5kBaK41AQ8/XNUwIDb3Hj+lWC4qoxbdJoOrTSoF7t6jKhoNSY94zr0YPKkw6xZ25XZm65iM3yMQoA/bv/djSGHMPv+T1aZVjrnnkcZJ6lB91bqeEf3oCd29fQoqqiKm46+AljSKPWRFZuzL6Ll2lTI2M8SHUQBvRkyNmCdRAk8d/pWL8lpfRWcsF6JiWLpB+Ofjz3YomFPeNWbaJv07JYL52OSt9VTOurIXcoE/Po3E42XhPYs9mMGjJlTonMgpDpYpBIeVxrR2N26hPnbtxAq066q/LDHUfGmu6jVQ99xhoMpHkjdSqVLY44IojRE9az2fk0jUvEygGEFKycH7NwVMb8FVJxWD2H5jO3oduq4b/TxfDj6RU2nHiE+erF1JKTNUVII8j3Mt43b/L8UyxhwTehxxrObRijkAshc0Z8fOjDRU8vAh8Gc/fuW3b5PmJQvcIwqQV+hNzloPVxYiq1xmzmaL4GnmPv8XMkqlWgefNm1K5RVRYWI0pNpkaL7vTpoC5Dr8+97Dj1uBgrF4yhhIoyKVGhfIgVCL3rR4xqGV6e2UzMxGts65f7hPnpiSeP0xqi176h3KSWcMDUAI/oqjTIoeOe8COYqw9ScL5+Fa2axRCnxHHm4Hbel9Fm3kTddM15cRIPb1zmpP1pAh4GEy9WpVTJ4hRRU0WldB0WrF2HfseG6WS8tDSUMmNik79hb+9GqmqJrHwRCeHPOR1cjik6Uka+gLfTMeqMWMnaydkmeXHsR9at2kLtfiZMGtA2q18k0e/o03U8157fynvBSgtjXJMODNiwWbYIxH8K4ptaXRpVK4s4MYJbTyPQ7pROWnLftJQpLvfp2zSd/CekRLDOeAJlBy9m8rCelC0Sz2k7R+JFCZw948eo8SOyFpa0D96c+dyY0m/dqTNqPZtN+mQtXjFPdtP/lDoBloMUFjRxxEu66xjj8zwgD4Ag8MbPAas75bBenE78S/r5ir1WO7n+8BVKaiUoUbwYaqoqiKSJaNJSSUxIpMuwaUwbP4Qa5YoR9c6fTjKhpH15t42Qwu1L5zjn94wf911pvfYi83Wk4y39Svj6mJa6ljjazZctUuKfgWw4k4ab7SJZvaPe3+XkKReCv8Zyw90La9+H9FBPF0LKvOK/PuOQjQMJ5RozdrwB6hkaDz/f3mPvNkvO3w6lYeNG1G9Qj6rV6jHWyJA65YvwPfgG5/xCKFmqRJ6m3KSI9+x3eMSiucOltjVcbXYRU7Mvxw9upG45NZBI3XKbiOw4m5Ftqvx2GGRqcjJF5BLWvL9zniPuwQybOp329aVM/BT2jm1Jmv5WGpVWxdd2PTHdVnF4oV7WtxK+OKF/uCreUoCQFoPDPiuCJQ2ZZ6zH9aOb2Hf2EW10+tCnRxca1a9Lw/p1Kaoqwn3fWlpMXk8DKZlU7to8sTd1519gWMNIzpx2xO3KDfxufef+qzvUzgqxzGffFoWip2WIRYAvbX9pQRDz+MI+Dj+qxPblYxVyTEgBwtzr9fDeIm33X1/dW3Ri2Px5VJGRstMvQRTHvuWWXH77KldeC+nv0lwMXRtr4/VOChCUQRSLjcUyIpuMYemEbjL1UPvVRrh+qs64MUNop6mJeo1y/L/2zj0oqiqO4x8BIydE0SB1IBPFEZGpsfAJJD5AUnykk/lMk7ExqUlxBMkMUWfSHB+jTKXhYxQ1aDS1UVIQVHyDSELIQzFZEOW1PJYFdvdus4CxKysgow7qOf/ePef+zufee87v7v39vr/bZ3fis3An0/2+YrLXCPr3esto7En53avMmvgx+V37U2njQUJ4oEH2jFaj5EzifdwHvVObtvlL2H7oPhDfeboAXw2xB7eweOVPWPZ2ZviYKfgv+gybeqlnSVnA56OGMmBNDP4je+pJLcvxG+3BhCNJeDZRq0xTLWf1vNnM+fkw9pZmyGWphB84jLpLX6Z9MpluD/etmgImuXrzTfgpRjhYoVYUELF7D8oew5k7eSimUgnHIyKJPp9IXEwKm+PO4q7LXqptVfgOd8RlYyxfDK7LQpAqi0nI0gUDN6gylmRfJuSHnYxcsAKf9+1AKifIwxnbL7dga5LHmtBLRP65i571CqIqxQMORRxhoX8AlZWVL9InBi25N+KIvWXKrEl137aNNUmtJMz/UxIsx7I20Jc3jeh0N/TTcHhzEInmrgQv9GlS3letLOVCfDx3cmRUm9swytMTe/1CP5oaslISSbqRRlZmJrIHxZj3GsnapdPoYKLhRuxRsts7MsG1LlBIv2mqSjmxbxMBYX9zPO4QPZt9+PVmUF1ORkY2NTrReYPWDmu73vTo8gba6jJiT8dj94EHDtaNPea6J15DQe5dcvLyKSouQbJywHOwYdCV/vAlpRV07mTRokVbq1Jy/epFMmTljBg3vkFlsH5AqVRGwJqDrPtxqfFvgjWFfLdgFSt3bzUUUDJyA+zwX4JrwGoc65XHjN0j8pIyLK0smxXFMpjv5Q34JwwjbNEwgzlrCtLwmhbCidMHmq0Doj9epTyfjMxsHhQWU65QUKWsRqVWozHpytQZPnSqz00ulSUTtD2Z0JA5j73ndQ5ZzoVfCdibx8b1QQ0LkM4hKcxm07Ecls9zr7VbKr9N6n0LnPs0ZE9I6jK+nTmdzhMDWTzd7X+dA7nsH85dSaFC24lRY0dj81Ad0sASLWX3Mok5fYb4C1dwm7uCSS51C5RGVUW52ozOBnr0TUzjkUO6SpmyEhV2eqnLLe+t/0stF6OPUdT+bca4vWcgaqOQXSPiZFJtzYZ2Jq8xeIwPTrYNDpLi7j4Co/sxw76Am5n5OH3ozaC+DTFNZbIUwneFcTTmCu6zl7Nw5jjM5TeJyjRnspt9I3PvZN2iu33vOhu0GpL2BHCq4wz8pwxsXkdDncPa4APM/34Z3ZrQr5GUck6eOEGFlTNTPQY0siEtehshl3pxYEWd09p00/C1XwhB64LppufsaGtK2bBqB34hS+hgpNCSrmCSp6cv+37byK2sLFJTM+njNpGR7+pJCmslTu1dR+hfRQQGL2OIg43uTYQKhRYLixYU7aop4uD2UCJj81gXto0+nfVf8CSyr1/makoalWbWjPYaha2V4b/NKvm/RO4/jvus+dg+UrRJXZaDaUc7Q+dEU8wG/5V4r9mKk348RhMAr505Sa7SnKFuw4zuRbfj/8C0v3dt2vi9rFRMu/dr9JzF7w7m90JH1i+dZrD+Veamou7SD8vHKP8mn4siOVfF2PFe2OjxLEw/y9HzmbqwEKwdhvCRu5PB3vfyZDE0d2+/SMe1WlTaBmnQF8n0V8JWtQrMjKzKkoTaxKTZ2hGvBKOXeJIaSft0akS0AUa60vC6QLbn0ZTlZZhbWDZSCH0e5xbnaB0B4SC0jpvoJQgIAoKAICAIvNQEhIPwUl9eMTlBQBAQBAQBQaB1BJ65gyBJUm0tBhcXlxYHObRuKqKXICAICAKCgCAgCDwtArr9OyoqCoVCwet6Qb5Njf9ExZp0A6Wnp9c6Bw+V9p6W8WIcQUAQEAQEAUFAEHh2BJRKJY6Oji3ev5/YQXh2pouRBQFBQBAQBAQBQaCtEBAOQlu5EsIOQUAQEAQEAUGgDRH4D/AibpvEZiK5AAAAAElFTkSuQmCC;" vertex="1" parent="1">
          <mxGeometry x="60" y="490" width="319.79" height="230" as="geometry" />
        </mxCell>
        <mxCell id="T8GNhsfau3V3JD3UEyYj-24" value="应用实例如下" style="text;html=1;align=center;verticalAlign=middle;resizable=0;points=[];autosize=1;strokeColor=none;fillColor=none;" vertex="1" parent="1">
          <mxGeometry x="30" y="465" width="100" height="30" as="geometry" />
        </mxCell>
        <mxCell id="T8GNhsfau3V3JD3UEyYj-35" value="" style="edgeStyle=orthogonalEdgeStyle;rounded=0;orthogonalLoop=1;jettySize=auto;html=1;endArrow=none;endFill=0;" edge="1" parent="1" source="T8GNhsfau3V3JD3UEyYj-29" target="T8GNhsfau3V3JD3UEyYj-33">
          <mxGeometry relative="1" as="geometry" />
        </mxCell>
        <mxCell id="T8GNhsfau3V3JD3UEyYj-29" value="&lt;p style=&quot;margin:0px;margin-top:4px;text-align:center;&quot;&gt;&lt;b&gt;Button&lt;/b&gt;&lt;/p&gt;&lt;hr size=&quot;1&quot;&gt;&lt;div style=&quot;height:2px;&quot;&gt;&lt;/div&gt;" style="verticalAlign=top;align=left;overflow=fill;fontSize=12;fontFamily=Helvetica;html=1;" vertex="1" parent="1">
          <mxGeometry x="600" y="490" width="40" height="60" as="geometry" />
        </mxCell>
        <mxCell id="T8GNhsfau3V3JD3UEyYj-38" value="" style="edgeStyle=orthogonalEdgeStyle;rounded=0;orthogonalLoop=1;jettySize=auto;html=1;endArrow=none;endFill=0;" edge="1" parent="1" source="T8GNhsfau3V3JD3UEyYj-30" target="T8GNhsfau3V3JD3UEyYj-33">
          <mxGeometry relative="1" as="geometry" />
        </mxCell>
        <mxCell id="T8GNhsfau3V3JD3UEyYj-30" value="&lt;p style=&quot;margin:0px;margin-top:4px;text-align:center;&quot;&gt;&lt;b&gt;List&lt;/b&gt;&lt;/p&gt;&lt;hr size=&quot;1&quot;&gt;&lt;div style=&quot;height:2px;&quot;&gt;&lt;/div&gt;" style="verticalAlign=top;align=left;overflow=fill;fontSize=12;fontFamily=Helvetica;html=1;" vertex="1" parent="1">
          <mxGeometry x="490" y="585" width="40" height="60" as="geometry" />
        </mxCell>
        <mxCell id="T8GNhsfau3V3JD3UEyYj-36" value="" style="edgeStyle=orthogonalEdgeStyle;rounded=0;orthogonalLoop=1;jettySize=auto;html=1;endArrow=none;endFill=0;" edge="1" parent="1" source="T8GNhsfau3V3JD3UEyYj-31" target="T8GNhsfau3V3JD3UEyYj-33">
          <mxGeometry relative="1" as="geometry" />
        </mxCell>
        <mxCell id="T8GNhsfau3V3JD3UEyYj-31" value="&lt;p style=&quot;margin:0px;margin-top:4px;text-align:center;&quot;&gt;&lt;b&gt;TestBox&lt;/b&gt;&lt;/p&gt;&lt;hr size=&quot;1&quot;&gt;&lt;div style=&quot;height:2px;&quot;&gt;&lt;/div&gt;" style="verticalAlign=top;align=left;overflow=fill;fontSize=12;fontFamily=Helvetica;html=1;" vertex="1" parent="1">
          <mxGeometry x="700" y="585" width="60" height="60" as="geometry" />
        </mxCell>
        <mxCell id="T8GNhsfau3V3JD3UEyYj-37" value="" style="edgeStyle=orthogonalEdgeStyle;rounded=0;orthogonalLoop=1;jettySize=auto;html=1;endArrow=none;endFill=0;" edge="1" parent="1" source="T8GNhsfau3V3JD3UEyYj-32" target="T8GNhsfau3V3JD3UEyYj-33">
          <mxGeometry relative="1" as="geometry" />
        </mxCell>
        <mxCell id="T8GNhsfau3V3JD3UEyYj-32" value="&lt;p style=&quot;margin:0px;margin-top:4px;text-align:center;&quot;&gt;&lt;b&gt;Button&lt;/b&gt;&lt;/p&gt;&lt;hr size=&quot;1&quot;&gt;&lt;div style=&quot;height:2px;&quot;&gt;&lt;/div&gt;" style="verticalAlign=top;align=left;overflow=fill;fontSize=12;fontFamily=Helvetica;html=1;" vertex="1" parent="1">
          <mxGeometry x="600" y="670" width="40" height="60" as="geometry" />
        </mxCell>
        <mxCell id="T8GNhsfau3V3JD3UEyYj-33" value="&lt;p style=&quot;margin:0px;margin-top:4px;text-align:center;&quot;&gt;&lt;b&gt;Mediator&lt;/b&gt;&lt;/p&gt;&lt;hr size=&quot;1&quot;&gt;&lt;div style=&quot;height:2px;&quot;&gt;&lt;/div&gt;" style="verticalAlign=top;align=left;overflow=fill;fontSize=12;fontFamily=Helvetica;html=1;" vertex="1" parent="1">
          <mxGeometry x="595" y="584.5" width="50" height="60" as="geometry" />
        </mxCell>
        <mxCell id="T8GNhsfau3V3JD3UEyYj-43" value="&lt;p style=&quot;margin:0px;margin-top:4px;text-align:center;&quot;&gt;&lt;b&gt;Mediator&lt;/b&gt;&lt;/p&gt;&lt;hr size=&quot;1&quot;&gt;&lt;p style=&quot;margin:0px;margin-left:4px;&quot;&gt;{abstract}&lt;/p&gt;&lt;hr size=&quot;1&quot;&gt;&lt;p style=&quot;margin:0px;margin-left:4px;&quot;&gt;+ componentChanged(Component c): void&amp;nbsp;&lt;/p&gt;" style="verticalAlign=top;align=left;overflow=fill;fontSize=12;fontFamily=Helvetica;html=1;" vertex="1" parent="1">
          <mxGeometry x="110" y="790" width="250" height="90" as="geometry" />
        </mxCell>
        <mxCell id="T8GNhsfau3V3JD3UEyYj-44" value="&lt;p style=&quot;margin:0px;margin-top:4px;text-align:center;&quot;&gt;&lt;b&gt;Component&lt;/b&gt;&lt;/p&gt;&lt;hr size=&quot;1&quot;&gt;&lt;p style=&quot;margin:0px;margin-left:4px;&quot;&gt;#mediator:Mediator&lt;/p&gt;&lt;hr size=&quot;1&quot;&gt;&lt;p style=&quot;margin:0px;margin-left:4px;&quot;&gt;+ setMediator(Mediator m): void&lt;/p&gt;&lt;p style=&quot;margin:0px;margin-left:4px;&quot;&gt;+changed():coid&lt;/p&gt;&lt;p style=&quot;margin:0px;margin-left:4px;&quot;&gt;+update():void&amp;nbsp;&lt;/p&gt;" style="verticalAlign=top;align=left;overflow=fill;fontSize=12;fontFamily=Helvetica;html=1;" vertex="1" parent="1">
          <mxGeometry x="450" y="780" width="250" height="100" as="geometry" />
        </mxCell>
        <mxCell id="T8GNhsfau3V3JD3UEyYj-51" style="edgeStyle=orthogonalEdgeStyle;rounded=0;orthogonalLoop=1;jettySize=auto;html=1;entryX=0.5;entryY=1;entryDx=0;entryDy=0;endArrow=block;endFill=0;" edge="1" parent="1" source="T8GNhsfau3V3JD3UEyYj-45" target="T8GNhsfau3V3JD3UEyYj-43">
          <mxGeometry relative="1" as="geometry" />
        </mxCell>
        <mxCell id="T8GNhsfau3V3JD3UEyYj-45" value="&lt;p style=&quot;margin:0px;margin-top:4px;text-align:center;&quot;&gt;&lt;b&gt;ConcreteMediator&lt;/b&gt;&lt;/p&gt;&lt;hr size=&quot;1&quot;&gt;&lt;p style=&quot;margin:0px;margin-left:4px;&quot;&gt;+addButton: Button&lt;/p&gt;&lt;p style=&quot;margin:0px;margin-left:4px;&quot;&gt;+list:List&lt;/p&gt;&lt;p style=&quot;margin:0px;margin-left:4px;&quot;&gt;+useNameTextBox:TextBox&lt;/p&gt;&lt;p style=&quot;margin:0px;margin-left:4px;&quot;&gt;+cb:ComboBox&lt;/p&gt;&lt;hr size=&quot;1&quot;&gt;&lt;p style=&quot;margin:0px;margin-left:4px;&quot;&gt;+ componentChanged(Component c): void&amp;nbsp;&lt;/p&gt;" style="verticalAlign=top;align=left;overflow=fill;fontSize=12;fontFamily=Helvetica;html=1;" vertex="1" parent="1">
          <mxGeometry x="110" y="950" width="250" height="130" as="geometry" />
        </mxCell>
        <mxCell id="T8GNhsfau3V3JD3UEyYj-52" style="edgeStyle=orthogonalEdgeStyle;rounded=0;orthogonalLoop=1;jettySize=auto;html=1;entryX=0.073;entryY=0.997;entryDx=0;entryDy=0;entryPerimeter=0;endArrow=block;endFill=0;" edge="1" parent="1" source="T8GNhsfau3V3JD3UEyYj-46" target="T8GNhsfau3V3JD3UEyYj-44">
          <mxGeometry relative="1" as="geometry" />
        </mxCell>
        <mxCell id="T8GNhsfau3V3JD3UEyYj-56" style="edgeStyle=orthogonalEdgeStyle;rounded=0;orthogonalLoop=1;jettySize=auto;html=1;entryX=0.25;entryY=1;entryDx=0;entryDy=0;endArrow=diamondThin;endFill=0;startArrow=open;startFill=0;" edge="1" parent="1" source="T8GNhsfau3V3JD3UEyYj-46" target="T8GNhsfau3V3JD3UEyYj-45">
          <mxGeometry relative="1" as="geometry">
            <Array as="points">
              <mxPoint x="460" y="1100" />
              <mxPoint x="173" y="1100" />
            </Array>
          </mxGeometry>
        </mxCell>
        <mxCell id="T8GNhsfau3V3JD3UEyYj-46" value="&lt;p style=&quot;margin:0px;margin-top:4px;text-align:center;&quot;&gt;&lt;b&gt;Button&lt;/b&gt;&lt;/p&gt;&lt;hr size=&quot;1&quot;&gt;&lt;div style=&quot;height:2px;&quot;&gt;&lt;/div&gt;&lt;hr size=&quot;1&quot;&gt;&lt;div style=&quot;height:2px;&quot;&gt;+update():void&lt;/div&gt;" style="verticalAlign=top;align=left;overflow=fill;fontSize=12;fontFamily=Helvetica;html=1;" vertex="1" parent="1">
          <mxGeometry x="420" y="950" width="80" height="60" as="geometry" />
        </mxCell>
        <mxCell id="T8GNhsfau3V3JD3UEyYj-53" style="edgeStyle=orthogonalEdgeStyle;rounded=0;orthogonalLoop=1;jettySize=auto;html=1;entryX=0.336;entryY=1.006;entryDx=0;entryDy=0;entryPerimeter=0;endArrow=block;endFill=0;" edge="1" parent="1" source="T8GNhsfau3V3JD3UEyYj-47" target="T8GNhsfau3V3JD3UEyYj-44">
          <mxGeometry relative="1" as="geometry" />
        </mxCell>
        <mxCell id="T8GNhsfau3V3JD3UEyYj-57" style="edgeStyle=orthogonalEdgeStyle;rounded=0;orthogonalLoop=1;jettySize=auto;html=1;entryX=0.5;entryY=1;entryDx=0;entryDy=0;endArrow=diamondThin;endFill=0;startArrow=open;startFill=0;" edge="1" parent="1" source="T8GNhsfau3V3JD3UEyYj-47" target="T8GNhsfau3V3JD3UEyYj-45">
          <mxGeometry relative="1" as="geometry">
            <Array as="points">
              <mxPoint x="570" y="1100" />
              <mxPoint x="235" y="1100" />
            </Array>
          </mxGeometry>
        </mxCell>
        <mxCell id="T8GNhsfau3V3JD3UEyYj-47" value="&lt;p style=&quot;margin:0px;margin-top:4px;text-align:center;&quot;&gt;&lt;b&gt;List&lt;/b&gt;&lt;/p&gt;&lt;hr size=&quot;1&quot;&gt;&lt;div style=&quot;height:2px;&quot;&gt;&lt;/div&gt;&lt;hr size=&quot;1&quot;&gt;&lt;div style=&quot;height:2px;&quot;&gt;+update():void&lt;/div&gt;&lt;div style=&quot;height:2px;&quot;&gt;&lt;br&gt;&lt;/div&gt;&lt;div style=&quot;height:2px;&quot;&gt;&lt;br&gt;&lt;/div&gt;&lt;div style=&quot;height:2px;&quot;&gt;&lt;br&gt;&lt;/div&gt;&lt;div style=&quot;height:2px;&quot;&gt;&lt;br&gt;&lt;/div&gt;&lt;div style=&quot;height:2px;&quot;&gt;&lt;br&gt;&lt;/div&gt;&lt;div style=&quot;height:2px;&quot;&gt;&lt;br&gt;&lt;/div&gt;&lt;div style=&quot;height:2px;&quot;&gt;&lt;br&gt;&lt;/div&gt;&lt;div style=&quot;height:2px;&quot;&gt;+select():void&lt;/div&gt;" style="verticalAlign=top;align=left;overflow=fill;fontSize=12;fontFamily=Helvetica;html=1;" vertex="1" parent="1">
          <mxGeometry x="530" y="950" width="80" height="90" as="geometry" />
        </mxCell>
        <mxCell id="T8GNhsfau3V3JD3UEyYj-54" style="edgeStyle=orthogonalEdgeStyle;rounded=0;orthogonalLoop=1;jettySize=auto;html=1;entryX=0.75;entryY=1;entryDx=0;entryDy=0;endArrow=block;endFill=0;" edge="1" parent="1" source="T8GNhsfau3V3JD3UEyYj-48" target="T8GNhsfau3V3JD3UEyYj-44">
          <mxGeometry relative="1" as="geometry" />
        </mxCell>
        <mxCell id="T8GNhsfau3V3JD3UEyYj-58" style="edgeStyle=orthogonalEdgeStyle;rounded=0;orthogonalLoop=1;jettySize=auto;html=1;entryX=0.75;entryY=1;entryDx=0;entryDy=0;endArrow=diamondThin;endFill=0;startArrow=open;startFill=0;" edge="1" parent="1" source="T8GNhsfau3V3JD3UEyYj-48" target="T8GNhsfau3V3JD3UEyYj-45">
          <mxGeometry relative="1" as="geometry">
            <Array as="points">
              <mxPoint x="670" y="1100" />
              <mxPoint x="297" y="1100" />
            </Array>
          </mxGeometry>
        </mxCell>
        <mxCell id="T8GNhsfau3V3JD3UEyYj-48" value="&lt;p style=&quot;margin:0px;margin-top:4px;text-align:center;&quot;&gt;&lt;b&gt;TextBox&lt;/b&gt;&lt;/p&gt;&lt;hr size=&quot;1&quot;&gt;&lt;div style=&quot;height:2px;&quot;&gt;&lt;/div&gt;&lt;hr size=&quot;1&quot;&gt;&lt;div style=&quot;height:2px;&quot;&gt;+update():void&lt;/div&gt;&lt;div style=&quot;height:2px;&quot;&gt;&lt;br&gt;&lt;/div&gt;&lt;div style=&quot;height:2px;&quot;&gt;&lt;br&gt;&lt;/div&gt;&lt;div style=&quot;height:2px;&quot;&gt;&lt;br&gt;&lt;/div&gt;&lt;div style=&quot;height:2px;&quot;&gt;&lt;br&gt;&lt;/div&gt;&lt;div style=&quot;height:2px;&quot;&gt;&lt;br&gt;&lt;/div&gt;&lt;div style=&quot;height:2px;&quot;&gt;&lt;br&gt;&lt;/div&gt;&lt;div style=&quot;height:2px;&quot;&gt;+setTexte():&lt;/div&gt;" style="verticalAlign=top;align=left;overflow=fill;fontSize=12;fontFamily=Helvetica;html=1;" vertex="1" parent="1">
          <mxGeometry x="630" y="950" width="80" height="90" as="geometry" />
        </mxCell>
        <mxCell id="T8GNhsfau3V3JD3UEyYj-55" style="edgeStyle=orthogonalEdgeStyle;rounded=0;orthogonalLoop=1;jettySize=auto;html=1;entryX=0.975;entryY=1.011;entryDx=0;entryDy=0;entryPerimeter=0;endArrow=block;endFill=0;" edge="1" parent="1" source="T8GNhsfau3V3JD3UEyYj-49" target="T8GNhsfau3V3JD3UEyYj-44">
          <mxGeometry relative="1" as="geometry">
            <Array as="points">
              <mxPoint x="763" y="900" />
              <mxPoint x="694" y="900" />
            </Array>
          </mxGeometry>
        </mxCell>
        <mxCell id="T8GNhsfau3V3JD3UEyYj-59" style="edgeStyle=orthogonalEdgeStyle;rounded=0;orthogonalLoop=1;jettySize=auto;html=1;entryX=0.087;entryY=1.008;entryDx=0;entryDy=0;entryPerimeter=0;endArrow=diamondThin;endFill=0;startArrow=open;startFill=0;" edge="1" parent="1" source="T8GNhsfau3V3JD3UEyYj-49" target="T8GNhsfau3V3JD3UEyYj-45">
          <mxGeometry relative="1" as="geometry">
            <Array as="points">
              <mxPoint x="763" y="1100" />
              <mxPoint x="132" y="1100" />
            </Array>
          </mxGeometry>
        </mxCell>
        <mxCell id="T8GNhsfau3V3JD3UEyYj-49" value="&lt;p style=&quot;margin:0px;margin-top:4px;text-align:center;&quot;&gt;&lt;b&gt;ComboBox&lt;/b&gt;&lt;/p&gt;&lt;hr size=&quot;1&quot;&gt;&lt;div style=&quot;height:2px;&quot;&gt;&lt;/div&gt;&lt;hr size=&quot;1&quot;&gt;&lt;div style=&quot;height:2px;&quot;&gt;+update():void&lt;/div&gt;&lt;div style=&quot;height:2px;&quot;&gt;&lt;br&gt;&lt;/div&gt;&lt;div style=&quot;height:2px;&quot;&gt;&lt;br&gt;&lt;/div&gt;&lt;div style=&quot;height:2px;&quot;&gt;&lt;br&gt;&lt;/div&gt;&lt;div style=&quot;height:2px;&quot;&gt;&lt;br&gt;&lt;/div&gt;&lt;div style=&quot;height:2px;&quot;&gt;&lt;br&gt;&lt;/div&gt;&lt;div style=&quot;height:2px;&quot;&gt;&lt;br&gt;&lt;/div&gt;&lt;div style=&quot;height:2px;&quot;&gt;+select():void&lt;/div&gt;" style="verticalAlign=top;align=left;overflow=fill;fontSize=12;fontFamily=Helvetica;html=1;" vertex="1" parent="1">
          <mxGeometry x="720" y="950" width="86" height="80" as="geometry" />
        </mxCell>
      </root>
    </mxGraphModel>
  </diagram>
</mxfile>
